<svg version="1.2" xmlns="http://www.w3.org/2000/svg" viewBox="0 0 816 1276" width="816" height="1276"><style>.a{fill:#fafafa}.b{fill:#dab248}.c{fill:#b48e2f}.d{fill:#ccc}.e{fill:#adadad}.f{fill:#010101}.g{fill:#32ae32}</style><path class="a" d="m95.3 203.5c5.2-0.5 10.5-0.3 15.7-0.3 201.3-0.1 402.7 0 604 0 15.5-0.5 30.7 6.2 41.7 17.1 12.8 11.8 19.6 29.4 19.1 46.7 0 143 0 286 0 429-0.5 61-0.1 122-0.2 183-0.1 99.7-0.1 199.3-0.1 299 0.5 11.3-3.1 22.4-8.4 32.2-10.2 17.4-28.8 30.2-49.1 31.4-45 0.1-90 0-135 0.1-10 0.6-20 0.1-30-0.1-12 0.3-24-0.4-36 0.3-7.3 1.1-14.7-0.6-22-0.1-11 0.6-22 1-33-0.1-5.4-0.4-10.7 0.8-16 0.7-15.6-1.1-31.4-0.7-47-0.7-7.7-0.4-15.3 1-23 0-6 0.5-12 0.5-18-0.1-12.7 0.3-25.4-0.5-38 0.6-5.7 0.1-11.4-1.2-17-0.3-6.7 0.9-13.3-0.5-20-0.3-7 0.2-14-0.3-21 0.4-4.7 0.4-9.3-0.7-14-0.2-10 0.8-20-0.2-30 0.5-8-1.5-16 0.5-24.1-0.5-5.6-0.5-11.3 0-16.9-0.2-6.3-0.3-12.6 0.9-18.9 0.2-5.1-0.6-10.1 0.7-15.1 0.5-13.6-1.2-27.3-0.4-41-0.6-8.7 0.3-17-2.5-24.8-6.1-9.9-4.7-18.2-12.4-24.5-21.2-7.6-11.2-11.3-24.9-11.2-38.4-0.1-93.3 0-186.6 0-280-0.1-23.3 0.2-46.6-0.3-70-0.1-186.3 0-372.7 0-559-0.5-16.6 5.8-33.4 17.7-45.1 9.5-10.1 22.6-16.8 36.4-18.4zm365.1 61c-7 3.5-11.6 10.3-14.1 17.5-1.7 5.2-1.1 10.7-1.2 16 0 30 0.1 60 0.1 90-0.3 13.5 10.5 25.7 23.6 28.2 11.8 3.2 24.4-3.6 30.7-13.6 4.6-7.4 3.9-16.3 3.8-24.6 0.1-28-0.2-56 0-84 0.1-5.9-0.1-12.1-3.2-17.2-6.1-14.9-26.2-19.6-39.7-12.3zm-132.4 1.5c-9.4 4.9-15.4 15.4-15.3 26 0 32.3 0.1 64.7 0 97-0.6 16.1 14.7 30.8 30.8 29.2 10.8 0.2 20.4-7.5 25-16.8 2.9-5.7 2.2-12.2 2.3-18.3q0.1-46.1 0-92.1c0.1-4.2-0.7-8.5-2.6-12.3v0.9c-1.5-4.6-5-8.2-8.7-11.1-8.8-7-21.7-7.9-31.5-2.5zm-145.6 71c-0.2 31.6 0 63.3-0.1 95 0 3 0 6.1 0.7 9.1 3.1 13 15.8 23.6 29.5 22.3 11.3 0.4 21.8-7.6 26-17.8 2.2-5.2 2.1-11.1 2-16.6-0.1-31.4 0-62.7 0-94-0.3-2.7 0-5.9-1.9-8-4.2-11.8-17.2-19.8-29.6-18.4-14.3 1.1-26.9 13.9-26.6 28.4zm400.7-21c-6 5.6-9.8 13.8-9.6 22.1 0 28.6 0 57.3 0 86 0 5.3-0.4 10.6 0.5 15.9 2.5 13.3 15.1 23.8 28.7 23.4 12.8 0.1 25.8-9.5 28.2-22.4 1.1-6.2 0.5-12.6 0.6-19 0-28 0-56 0-84-0.1-4.2-0.5-8.4-2.3-12.2-2.1-5.1-5.8-9.5-10.4-12.6-10.7-7.4-26.2-6-35.7 2.8zm120.3 50.4c-4.6 7-5 15.5-4.8 23.6 0.2 42.3-0.3 84.7-0.3 127-0.9 70-0.6 140-1 209.9-0.4 6.7-0.7 13.4-0.5 20.1q-0.1 58-0.3 115.9c-0.5 32.4 0.4 64.7-0.8 97.1 0 38.3-0.2 76.7-0.2 115-0.2 9.5 4.7 18.7 12.8 23.7 6.2 4.2 14.2 4.5 21.4 3.5 12.8-1.9 22-14.6 21.9-27.2 0.4-40 0.1-80 0.3-120 0.8-27.4 0.4-54.7 0.5-82 0.5-65.4 0.3-130.7 0.5-196 0.8-44.6 0.5-89.3 0.8-134 0.3-52.3 0-104.6 0.6-157 0.2-4.5 0.7-9.2-1.4-13.5-1.6-7-6.9-13-13.2-16.1-12.4-6.2-29.2-2-36.3 10zm-640.4-2.5c-5.5 6.3-7.3 14.9-7.1 23.1q0.4 140 1.3 280c-0.1 57.3 0.7 114.6 0.5 172 0.3 26.3-0.4 52.7 0.5 79 0.4 56 0.5 112 0.5 168 0.3 16.2 16.5 30.7 32.8 27.1 5.4-0.1 10.4-2.8 14.6-6.1 7.5-6.3 9.9-16.6 10.2-26 0.4-16.7-0.6-33.3-0.6-50-0.3-17-0.4-34-0.5-51 0.1-26-0.7-52-0.7-78-0.2-23-0.1-46-0.3-69-0.7-32.3-0.7-64.6-0.9-96.9 0.1-23.4-0.7-46.7-0.5-70.1-0.3-28.3-0.4-56.6-0.5-85-0.2-15 0.3-30-0.5-45-0.3-32-0.5-64-0.8-96 0.3-18.7-0.7-37.3 0.3-56 0.2-3.5 0.1-7.1-1.2-10.4-2.4-9.4-10.7-16.7-20.2-18.5-9.7-2.3-20.1 1.7-26.9 8.8zm79.6 242c-0.1 57 0.1 114.1 0 171.1 0.2 22.4-0.5 44.7-0.3 67 0.2 22.5-0.3 44.9 0.2 67.3 4.5-4.1 8.2-8.9 12.4-13.3 6.5-7 13-13.8 19.2-21 1.7-2.1 3.9-3.8 6-5.5l0.7 0.8c71.1 0.3 142.2 0.1 213.2 0.2 79.7-0.1 159.3 0 239-0.1 4.4 0.4 8.2-4 7.7-8.3-0.1-71.4 0-142.8-0.1-214.1 0.1-2.5 0-5.1-2-6.8 11.9-12.2 23.7-24.6 35-37.4-125.8-0.1-251.7 0.1-377.6-0.1-51.1 0.2-102.2-0.2-153.4 0.2zm441.5 326.1c-8.5 5.3-15 14.7-14.9 24.9 0 53.7 0.2 107.4 0.1 161.1-0.4 7.5 1.7 15.2 6.9 20.9 5.9 7.7 16 11.1 25.5 10.1l0.5 0.2c8.2-1 15.5-6.1 20-13 3.9-5.5 4.2-12.6 4.3-19.2-0.1-53.3 0.2-106.7 0-160-0.2-2.8 0.2-5.9-1.3-8.3-2.3-10.6-11.7-18.6-22.1-20.5-6.6-1.8-13.4 0.4-19 3.8zm-380.1 1c-10.8 4.9-19.9 15.5-19.6 27.9-0.1 54.4 0 108.7 0 163.1-0.3 7.6 3.3 14.8 8 20.6 3 3.6 7.4 5.7 11.9 7.2 3 1 4.8 3.9 6.9 6.1 5.5 6.5 13 11 20.9 14.2-12-8-22.4-20.2-24.3-34.9-0.2-3.7-0.3-7.5-0.1-11.2 1.4-25.9 27.3-48 53.2-44.5 13.2 1.5 25.8 8.4 33.3 19.4 6.9 8.2 9.7 18.8 10.1 29.3-0.5 10.8-4.1 21.5-11.1 29.8-3.7 5.1-9.3 8.3-13.9 12.3 7.3-2.6 14-7 19.3-12.7 5.6-5.9 11.2-12.1 14-19.9 0 9.1-0.1 18.2 0 27.3 0.1 9.5 4.7 19.5 13.3 24.2 6.4 4 14.2 5.2 21.6 3.9 13.3-1.7 23.2-15.1 22.6-28.2-0.2-42.3 0.2-84.6 0.1-126.9-0.3-14.2 0.4-28.5-0.3-42.8-0.1-0.1-0.3-0.4-0.4-0.5-2.8-15.2-19.6-25.1-34.2-21.4-9.5 2.8-17.4 10.1-20.9 19.3-1.8 4.5-1.8 9.5-1.8 14.4 0 26.4-0.1 52.8 0.1 79.2-3.1-6.5-6.6-13-11.8-18.1-6.4-6.2-13.8-11.5-22.2-14.7-11.6-4.2-24.6-5.4-36.7-2.4-0.7-32-0.1-64-0.2-96 0-2.9-0.7-5.8-2.1-8.4-3.3-7.6-10.1-13.8-18-16.4-5.7-1.4-12.1-1.4-17.7 0.8zm242.8 50.9c-4.2 5.4-6 12.3-6.1 19.1 0 53.7 0.2 107.3 0 161 0 11.3 7.1 22.4 17.7 26.7 5.3 2.6 11.5 2.5 17.2 1.3 12.6-1.5 22.6-13.4 22.6-26.1 0.5-26.3 0-52.6 0.4-78.9-0.3-29.4 0.6-58.7 0.1-88 0-3-0.7-5.8-1.9-8.5-2.5-8.9-10.6-15.6-19.3-18.1-11.3-3.1-24 2-30.7 11.5zm75.1 130c-3.5 2.3-5.1 6.4-7 10.1 1 4.6 0 9.3-0.1 13.9 1.3 4.4 4.5 8.8 9.5 9 0.3 0.3 1.1 0.7 1.5 0.9 3.5 4.5 9.6 6.9 15.1 5.3 7.8-2.2 15.3-7.9 17.2-16.2 2.1-5.9 0.5-12.3-2.2-17.6-4-5.6-10.6-8.4-16.9-10.5-6.2-2-12.2 1.6-17.1 5.1z"/><path class="b" d="m223.7 43.9c0.6-2.8 3.8-3.6 6.3-3.4 24.8 0.1 49.5 0.1 74.2 0.1q1.1 1 2.2 2c0.6 5.6 1 11.3 0.9 17 2.5 1.1 5.4 1.7 7.3 3.8 1.3 3.2-3.1 4-5 5.3 1.6-1.7 2.7-3.8 4-5.7-14.2-1.2-28.3 1.6-42.5 1.7-13.4 0-26.7 2-40.1 1.9-3.6 0.1-7.2-0.1-10.8 0.2 1-0.8 1.9-1.7 2.9-2.6 0.9-6.7-0.3-13.5 0.6-20.3z"/><path class="b" d="m277 70.8c10.2-1 20.6 0.2 30.7-1.5 0.3 0.4 0.9 1.4 1.2 1.8 0.5 1.1 1.1 2.2 1.6 3.3-11.2-0.4-22.3 0.6-33.5 1.4-18.5-0.4-36.9 3.1-55.4 1.8 0.3-0.3 1.1-0.9 1.5-1.2 1.2-0.8 2.2-1.9 3.6-2.4 16.7-1.9 33.6-1.1 50.3-3.2z"/><path class="b" d="m268 83c12.9-1.4 25.8-1.8 38.8-1.8 1.2 0.1 2.2 0.8 2.9 1.7 0.9 0.9 1.7 1.9 2.6 2.7-13.4-0.8-26.8 2.1-40.3 1.6-11-0.4-22 2.3-33 1.5-5.9-0.4-11.8 0.6-17.7 0.1q1.3-0.8 2.6-1.6c-0.1-0.5-0.3-1.4-0.5-1.8 7.9 0.5 15.8-1.2 23.6-1.6 7-0.5 14-0.1 21-0.8z"/><path class="b" d="m274.4 93.6c11-1.1 22-0.6 33-1.5 1.9 1.3 3.8 2.8 5.7 4.2-8.7-0.5-17.4 0.9-26.1 1.5-11.9 0.8-24 0.3-35.9 1.6-10.4 0.7-20.9 0.8-31.3 1.3q1.6-0.8 3.2-1.6c0.6-0.8 0.8-1.7 0.1-2.5 8 0.6 16-1.1 24-1.5 9.1-0.1 18.2-0.2 27.3-1.5z"/><path class="b" d="m287.9 104.1c6.5-0.2 12.9-0.5 19.3-0.5 2.5 1.9 6 2.8 7.8 5.5-0.4 3.7-5 4.2-7.6 5.7 1.8-1.8 5.8-3.5 4.9-6.6-9-1.7-18.1 0.2-27.1 0.9-8 1.3-16 0.2-24 1-13.6 1-27.3 1.3-40.9 1.8q1.1-0.5 2.3-1c0-0.7 0.2-2.3 0.3-3.1 10 0.4 20-1.6 30.1-1.5 11.7 0 23.3-2.3 34.9-2.2z"/><path class="b" d="m272.9 116.1c11.4-1.1 23-0.4 34.5-1.3 2.9 2.1 6 3.9 8.8 6.1-2.1 2.1-4.7 3.6-7.4 4.9 2.5-1.4 3.8-4 6-5.8-12.9-1.4-25.9-0.3-38.8 0.7-8 0-16 0.1-24 0.9-9.4 1-18.9 1-28.3 1q-0.3-1.6-0.5-3.3c7.7 0.4 15.2-1.1 22.8-1.4 9-0.4 17.9-0.9 26.9-1.8z"/><path class="b" d="m237 130c8.2-1.6 16.6-2.3 24.9-2.8 8.8-0.5 17.5 1.4 26 3.2 3.6 0.7 6.9 2.1 10.2 3.6-0.3 5.9 0.8 11.9-0.3 17.8-3.4 3.3-8.4 3.9-12.9 4.9-7.3 0.9-14.5 3-21.9 2.7-7.4 0.1-14.6-1.2-21.9-2.2-4.8-0.9-9.7-1.8-13.9-4.4-2.1-1.1-1.5-3.9-1.7-5.8 0.1-4.3-0.4-8.6 0.5-12.8 3.2-2.4 7.2-3.3 11-4.2z"/><path class="b" d="m306.7 158.9c7.3 0.5 14.8 0.8 22.1-0.5 2.2 0.2 4.5 0.5 6.8 0.7q-0.2 7.8 0.7 15.5c1.9 1.2 3.7 2.5 5.5 3.8l0.8 0.5q-0.5 1.9-0.9 3.9c-11.7-0.5-23.5 1-35.1-1.2-0.2-7.5-0.2-15.1 0.1-22.7z"/><path class="b" d="m214.9 159c3.4 0 6.8 0 10.3 0q0 11.3-0.2 22.6c21.5 0.1 42.9-0.1 64.4 0 0.2-7.5 0-15.1 0.1-22.6q5.9 0 11.8 0c0.2 7.8 0.3 15.7 0 23.6-7.1-0.4-14.2 0.8-21.3 0.8-15.7-0.2-31.4-0.1-47 0-6-0.1-12-1-18-0.8-0.1-7.9-0.3-15.7-0.1-23.6z"/><path class="c" d="m271.1 64.7c14.2-0.1 28.3-2.9 42.5-1.7-1.3 1.9-2.4 4-4 5.7-0.5 0.2-1.4 0.4-1.9 0.6-10.1 1.7-20.5 0.4-30.7 1.5-16.7 2.1-33.6 1.3-50.3 3.2-1.4 0.5-2.4 1.6-3.6 2.4l-0.3-0.3c-0.8-2.8-4.5-3-6.4-4.9-0.8-2.5 1.8-4 3.8-4.4 3.6-0.3 7.2-0.1 10.8-0.2 13.4 0.1 26.7-1.9 40-1.9z"/><path class="c" d="m308.9 71.1q2.9 1.6 5.8 3c0.4 4.4-4.8 5.6-7.9 7.1-13 0-25.9 0.4-38.8 1.8-7 0.7-14 0.3-21 0.8-7.8 0.4-15.6 2.1-23.6 1.6-2.2-0.7-4.4-1.4-6.6-2.3-1.8-3.2 2.3-4.1 4.3-5.5h0.5c18.5 1.3 36.9-2.2 55.4-1.8 11.2-0.8 22.3-1.8 33.5-1.4-0.5-1.1-1.1-2.2-1.6-3.3z"/><path class="c" d="m272 87.2c13.5 0.5 26.9-2.4 40.3-1.6 0.5 0.4 1.3 1.1 1.8 1.4q-1.3 1.8-2.5 3.6c-1.3 0.7-2.8 1.1-4.2 1.5-11 0.9-22 0.4-33 1.5-9.1 1.3-18.2 1.4-27.3 1.5-8 0.4-16 2.1-24 1.5-3.1-0.1-6.5-1.8-7-5.1 1.7-0.9 3.5-1.8 5.2-2.7 5.9 0.5 11.8-0.5 17.7-0.1 11 0.8 22-1.9 33-1.5z"/><path class="c" d="m287 97.8c8.7-0.6 17.4-2 26.1-1.5 0.5 0 1.4-0.1 1.9-0.1 0.6 4.6-4.4 6.1-7.8 7.4-6.5 0-12.8 0.3-19.3 0.5-11.7-0.1-23.2 2.2-34.9 2.2-10.1-0.1-20.1 1.9-30.1 1.5-2.7-0.2-7-1.7-6.3-5.1 0.9-0.8 2-1.5 3.2-2 10.4-0.5 20.9-0.6 31.3-1.3 11.9-1.3 24-0.9 35.9-1.6z"/><path class="c" d="m285.2 109.1c9-0.7 18.1-2.6 27.1-0.9 0.9 3.1-3.1 4.8-4.9 6.6-11.5 0.9-23.1 0.2-34.5 1.3-9 0.9-17.9 1.4-26.9 1.8-7.6 0.3-15.1 1.8-22.8 1.4-2.5-0.5-5.1-1.3-6.8-3.3-0.4-2.3 2.1-3.4 3.9-4.1 13.6-0.5 27.3-0.8 40.9-1.8 8-0.8 16 0.3 24-1z"/><path class="c" d="m276 120.7c12.9-1 25.9-2.1 38.8-0.7-2.2 1.8-3.5 4.4-6 5.8-6.5 1.4-13.2 0.6-19.7 0.6 9.3 0.8 18.6-0.2 27.9 0.2 6.9-0.4 14.1 1.6 19.3 6.4 0.8 6.9 0.2 14.1 0.1 21.1l-1.3 0.8c-2.1 1.2-4.2 2.4-6.3 3.5-7.3 1.3-14.8 1-22.1 0.5-0.3 7.6-0.3 15.2-0.1 22.7 0.1 0.3 0.1 0.9 0.1 1.2q-2.7-0.1-5.4-0.2c0.3-7.9 0.2-15.8 0-23.6q-5.9 0-11.8 0c-0.1 7.5 0.1 15.1-0.1 22.6-21.5-0.1-42.9 0.1-64.4 0q0.2-11.3 0.2-22.6c-3.4 0-6.9 0-10.3 0-0.2 7.9 0 15.7 0.1 23.6-8.6 0.2-17.3 0.1-25.9 0.1-0.1-1.8-0.8-3.8-0.2-5.6 1.4-3 4.7-4.7 5.4-8.1 0.7-3.6 1.4-7.2 2.3-10.7 0.9 0.1 2.8 0.4 3.7 0.5-3.8-1.1-8.1-2.4-10.4-5.9-0.6-6.4-0.6-12.9 0-19.3 6.7-6.6 16.5-7.5 25.4-7.1 2.6-1.6 5.2-3.7 8.4-3.9 9.4 0 18.9 0 28.3-1 8-0.9 16-0.9 24-0.9zm-39 9.3c-3.8 0.9-7.8 1.8-11 4.2-0.9 4.2-0.4 8.5-0.5 12.8 0.2 1.9-0.4 4.7 1.7 5.8 4.2 2.6 9.2 3.5 13.9 4.3 7.3 1.1 14.5 2.4 21.9 2.3 7.4 0.3 14.6-1.8 21.9-2.7 4.5-1 9.5-1.6 12.9-4.9 1.1-5.9 0-11.9 0.3-17.8-3.3-1.5-6.6-2.9-10.1-3.6-8.6-1.8-17.3-3.7-26.1-3.2-8.3 0.5-16.7 1.2-24.9 2.8z"/><path class="d" d="m216.8 83.1c2.2 0.9 4.4 1.6 6.6 2.3 0.2 0.5 0.4 1.4 0.5 1.8q-1.3 0.8-2.6 1.6c-1.7 0.9-3.5 1.8-5.2 2.7 1.7-1.6 3.2-3.6 5-5.2-1.3-1.2-2.7-2.4-4.3-3.2z"/><path class="d" d="m328.8 158.4c2.1-1.1 4.2-2.3 6.3-3.5 1.8 4.5 2.3 9.3 2.1 14.1-0.6 3.8 2.3 6.8 4.6 9.4-1.8-1.3-3.6-2.6-5.5-3.8q-0.9-7.7-0.7-15.5c-2.3-0.2-4.6-0.5-6.8-0.7z"/><path class="d" d="m342.6 178.9q0.3 2 0.7 4c51.9 0.3 103.8 0 155.7 0.2 13.5-0.3 27 0.3 40.4-0.2 15-0.1 30 0 45 0 10.5 0.4 21.1 0 31.6 0 12.6 0 25.1 0.2 37.7-0.1 15.3 0.1 30.6 0 45.9 0 10.5 0.5 21-0.6 31.4 0.9 13.1 2.6 25.5 8.9 35.3 18 13.5 13 20.6 31.7 20.9 50.3-0.1 308.7 0 617.3 0 926 0 8.4 0.1 17-1.7 25.3-3.6 14.9-11.6 29-23.8 38.4-8.5 6.7-18.5 11.4-29 13.8-7.5 1.7-15.1 1.2-22.7 1.3-204.6-0.1-409.3 0-614 0-26.5 0.4-53.3-15.3-63.8-40.1-5.1-11.1-6.4-23.6-6-35.7 0-309.7-0.1-619.3-0.1-929 0.2-14.2 4.3-28.7 12.6-40.4 10.3-15 27.1-25.2 45.1-28 9.3-1.2 18.8-0.4 28.2-0.6 13.7 0.1 27.3 0.2 41 0 12 0 24.1 0.3 36.1-0.3 8.6 0 17.3 0.1 25.9-0.1 6-0.2 12 0.7 18 0.8 15.7-0.1 31.3-0.2 47 0 7.1 0 14.2-1.2 21.3-0.8q2.7 0.1 5.4 0.2c0-0.3 0-0.9-0.1-1.2 11.6 2.2 23.4 0.7 35.1 1.2q0.4-2 0.9-3.9zm-247.3 24.6c-13.8 1.6-26.9 8.3-36.4 18.4-11.9 11.7-18.2 28.5-17.7 45.1 0 186.3-0.1 372.7 0 559 0.5 23.4 0.2 46.7 0.3 70 0 93.4-0.1 186.7 0 280-0.1 13.5 3.6 27.2 11.2 38.4 6.3 8.8 14.6 16.5 24.5 21.2 7.8 3.6 16.1 6.4 24.8 6.1 13.7 0.2 27.4-0.6 41 0.6 5 0.2 10-1.1 15.1-0.5 6.3 0.7 12.6-0.5 18.9-0.2 5.6 0.2 11.3-0.3 16.9 0.2 8.1 1 16.1-1 24.1 0.5 10-0.7 20 0.3 30-0.5 4.7-0.5 9.3 0.6 14 0.2 7-0.7 14-0.2 21-0.4 6.7-0.2 13.3 1.2 20 0.3 5.6-0.9 11.3 0.4 17 0.3 12.6-1.1 25.3-0.3 37.9-0.6 6.1 0.6 12.1 0.6 18.1 0.1 7.7 1 15.3-0.4 23 0 15.6 0 31.4-0.4 47 0.7 5.3 0.1 10.6-1.1 16-0.6 11 1 22 0.6 33 0 7.3-0.5 14.7 1.2 22 0.1 12-0.7 24 0 36-0.3 10 0.2 20 0.7 30 0.1 45-0.1 90 0 135-0.1 20.3-1.2 38.9-14 49.1-31.4 5.3-9.8 8.9-20.9 8.4-32.2 0-99.7 0-199.3 0.1-299 0.1-61-0.3-122 0.2-183 0-143 0-286 0-429 0.5-17.3-6.3-34.9-19.1-46.7-11-10.9-26.2-17.6-41.7-17.1-201.3 0-402.7-0.1-604 0-5.2 0-10.5-0.2-15.7 0.3z"/><path class="d" d="m460.2 277.3c6.6-6.7 16.8-10.6 26-7.7 5.7 1.4 9.9 5.6 14.1 9.5-0.1-0.6-0.2-1.7-0.2-2.3 3.1 5.1 3.3 11.3 3.2 17.2-0.2 28 0.1 56 0 84 0.1 8.3 0.8 17.2-3.8 24.6-6.3 9.9-18.9 16.8-30.7 13.6 1.8-0.1 3.6-0.2 5.4-0.3-6-2.7-12.4-5.2-16.4-10.6-3.9-5.3-4.5-12-4.5-18.3-0.1-29.7-0.2-59.3 0.1-89 0.1-7.3 1.4-15.3 6.8-20.7z"/><path class="d" d="m325.3 282.4c5.3-8.9 16.3-13.7 26.5-12.1 6.7 1.2 11.9 5.8 16.4 10.7 0-0.4 0-1.1 0-1.4v-0.9c1.9 3.8 2.7 8.1 2.6 12.3q0.1 46 0 92.1c-0.1 6.1 0.6 12.6-2.3 18.3-4.6 9.3-14.2 17-25 16.8-6.8-2.7-14.3-5.6-18.5-12.1-4.2-6.2-4.2-13.9-4.2-21.1 0-28 0-56 0.1-84 0-6.4 0.8-13.1 4.4-18.6z"/><path class="d" d="m193.9 330c5-9.9 16.8-14.8 27.5-13.4 6.9 0.9 12.2 6 17.2 10.4 1.9 2.1 1.6 5.3 1.9 8 0 31.3-0.1 62.6 0 94 0.1 5.5 0.2 11.4-2 16.6-4.2 10.2-14.7 18.2-26 17.8-7-2.5-14-6.3-18.3-12.6-3.2-4.6-3.4-10.4-3.5-15.8 0-27.3-0.1-54.7 0-82 0.1-7.7-0.3-15.9 3.2-23z"/><path class="d" d="m602.6 316.6c6-1.8 12.5-0.2 17.8 2.9 3.6 2.2 6 5.6 8.7 8.6 0-0.5 0.1-1.7 0.1-2.3 1.8 3.8 2.2 8 2.3 12.2 0 28 0 56 0 84-0.1 6.4 0.5 12.8-0.6 19-2.4 12.9-15.4 22.5-28.2 22.4-5.3-2.3-10.8-4.9-14.7-9.3-4.7-4.8-6.5-11.6-6.5-18.2 0-28.3 0-56.6 0.1-84.9 0.1-7.4-0.1-15.1 3.5-21.8 3.5-6.6 10.4-10.6 17.5-12.6z"/><path class="d" d="m717.2 368.2c8.1-6.6 20.6-6.6 29-0.4 2.7 2 4.7 4.8 6.8 7.3 0-0.6-0.1-1.9-0.1-2.6 2.1 4.3 1.6 9 1.4 13.6-0.6 52.3-0.3 104.6-0.7 156.9-0.3 44.7 0.1 89.4-0.7 134-0.2 65.3 0 130.6-0.5 196-0.1 27.3 0.3 54.6-0.5 82-0.2 40 0.1 80-0.3 120 0.1 12.6-9.1 25.3-21.9 27.2-9.2-0.7-18.9-5-23.3-13.5-3.5-6.3-3.1-13.7-3.1-20.7 0-43.7 0.4-87.3 0.5-131 0.7-54.6 1.1-109.3 1-164 0.4-44.3 1-88.6 1-133 0.7-55.6 0.7-111.3 1.1-167 0.2-21.3 0.9-42.6 0.7-64 0.1-8-0.4-16 0.1-24 0.5-6.7 4.4-12.7 9.5-16.8z"/><path class="d" d="m87.4 364.4c9-0.8 18.2 3.7 22.9 11.5-0.1-0.6-0.1-1.8-0.2-2.3 1.2 3.3 1.4 6.9 1.2 10.4-1.1 18.7 0 37.3-0.3 56 0.3 32 0.5 64 0.8 96 0.8 15 0.3 30 0.5 45 0.1 28.4 0.2 56.7 0.5 85-0.2 23.4 0.6 46.7 0.5 70.1 0.2 32.3 0.2 64.6 0.9 96.9 0.2 23 0.1 46 0.3 69 0 26 0.8 52 0.7 78 0 17 0.2 34 0.5 51 0 16.7 1 33.3 0.6 50-0.3 9.4-2.7 19.7-10.2 26-4.2 3.3-9.2 6-14.6 6.1-6.4-1.6-12.7-4.5-17-9.6-4.7-4.9-6.3-11.9-6.3-18.5-0.5-48.7-1-97.4-1-146 0.1-52-0.5-104-0.5-156-0.6-25.7-0.3-51.4-0.5-77 0.2-36.4-0.4-72.7-0.3-109-0.8-67.7-0.7-135.3-0.8-203 0.1-4.7 0.2-9.5 2-13.8 3.5-8.2 11.3-14.7 20.3-15.8z"/><path class="d" d="m142.6 605.9c51.2-0.4 102.3 0 153.4-0.1 125.9 0.1 251.8-0.1 377.6 0-11.3 12.8-23.1 25.2-35 37.4-1.8-1.6-4.2-2.5-6.6-2.4q-223 0-446 0c-4.4-0.5-9.8 2.3-9.5 7.3-0.2 71.6 0 143.3-0.1 214.9-0.4 3.4 1 6.5 3.7 8.5-2.2 1.7-4.3 3.4-6 5.5-6.2 7.2-12.7 14-19.2 21-4.2 4.4-7.9 9.2-12.4 13.3-0.5-22.4 0-44.8-0.2-67.3-0.2-22.3 0.5-44.6 0.3-67 0.1-57-0.1-114.1 0-171.1z"/><path class="d" d="m581.6 947.6c4.6-7.9 14.1-11.5 22.8-12.1 9-0.2 15.7 6.6 20.8 13.2 1.5 2.4 1.1 5.5 1.3 8.3 0.1 53.3-0.1 106.7 0 160-0.1 6.6-0.4 13.7-4.3 19.2-4.5 6.9-11.8 12-20 13l-0.5-0.2c-4.1-1.9-8.4-3.2-12.3-5.4-6.9-4.5-12-12.2-11.9-20.6 0.1-50.3 0-100.7 0.2-151 0.2-8.2-0.3-17 3.9-24.4z"/><path class="d" d="m197 951c4.7-7.9 14.1-12 23-12.1 8.6 0.5 15.4 6.5 20.1 13.2-0.1-0.8-0.3-2.6-0.4-3.5 1.4 2.6 2.1 5.5 2 8.4 0.2 32-0.4 64 0.3 96-9.3 2.7-18.4 6.9-26.1 12.9-8.6 6.7-14.3 16.5-18.4 26.5-4 9.3-4.5 19.6-3.7 29.6 0.6 7.4 3.6 14.3 6 21.2-2-2.3-4.3-4.7-5.2-7.7-2.2-7.3-2.2-15-2.3-22.5 0.5-47 0.2-94 0.4-141 0.1-7.2 0.6-14.7 4.3-21z"/><path class="d" d="m461.6 983.6c7.7-4.3 17.7-5.7 25.5-0.8 4.6 2.2 7.5 6.6 9.7 11.1q0-1.7 0-3.4c1.2 2.7 1.9 5.5 1.9 8.5 0.5 29.3-0.4 58.6-0.1 88-0.4 26.3 0.1 52.6-0.4 78.9 0 12.7-10 24.6-22.6 26.1-4.7-0.8-9.4-1.7-13.7-3.8-7.9-4.7-12.7-14-12.7-23.2 0-23 0.2-46 0.3-69 0.5-31-0.1-62 0.8-93 0.3-7.8 4.4-15.5 11.3-19.4z"/><path class="d" d="m327.2 992.4c6.1-8.5 18.1-12.1 27.9-8.6 6.3 2.3 10.4 7.8 14.4 12.9 0.1 0.1 0.3 0.4 0.4 0.5 0.7 14.3 0 28.6 0.3 42.8 0.1 42.3-0.3 84.6-0.1 126.9 0.6 13.1-9.3 26.5-22.6 28.2-6.5-0.8-13.1-3-17.9-7.7-5.4-4.9-8.2-12.1-8.4-19.3-0.2-25 0.4-50.1-0.3-75.1 0.7-27.7 0-55.4 0.4-83 0-6.4 1.8-12.8 5.9-17.6z"/><path class="d" d="m227 1071c7.8-5.6 17.5-7.9 27-8.6 12.4-0.8 24.6 3.9 34.4 11.2 10.2 8.9 17.4 21.7 18.1 35.4 0.7 7.2-1.2 14.2-2.2 21.2-0.4-10.5-3.2-21.1-10.1-29.3-7.5-11-20.1-17.9-33.3-19.4-25.9-3.5-51.8 18.6-53.2 44.5-0.3 3.7-0.1 7.5 0.1 11.2-0.6-9.8-4.2-19.3-2.9-29.2 1.5-14.7 10-28.4 22.1-37z"/><path class="d" d="m521.9 1113.9c4.9-3.5 10.9-7.1 17.1-5.1 6.3 2.1 12.9 4.9 16.9 10.5 2.6 5.3 4.3 11.7 2.2 17.6-1.9 8.2-9.4 14-17.2 16.2-5.5 1.6-11.6-0.8-15.1-5.3 5.7 2.4 12.2 3.7 18.1 1.3 9.1-3.1 14.4-13.9 11.9-23.1-2.2-8.3-10-15.2-18.8-15.4-10.9-0.4-21 9.5-20.6 20.4-0.2 6.3 3.2 12 7.9 15.9-5-0.2-8.2-4.6-9.5-9 0.1-4.6 1.1-9.3 0.1-13.9 1.9-3.7 3.5-7.8 7-10.1z"/><path class="e" d="m309.7 82.9c2.6 0.7 4.7 2.3 6.4 4.1-1.4 1.3-3 2.4-4.5 3.6q1.2-1.8 2.5-3.6c-0.5-0.3-1.3-1-1.8-1.4-0.9-0.8-1.7-1.8-2.6-2.7z"/><path class="e" d="m460.4 264.5c13.5-7.3 33.6-2.6 39.7 12.3 0 0.6 0.1 1.7 0.2 2.3-4.2-3.9-8.4-8.1-14.1-9.5-9.2-2.9-19.4 1-26 7.7-5.4 5.4-6.7 13.4-6.8 20.7-0.3 29.7-0.2 59.3-0.1 89 0 6.3 0.6 13 4.5 18.3 4 5.4 10.4 7.9 16.4 10.6-1.8 0.1-3.6 0.2-5.4 0.3-13.1-2.5-23.9-14.7-23.6-28.2 0-30-0.1-60-0.1-90 0.1-5.3-0.5-10.8 1.2-16 2.5-7.2 7.2-14 14.1-17.5z"/><path class="e" d="m328 266c9.8-5.4 22.7-4.5 31.5 2.5 3.7 2.9 7.2 6.5 8.7 11.1 0 0.3 0 1 0 1.3-4.5-4.8-9.7-9.4-16.4-10.6-10.2-1.6-21.2 3.2-26.5 12.1-3.6 5.5-4.4 12.2-4.4 18.6-0.1 28-0.1 56-0.1 84 0 7.1 0 14.9 4.2 21.1 4.2 6.5 11.7 9.4 18.5 12.1-16.1 1.6-31.4-13.1-30.8-29.2 0.1-32.3 0-64.7 0-97-0.1-10.6 5.9-21.1 15.3-26z"/><path class="e" d="m182.4 337c-0.3-14.5 12.3-27.3 26.6-28.4 12.4-1.4 25.3 6.6 29.6 18.4-5-4.4-10.3-9.5-17.2-10.4-10.7-1.4-22.5 3.5-27.5 13.4-3.5 7.1-3.1 15.3-3.2 23-0.1 27.3 0 54.7 0 82 0.1 5.4 0.3 11.2 3.5 15.8 4.3 6.3 11.3 10.1 18.3 12.6-13.7 1.3-26.4-9.3-29.5-22.3-0.7-3-0.7-6.1-0.7-9.1 0-31.7-0.1-63.4 0.1-95z"/><path class="e" d="m583.1 316c9.5-8.8 25-10.2 35.7-2.8 4.6 3.1 8.3 7.5 10.4 12.6 0 0.6-0.1 1.8-0.1 2.3-2.7-3-5.1-6.4-8.7-8.5-5.3-3.2-11.8-4.8-17.8-3-7.1 2-14 6-17.5 12.6-3.6 6.7-3.4 14.4-3.5 21.8-0.1 28.3-0.1 56.6-0.1 84.9 0 6.6 1.8 13.4 6.5 18.2 3.9 4.4 9.4 7 14.7 9.3-13.6 0.4-26.2-10.1-28.7-23.4-0.9-5.3-0.5-10.6-0.5-15.9 0-28.7 0-57.4 0-86-0.2-8.3 3.6-16.5 9.6-22.1z"/><path class="e" d="m703.4 366.4c7.1-11.9 23.9-16.2 36.3-10 6.3 3.1 11.6 9.1 13.2 16.1 0 0.7 0.1 2 0.1 2.6-2.1-2.5-4.1-5.3-6.7-7.3-8.5-6.2-20.9-6.2-29.1 0.4-5.1 4.1-9 10.1-9.4 16.8-0.6 8-0.1 16-0.2 24 0.2 21.4-0.5 42.7-0.7 64-0.4 55.7-0.4 111.4-1.1 167 0 44.4-0.6 88.7-1 133 0.1 54.7-0.3 109.4-1 164 0 43.7-0.5 87.3-0.5 131 0 7-0.4 14.4 3.1 20.7 4.5 8.5 14.1 12.8 23.3 13.5-7.2 1-15.2 0.7-21.4-3.5-8.1-5-13-14.2-12.8-23.7 0-38.3 0.2-76.7 0.2-115 1.2-32.4 0.3-64.7 0.8-97.1q0.2-57.9 0.3-115.9c-0.2-6.7 0.1-13.4 0.5-20.1 0.4-69.9 0.1-139.9 1-209.9 0-42.3 0.5-84.7 0.3-127-0.2-8 0.2-16.6 4.8-23.6z"/><path class="e" d="m63 363.9c6.8-7.1 17.2-11.1 26.9-8.8 9.4 1.8 17.8 9.1 20.2 18.5 0.1 0.5 0.1 1.7 0.2 2.3-4.7-7.8-13.9-12.3-22.9-11.5-9 1.1-16.8 7.6-20.3 15.8-1.8 4.3-1.9 9.1-2 13.8 0.1 67.7 0 135.3 0.8 203-0.1 36.3 0.5 72.6 0.3 109 0.2 25.6-0.1 51.3 0.5 77 0 52 0.6 104 0.5 156 0 48.6 0.5 97.3 1 146 0 6.6 1.6 13.6 6.3 18.5 4.3 5.1 10.6 8 17 9.6-16.3 3.7-32.5-10.9-32.8-27.1 0-56-0.1-112-0.5-168-0.9-26.3-0.2-52.7-0.5-79 0.2-57.4-0.6-114.7-0.6-172q-0.8-140-1.2-280c-0.3-8.2 1.6-16.7 7.1-23z"/><path class="e" d="m584.1 932c5.6-3.4 12.4-5.6 19-3.8 10.4 1.9 19.8 9.9 22.1 20.5-5.1-6.6-11.8-13.4-20.8-13.2-8.7 0.6-18.2 4.2-22.8 12.1-4.2 7.4-3.7 16.2-3.9 24.4-0.2 50.3-0.1 100.7-0.2 151-0.1 8.4 5 16.1 11.9 20.6 3.9 2.2 8.2 3.5 12.3 5.4-9.5 1-19.6-2.4-25.5-10.1-5.2-5.7-7.3-13.4-6.9-20.9 0.1-53.7-0.1-107.4-0.1-161.1-0.1-10.2 6.4-19.5 14.9-24.9z"/><path class="e" d="m204 933c5.6-2.2 12-2.2 17.7-0.8 7.9 2.6 14.7 8.8 18 16.4 0.1 0.9 0.3 2.7 0.4 3.5-4.7-6.7-11.5-12.7-20.1-13.2-8.9 0.1-18.3 4.2-23 12.1-3.7 6.3-4.2 13.8-4.3 21-0.2 47 0.1 94-0.4 141 0.1 7.5 0.1 15.2 2.3 22.5 0.9 3 3.2 5.4 5.2 7.7-2.4-6.9-5.4-13.8-6-21.2-0.8-10-0.3-20.3 3.7-29.6 4.1-10 9.8-19.8 18.4-26.5 7.7-6 16.8-10.2 26.1-12.9 12.1-3 25.1-1.8 36.7 2.4 8.4 3.2 15.8 8.5 22.2 14.7 5.2 5.2 8.7 11.6 11.8 18.1-0.2-26.4-0.1-52.8-0.1-79.2 0-4.9 0-9.9 1.8-14.4 3.5-9.2 11.4-16.5 20.9-19.3 14.6-3.7 31.4 6.2 34.1 21.4-3.9-5.1-8-10.6-14.3-12.9-9.8-3.5-21.8 0.1-27.9 8.6-4.1 4.8-5.9 11.2-5.9 17.6-0.4 27.6 0.3 55.3-0.4 83 0.7 25 0.1 50.1 0.3 75.1 0.2 7.2 3 14.4 8.4 19.3 4.8 4.7 11.4 6.9 17.9 7.7-7.4 1.3-15.2 0.1-21.6-3.9-8.6-4.7-13.2-14.7-13.3-24.2-0.1-9.1 0-18.2 0-27.3-2.8 7.8-8.4 14-14 19.9-5.3 5.7-12 10.1-19.3 12.7 4.6-4 10.2-7.2 13.9-12.3 7-8.3 10.6-19 11.1-29.8 1-7 2.9-14 2.2-21.2-0.7-13.7-7.9-26.5-18.1-35.4-9.8-7.3-22-12-34.4-11.2-9.5 0.7-19.2 3-27 8.6-12.1 8.6-20.6 22.3-22.1 37-1.3 9.9 2.3 19.4 2.9 29.2 1.9 14.7 12.3 26.9 24.3 34.9-7.9-3.2-15.4-7.7-20.9-14.2-2.1-2.2-3.9-5.1-6.9-6.1-4.5-1.5-8.9-3.5-12-7.2-4.6-5.8-8.2-13-7.9-20.6-0.1-54.4-0.1-108.7 0-163.1-0.3-12.4 8.8-23 19.6-27.9z"/><path class="e" d="m446.8 983.9c6.6-9.5 19.4-14.6 30.6-11.5 8.8 2.5 16.9 9.2 19.4 18.1q0 1.7 0 3.4c-2.2-4.5-5.1-8.9-9.7-11.1-7.8-4.9-17.8-3.5-25.5 0.8-6.9 3.9-11 11.6-11.3 19.4-0.9 31-0.3 62-0.8 93-0.1 23-0.3 46-0.3 69 0 9.2 4.8 18.5 12.7 23.2 4.3 2.1 9 3 13.7 3.8-5.7 1.2-11.9 1.3-17.2-1.3-10.6-4.3-17.7-15.4-17.7-26.7 0.2-53.7 0-107.3 0-161 0.1-6.8 1.9-13.7 6.1-19.1z"/><path class="f" d="m568.1 107.5c7.4-2.5 15.3-1.7 22.9-1.8 24 0.1 48 0 72 0 9 0.1 17.9 3.5 24.5 9.7 7.8 6.8 12 17.2 12 27.5 0.1 13.3 0.1 26.6 0.1 39.9-15.3 0-30.6 0.1-45.9 0 0-7.7 0.2-15.5-0.1-23.2-0.1-6-5.6-11.1-11.6-10.8q-22.5-0.1-45.1 0.1c-6.4-0.1-12.6 5.5-12.5 12.1-0.2 7.3 0.1 14.6 0 21.9-15 0-30-0.1-45 0 0-12.6-0.1-25.2 0.2-37.9 0.4-16.8 12.4-32.8 28.5-37.5z"/><path class="f" d="m176.5 648.1c-0.3-5 5.1-7.8 9.5-7.3q223 0 446 0c2.4-0.1 4.8 0.8 6.6 2.4 2 1.7 2.1 4.3 2 6.8 0.1 71.3 0 142.7 0 214.1 0.6 4.3-3.2 8.7-7.6 8.3-79.7 0.1-159.3 0-239 0.1-71.1-0.1-142.1 0.1-213.2-0.2l-0.8-0.8c-2.6-2-4-5.1-3.6-8.5 0.1-71.6-0.1-143.3 0.1-214.9z"/><path class="g" d="m516.4 1131c-0.4-10.9 9.7-20.8 20.6-20.4 8.8 0.2 16.6 7.1 18.8 15.4 2.5 9.2-2.8 20-11.9 23.1-5.9 2.4-12.4 1.1-18.1-1.3-0.4-0.2-1.2-0.6-1.5-0.9-4.7-3.9-8.1-9.6-7.9-15.9z"/></svg>