<svg version="1.2" xmlns="http://www.w3.org/2000/svg" viewBox="0 0 253 509" width="253" height="509"><style>.a{fill:#cba90c}.b{fill:#fd0}.c{fill:#171717}.d{fill:#e7ba00}</style><path class="a" d="m112.1 11.2c7.5-1.5 15.2-1.3 22.8-0.3 2.9 1.4 0 5.7 2.7 7.5 0 6-0.1 11.8 0.1 17.6q0.5 2-1.4 3.2c2.8 0.2 5.7 0.9 8.1 2.6q0 3.2-0.2 6.5 2.8 0 5.6 0c0 0.4 0 1.1 0.1 1.5-16.3 0.1-32.6-0.1-48.9 0-1.5 0-3.1 0.3-4.2-0.8 1.8-1 3.9-0.6 5.9-0.6 0.1-1.9 0.1-3.8 0-5.7 1.3-3 5.3-2 6.9-4.7-0.4-2.6-0.5-5.4 0.1-8-0.4-0.3-1-1-1.3-1.4q0.7-0.9 1.4-1.7c-0.8-1.3-0.7-2.6-0.2-4-0.3-0.3-1-1.1-1.3-1.5 2.3-0.9 0.2-3.1 1.8-4.3 1.5-1.6-0.7-5.3 2-5.9z"/><path class="a" d="m48.3 56.1c2.5-0.7 5.2-0.4 7.8-0.4q70.9 0 141.9 0c2.7 0 5.4-0.3 8 0.3 0.6 5.5 0.6 11.2-0.1 16.8-14.2 0.6-28.6 0-42.9 0.2-34.3 0-68.7 0-103 0-3.9-0.1-7.9 0.4-11.7-0.3-0.4-5.5-0.3-11.1 0-16.6zm1.9 1.9c-0.1 4.3 0 8.5-0.1 12.8 51.4 0.1 102.7 0.1 154 0 0.2-4.3 0.2-8.6 0.1-12.9-49.4-0.2-98.8 0-148.2-0.1q-2.9-0.1-5.8 0.2z"/><path class="a" d="m61.3 351.2c3.8-1.9 7.6 3.6 4.3 6.3-7.8 7.9-15.6 15.9-23.6 23.5-3.9 2.4-8-3.6-4.4-6.4 7.9-7.8 15.5-15.9 23.7-23.4z"/><path class="a" d="m87.3 353.2c3.7-2.7 8.2 2.9 4.8 5.9-15.7 15.9-31.6 31.7-47.5 47.6-1 0.9-2.1 2.2-3.6 1.9-3.5 0.2-5.1-4.9-2.4-7 16.3-16.1 32.3-32.5 48.7-48.4z"/><path class="a" d="m116.5 353.5c3.9-1.6 7 4.1 3.7 6.7-24.8 24.9-49.7 49.6-74.5 74.5-1.4 1.5-3.3 3.5-5.6 2.6-1.9-0.3-2.8-2.5-2.7-4.3 0.7-2.2 2.7-3.7 4.2-5.3q34.3-34.3 68.6-68.6c2.1-1.8 3.7-4.3 6.3-5.6z"/><path class="a" d="m143.7 355.6c1.3-1.4 3.4-2.7 5.3-1.6 2.7 1 3 4.9 0.8 6.7-23.3 23.2-46.4 46.6-69.9 69.7-4.7-0.5-9.3 0.5-13.5 2.6q38.6-38.7 77.3-77.4z"/><path class="a" d="m178.2 355.1c2.1-2.5 6.7-1.3 6.9 2 0.3 1.7-0.8 3-1.9 4.1-28.3 28.3-56.6 56.5-84.8 84.8-0.7-2.8-2.5-5-3.6-7.6 27.9-27.7 55.6-55.6 83.4-83.3z"/><path class="a" d="m210.4 355.3c1.9-1.6 5.4-0.7 5.9 1.8 0.9 1.8-0.3 3.5-1.5 4.8q-60 60-120 119.9c-1.8 2.3-6 2.1-6.9-0.9-1-2.2 0.9-4.2 2.4-5.6 40-39.9 79.9-80.2 120.1-120z"/><path class="a" d="m211.2 387.1c4-2 7.8 3.7 4.3 6.4-29.5 29.5-58.9 59-88.4 88.4-3.3 3.6-8.9-2-5.5-5.4 28.9-29 58-57.9 86.9-87 0.9-0.8 1.7-1.7 2.7-2.4z"/><path class="a" d="m213.7 416.6c2.5-2.6 6.9 2 4.4 4.5-11.7 13.1-24 25.7-35.7 38.8 0.1 0.4 0.5 1.3 0.7 1.7-1.7 6.2 0.3 13-1.1 19.3-1.7 4-6.5 2.9-10 3.1-3.2-0.3-7.6 1-9.4-2.5-2-4.2-0.7-9-1.1-13.5 0.3-4.2-1.2-9.7 2.8-12.6 3.7-1.3 7.8-0.4 11.6-0.5q1.8 0.3 3-0.9c11.5-12.5 23.1-25 34.8-37.4z"/><path class="a" d="m41.1 458.2c5.6-5.5 11-11.1 16.6-16.5-2.3 4.3-2.9 9.2-2.8 13.9-3.4 3.1-6.4 6.6-9.8 9.6-2 2-6 0.6-6.2-2.3-0.5-1.9 0.9-3.5 2.2-4.7z"/><path class="a" d="m212.2 455.2c2.7-0.8 5.5 2 4.7 4.7-0.7 1.8-2.3 3.1-3.6 4.4-5.9 5.8-11.6 11.8-17.6 17.5-3.3 3.2-8.7-2.1-5.4-5.4 5.8-6.2 12-12 17.9-18.1 1.2-1.1 2.3-2.6 4-3.1z"/><path class="a" d="m63.4 469.9c2.2 1.6 4.7 2.9 7.3 3.9-3.1 2.8-5.9 6.1-9.1 8.8-3.2 2.3-7.6-2-5.4-5.2 2.1-2.8 4.8-5 7.2-7.5z"/><path class="b" d="m10.8 73c-0.1-12.2 11.1-22.9 23.2-22.7 62 0 124 0 186 0 12.1-0.1 22.8 10.5 22.9 22.6 0.1 82.2 0 164.3 0 246.5l-0.4 1q-0.6 1.2-0.6 2.5c0 8.7 0.1 17.4 0 26.1 0 1.3 0 2.6 0.6 3.7l0.4 0.9c0.1 40.8 0 81.6 0 122.4 0.2 12.3-10.7 23.3-23 23.2-61.9 0-123.9 0-185.8 0-12 0.2-23.1-10.2-23.3-22.3-0.1-19.4 0-38.8 0-58.3 0.4 0 1.2 0 1.6 0-0.1-7.7-0.1-15.5 0-23.2-0.4 0-1.2 0-1.6 0q0-161.2 0-322.4zm37.5-16.9c-0.3 5.5-0.4 11.1 0 16.6 3.9 0.7 7.8 0.2 11.7 0.2 34.3 0.1 68.7 0.1 103 0.1 14.3-0.2 28.7 0.4 42.9-0.2 0.8-5.6 0.7-11.3 0.1-16.8-2.6-0.6-5.3-0.3-8-0.3q-71 0-141.9 0c-2.6 0-5.3-0.3-7.8 0.4zm-12.9 22.4c-6.8 1.4-9.4 10.8-4.4 15.5 4.6 5.1 14.1 2.7 15.6-4 2.2-6.6-4.7-13.5-11.2-11.5zm177.1 0.1c-4.3 1.3-7.3 6-6.4 10.5 0.8 5.4 7 9.2 12.2 7.2 4.9-1.5 7.6-7.5 5.6-12.2-1.5-4.5-6.9-7-11.4-5.5zm-118.3 7.6q0 2.2 0 4.4c7.1 0.8 14.3 3.8 18.4 9.9 2.8 3.8 3.8 8.6 4.8 13.2 1.4 0.4 3 0.4 4.5 0.2 0.7-14.7-12.9-28.9-27.7-27.7zm0.1 9.1q-0.2 2.6 0 5.1c3 0.7 6.3 1.5 8.6 3.7 2.9 2.4 3.9 6.1 4.6 9.6 1.8 0.5 3.5 0.4 5.2 0-0.7-4.6-2.3-9.3-5.6-12.8-3.3-3.5-8.1-4.9-12.8-5.6zm0.5 12.5c-1.2 1.8-0.5 4.1 0.5 5.8 2.5 0.7 5.8 0.2 6.2-2.8 0.1-3.6-4.1-5-6.7-3zm49.4 0.3c-0.2 1.6-0.3 3.2-0.1 4.7 3.9 0.3 7.9 0.1 11.8 0.3 0.5 12.9-0.2 25.9 0.1 38.8q2.6 0.1 5.2 0.1c0.4-13 0-25.9 0.1-38.8 4-0.3 8-0.1 12-0.3 0.1-1.6 0.1-3.2-0.2-4.8-9.6-0.1-19.3-0.2-28.9 0zm-28.4 21.9c2.4 8.1 6.8 15.5 10.6 23 1.9-1.5 2.7-3.8 3.9-5.8 3-5.9 6.2-11.8 7.8-18.2 1.2-6.7-5.5-13.1-12.1-12.2-6.5-0.1-12.2 6.9-10.2 13.2zm-17.9-9c-0.7 8.2 0.2 16.4-0.4 24.6-0.2 2.3-1.4 4.6-3.8 5.1-3.2 1.1-5.8-1.4-8-3.4-1 0.4-1.9 1.2-2.8 1.9 1.5 4.7 7.5 6.1 11.8 5.4 4.6-0.5 7.8-5.1 7.5-9.6-0.1-8 0.3-16-0.2-24q-2.1 0-4.1 0zm-30.1 52.8c-5.9 4.3-6.7 13-3.7 19.2 3.7 7.3 14.4 8.8 20.6 3.7 0.8-4.1 0.4-8.4 0.3-12.6-3.3-0.2-6.6-0.2-9.9-0.1q-0.2 2.3 0.1 4.5c1.6 0.1 3.1 0.2 4.6 0.5q0 2.4-0.1 4.8c-3.5 2-8.5 0.5-10.3-3.2-1.3-3.7-1.4-8.1 0.7-11.5 2.2-3 6.6-4 9.7-1.9 1.9 1.7 4.9-1 4.1-3-4.4-4.1-11.5-3.9-16.1-0.4zm92.8-1.2c-3.7 2-5.2 6.4-5.6 10.4-0.4 4.5-0.2 9.5 2.7 13.1 2.4 3.4 7.4 4.6 11.1 2.7 5.6-2.5 6.7-10.9 2.5-15.1-3.2-2.8-7.8-1.8-11.3 0 0.7-2.8 1.2-6.3 4.2-7.5 2.2-0.9 4.3 0.5 6.3 1.4 1-1 2-2.1 2.4-3.5-3-3.2-8.5-3.9-12.3-1.5zm15.5 2.7c1.1 1 2 3 3.8 2.6 1.9-0.9 3.7-2.6 6-1.9 3 0.6 2.8 4.6 2 6.9-2.2 4.8-6.5 8.2-10.1 11.9-1.4 1-1.4 2.7-0.9 4.1q9.1 0.3 18.3 0c0.3-1.6 0.4-3.2-0.2-4.7-3 0-6 0-9-0.2 3.6-4.4 8.3-8.9 8.1-15 0-4.7-4.7-8.1-9.1-7.9-3.5-0.1-6.4 2-8.9 4.2zm-81.7-0.1c-2.4 8-5.5 15.7-7.6 23.7 2 0.2 4 0.2 5.9-0.1q0.8-3.3 1.7-6.5c2.8-0.4 5.7-0.4 8.5-0.2 0.8 2.3 1.5 4.6 2.2 6.8q3 0.3 5.9 0c-1.5-5.7-3.6-11.2-5.3-16.8-1.2-3.4-1.9-7.1-3.6-10.3-2.1-0.1-4.1-0.2-6.1 0.1-1.1 0.7-1.1 2.2-1.6 3.3zm14.6-3.3q0 2.4 0.2 4.7c2.4 0.3 5.3-0.6 7.4 0.7 0.2 7.2 0 14.4 0.4 21.7q2.8 0.1 5.7-0.1c0.1-7.4-0.4-14.8 0.2-22.1 2.3-0.1 4.5-0.2 6.8-0.2 0.9-1.4 0.4-3.2 0.3-4.7-7-0.2-14-0.3-21 0zm26 0c-0.3 4.3-0.9 8.6-0.7 12.9 1.9 3.9 5.9-0.9 8.7 1 3.7 1.7 3 8.3-1.1 9.1-2.5 0.7-4.7-1.1-7-1.9-1.5 0.1-2.2 1.7-2.8 2.9 3.7 3.9 10.3 5.1 14.9 2.2 5.2-3.1 5.8-11.6 1.2-15.3-2.5-1.8-5.7-1.3-8.6-1.5q0.1-2.2 0.4-4.4c3.1-0.5 6.3-0.1 9.5-0.4 0.5-1.4 0.4-3 0.4-4.5-4.9-0.5-9.9-0.4-14.9-0.1zm-23.9 45.1c2.4 0.4 3.6-2.6 5.9-2.1 1.8 0 2.6 3.1 0.9 3.9-0.9 0.9-2.6 1.3-2.9 2.7q1.9 0.5 3.8 0.9c0.8 1.6 0.7 3.6-1 4.4-2.6 1.3-4.2-2.1-6.7-1.8 0.5 5.7 10.1 5.4 10.7-0.1 0.4-1.9-1.1-3.2-2.2-4.5 1.1-1.6 2.2-3.9 0.7-5.7-2.5-3.3-8.5-1.9-9.2 2.3zm15.3-3.7c-3.9 2.8-3.7 8.6-2.3 12.7 1.2 4.1 7.8 4.2 9.1 0 1-3.4 1.3-7.5-0.4-10.7-1.1-2.4-4.2-2.9-6.4-2zm10 4.4c0.9 4.3 6.3 3.6 9.4 5.5 1.6 2.4-1.6 4.5-3.8 3.8-2.7 0.2-3.5-3.1-6.1-3.2-0.5 4 3.9 5.7 7.2 5.2 3.2 0.4 7-3.1 5.2-6.3-1.8-3.2-6.1-2.9-9.1-4.2-1.3-1.9 0.8-4.1 2.9-3.5 2.5-0.4 3.3 3.2 5.9 3.1 0.8-6.8-12.1-7.1-11.6-0.4zm-82.1 43.7c-2.6 1.1-4.3 3.8-4.2 6.6 0 20 0 40 0 60.1 0.1 3.6 3.2 6.7 6.8 6.6 46.7 0.1 93.4 0 140.1 0 3.7 0.2 7.5-2.8 7.2-6.7 0.1-20 0-40 0.1-60 0.3-3.5-2.6-7.1-6.2-7-47.4 0-94.8-0.1-142.1 0-0.5 0.1-1.3 0.3-1.7 0.4zm6 88.7c-7.2 6.5-13.8 13.7-20.7 20.4-2 2.2-5.1 4-4.8 7.4-0.2 4.2 5.7 6.8 8.7 3.8 7.7-7.5 15.1-15.1 22.7-22.6 1.7-1.5 2.6-3.9 1.8-6.1-0.8-3.1-5-4.5-7.7-2.9zm27.1 1.3c-1.7 0.8-3 2.3-4.3 3.6-15.2 15.2-30.4 30.4-45.5 45.6-2.1 1.8-2.5 5.4-0.7 7.5 2 2.6 6.3 2.6 8.3 0.1 15.7-15.6 31.3-31.3 47-47 1.2-1.2 2.5-2.4 2.6-4.2 0.6-3.9-3.8-7.3-7.4-5.6zm28 0.9c-1.7 1-3 2.5-4.3 3.8q-36.5 36.5-73 73c-2 1.7-3 4.9-1.4 7.3 1.6 3.1 6.4 3.5 8.6 0.8 25.1-24.9 50-50 75-75 1.4-1.4 3.1-3.1 2.8-5.3 0.1-3.7-4.5-6.3-7.7-4.6zm27.8 1.8q-52.1 52-104.1 104c-2.2 2-2.6 5.9-0.2 7.9 1.8 2.2 5.4 2.1 7.3 0.3 3.3-3 6.2-6.2 9.4-9.3 0.8 4.6 3.4 8.6 6.6 11.9-2.5 3-5.9 5.1-7.7 8.5-2.1 4.4 3.5 9.3 7.6 6.7 3.7-3 6.8-6.7 10.3-10 9 2.1 19-2.1 23.7-10.1 3.2-4.9 3.6-10.9 2.9-16.6 28.7-28.5 57.2-57.1 85.7-85.6 3.2-2.5 2.2-8-1.5-9.3-2.1-0.8-4.6 0-6.1 1.6-27.8 27.8-55.6 55.6-83.5 83.4-3.1-3.4-7.3-5.7-11.8-6.8 23.1-22.9 46-45.9 69-68.9 2.6-2.2 2.8-6.6-0.1-8.6-2.2-1.9-5.7-1.2-7.5 0.9zm68-0.9c-1.9 0.6-3.1 2.2-4.5 3.5-39.5 39.5-79 79-118.5 118.5-1.5 1.4-2.6 3.6-1.9 5.7 0.7 3 4.4 5 7.3 3.7 2.1-1.1 3.6-3.1 5.3-4.7q57.7-57.7 115.5-115.5c1.7-1.7 4-3.6 3.7-6.4 0-3.3-3.8-5.9-6.9-4.8zm0.1 32.3c-1.1 0.3-2 1.2-2.8 1.9q-43.8 43.8-87.5 87.6c-2.4 2-2.6 6.1-0.1 8 2 2.2 5.8 1.8 7.7-0.4 29-29 58-58 87-87 1.3-1.3 2.8-2.7 2.7-4.7 0.4-3.6-3.6-6.7-7-5.4zm-0.7 31c-11 11.7-21.9 23.5-32.9 35.2-0.8 0.9-1.3 2-1.8 3.1-3.8 0.2-7.9-0.7-11.6 0.6-4 2.9-2.5 8.4-2.8 12.6 0.4 4.5-0.9 9.3 1.1 13.5 1.8 3.5 6.2 2.2 9.4 2.5 3.5-0.2 8.3 0.9 10-3.1 1.4-6.3-0.6-13.1 1.1-19.3 2-1.2 3.4-3 4.9-4.6 9.7-10.3 19.3-20.7 28.9-31.1 1.4-1.5 3.1-3 3.7-5 1.4-3.5-1.8-7.8-5.5-7.3-1.9 0.1-3.3 1.6-4.5 2.9zm1.9 37.2c-2.3 0.2-3.8 2-5.3 3.5-6 6.1-12.1 11.9-18 18.1-2.7 2.8-1 8.1 2.8 8.7 2 0.5 4-0.2 5.4-1.7 6.4-6.3 12.7-12.6 19-19 1.7-1.5 2.6-4 1.7-6.2-0.7-2.3-3.3-3.7-5.6-3.4z"/><path class="b" d="m50.2 58q2.9-0.3 5.8-0.2c49.4 0.1 98.8-0.1 148.2 0.1 0.1 4.3 0.1 8.6-0.1 12.9-51.3 0.1-102.6 0.1-153.9 0 0-4.3 0-8.5 0-12.8z"/><path class="b" d="m125.4 122.5c3.6-1.2 7.9 2.7 6.6 6.4-1.2 4.7-9 5-10.3 0.3-1.2-2.8 0.8-6.1 3.7-6.7z"/><path class="b" d="m98.5 177c1.6 3.4 2.5 7.1 3.3 10.7q-2.9 0.1-5.8 0c0.6-3.6 1.7-7.1 2.5-10.7z"/><path class="b" d="m162.3 186.4c1.7-0.6 4.3-1 5.3 0.9 1.1 2.3 1.2 5.7-0.9 7.4-4.6 2.7-9-6.2-4.4-8.3z"/><path class="b" d="m127.2 215.3c1.4-1.2 3.7 0 3.9 1.7 0.9 3.1 0.9 6.6-0.7 9.5-1.9 1.7-4.7-0.2-4.5-2.5-0.1-2.8-1-6.6 1.3-8.7z"/><path class="c" d="m35.4 78.5c6.5-2 13.4 4.9 11.2 11.5-1.5 6.7-11 9.1-15.6 4-5-4.7-2.4-14.1 4.4-15.5z"/><path class="c" d="m212.5 78.6c4.5-1.5 9.9 1 11.4 5.5 2 4.7-0.7 10.7-5.6 12.2-5.2 2-11.4-1.8-12.2-7.2-0.9-4.5 2.1-9.2 6.4-10.5z"/><path class="c" d="m54.3 261.4c0.4-0.1 1.2-0.3 1.7-0.4 47.3-0.1 94.7 0 142.1 0 3.6-0.1 6.5 3.5 6.2 7-0.1 20 0 40-0.1 60 0.3 3.9-3.5 7-7.2 6.8-46.7-0.1-93.4 0-140.1-0.1-3.6 0.1-6.7-3-6.8-6.6 0-20.1 0-40.1 0-60.1-0.1-2.8 1.6-5.5 4.2-6.6z"/><path class="c" d="m241.9 322.9q0-1.3 0.6-2.5 2.2 0.5 4.4 0.3c0 10.6 0 21.2 0 31.8q-2.2-0.2-4.4 0.2c-0.6-1.1-0.6-2.4-0.6-3.7 0.1-8.7 0-17.4 0-26.1z"/><path class="c" d="m60.3 350.1c2.7-1.6 6.9-0.2 7.7 2.9 0.8 2.2-0.1 4.6-1.8 6.1-7.6 7.5-15 15.1-22.7 22.6-3 3-8.9 0.4-8.7-3.8-0.3-3.4 2.8-5.2 4.7-7.4 7-6.7 13.6-13.9 20.8-20.4zm1 1.1c-8.2 7.5-15.8 15.6-23.7 23.4-3.6 2.8 0.4 8.8 4.4 6.4 8-7.6 15.8-15.6 23.6-23.5 3.3-2.7-0.5-8.2-4.3-6.3z"/><path class="c" d="m87.4 351.4c3.6-1.7 8 1.8 7.4 5.6-0.1 1.8-1.5 3-2.6 4.2-15.7 15.7-31.3 31.4-47 47-2 2.5-6.3 2.5-8.3-0.1-1.9-2.1-1.4-5.7 0.7-7.5 15.1-15.2 30.3-30.4 45.5-45.6 1.3-1.3 2.6-2.8 4.3-3.6zm-0.1 1.8c-16.4 15.9-32.5 32.3-48.7 48.5-2.7 2-1.1 7.1 2.4 6.9 1.5 0.3 2.6-1 3.6-1.9 15.9-15.9 31.8-31.7 47.5-47.6 3.4-3-1.1-8.6-4.8-5.9z"/><path class="c" d="m115.4 352.3c3.2-1.7 7.8 0.9 7.6 4.6 0.4 2.2-1.3 3.9-2.7 5.3-25 25-49.9 50.1-75 75-2.2 2.7-7 2.3-8.6-0.8-1.6-2.3-0.7-5.5 1.4-7.3q36.5-36.5 73-73c1.3-1.3 2.6-2.8 4.3-3.8zm1.1 1.2c-2.6 1.3-4.2 3.8-6.3 5.6q-34.3 34.3-68.6 68.6c-1.5 1.6-3.5 3.1-4.2 5.3-0.1 1.8 0.8 4 2.7 4.3 2.3 0.9 4.2-1.1 5.6-2.6 24.8-24.9 49.7-49.6 74.5-74.5 3.4-2.6 0.2-8.3-3.7-6.7z"/><path class="c" d="m143.2 354.1c1.8-2.1 5.3-2.8 7.5-0.9 2.9 2 2.7 6.4 0.1 8.6-23 23-45.9 46-69 68.9 4.5 1.1 8.7 3.4 11.8 6.8 27.9-27.8 55.7-55.6 83.5-83.4 1.5-1.6 4-2.4 6.1-1.6 3.7 1.3 4.7 6.8 1.5 9.3-28.5 28.5-57 57.1-85.7 85.6 0.7 5.7 0.3 11.7-2.9 16.6-4.7 8-14.7 12.2-23.7 10.1-3.5 3.3-6.6 7-10.3 10-4.1 2.6-9.7-2.3-7.6-6.7 1.8-3.4 5.2-5.5 7.7-8.5-3.2-3.3-5.8-7.3-6.6-11.9-3.2 3.1-6.1 6.3-9.4 9.3-1.9 1.8-5.5 1.9-7.3-0.3-2.4-2-2-5.9 0.2-7.9q52-52 104.1-104zm0.5 1.5q-38.7 38.7-77.3 77.4c4.2-2.1 8.8-3.1 13.5-2.6 23.5-23.1 46.6-46.5 69.9-69.7 2.2-1.8 1.9-5.7-0.8-6.7-1.9-1.1-4 0.2-5.3 1.6zm34.5-0.5c-27.8 27.7-55.5 55.6-83.4 83.3 1.1 2.6 2.9 4.8 3.6 7.6 28.2-28.3 56.5-56.5 84.8-84.8 1.1-1.1 2.2-2.4 1.9-4.1-0.2-3.3-4.8-4.5-6.9-2zm-137.1 103.1c-1.2 1.2-2.7 2.8-2.2 4.7 0.2 2.9 4.2 4.3 6.2 2.3 3.4-3 6.5-6.5 9.8-9.6-0.1-4.7 0.5-9.6 2.8-13.9-5.6 5.4-11 11-16.6 16.5zm22.3 11.7c-2.4 2.5-5.1 4.7-7.2 7.5-2.2 3.2 2.2 7.5 5.4 5.2 3.2-2.7 6-6 9.1-8.9-2.6-0.9-5.1-2.2-7.3-3.8z"/><path class="c" d="m211.2 353.2c3.1-1.1 6.9 1.5 6.9 4.8 0.3 2.8-2 4.7-3.7 6.4q-57.8 57.8-115.5 115.5c-1.7 1.6-3.2 3.6-5.3 4.7-2.9 1.3-6.6-0.7-7.3-3.7-0.7-2.1 0.4-4.3 1.9-5.6 39.5-39.6 79-79.1 118.5-118.6 1.4-1.3 2.6-2.9 4.5-3.5zm-0.8 2.1c-40.2 39.8-80 80.1-120.1 120-1.5 1.4-3.4 3.4-2.3 5.6 0.8 3 5 3.2 6.8 0.9q60-59.9 120-119.9c1.2-1.3 2.4-3 1.5-4.8-0.5-2.5-4-3.4-5.9-1.8z"/><path class="c" d="m211.3 385.5c3.4-1.3 7.4 1.8 7 5.4 0.1 2-1.4 3.4-2.7 4.7-29 29-58 58-87 87-1.9 2.2-5.7 2.6-7.7 0.4-2.5-1.9-2.3-6 0.1-8q43.7-43.8 87.5-87.6c0.8-0.7 1.7-1.6 2.8-1.9zm-0.1 1.6c-1 0.7-1.8 1.6-2.7 2.4-28.9 29.1-58 58-86.9 87.1-3.4 3.3 2.2 8.9 5.5 5.3 29.5-29.3 58.9-58.9 88.4-88.3 3.5-2.8-0.3-8.5-4.3-6.5z"/><path class="c" d="m8.3 395.2c0.6 0.1 1.8 0.2 2.5 0.2 0.4 0 1.2 0 1.6 0-0.2 7.7-0.1 15.5 0 23.2-0.4 0-1.2 0-1.6 0-0.6 0.1-1.9 0.1-2.5 0.2 0.3-7.9 0.3-15.7 0-23.6z"/><path class="c" d="m210.6 416.5c1.2-1.3 2.6-2.8 4.5-2.9 3.7-0.5 6.9 3.8 5.5 7.3-0.7 2-2.3 3.5-3.7 5-9.6 10.4-19.2 20.8-28.9 31.1-1.5 1.6-2.9 3.4-4.9 4.6-0.2-0.4-0.6-1.3-0.8-1.7 11.8-13.1 24.1-25.7 35.8-38.8 2.5-2.5-1.9-7.1-4.4-4.5-11.8 12.4-23.3 24.9-34.8 37.4q-1.2 1.2-3 0.9c0.5-1.2 1-2.3 1.8-3.2 11-11.7 21.9-23.5 32.9-35.2z"/><path class="c" d="m212.5 453.7c2.3-0.3 4.9 1.1 5.6 3.4 0.9 2.2 0 4.7-1.7 6.3-6.3 6.3-12.7 12.7-19 19-1.4 1.4-3.4 2.1-5.4 1.7-3.8-0.7-5.5-6-2.8-8.8 5.9-6.2 12-12 18-18.1 1.5-1.5 3-3.3 5.3-3.5zm-0.3 1.5c-1.7 0.5-2.8 2-4 3.1-5.9 6.1-12.1 11.9-17.9 18.1-3.3 3.3 2.1 8.6 5.4 5.4 6-5.7 11.7-11.7 17.6-17.5 1.3-1.3 2.9-2.6 3.6-4.4 0.8-2.7-2-5.5-4.7-4.7z"/><path class="d" d="m94.2 86.2c14.8-1.2 28.4 13 27.7 27.7-1.5 0.2-3.1 0.2-4.5-0.2-1-4.6-2-9.4-4.8-13.2-4.1-6.1-11.4-9.1-18.4-9.9q0-2.2 0-4.4z"/><path class="d" d="m94.3 95.3c4.7 0.7 9.5 2.1 12.8 5.6 3.3 3.5 4.9 8.2 5.6 12.8-1.7 0.4-3.4 0.5-5.2 0-0.7-3.5-1.7-7.2-4.6-9.6-2.4-2.2-5.6-3-8.6-3.7q-0.2-2.5 0-5.1z"/><path class="d" d="m94.8 107.8c2.6-2 6.8-0.5 6.7 3-0.4 3-3.7 3.5-6.2 2.8-1-1.7-1.7-4-0.5-5.8z"/><path class="d" d="m144.2 108.1c9.6-0.2 19.3-0.1 28.9 0 0.3 1.6 0.3 3.2 0.2 4.8-4 0.2-8 0-12 0.3-0.1 12.9 0.3 25.9-0.1 38.8q-2.6 0-5.2-0.1c-0.3-12.9 0.4-25.8-0.1-38.7-3.9-0.3-7.9 0-11.8-0.4-0.2-1.5-0.1-3.1 0.1-4.7z"/><path class="d" d="m115.8 130c-2-6.3 3.7-13.3 10.2-13.2 6.6-0.9 13.3 5.5 12.1 12.2-1.6 6.4-4.8 12.3-7.8 18.2-1.2 2-2 4.3-3.9 5.8-3.8-7.5-8.2-14.9-10.6-23zm9.6-7.5c-2.9 0.6-4.9 3.9-3.7 6.7 1.3 4.7 9.1 4.4 10.3-0.3 1.3-3.7-3-7.6-6.6-6.4z"/><path class="d" d="m97.9 121q2 0 4.1 0c0.4 8 0.1 16.1 0.2 24 0.2 4.5-2.9 9.1-7.5 9.6-4.3 0.7-10.3-0.7-11.8-5.3 0.9-0.8 1.8-1.5 2.8-2 2.2 2 4.8 4.5 8 3.4 2.4-0.5 3.6-2.8 3.7-5.1 0.7-8.2-0.2-16.4 0.5-24.6z"/><path class="d" d="m67.8 173.8c4.6-3.5 11.7-3.7 16.1 0.4 0.8 2-2.2 4.7-4.1 3-3.1-2.1-7.5-1.1-9.7 1.9-2.1 3.4-2.1 7.8-0.7 11.5 1.8 3.7 6.8 5.2 10.3 3.2q0.1-2.4 0.1-4.8c-1.5-0.3-3.1-0.4-4.6-0.5q-0.3-2.2-0.2-4.5c3.4-0.1 6.7-0.1 10 0.1 0.1 4.2 0.5 8.5-0.3 12.6-6.2 5.1-16.9 3.6-20.6-3.7-3-6.2-2.2-14.9 3.7-19.2z"/><path class="d" d="m160.6 172.6c3.8-2.4 9.3-1.7 12.3 1.6-0.4 1.3-1.4 2.4-2.4 3.4-2-0.9-4.1-2.3-6.3-1.4-3 1.2-3.5 4.7-4.2 7.5 3.5-1.8 8.1-2.8 11.3 0 4.2 4.2 3 12.6-2.5 15.1-3.7 1.9-8.7 0.7-11.1-2.7-2.9-3.6-3.1-8.6-2.7-13.1 0.3-4 1.9-8.4 5.6-10.4zm1.7 13.8c-4.6 2.1-0.2 11 4.4 8.3 2.1-1.7 2-5.1 0.9-7.4-1-1.9-3.6-1.5-5.3-0.9z"/><path class="d" d="m176.1 175.3c2.5-2.2 5.4-4.3 8.9-4.2 4.4-0.2 9.1 3.2 9.1 7.9 0.2 6.1-4.5 10.6-8.1 15 3 0.2 6 0.2 9 0.2 0.6 1.5 0.4 3.1 0.2 4.7q-9.2 0.3-18.3 0c-0.5-1.4-0.5-3.1 0.9-4.1 3.6-3.7 7.9-7.1 10.1-11.9 0.8-2.3 1-6.3-2-6.9-2.3-0.7-4.1 1-6 1.9-1.8 0.4-2.7-1.6-3.8-2.6z"/><path class="d" d="m94.4 175.3c0.5-1.2 0.5-2.7 1.6-3.4 2-0.3 4-0.2 6.1-0.1 1.7 3.2 2.4 6.9 3.6 10.3 1.7 5.6 3.8 11.1 5.3 16.8q-2.9 0.3-5.9 0c-0.7-2.2-1.4-4.5-2.2-6.8-2.8-0.2-5.7-0.2-8.5 0.2q-0.9 3.2-1.7 6.5c-2 0.3-3.9 0.3-5.9 0.1 2.1-8 5.2-15.7 7.6-23.7zm4.1 1.8c-0.8 3.6-1.9 7.1-2.5 10.7q2.9 0.1 5.8-0.1c-0.9-3.6-1.7-7.2-3.3-10.6z"/><path class="d" d="m109 171.9c7-0.3 14-0.2 21 0 0.1 1.5 0.6 3.3-0.3 4.7-2.3 0-4.5 0.1-6.8 0.2-0.6 7.3-0.1 14.7-0.2 22.1q-2.9 0.2-5.7 0.1c-0.4-7.3-0.2-14.5-0.4-21.7-2.1-1.3-5-0.4-7.4-0.7q-0.2-2.3-0.2-4.7z"/><path class="d" d="m135 171.9c5-0.3 10-0.4 14.9 0.2 0 1.5 0.1 3-0.4 4.4-3.2 0.3-6.4-0.1-9.5 0.4q-0.3 2.2-0.4 4.4c2.9 0.2 6.1-0.3 8.6 1.5 4.6 3.8 4 12.2-1.2 15.3-4.7 2.9-11.2 1.7-14.9-2.2 0.6-1.2 1.3-2.8 2.8-2.9 2.3 0.8 4.4 2.6 7 1.9 4.1-0.8 4.8-7.4 1.1-9.1-2.8-1.9-6.8 2.9-8.8-1-0.1-4.3 0.5-8.6 0.8-12.9z"/><path class="d" d="m111.1 217c0.7-4.2 6.7-5.6 9.2-2.3 1.5 1.8 0.4 4.1-0.7 5.7 1.1 1.3 2.6 2.6 2.2 4.5-0.6 5.5-10.2 5.8-10.7 0.1 2.5-0.3 4.1 3.1 6.7 1.8 1.7-0.8 1.8-2.8 1-4.4q-1.9-0.4-3.8-0.9c0.3-1.4 2-1.8 2.9-2.7 1.7-0.8 0.9-3.9-0.9-3.9-2.3-0.5-3.5 2.5-5.9 2.1z"/><path class="d" d="m126.4 213.3c2.2-0.9 5.3-0.4 6.4 2 1.7 3.2 1.4 7.3 0.4 10.7-1.3 4.2-7.9 4.1-9.1 0-1.4-4.1-1.6-9.9 2.3-12.7zm0.8 2c-2.3 2.1-1.4 5.9-1.3 8.7-0.2 2.3 2.6 4.2 4.5 2.5 1.6-2.9 1.6-6.4 0.7-9.5-0.2-1.7-2.5-2.9-3.9-1.7z"/><path class="d" d="m136.4 217.7c-0.5-6.7 12.4-6.4 11.6 0.4-2.6 0.1-3.4-3.4-5.9-3.1-2.1-0.5-4.2 1.6-2.9 3.5 3 1.3 7.3 1 9 4.2 1.9 3.2-1.9 6.7-5.1 6.4-3.3 0.4-7.7-1.3-7.2-5.2 2.5 0 3.4 3.3 6.1 3.1 2.2 0.7 5.4-1.4 3.8-3.8-3.1-1.9-8.5-1.2-9.4-5.5z"/></svg>