<?xml version="1.0" encoding="UTF-8" ?>
<!DOCTYPE svg PUBLIC "-//W3C//DTD SVG 1.1//EN" "http://www.w3.org/Graphics/SVG/1.1/DTD/svg11.dtd">
<svg width="1534pt" height="704pt" viewBox="0 0 1534 704" version="1.1" xmlns="http://www.w3.org/2000/svg">
<g id="#f3f4f1ff">
<path fill="#f3f4f1" opacity="1.00" d=" M 113.51 57.49 C 116.68 53.93 121.74 54.80 125.98 54.73 C 554.66 54.75 983.35 54.72 1412.03 54.74 C 1416.93 54.61 1421.47 58.99 1421.14 63.97 C 1421.12 249.31 1421.15 434.66 1421.17 620.01 C 1421.04 623.38 1421.57 627.40 1418.93 630.00 C 1416.23 633.15 1411.69 632.60 1407.99 632.68 C 978.97 632.67 549.96 632.74 120.94 632.65 C 115.90 633.24 110.56 629.48 111.03 624.06 C 111.25 573.20 110.75 522.33 111.12 471.48 C 115.21 471.49 119.31 471.44 123.40 471.33 C 123.53 387.06 123.54 302.79 123.46 218.52 C 119.27 218.44 115.09 218.43 110.90 218.45 C 110.96 198.52 110.82 178.59 110.95 158.66 C 111.15 158.28 111.53 157.52 111.72 157.15 C 124.47 156.42 137.25 157.03 150.01 156.88 C 156.80 156.96 163.64 156.35 170.37 157.48 C 170.50 161.93 170.09 166.42 170.61 170.86 C 171.36 175.20 175.68 178.30 179.98 178.33 C 189.67 178.56 199.37 178.08 209.06 178.45 C 218.21 178.34 226.20 186.94 226.01 195.97 C 226.01 333.65 225.98 471.32 226.05 609.00 C 226.14 612.07 226.51 615.77 229.51 617.45 C 232.85 619.76 237.19 618.78 241.00 619.02 C 624.33 619.02 1007.66 619.02 1390.98 619.02 C 1394.26 618.95 1397.61 619.34 1400.84 618.60 C 1404.66 617.19 1406.83 613.03 1406.55 609.07 C 1406.48 439.05 1406.53 269.03 1406.51 99.01 C 1406.35 90.84 1406.75 82.65 1406.19 74.49 C 1406.24 70.76 1402.48 68.33 1399.10 68.14 C 997.07 68.07 595.02 68.19 192.99 68.08 C 187.96 68.13 182.92 67.78 177.91 68.32 C 174.18 68.79 171.79 72.14 170.31 75.29 C 150.50 75.51 130.68 75.11 110.87 75.46 C 111.51 69.55 109.04 62.34 113.51 57.49 M 141.59 266.66 C 141.62 315.78 141.73 364.90 141.62 414.03 C 141.68 418.65 141.23 423.29 141.76 427.90 C 147.62 427.99 153.49 427.86 159.35 427.95 C 159.38 374.19 159.54 320.42 159.21 266.67 C 153.34 266.68 147.47 266.65 141.59 266.66 Z" />
<path fill="#f3f4f1" opacity="1.00" d=" M 300.58 91.51 C 662.13 91.36 1023.68 91.48 1385.23 91.44 C 1384.47 115.95 1385.00 140.48 1384.87 165.00 C 1384.85 309.87 1385.00 454.72 1384.81 599.58 C 1277.86 599.28 1170.90 599.56 1063.95 599.42 C 791.40 599.53 518.85 599.38 246.30 599.49 C 245.23 594.40 245.80 589.17 245.69 584.01 C 245.67 445.01 245.76 306.01 245.63 167.01 C 245.83 165.84 245.01 163.18 247.07 163.47 C 261.04 163.71 275.00 163.52 288.97 163.59 C 291.99 163.48 295.51 164.17 297.97 161.96 C 299.50 160.80 300.67 159.05 300.54 157.06 C 300.71 135.21 300.55 113.36 300.58 91.51 Z" />
</g>
<g id="#010101ff">
<path fill="#010101" opacity="1.00" d=" M 62.43 47.65 C 65.19 46.81 68.08 46.34 70.98 46.35 C 534.32 46.37 997.67 46.34 1461.01 46.36 C 1471.17 46.14 1481.23 51.87 1486.10 60.82 C 1488.81 65.36 1489.97 70.68 1490.08 75.93 C 1490.11 255.65 1489.86 435.33 1489.93 615.04 C 1491.05 628.45 1481.97 641.89 1469.11 645.81 C 1462.97 647.94 1456.39 647.09 1450.03 647.27 C 991.02 647.26 532.00 647.29 72.99 647.24 C 59.39 647.86 46.64 637.93 43.06 624.97 C 41.90 620.77 42.09 616.36 42.07 612.05 C 42.08 433.35 42.03 254.65 42.07 75.96 C 41.57 63.40 50.36 51.18 62.43 47.65 M 113.51 57.49 C 109.04 62.34 111.51 69.55 110.87 75.46 C 96.46 75.32 82.05 75.40 67.64 75.46 C 67.61 76.96 67.61 78.46 67.63 79.96 C 59.00 83.11 52.50 91.61 52.59 100.92 C 52.28 110.35 58.81 119.27 67.62 122.37 C 67.58 133.72 67.68 145.08 67.60 156.44 C 82.02 156.63 96.45 156.55 110.87 156.48 C 110.89 157.02 110.93 158.11 110.95 158.66 C 110.82 178.59 110.96 198.52 110.90 218.45 C 97.40 218.48 83.91 218.71 70.41 218.45 C 70.36 302.77 70.36 387.10 70.41 471.42 C 83.98 471.31 97.55 471.44 111.12 471.48 C 110.75 522.33 111.25 573.20 111.03 624.06 C 110.56 629.48 115.90 633.24 120.94 632.65 C 549.96 632.74 978.97 632.67 1407.99 632.68 C 1411.69 632.60 1416.23 633.15 1418.93 630.00 C 1421.57 627.40 1421.04 623.38 1421.17 620.01 C 1421.15 434.66 1421.12 249.31 1421.14 63.97 C 1421.47 58.99 1416.93 54.61 1412.03 54.74 C 983.35 54.72 554.66 54.75 125.98 54.73 C 121.74 54.80 116.68 53.93 113.51 57.49 M 1451.51 79.83 C 1441.55 82.40 1434.40 92.65 1435.34 102.88 C 1435.83 111.90 1442.34 120.25 1451.04 122.75 C 1459.13 125.25 1468.45 122.38 1473.91 115.95 C 1481.30 107.59 1481.04 93.75 1473.18 85.78 C 1467.64 80.16 1459.15 77.69 1451.51 79.83 M 1434.51 259.67 C 1428.15 262.17 1427.59 272.24 1433.44 275.60 C 1436.83 277.86 1441.07 277.01 1444.90 277.20 C 1448.77 277.46 1453.16 276.90 1455.69 273.60 C 1459.76 268.84 1457.05 260.59 1450.90 259.30 C 1445.49 258.82 1439.78 258.14 1434.51 259.67 M 1434.30 402.52 C 1427.47 405.44 1427.90 416.66 1434.87 419.11 C 1439.11 420.32 1443.65 419.54 1448.02 419.71 C 1452.18 420.05 1456.09 417.06 1457.12 413.06 C 1458.91 407.44 1453.79 401.15 1447.96 401.63 C 1443.41 401.84 1438.64 400.92 1434.30 402.52 M 69.50 568.75 C 60.80 571.02 54.09 579.15 53.48 588.10 C 52.74 596.32 56.94 604.87 64.13 609.01 C 71.16 613.24 80.65 613.08 87.43 608.42 C 92.66 604.60 96.29 598.62 97.08 592.18 C 97.82 583.54 93.13 574.61 85.43 570.56 C 80.63 567.87 74.77 567.42 69.50 568.75 M 1451.35 568.68 C 1444.01 570.51 1437.96 576.56 1435.83 583.77 C 1432.43 594.65 1439.17 607.52 1450.03 610.95 C 1457.53 613.54 1466.40 611.62 1472.02 605.96 C 1479.98 598.64 1480.83 585.33 1474.28 576.83 C 1469.32 569.67 1459.68 566.54 1451.35 568.68 Z" />
</g>
<g id="#c9cbcaff">
<path fill="#c9cbca" opacity="1.00" d=" M 170.31 75.29 C 171.79 72.14 174.18 68.79 177.91 68.32 C 182.92 67.78 187.96 68.13 192.99 68.08 C 595.02 68.19 997.07 68.07 1399.10 68.14 C 1402.48 68.33 1406.24 70.76 1406.19 74.49 C 1406.75 82.65 1406.35 90.84 1406.51 99.01 C 1406.53 269.03 1406.48 439.05 1406.55 609.07 C 1406.83 613.03 1404.66 617.19 1400.84 618.60 C 1397.61 619.34 1394.26 618.95 1390.98 619.02 C 1007.66 619.02 624.33 619.02 241.00 619.02 C 237.19 618.78 232.85 619.76 229.51 617.45 C 226.51 615.77 226.14 612.07 226.05 609.00 C 225.98 471.32 226.01 333.65 226.01 195.97 C 226.20 186.94 218.21 178.34 209.06 178.45 C 199.37 178.08 189.67 178.56 179.98 178.33 C 175.68 178.30 171.36 175.20 170.61 170.86 C 170.09 166.42 170.50 161.93 170.37 157.48 C 163.64 156.35 156.80 156.96 150.01 156.88 C 137.25 157.03 124.47 156.42 111.72 157.15 C 111.53 157.52 111.15 158.28 110.95 158.66 C 110.93 158.11 110.89 157.02 110.87 156.48 C 130.74 156.19 150.60 156.49 170.47 156.34 C 170.45 129.33 170.78 102.30 170.31 75.29 M 190.32 91.36 C 189.99 111.49 190.38 131.63 190.16 151.76 C 201.79 151.55 213.44 151.59 225.07 151.41 C 229.31 151.24 233.42 152.69 236.85 155.11 C 239.39 156.67 240.93 159.36 243.44 160.96 C 243.59 137.84 243.39 114.72 243.57 91.60 C 225.85 90.76 208.07 91.77 190.32 91.36 M 300.58 91.51 C 300.55 113.36 300.71 135.21 300.54 157.06 C 300.67 159.05 299.50 160.80 297.97 161.96 C 295.51 164.17 291.99 163.48 288.97 163.59 C 275.00 163.52 261.04 163.71 247.07 163.47 C 245.01 163.18 245.83 165.84 245.63 167.01 C 245.76 306.01 245.67 445.01 245.69 584.01 C 245.80 589.17 245.23 594.40 246.30 599.49 C 518.85 599.38 791.40 599.53 1063.95 599.42 C 1170.90 599.56 1277.86 599.28 1384.81 599.58 C 1385.00 454.72 1384.85 309.87 1384.87 165.00 C 1385.00 140.48 1384.47 115.95 1385.23 91.44 C 1023.68 91.48 662.13 91.36 300.58 91.51 Z" />
<path fill="#c9cbca" opacity="1.00" d=" M 205.52 104.13 C 211.41 99.98 219.75 98.92 225.95 103.00 C 235.21 108.08 238.12 121.60 231.69 130.02 C 226.14 125.75 221.78 120.17 216.61 115.47 C 213.03 111.57 208.99 108.12 205.52 104.13 Z" />
<path fill="#c9cbca" opacity="1.00" d=" M 201.97 108.06 C 210.68 116.31 218.73 125.25 227.68 133.24 C 224.43 137.10 218.75 137.90 214.00 137.23 C 204.87 136.14 197.54 127.20 198.27 118.03 C 198.43 114.39 199.97 111.03 201.97 108.06 Z" />
<path fill="#c9cbca" opacity="1.00" d=" M 1434.51 259.67 C 1439.78 258.14 1445.49 258.82 1450.90 259.30 C 1457.05 260.59 1459.76 268.84 1455.69 273.60 C 1453.16 276.90 1448.77 277.46 1444.90 277.20 C 1441.07 277.01 1436.83 277.86 1433.44 275.60 C 1427.59 272.24 1428.15 262.17 1434.51 259.67 Z" />
<path fill="#c9cbca" opacity="1.00" d=" M 141.59 266.66 C 147.47 266.65 153.34 266.68 159.21 266.67 C 159.54 320.42 159.38 374.19 159.35 427.95 C 153.49 427.86 147.62 427.99 141.76 427.90 C 141.23 423.29 141.68 418.65 141.62 414.03 C 141.73 364.90 141.62 315.78 141.59 266.66 Z" />
<path fill="#c9cbca" opacity="1.00" d=" M 1434.30 402.52 C 1438.64 400.92 1443.41 401.84 1447.96 401.63 C 1453.79 401.15 1458.91 407.44 1457.12 413.06 C 1456.09 417.06 1452.18 420.05 1448.02 419.71 C 1443.65 419.54 1439.11 420.32 1434.87 419.11 C 1427.90 416.66 1427.47 405.44 1434.30 402.52 Z" />
</g>
<g id="#cc252cff">
<path fill="#cc252c" opacity="1.00" d=" M 67.64 75.46 C 82.05 75.40 96.46 75.32 110.87 75.46 C 130.68 75.11 150.50 75.51 170.31 75.29 C 170.78 102.30 170.45 129.33 170.47 156.34 C 150.60 156.49 130.74 156.19 110.87 156.48 C 96.45 156.55 82.02 156.63 67.60 156.44 C 67.68 145.08 67.58 133.72 67.62 122.37 C 67.81 108.23 67.84 94.09 67.63 79.96 C 67.61 78.46 67.61 76.96 67.64 75.46 Z" />
</g>
<g id="#a3a4a4ff">
<path fill="#a3a4a4" opacity="1.00" d=" M 190.32 91.36 C 208.07 91.77 225.85 90.76 243.57 91.60 C 243.39 114.72 243.59 137.84 243.44 160.96 C 240.93 159.36 239.39 156.67 236.85 155.11 C 233.42 152.69 229.31 151.24 225.07 151.41 C 213.44 151.59 201.79 151.55 190.16 151.76 C 190.38 131.63 189.99 111.49 190.32 91.36 M 205.52 104.13 C 208.99 108.12 213.03 111.57 216.61 115.47 C 221.78 120.17 226.14 125.75 231.69 130.02 C 238.12 121.60 235.21 108.08 225.95 103.00 C 219.75 98.92 211.41 99.98 205.52 104.13 M 201.97 108.06 C 199.97 111.03 198.43 114.39 198.27 118.03 C 197.54 127.20 204.87 136.14 214.00 137.23 C 218.75 137.90 224.43 137.10 227.68 133.24 C 218.73 125.25 210.68 116.31 201.97 108.06 Z" />
</g>
<g id="#c79c2cff">
<path fill="#c79c2c" opacity="1.00" d=" M 70.41 218.45 C 83.91 218.71 97.40 218.48 110.90 218.45 C 115.09 218.43 119.27 218.44 123.46 218.52 C 123.54 302.79 123.53 387.06 123.40 471.33 C 119.31 471.44 115.21 471.49 111.12 471.48 C 97.55 471.44 83.98 471.31 70.41 471.42 C 70.36 387.10 70.36 302.77 70.41 218.45 Z" />
</g>
</svg>
