<svg version="1.2" xmlns="http://www.w3.org/2000/svg" viewBox="0 0 800 1344" width="800" height="1344"><style>.a{fill:#cba84a}.b{fill:#484848}.c{fill:#010101}.d{fill:#e6e6e5}</style><path class="a" d="m217.6 15.5q36.6-0.1 73.1 0c0.1 4.5-0.3 9 0.2 13.5 1.1 2.7 4.5 3.1 6.6 4.8 1.3 3.7-3.9 3.8-6.2 5q0.1 1.2 0.2 2.4 3.1 1.2 6.1 2.4 0.1 1.4 0 2.7-3 1.3-6.1 2.5c0 0.5-0.2 1.6-0.2 2.1 2.1 1.1 4.8 1.5 6.3 3.5 0.2 3.1-4.1 3.3-6.2 4.5q0 1.1 0.1 2.2 3.2 1.4 6.3 3c0 0.6-0.2 1.7-0.3 2.3q-3 1.3-6 2.4-0.1 1.3-0.2 2.5 3.3 1.3 6.5 2.6c0 0.6-0.2 1.9-0.3 2.5q-3 1.3-6 2.5-0.1 1.3-0.2 2.5 3.2 1.1 6.3 2.2 0 1.4 0 2.7-2.4 1.3-4.9 2.6c2.9 1.4 6 2.7 9.3 2.5 6.1-0.1 12 3 16.4 7.1-0.1 4.5 0 8.9-0.1 13.4-1.1 1.3-2.3 2.6-3.3 4.1 0.8 1.7 2.2 2.9 3.4 4.2 0.9 4.9-1.4 10.7 2 14.9q0 3.2 0 6.4c-44.3 0.1-88.6 0-132.8 0q0-2.9 0-5.8c2.2-1.4 4.7-2.1 7.2-2.4 0.6-5.1 0.7-10.3 0.4-15.5-1.8-2.6-5.4-3.3-7.3-5.8-0.4-4.4-0.3-8.8 0-13.1 1.1-3.4 5.1-4.4 7.9-5.9 4.2-2 8.8-1.5 13.3-1.9 2.9-1 5.4-2.9 8.3-3.8 0.1-0.9 0.1-2.7 0.1-3.6-2.3-0.8-4.6-1.9-6.6-3.5 2.2-1.4 4.4-2.6 6.7-3.7q0.1-1.4 0.1-2.8-2.5-0.8-4.9-1.6c-0.4-0.6-1.2-1.8-1.6-2.4q3-1.7 6.1-2.9 0.2-1.5 0.4-3-3.1-1.2-6.2-2.5 0.1-1.2 0.2-2.4 2.9-1.3 5.9-2.6 0.1-1.3 0.2-2.7c-2.2-1.3-7.3-1.1-6-4.6 1.8-1.2 3.9-1.9 5.9-2.8q0-1.6-0.1-3.2-3.2-1-6.2-2.3c0.1-0.5 0.3-1.4 0.4-1.9q2.9-1.4 5.9-2.9 0-10.2-0.1-20.4z"/><path class="b" d="m378.2 121.9c-0.3-6.8 6.2-12.6 12.8-12.3 69.3-0.1 138.7-0.1 208-0.1 3.7 0.1 7.7-0.5 11.1 1.2 4.2 2.1 7.4 6.6 7.2 11.4 0 6.5 0 12.9-0.1 19.4-56.1-0.4-112.1 0-168.2-0.2-23.6 0.2-47.1-0.2-70.7 0.2-0.2-6.5-0.1-13-0.1-19.6z"/><path class="b" d="m98.6 330.6c199.2-0.1 398.5 0 597.7 0q0.1 398.1 0 796.3c-28.1 0.1-56.2 0.3-84.3 0.2-27.3-0.4-54.7 0.2-82-0.1-67 0.1-134-0.1-201 0-12.4 0.3-24.7-0.1-37 0-43.7 0.3-87.3-0.2-131 0.1-20.8-0.3-41.6-0.1-62.4 0-0.2-185 0-370-0.1-555.1 0.1-80.5-0.1-160.9 0.1-241.4z"/><path class="c" d="m41.5 168.5c13.2-16.8 34.2-27 55.6-26.9 30.1-0.1 60.3 0 90.5-0.1 44.2 0 88.5 0.1 132.8 0q28.9 0.1 57.9 0c23.6-0.4 47.1 0 70.7-0.2 56.1 0.2 112.1-0.2 168.2 0.2 29.6 0.1 59.2 0 88.7 0 17.8-0.1 35.4 7.2 48.2 19.4 14.4 13.5 22 33.5 21.4 53.2-0.1 345.3 0 690.6 0 1035.9 0.2 18.8-8 37.1-21.1 50.4-5.7 5.2-12.1 9.7-19 13.1-10 5-21.3 6.7-32.4 6.7-191.7 0-383.4 0-575 0-12-0.2-24 0.4-36-0.4-25.2-1.3-49-17.8-59.1-41-4.5-9.9-6.5-20.9-6.2-31.8 0-344.6-0.1-689.3 0-1034-0.2-15.9 5.2-31.8 14.8-44.5zm540 40.2c3 6.5-1.5 13.2-2.5 19.7q-3.8 0.1-7.6 0c0.9-3.6 2.5-7.2 2.1-11-1.5-3.8-5.6-5.4-9-6.9 1 2 1 4.2 0.4 6.4-2.1 8.2-4.5 16.4-6.6 24.7-0.3 1.5-0.9 3-0.6 4.5 1.6 3.7 5.6 5.2 8.9 6.8-0.7-6 1.8-11.7 3-17.6q3.8 0 7.6 0.1c-2.1 8-4.5 16-6.4 24.1-0.7 2.8-0.9 6.2 1.1 8.5 2.6 3.2 6.7 4.4 10.4 5.9-0.6-2.2-2-4.5-1.2-6.8 3.6-13.9 6.9-27.9 11-41.7 0.7-3.2 1.5-6.8 0.1-9.9-2.2-3.9-6.9-5.1-10.7-6.8zm21.5 14.8q-4 14.4-7.7 28.8c5.6 0 11.1 0 16.6 0q0.9-3.3 1.8-6.5c-3.1 0.2-6.2 0.4-9.3 0.4q0.7-2.7 1.4-5.5c3 0.1 6.1 0.1 9.2 0q0.7-3 1.5-5.9-4.5-0.1-9.1-0.1 0.8-2.6 1.5-5.2c3 0 6 0 9-0.1q0.7-3 1.6-5.9c-5.5 0-11-0.1-16.5 0zm39.6 0q-0.7 3.1-1.4 6.2 3.1 0 6.1-0.1c-2.2 7.6-4.2 15.2-6.1 22.8q3.7 0 7.5 0c2-7 3.6-14.1 5.9-21 0.8-2.8 4.4-1.2 6.5-1.7q0.8-3.1 1.8-6.2-10.2-0.1-20.3 0zm25.9 0c-3 9.5-5.3 19.3-8.1 28.9 5.6 0 11.2 0 16.8 0.1 0.6-2.2 1.1-4.4 1.7-6.6q-4.7 0.3-9.3 0.3 0.8-2.7 1.5-5.4 4.5 0 9-0.1 0.8-2.9 1.7-5.9-4.6-0.1-9.3 0 0.8-2.6 1.5-5.3 4.6-0.1 9.1 0 0.9-3 1.8-6c-5.5 0-11 0-16.4 0zm18.5 13.4c-1.5 5-0.7 11.3 4 14.2 4.2 2.8 9.8 2.4 14.2 0.2 0.8-3.1 1.8-6.1 2.7-9.2-3.3 2.2-7.6 4.9-11.4 2.3-4.4-3.1-2.1-9.9 1.8-12.4 3.4-2.9 8.4-2.1 11.7 0.6 0.6-2.7 1.5-5.4 2.4-8.1-9.9-5.5-23 1.9-25.4 12.4zm-62-13.3c-2.5 9.6-5.1 19.3-7.8 28.9 5.6-0.1 11.2-0.2 16.7-0.1 0.6-2.1 1.1-4.2 1.7-6.2q-4.5 0-9.1 0c1.9-7.6 3.9-15.2 6.2-22.7q-3.8 0-7.7 0.1zm45.3 34.6c-1.2 3.1-2.1 6.3-3.1 9.5q1.5-0.1 3.1-0.2c0.9-3.3 1.9-6.6 2.8-9.9q-1.5 0.2-2.8 0.6zm-72.3 0c-2.2 3-3.9 6.4-6.3 9.3q1.5 0 3-0.1 1.5-1.1 3.2-1.8c1.1 1 2.3 2 3.9 2.3-0.3-3.3-0.6-6.5-0.7-9.8q-1.6 0-3.1 0.1zm6.4 8.4c1.9 1.8 5.2 1.3 7-0.3 2-2.5 2.5-5.8 3.2-8.9-5.3 0.1-2.2 8.7-7.9 8.3q0.8-4 1.8-8.1c-0.7 0.1-2 0.4-2.6 0.6-1 2.6-2.2 5.6-1.5 8.4zm11-6.5c0.8 0.1 2.4 0.2 3.2 0.2q-1 3.7-2.1 7.3c0.7-0.1 2.3-0.2 3.1-0.2 0.4-2.2 0.9-4.3 1.8-6.3 1.4-0.9 2.6-2 3.8-3.2-3.1 0.6-8.6-1.7-9.8 2.2zm12.8-1.8c-3 1.4-5.3 6.3-2.3 8.8 4.6 2.8 10.5-2.9 8.4-7.6-1.4-1.8-4.1-2.2-6.1-1.2zm9.7-0.2c-0.7 3.2-1.8 6.3-2.9 9.4 0.6 0 1.9 0.1 2.5 0.2 0.7-2.1 1.3-4.2 2.2-6.2 0 2.2-0.2 4.4-0.2 6.6 2.6-1.1 3.6-4 5.2-6.2-0.6 2-1.2 4-1.7 6l2.3-0.5c1.5-3 2-6.4 2.6-9.6q-1.7 0.2-3.3 0.4-1.3 2.5-2.8 4.8c-0.1-1.6-0.3-3.2-0.4-4.8q-1.7 0-3.5-0.1zm9.8 7.9c0 0.4-0.1 1.2-0.1 1.6q1.1-0.1 2.4-0.3c1.5-1.5 4.4-2.6 4.8 0.5 0.5 0 1.5-0.2 2.1-0.2-0.3-3.4-0.5-6.7-0.7-10-4.8-0.1-5.4 5.7-8.5 8.4zm11.7-7.8c0 0.5 0 1.6 0 2.1 0.5 0 1.6 0 2.1 0-0.6 2.5-1.1 4.9-1.8 7.3 0.7 0 2.1 0 2.8 0q1.1-3.6 2.1-7.2c1.8 0 3.2-0.6 3.5-2.6-2.9-0.1-5.8 0.1-8.7 0.4zm17.2 0.5c-2.8 1.6-4.7 6.9-1.2 8.7 5.1 2.1 9.8-3.8 7.9-8.6-2.2-0.7-4.7-1.8-6.7-0.1zm10.1-0.6c-0.7 3.2-1.7 6.4-2.7 9.5q1.6 0 3.2-0.1 0.4-2.9 0.9-5.8 1.3 2.9 2.3 6 1.3-0.1 2.7-0.3 1-4.6 2.5-9.2c-0.7 0-2.1-0.1-2.8-0.1q-0.8 2.8-1.6 5.6-0.8-2.8-1.7-5.6-1.4 0-2.8 0zm-588.1 72.5c-0.2 80.5 0 160.9-0.1 241.4 0.1 185-0.1 370.1 0.1 555.1 20.8-0.2 41.6-0.3 62.4 0 43.7-0.3 87.3 0.2 131-0.1 12.3-0.1 24.6 0.3 37 0 67-0.1 134 0.1 201 0 27.3 0.2 54.7-0.3 82 0.1 28.1 0 56.2-0.1 84.3-0.2q0.1-398.2 0-796.3c-199.2 0-398.5-0.1-597.7 0z"/><path class="c" d="m627.4 265.3c0-2.2 0.5-5.6 3.4-5.2 1.9 1.5 0.4 3.8-0.5 5.5q-1.4-0.2-2.9-0.3z"/><path class="c" d="m676.4 265.3c-0.1-2.2 0.6-5.6 3.5-5.1 1.8 1.5 0.2 3.7-0.6 5.3q-1.5-0.1-2.9-0.2z"/><path class="c" d="m598.4 261.4c1.7 0.1 1.1 2.8-0.3 2.9-1.7-0.1-1-2.8 0.3-2.9z"/><path class="c" d="m652.3 264.1c-0.8-1.1 0.6-3.4 1.9-2.5 0.8 1.1-0.5 3.4-1.9 2.5z"/><path class="d" d="m581.5 208.7c3.8 1.7 8.5 2.9 10.7 6.8 1.4 3.1 0.6 6.7-0.1 9.9-4.1 13.8-7.3 27.8-11 41.7-0.8 2.3 0.6 4.6 1.2 6.8-3.7-1.5-7.8-2.6-10.4-5.9-2-2.3-1.8-5.7-1.1-8.5 1.9-8.1 4.3-16.1 6.4-24.1q-3.8-0.1-7.6-0.1c-1.2 5.9-3.7 11.6-3 17.6-3.3-1.6-7.3-3.1-8.9-6.8-0.3-1.5 0.3-3 0.6-4.5 2.1-8.3 4.5-16.5 6.6-24.7 0.6-2.2 0.6-4.4-0.4-6.4 3.4 1.6 7.5 3.1 9 6.9 0.4 3.8-1.2 7.4-2.1 11q3.8 0.1 7.6 0c1-6.5 5.5-13.2 2.5-19.7z"/><path class="d" d="m603 223.6c5.5-0.2 11-0.1 16.5-0.1q-0.9 2.9-1.6 5.9c-3 0.1-6 0.1-9 0.2q-0.7 2.5-1.5 5.1 4.6 0 9.1 0.1-0.8 2.9-1.5 5.9c-3.1 0.1-6.2 0.1-9.2 0q-0.7 2.8-1.4 5.5c3.1 0 6.2-0.1 9.3-0.4q-0.9 3.2-1.8 6.5c-5.5 0-11 0-16.6 0q3.7-14.4 7.7-28.7z"/><path class="d" d="m642.6 223.5q10.1-0.1 20.3 0-1 3.1-1.8 6.2c-2.1 0.5-5.7-1.1-6.5 1.7-2.3 6.9-3.9 14-5.9 21q-3.8 0-7.5 0c1.9-7.6 3.9-15.2 6.1-22.7q-3 0-6.1 0 0.7-3.1 1.4-6.2z"/><path class="d" d="m668.5 223.5c5.4 0 10.9 0.1 16.4 0q-0.9 3-1.8 6-4.5-0.1-9.1 0-0.7 2.7-1.5 5.3 4.7-0.1 9.3 0-0.9 3-1.7 5.9-4.5 0.1-9 0.1-0.7 2.7-1.5 5.4 4.7 0 9.3-0.3c-0.6 2.2-1.1 4.4-1.7 6.6-5.6-0.1-11.2-0.1-16.8-0.1 2.8-9.6 5.1-19.3 8.1-28.9z"/><path class="d" d="m687 236.9c2.4-10.5 15.5-17.9 25.4-12.3-0.9 2.6-1.8 5.3-2.4 8-3.3-2.7-8.2-3.5-11.7-0.6-3.9 2.5-6.2 9.3-1.8 12.4 3.8 2.6 8.1-0.1 11.4-2.3-0.9 3.1-1.9 6.1-2.7 9.2-4.4 2.3-9.9 2.6-14.2-0.2-4.7-2.9-5.5-9.2-4-14.2z"/><path class="d" d="m625 223.6q3.9-0.1 7.7-0.1c-2.3 7.5-4.3 15.1-6.2 22.7q4.6 0 9.1 0c-0.6 2-1.1 4.1-1.7 6.2-5.5-0.1-11.1 0-16.7 0.1 2.7-9.6 5.3-19.2 7.8-28.9z"/><path class="d" d="m670.3 258.2q1.3-0.4 2.8-0.6c-0.9 3.3-1.9 6.6-2.8 9.9q-1.6 0.1-3.1 0.2c1-3.2 1.9-6.4 3.1-9.5z"/><path class="d" d="m598 258.2q1.5-0.1 3.1-0.1c0.1 3.3 0.4 6.5 0.7 9.8-1.6-0.3-2.8-1.3-3.9-2.3q-1.7 0.7-3.2 1.8-1.5 0.1-3 0.1c2.4-2.9 4.1-6.3 6.3-9.3zm0.4 3.2c-1.3 0.1-2 2.8-0.3 2.9 1.4-0.1 2-2.8 0.3-2.9z"/><path class="d" d="m604.4 266.6c-0.7-2.8 0.5-5.8 1.5-8.4 0.6-0.2 1.9-0.5 2.6-0.6q-1 4-1.8 8.1c5.7 0.4 2.6-8.2 7.9-8.3-0.7 3.1-1.2 6.4-3.2 9-1.8 1.5-5.1 2-7 0.2z"/><path class="d" d="m615.4 260.1c1.2-3.9 6.7-1.6 9.8-2.2-1.2 1.2-2.4 2.3-3.8 3.2-0.9 2-1.4 4.1-1.8 6.3-0.8 0-2.3 0.1-3.1 0.2q1.1-3.6 2.1-7.3c-0.8 0-2.4-0.1-3.2-0.2z"/><path class="d" d="m628.2 258.3c2-1 4.7-0.6 6.1 1.2 2.1 4.7-3.8 10.4-8.4 7.6-3-2.5-0.7-7.4 2.3-8.8zm-0.8 7q1.5 0.1 2.9 0.3c0.9-1.7 2.4-4 0.5-5.5-2.9-0.4-3.4 3-3.4 5.2z"/><path class="d" d="m637.9 258.1q1.8 0.1 3.5 0.1c0.1 1.6 0.3 3.2 0.4 4.8q1.5-2.3 2.8-4.8 1.6-0.2 3.3-0.4c-0.6 3.2-1.1 6.6-2.6 9.6l-2.3 0.5c0.5-2 1.1-4 1.7-6-1.6 2.2-2.6 5.1-5.2 6.2 0-2.2 0.2-4.4 0.2-6.6-0.9 2-1.5 4.1-2.2 6.2-0.6-0.1-1.9-0.2-2.5-0.2 1.1-3.1 2.2-6.2 2.9-9.4z"/><path class="d" d="m647.7 266c3.1-2.7 3.7-8.4 8.5-8.4 0.2 3.3 0.4 6.6 0.6 10-0.5 0-1.5 0.2-2 0.3-0.4-3.2-3.3-2.1-4.8-0.5q-1.3 0.1-2.4 0.2c0-0.4 0.1-1.2 0.1-1.6zm4.6-1.9c1.4 0.9 2.7-1.4 1.9-2.5-1.3-0.9-2.7 1.4-1.9 2.5z"/><path class="d" d="m659.4 258.2c2.9-0.3 5.8-0.4 8.8-0.4-0.4 2-1.8 2.6-3.6 2.6q-1 3.6-2.1 7.2c-0.7 0-2.1 0-2.8 0 0.7-2.4 1.2-4.8 1.8-7.3-0.5 0-1.6 0-2.1 0 0-0.5 0-1.6 0-2.1z"/><path class="d" d="m676.6 258.7c2-1.7 4.5-0.6 6.7 0.1 1.9 4.8-2.8 10.7-7.9 8.6-3.5-1.8-1.6-7.1 1.2-8.7zm-0.2 6.6q1.4 0.1 2.9 0.2c0.8-1.6 2.4-3.8 0.6-5.3-2.9-0.5-3.6 2.9-3.5 5.1z"/><path class="d" d="m686.8 258.1q1.3 0 2.7 0 0.9 2.8 1.7 5.6 0.8-2.8 1.6-5.6c0.7 0 2.1 0.1 2.8 0.1q-1.5 4.6-2.5 9.2-1.4 0.2-2.7 0.3-1-3.1-2.3-6-0.5 2.9-0.9 5.8-1.6 0.1-3.2 0.1c1.1-3.1 2-6.3 2.8-9.5z"/><path class="d" d="m12.8 271.1q6.1 0 12.2 0 0.2 19.6 0 39.2-6.2 0.3-12.3 0c-0.2-13-0.3-26.1 0.1-39.2z"/><path class="d" d="m12.4 356c4.2-0.6 8.3-0.6 12.5-0.5 0.4 13.1 0.1 26.3 0.1 39.5-4.2 0.3-8.4 0.3-12.6-0.1q0.1-19.5 0-38.9z"/><path class="d" d="m12.9 1078.8q6-0.3 12 0c0.1 13.2 0.2 26.3 0 39.5-4 0-8.2 1.1-12-0.3-0.6-4.7-0.2-9.4-0.3-14 0.1-8.4-0.2-16.8 0.3-25.2z"/><path class="d" d="m13 1158.4q6 0 12 0.4c0 13.2 0.2 26.5-0.1 39.7q-6.2 0.1-12.4-0.5c0.5-13.2-0.6-26.4 0.5-39.6z"/></svg>