<svg version="1.2" xmlns="http://www.w3.org/2000/svg" viewBox="0 0 1456 730" width="1456" height="730"><style>.a{fill:#fff}.b{fill:#898a8a}.c{fill:#d1d3d3}.d{fill:#b3b5b4}.e{fill:#e4891e}.f{fill:#010101}</style><path class="a" d="m241.4 109.9c347-2.7 694-4.6 1040.9-7.4-1 172.5-1.6 344.9-2.7 517.4-180.9 0.9-361.7 0.9-542.6 1.6-166.2 0.4-332.4 0.7-498.6 1.2 0.5-36.9 0.2-73.9 0.4-110.8 2.4-4.9 4-10.3 4-15.9 0.4-25.7 0.4-51.4 0.6-77.1 0.5-60.2 1.2-120.5 1.4-180.8 0.4-7-1.2-13.8-4.5-19.9 0.2-36.1 1.1-72.2 1.1-108.3z"/><path class="b" d="m1220 44.7c26.3-0.1 52.7-0.2 79-0.4 30.3-0.1 60.6-1 91-0.7 8.4 0.5 16.2 5.4 21.4 11.9 4.5 5.8 5.7 13.3 5.8 20.4-0.7 25.7-0.4 51.4-0.8 77 0 27.7-0.8 55.4-0.9 83.1 0 31.4-0.7 62.7-0.9 94-0.1 27.4-0.8 54.7-1 82-0.2 39-1 78.1-1.2 117.1-0.3 14.3 0.2 28.6-0.6 42.9 0 17-0.1 34-0.3 50.9-0.2 9.2 0.9 18.9-3.2 27.4-4.3 8.4-8.1 17.4-15.2 23.9-5.8 5.4-12.6 11.4-21.1 11.1-14.5-0.1-29 0.4-43.5 0.4q0-1.7 0-3.3c12.4-1.1 25-0.7 37.4-1 4.8-0.2 10.2 0.9 14.4-2 6.2-3.8 12-8.5 15.7-14.7-5.5 2-11 4.5-17 4.5q-25.2 0.4-50.5 0c-0.2 0-0.4 0-0.6 0-5.6-1.2-11.4-0.1-17-1.1-4.2-0.6-8.5-0.7-12.7 0.1-3.5 0.6-7.1-0.1-10.5 0.9h-0.4c-15.1 0.4-30.2 0.1-45.3 0.1-10.4-0.5-20.8-0.3-31.1 0.1-0.5 5-0.4 10-0.2 15 20.1-0.9 40.3-0.9 60.4-1 5.4 0.2 10.8-1.1 16.2 0.1q0 1.5 0 3c-25.7 0.4-51.4 1.3-77.1 1.3-0.1-6.2 0-12.4-0.2-18.6q-20.5-0.1-41 0.1c-0.2 6.4 0.2 12.9-0.2 19.3q-38.5 0.3-77 0.3 0-1.8 0-3.5c11.7-0.1 23.4-0.1 35.2-0.1 13.7 0.2 27.5-0.7 41.2-0.5 0.3-5.3 0.3-10.6 0.2-15.8q-38.3-0.2-76.6 0c-13.8 0.1-27.6 0.1-41.4 0-52.5-0.4-104.9-0.1-157.4-0.3-99.4-0.1-198.7-0.3-298-0.4-23.7-0.8-47.4-0.2-71.1-0.4-107.9-0.1-215.9-0.2-323.9-0.4-38-0.1-76 0.1-114-0.2-11.9-1-23.8 0.2-35.7-0.8 4.2 3.6 8.8 6.8 13.6 9.7 2.2 1.3 4.4 3.3 7.1 3.3 30.7 0 61.3 0.2 91.9 0.4 8.4 0 16.7-0.2 25.1 0.3 53.6 0.3 107.3 0.4 161 0.7 68.3 0.7 136.6 0.6 205 0.9 8.3 0.1 16.6-0.1 25 0.4 51 0.3 102 0.4 153 0.7 5.7-0.1 11.3 0.1 16.9 0.4 55.1 0.2 110.1 0.3 165.1 0.6 10.3-0.3 20.6 0.6 31 0.4 26.6 0.2 53.3 0.3 79.9 0.6 8.5 0.7 17 0.2 25.5 0.5q0 1.7 0 3.5c-26.5-0.1-53-0.5-79.5-0.6-29.9-0.7-59.9-0.4-89.9-0.6-31.6-0.3-63.3 0-95-0.6-60.3-0.7-120.7-0.4-181-1.2-55.4-0.2-110.7-0.3-166.1-0.6-41.6-0.7-83.3-0.4-125-0.8-24.6-0.2-49.2 0.2-73.9-0.5-57-0.3-114-0.2-171.1-0.8-7.5-3.1-14-8.6-20.7-13.3-3.9-3-8.2-5.8-10.9-10-3.9-7-9.4-13.6-10.5-21.8-0.4-5.6 0.1-11.3 0.3-16.9 0.2-29.7 0.4-59.4 0.7-89 0.6-14.7 0.3-29.4 0.6-44.1 0.3-42.4 1.1-84.7 1.4-127 0.8-28.6 0.4-57.3 1-85.9 0.8-36 0.4-72.1 1.4-108.1 0.1-25.7 0.3-51.3 0.6-77 0-4.7-0.1-9.4 0.7-14 2.4-11.7 12.8-21.5 24.8-22.6 16.5-0.5 33.1 0.2 49.6-0.6 38.7-0.4 77.4-0.4 116-0.6 6.7-0.5 13.4-0.3 20-0.4 41.1-0.2 82.1-0.5 123.1-0.6 44.6-0.9 89.3-0.4 134-1.2 51-0.7 102-0.3 153-1.1 43-0.4 86-0.5 129-0.7 49.3-1 98.7-0.4 148-1.4q103.5-0.3 207-1.4c27.3-0.2 54.7-0.1 82-0.7zm-65.9 4.1c-12.1 0.8-24.1 0.3-36.1 0.6-34 0.3-68 0.1-102 0.8-44.3 0.3-88.7 0.6-133 0.5-5 0-10 0.7-15 0.6-32.7 0.1-65.3 0.4-98 0.4-8.7 0.1-17.4-0.2-26 0.5-41.4 0.3-82.7 0.3-124 0.5-13.7 0.1-27.3-0.3-40.9 0.6-29 0.2-58 0.2-87 0.4-8.1 0.2-16.1-0.2-24.1 0.5q-68.5 0.5-137.1 0.6c-3.3 0-6.6 0.4-10 0.5-41.6 0.1-83.2 0.5-124.9 0.5-3.3 0-6.7 0.5-10.1 0.5-28.5 0-57 0.5-85.5 0.2-1.1 36.1-0.5 72.3-1.6 108.4-0.1 11.2 0 22.3-0.3 33.5-4.7 1.9-9.9 0.8-14.9 1.3 0 0.7 0 2.2 0 2.9-0.1 17.1-0.1 34.3-0.2 51.4 0.1 2.3-0.8 4.6-0.8 6.9 0 25.1-0.2 50.1-0.2 75.1-0.1 3.3 0.3 6.7-0.6 10 1.4 4-0.1 8-0.2 12 0 22.7-0.2 45.3-0.1 68-0.1 2.3-1.1 4.6-1 7 0.1 23.2-0.4 46.4 0 69.6h-1q0.5 2.4 1.1 4.8c5-0.2 10.1-0.1 15.1 0 1.1 4.8 0.1 9.7 0.1 14.5-0.2 15.4-0.3 30.7-0.5 46.1-0.9 31.8-0.5 63.6-1.6 95.5 61.1 0 122.2 0.1 183.3 0.2 37.3 0.2 74.7-0.2 112 0.5 158.7 0 317.4 0.4 476.1 0.5 56.9 0 113.9 0.8 170.9 0.4 10.3-0.6 20.6 0.3 31 0.1 24.7 0 49.4 0.1 74.1 0.2q38.9-0.3 77.9 0c53 0 106 0 159 0.1 9.5 0.5 18.5-5 24.1-12.5 4.1-4.9 5.5-11.6 5.5-18 0.2-12.3-0.2-24.7 0.6-37 0.1-27.7 0.2-55.3 0.5-83-0.1-10.6 0.8-21.3 0.5-32 0.4-27.6 0.1-55.3 1-82.9 0.1-27.1 0.2-54.1 0.5-81.1 0.9-11 0.4-22 0.6-33 0-42.4 1.1-84.7 1.2-127 0.1-29.1 1-58 0.8-87-0.4-12.7-11.3-24.7-24.3-24.5q-39 0.1-78 0.3c-52.3 0.9-104.6 0.8-156.9 1zm-1117.4 32.2c-0.4 26 0 52-0.9 78-0.2 29-0.2 58-1 87-0.2 26.3-0.2 52.7-0.7 79-0.7 30.7-0.3 61.4-1.3 92-0.1 28.7-0.5 57.4-0.6 86.1-0.8 21.6-0.6 43.3-0.8 64.9-0.1 22.7-0.9 45.3-0.9 68 0 3.7 1.5 7.1 3.1 10.4 2.6 5.1 6.1 10.2 11.3 13 4.2 2.6 9.2 3.6 14.1 3.9 10.5 0.2 20.9 0.1 31.4 0.1-0.2-29.1 1-58.3 1-87.4 0.1-21.8 0.7-43.5 0.9-65.3-5.3 0-10.7 0.1-16 0-0.1-29.3 0.2-58.5 0.9-87.8 0.3-24.3 0.2-48.6 1-72.9 0.3-24.7 0.1-49.4 1-74 0-24.7 0.4-49.3 0.5-74 0.1-1.8-0.3-3.9 1.1-5.3 4.8-0.9 9.8 0 14.5-1.3-0.3-23.2 0.2-46.3 0.3-69.4 0.2-9-0.1-18 0.6-27 0.1-14.2 0.1-28.3 0.4-42.5-11.8 0.4-23.7 0.2-35.6 0.3-12.7 0.1-23.8 11.6-24.3 24.2z"/><path class="b" d="m1163 70.9c51.3-0.3 102.7-1.1 154.1-1.1q0.7 1.5 0.7 3.2c-0.7 52-1 104-1.5 155.9-0.2 30.1-0.3 60.1-0.9 90.1-0.8 106.6-2.1 213.3-2.7 319.9-0.1 3 0.3 6.1-0.6 9-1 2.9-4.4 3.9-7.1 3.9-386.7-0.5-773.4-0.7-1160.1-0.8q-1.8-0.1-2.4-2c0.6-51.3 1.4-102.6 1.9-154-0.1-1.4 1.1-2.8 2.6-2.8 15.9-0.4 31.8-0.1 47.7-0.6 7.6-0.2 15-5.8 16.1-13.5 0.7-8 0.3-16.1 0.4-24.1 0.5-64.4 1.2-128.7 1.8-193 0.1-4.1-1-8.8-4.4-11.4-4.8-2.7-10.4-3.2-15.6-4.7-12.6-3.5-25.4-6.5-38-9.8-4.3-0.8-7.8-4.5-7.9-9 0.2-48 1.1-96 1.3-144-0.1-2.1 1.1-4.5 3.6-4.1 47.6-0.3 95.3-0.7 143-1 51.3-0.1 102.6-0.9 153.9-1.1q246.6-1.8 493.1-3.4c73.7-0.6 147.3-1.2 221-1.6zm44 4c-58.3 0-116.7 1.2-175 1.2-48.7 0.3-97.3 1-146 1-52.6 0.5-105.3 1-158 1.1-31.3 0.2-62.6 0.6-94 0.8-56.3 0-112.6 0.9-169 1.1-40.3 0.1-80.6 0.6-121 0.9-53.3 0-106.6 1.2-160 1-10.4 0.2-20.8-0.1-31.3 0.4 0.3 13.9-0.4 27.8-0.4 41.6-0.3 30.7-0.2 61.3-1 92 0 3.7-0.4 7.5 0.5 11.2 0.8 2.9 4.1 3.5 6.6 4.3 15.2 3.9 30.2 8 45.4 11.8 4 1 8.5 2.3 10.6 6.2 3.7 5.9 2.5 13 2.7 19.5 0.1 48-1.1 96-1.1 144.1-0.3 20.9-0.4 41.9-0.8 62.9 0.2 10.7-9.8 19.6-20.1 19.8-15.4 0.3-30.8 0.8-46.2 0.4-0.8 11.9-0.3 23.9-0.8 35.8 0.1 30.7-1 61.4-1.1 92.1-0.1 7.4-0.7 15 0 22.5 10-0.3 20 0.3 30 0.2 243 0 486 0.2 729 0.2 107 0 214 0.2 321 0.2 27 0 54 0.7 80.9-0.3 0.6-3.9 0.5-7.9 0.7-11.9 0.3-26.3 0.4-52.6 0.4-79 0.2-30 0.9-60 1-90-0.1-26 0.4-52 0.7-78 0.4-25.3 0.1-50.7 0.6-76q0.6-43 0.7-86c0.6-50.6 1.1-101.2 1.4-151.8-35.4-0.2-70.9 0.5-106.4 0.7z"/><path class="b" d="m1090 99.8c54.3-0.7 108.7-0.7 163-1.2 11.1 0.1 22.2-0.6 33.3 0.1 0.7 10.4 0.1 20.8 0.1 31.3-0.4 56.3-0.5 112.7-1 169-0.3 52.7-0.4 105.4-0.7 158-0.6 54-0.5 108-0.9 162 0.1 1.7-0.3 3.4-0.8 5-54.7 0.4-109.4 0.4-164.1 0.7-126 0.5-251.9 0.2-377.9 0.9-105.7 0.5-211.3 0.3-317 0.8-82.7 0.2-165.3 0.6-248 0.6-1.7 0-3.6 0.1-5-1.1-1-3.2-0.3-6.6-0.4-9.9 0.3-29 0.3-58 0.8-87-0.1-3 0.8-6.4 3.8-7.8 3.8-1 7.9-0.6 11.8-0.7 9.4-0.1 18.7 0.1 28.1-0.2 8.4-0.1 16.7-4.8 20.5-12.4 3.4-6 2.9-13.1 3.2-19.8 0.2-26.4 0.1-52.8 0.3-79.2 0.8-53.6 0.9-107.3 1.6-160.9-0.2-7 0.8-14.3-1.3-21.2-3.2-9.3-12.5-16.1-22.4-15.7-11.3 0.1-22.7 0-34 0.1-3.4 0.3-6.8-2.1-7.8-5.3-0.5-4.3-0.2-8.6-0.3-12.9 0.1-27-0.1-54 0.1-81 0.3-3.9 4.3-6.5 8-6.1 58.4-0.2 116.7-1 175-1.1 41.7-0.2 83.3-0.8 124.9-0.9 49.1-0.2 98.1-0.9 147.1-1 28.6-0.1 57.3-0.5 86-0.7 31-0.3 62-0.1 93-0.5 51.7-0.6 103.3-0.6 155-1 42-0.7 84-0.6 126-0.9zm-848.6 10.1c-19.5 0.1-39 0.2-58.5 0.3-2.1-0.2-4.2 1.6-3.8 3.8-0.3 29.7 0.1 59.4-0.1 89.1-0.4 1.8 0.9 3.8 2.9 3.8 12.7 0.2 25.4-0.3 38.1 0.2 8.1 0.4 14.9 5.4 20.3 11.1 3.3 6.1 4.9 12.9 4.5 19.9-0.2 60.3-0.9 120.5-1.4 180.8-0.2 25.7-0.2 51.4-0.6 77.1 0 5.6-1.6 11-4 15.9-5.4 7.2-13.7 12.4-22.8 12.7-13.1 0.5-26.2 0.1-39.3 0.3-0.6 1.3-1.1 2.6-1 4.1 0.1 11-0.3 22-0.5 33-0.3 15.3 0 30.7-0.4 46 0 5-0.4 9.9 0 14.9 21.2-0.5 42.4-0.1 63.6-0.2 166.2-0.5 332.4-0.8 498.6-1.2 180.9-0.7 361.7-0.7 542.6-1.6 1.1-172.4 1.7-344.9 2.7-517.4-347 2.8-693.9 4.7-1040.9 7.4z"/><path class="b" d="m206.1 126.2c9.9-1.2 20.1 6.8 21 16.8 1.1 7.7-2.5 16-9.3 19.8-4.3 2.7-9.7 3-14.6 1.9-8.8-2.4-15.4-11.5-14.1-20.8 0.7-8.9 8.2-16.4 17-17.7zm-0.6 4.5c-5.1 0.9-9.4 4.6-11.2 9.4-3.9 8.8 2.7 20.9 12.7 21 8.8 1 16.9-7.4 16-16.1-0.2-8.6-8.8-16.2-17.5-14.3z"/><path class="b" d="m200.2 563.3c9.2-2.2 18.9 3.9 21.8 12.7 3.2 9-1.4 20-10.1 24-10.1 5.3-24.2-0.8-27-12-3.5-10.6 4.5-22.7 15.3-24.7zm1.1 3.9c-7.7 1.4-13.5 9-12.7 16.8 0.3 8.2 8.4 14.6 16.5 13.8 9.2-0.5 15.9-11.2 13-19.8-1.9-7.1-9.5-12.3-16.8-10.8z"/><path class="c" d="m1154.1 48.8c52.3-0.3 104.6-0.1 156.9-1q39-0.2 78-0.3c13-0.2 23.9 11.8 24.3 24.5 0.2 29-0.7 57.9-0.8 86.9-0.1 42.4-1.2 84.7-1.2 127.1-0.2 11 0.3 22-0.5 33-0.4 27-0.5 54-0.6 81.1-0.9 27.6-0.6 55.3-1 82.9 0.3 10.7-0.6 21.4-0.5 32-0.3 27.7-0.4 55.3-0.5 83-0.8 12.3-0.4 24.7-0.6 37 0 6.4-1.4 13.1-5.5 18-5.6 7.5-14.6 13-24.1 12.5-53-0.1-106-0.1-159-0.1q-39-0.3-77.9 0c-24.7-0.1-49.4-0.2-74.1-0.2-10.4 0.2-20.7-0.7-31-0.1-57 0.4-113.9-0.4-170.9-0.4-158.7-0.1-317.4-0.5-476.1-0.5-37.3-0.7-74.7-0.3-112-0.5-61.1-0.1-122.2-0.2-183.3-0.2 1.1-31.9 0.7-63.7 1.6-95.5 0.2-15.4 0.3-30.7 0.5-46.1 0-4.8 1-9.7-0.1-14.5-5-0.1-10.1-0.2-15.1 0q-0.6-2.4-1.1-4.8h1c5.3-0.2 10.6 0 15.8-0.1 0.2-24.7 0.2-49.4 0.3-74 19-0.2 37.9 0 56.8 0 0.2-51.3 0.1-102.6 0.1-153.9-18.6-0.2-37.2 0-55.8-0.2 0-7.1-0.1-14.3 0.5-21.4 0.1-16.8 0.2-33.6 0.2-50.4q-7.4-0.1-14.8 0c0-0.7 0-2.2 0-2.9 5-0.5 10.2 0.6 14.9-1.3 0.3-11.2 0.2-22.3 0.3-33.5 1.1-36.1 0.5-72.3 1.6-108.4 28.5 0.3 57-0.2 85.5-0.2 3.4 0 6.8-0.5 10.1-0.5 41.7 0 83.3-0.4 124.9-0.5 3.4-0.1 6.7-0.5 10.1-0.5q68.5-0.1 137-0.6c8-0.7 16-0.3 24.1-0.5 29-0.2 58-0.2 87-0.4 13.6-0.9 27.2-0.5 40.9-0.6 41.3-0.2 82.6-0.2 124-0.5 8.6-0.7 17.3-0.4 26-0.5 32.7 0 65.3-0.3 98-0.4 5 0.1 10-0.6 15-0.6 44.3 0.1 88.7-0.2 133-0.5 34-0.7 68-0.5 102-0.8 12-0.3 24.1 0.2 36.1-0.6zm8.9 22.1c-73.7 0.4-147.3 1-220.9 1.6q-246.6 1.6-493.1 3.3c-51.4 0.3-102.7 1-154 1.2-47.7 0.3-95.3 0.7-143 1-2.5-0.4-3.7 2-3.6 4.1-0.2 48-1.1 96-1.3 144 0.1 4.5 3.6 8.2 7.9 9 12.7 3.3 25.4 6.3 38 9.8 5.2 1.5 10.8 2 15.6 4.7 3.4 2.6 4.5 7.3 4.4 11.4-0.6 64.3-1.3 128.6-1.8 193-0.1 8 0.4 16.1-0.4 24.1-1.1 7.7-8.5 13.3-16 13.5-16 0.5-31.9 0.2-47.8 0.6-1.5 0-2.7 1.4-2.6 2.8-0.5 51.4-1.3 102.7-1.9 154q0.6 1.9 2.4 2c386.7 0.1 773.4 0.3 1160.1 0.8 2.7 0 6.1-1 7.1-3.9 0.9-2.9 0.5-6 0.6-9 0.6-106.6 1.9-213.3 2.7-319.9 0.6-30 0.7-60 0.9-90.1 0.6-51.9 0.8-103.9 1.6-155.9q-0.1-1.7-0.8-3.2c-51.4 0-102.7 0.8-154.1 1.1z"/><path class="c" d="m36.7 81c0.5-12.6 11.5-24.1 24.3-24.2 11.9-0.1 23.7 0.1 35.6-0.3-0.3 14.2-0.3 28.3-0.4 42.5-0.7 9-0.4 18-0.6 27-0.1 23.1-0.6 46.2-0.3 69.3-4.8 1.4-9.7 0.5-14.5 1.4-1.4 1.4-1 3.5-1.1 5.3-0.1 24.7-0.5 49.3-0.5 74-0.9 24.6-0.7 49.3-1 74-0.8 24.3-0.7 48.6-1 72.9-0.7 29.3-1 58.5-0.9 87.8 5.3 0 10.7-0.1 16 0-0.2 21.8-0.9 43.5-0.9 65.3 0 29.1-1.2 58.3-1 87.4-10.5 0-20.9 0.1-31.4-0.2-4.9-0.2-9.9-1.2-14.1-3.8-5.2-2.8-8.7-7.9-11.3-13-1.6-3.3-3.1-6.7-3.1-10.4 0-22.7 0.8-45.3 0.9-68 0.2-21.6 0-43.3 0.8-64.9 0.1-28.7 0.5-57.4 0.6-86.1 1-30.6 0.5-61.4 1.2-92 0.6-26.3 0.6-52.7 0.8-79 0.8-29 0.8-58 1-87 0.9-26 0.5-52 0.9-78z"/><path class="c" d="m205.5 130.7c8.7-1.8 17.3 5.7 17.5 14.3 0.8 8.7-7.2 17.1-16 16.1-10-0.1-16.6-12.2-12.7-21 1.8-4.8 6.1-8.5 11.2-9.4z"/><path class="c" d="m201.3 567.2c7.3-1.5 14.9 3.7 16.8 10.8 2.9 8.6-3.8 19.3-13 19.8-8.1 0.8-16.2-5.6-16.5-13.9-0.8-7.7 5-15.3 12.7-16.7z"/><path class="c" d="m1379 669.2c6 0 11.5-2.5 17-4.5-3.7 6.2-9.5 10.9-15.7 14.7-4.2 2.8-9.6 1.8-14.4 2-12.4 0.3-25-0.1-37.4 1q0-6.6 0-13.2 25.3 0.4 50.5 0z"/><path class="c" d="m50.3 666.4c11.9 1 23.8-0.2 35.7 0.8 38 0.3 76 0.1 114 0.2 108 0.2 216 0.3 323.9 0.4 23.7 0.2 47.4-0.4 71.1 0.4 99.3 0.1 198.7 0.3 298 0.4 52.5 0.2 104.9-0.1 157.4 0.3 0 5.5 0 11 0 16.4-8.5-0.3-17 0.2-25.5-0.5-26.6-0.3-53.3-0.4-79.9-0.6-10.4 0.2-20.7-0.7-31-0.4-55-0.3-110-0.4-165.1-0.6-5.6-0.3-11.2-0.5-16.9-0.4-51-0.3-102-0.4-153-0.7-8.4-0.5-16.7-0.3-25-0.4-68.3-0.3-136.7-0.2-205-0.9-53.7-0.3-107.3-0.4-161-0.6-8.4-0.5-16.7-0.4-25-0.4-30.7-0.2-61.3-0.4-92-0.4-2.7 0-4.9-2-7.1-3.2-4.8-3-9.4-6.2-13.6-9.8z"/><path class="c" d="m1287.7 669.1c3.4-1 7-0.3 10.5-0.9 4.2-0.8 8.5-0.7 12.7-0.1 5.6 1 11.4-0.1 17 1.1q-20.1 0-40.2-0.1z"/><path class="c" d="m1091.8 668.9q38.3-0.2 76.6 0c0.1 5.2 0.1 10.5-0.1 15.8-13.8-0.2-27.6 0.7-41.3 0.5-11.8 0-23.5 0-35.2 0.1q0-8.2 0-16.4z"/><path class="c" d="m1210.9 669.3c10.3-0.4 20.7-0.6 31.1-0.1 15.1 0 30.2 0.3 45.3-0.1 0 4.8-0.1 9.5 0 14.3-5.4-1.2-10.8 0.1-16.2-0.1-20.2 0.1-40.3 0.1-60.4 1-0.2-5-0.3-10 0.2-15z"/><path class="d" d="m1207 74.9c35.5-0.2 71-0.9 106.4-0.7-0.3 50.6-0.8 101.2-1.4 151.8q-0.1 43-0.7 86c-0.5 25.3-0.2 50.7-0.6 76-0.3 26-0.8 52-0.7 78-0.1 30-0.8 60-1 90 0 26.4-0.1 52.7-0.4 79-0.2 4-0.1 8-0.7 11.9-26.9 1-53.9 0.3-80.9 0.3-107 0-214-0.2-321-0.2-243 0-486-0.2-729-0.2-10 0.1-20-0.5-30-0.2-0.7-7.5-0.1-15.1 0-22.5 0.1-30.7 1.2-61.4 1.2-92.1 0.4-11.9-0.1-23.9 0.7-35.8 15.4 0.4 30.8-0.1 46.2-0.4 10.3-0.3 20.4-9.2 20.1-19.8 0.4-21 0.5-42 0.8-63 0-48 1.3-96 1.1-144-0.2-6.6 1-13.7-2.7-19.5-2.1-3.9-6.6-5.2-10.6-6.2-15.2-3.8-30.2-8-45.4-11.8-2.5-0.8-5.8-1.4-6.6-4.3-0.9-3.7-0.5-7.5-0.5-11.2 0.8-30.7 0.7-61.3 1.1-92-0.1-13.8 0.6-27.7 0.3-41.6 10.5-0.5 20.9-0.2 31.3-0.4 53.4 0.1 106.7-1 160-1 40.4-0.3 80.7-0.9 121-1 56.4-0.1 112.7-1 169-1 31.4-0.2 62.7-0.6 94-0.9 52.7-0.1 105.4-0.5 158-1 48.7 0 97.3-0.7 146-1 58.3-0.1 116.7-1.2 175-1.2zm-117 24.9c-42 0.3-84 0.2-126 0.9-51.6 0.4-103.3 0.4-155 1-31 0.4-62 0.2-93 0.5-28.7 0.2-57.4 0.6-86 0.7-49 0.1-98 0.8-147 1-41.7 0-83.3 0.7-125 0.9-58.3 0.1-116.6 0.9-175 1.1-3.7-0.4-7.7 2.2-8 6.1-0.2 27 0 54-0.1 81 0.1 4.3-0.2 8.6 0.3 12.9 1.1 3.2 4.4 5.6 7.8 5.3 11.3-0.1 22.7-0.1 34-0.1 9.9-0.5 19.3 6.4 22.4 15.7 2.1 6.9 1.1 14.2 1.3 21.2-0.7 53.6-0.8 107.3-1.6 160.9-0.1 26.4-0.1 52.8-0.3 79.2-0.3 6.7 0.2 13.8-3.2 19.8-3.8 7.6-12.1 12.3-20.5 12.4-9.4 0.3-18.7 0.1-28.1 0.2-3.9 0.1-8-0.3-11.8 0.7-3 1.4-3.9 4.8-3.8 7.8-0.5 29-0.5 58-0.8 87 0.1 3.3-0.6 6.7 0.4 9.9 1.4 1.2 3.3 1.1 5 1.1 82.7 0 165.3-0.4 248-0.6 105.7-0.5 211.3-0.3 317-0.8 126-0.7 251.9-0.4 377.9-0.9 54.7-0.3 109.4-0.3 164.1-0.7 0.6-1.6 0.9-3.3 0.8-5 0.4-54 0.3-108 0.9-162 0.3-52.7 0.4-105.3 0.7-158 0.5-56.4 0.6-112.7 1-169 0-10.5 0.6-20.9-0.1-31.3-11.1-0.7-22.2 0-33.3-0.1-54.3 0.5-108.7 0.5-163 1.2z"/><path class="d" d="m179.1 114c-0.4-2.2 1.7-4 3.8-3.8 19.5-0.1 39-0.2 58.5-0.3 0 36.1-0.9 72.2-1.1 108.3-5.4-5.7-12.1-10.7-20.3-11.1-12.6-0.5-25.4 0-38.1-0.3-2 0.1-3.3-1.9-2.9-3.7 0.2-29.7-0.1-59.4 0.1-89.1zm27 12.2c-8.8 1.3-16.3 8.8-17 17.7-1.3 9.3 5.3 18.4 14.1 20.8 4.9 1.1 10.3 0.8 14.6-1.9 6.8-3.8 10.4-12.1 9.3-19.8-0.9-10-11.1-18-21-16.8z"/><path class="d" d="m216 524.6c9.1-0.3 17.4-5.5 22.8-12.7-0.2 36.9 0.1 73.9-0.4 110.8-21.2 0.1-42.4-0.3-63.6 0.2-0.4-5 0-9.9 0-14.9 0.4-15.3 0.1-30.7 0.4-46 0.2-11 0.6-22 0.5-33-0.1-1.5 0.4-2.8 1-4.1 13.1-0.2 26.2 0.2 39.3-0.3zm-15.8 38.7c-10.8 2-18.8 14.1-15.3 24.7 2.8 11.2 16.9 17.3 27 12 8.7-4 13.3-15 10.1-24-2.9-8.8-12.6-14.9-21.8-12.7z"/><path class="e" d="m83.6 202.6q7.4-0.1 14.8 0c0 16.8-0.1 33.6-0.2 50.4-0.6 7.1-0.5 14.3-0.5 21.4 18.6 0.2 37.2 0 55.8 0.2 0 51.3 0.1 102.6-0.1 153.9-18.9 0-37.8-0.2-56.8 0-0.1 24.6-0.1 49.3-0.3 74-5.2 0.1-10.5-0.1-15.8 0.1-0.4-23.2 0.1-46.4 0-69.7-0.1-2.3 1-4.6 1-7-0.1-22.6 0.1-45.2 0.1-67.9 0.1-4 1.6-8 0.2-12 0.9-3.3 0.5-6.7 0.6-10 0-25 0.2-50 0.2-75.1 0.1-2.3 0.9-4.6 0.9-6.9 0-17.1 0-34.3 0.1-51.4z"/><path class="f" d="m1050.4 668.9c13.8 0.1 27.6 0.1 41.4 0q0 8.2 0 16.4 0 1.7 0 3.5 0 5 0 10-20.7-0.2-41.4 0c-0.1-3.4-0.1-6.7 0-10q0-1.8 0-3.5c0-5.4 0-10.9 0-16.4z"/><path class="f" d="m1169 669.2q20.5-0.2 41-0.1c0.2 6.2 0.1 12.4 0.2 18.6 0 3.7 0 7.4 0 11.1q-20.7 0.1-41.5 0.1c0-3.5-0.1-7 0.1-10.4 0.4-6.4 0-12.9 0.2-19.3z"/><path class="f" d="m1287.3 669.1h0.4q20.1 0.1 40.2 0.1c0.2 0 0.4 0 0.6 0q0 6.6 0 13.2 0 1.6 0 3.3c0.1 3.7 0.1 7.5 0.1 11.2-13.7 0.5-27.5 0-41.2 0.3-0.2-3.6-0.1-7.2-0.1-10.8q0-1.5 0-3c0-4.8 0-9.5 0-14.3z"/></svg>