<svg version="1.2" xmlns="http://www.w3.org/2000/svg" viewBox="0 0 1488 720" width="1488" height="720"><style>.a{fill:#fff}.b{fill:#292926}.c{fill:#484845}.d{fill:#b9b9b9}</style><path class="a" d="m67.9 46c-0.4-14.1 11.8-27.4 26.1-27.4 44.9-0.1 89.8-0.1 134.8-0.1-0.2 28.9-0.1 57.7-0.1 86.5 0 6.8-0.4 13.7 0.9 20.5 2.3 13.3 9.7 25.4 19.6 34.4 10.4 8.9 24 14 37.8 14.3 17.4 0.1 34.9-0.1 52.3 0q0-6-0.1-11.9c-17.1 0.1-34.1 0-51.3 0-19.1 0.5-37.4-12.5-44-30.4-2.5-7-3.2-14.5-3.1-21.9 0.1-30.5 0-60.9 0.1-91.4 400-0.1 800.1 0 1200.1 0 14.5-1 27.8 12 27.7 26.4q0 314 0 628.1c0.1 13.7-11.9 26.2-25.7 26.4-108.5 0.5-216.9 0.8-325.4 1-117.2 0.3-234.4 0.8-351.6 1.1-41.7 0.2-83.3 0.1-125 0.5-112.3 0.1-224.7 0.5-337 0.7-21.8 0.2-43.5-0.2-65.3 0.3q-0.1-41-0.1-82.1c0.1-9-0.7-18.3 2.2-27.1 5.6-19.9 24.5-35.4 45.3-36.2q25.9 0 51.8-0.1c0-4-0.1-8 0-11.9-16.6 0-33.3 0-49.9 0.1-15.7 0.1-31.5 6.4-42.6 17.7-11.8 11.5-18.9 27.9-18.8 44.5 0 31.7-0.1 63.5 0 95.2-43.8-0.1-87.7 0.2-131.6 0.2-14.4-0.1-27-13.1-27.1-27.4-0.1-58.1 0-116.2 0-174.2 45.7-0.1 91.4 0 137.1-0.2 6.2 0.1 12.3-1.3 17.9-3.8 15.5-6.7 26.2-22.9 26.4-39.8 0-64.4 0-128.7-0.1-193 0.2-12-3.9-24.3-12.2-33-8.5-8.8-20.8-13.8-33-13.4-45.4 0-90.8 0-136.2 0 0.1-57.5 0-115 0.1-172.6zm291.5-5.8c0 213.5 0 426.9 0.1 640.4 37.1-0.2 74.3-0.2 111.4-0.3 53.4 0 106.8-0.6 160.1-0.5 271.8-0.7 543.6-1.5 815.4-2.2 0.1-212.5 0-424.9 0.2-637.4q-543.6 0-1087.2 0z"/><path class="a" d="m479.5 89.7c3.5-1.8 9.2-0.2 9.4 4.3 1 5.5-6.4 9-10.5 5.7-3.6-2.4-2.7-8.3 1.1-10z"/><path class="a" d="m557.2 142.3c3.5-16.8 6.5-33.7 9.7-50.5 3.6 0 7.1 0 10.7 0-3.5 16.8-6.5 33.8-9.8 50.7q-5.3 0.1-10.6-0.2z"/><path class="a" d="m860.4 142.5c2.8-17 6.6-33.8 9.5-50.7q5.3-0.1 10.7-0.1c-2.1 9.5-3.7 19-5.8 28.4 5.8-4.6 11-10.1 17.1-14.2 4.2-0.4 8.4 0 12.5-0.1-5.9 5.3-11.9 10.4-17.6 15.9 4 6.9 8.1 13.8 12.2 20.8q-6.2-0.1-12.3 0.1c-2.7-4.8-5.2-9.7-8.2-14.4-2 1.7-4.2 3.2-5.8 5.4-1.1 2.9-1.3 6-1.9 9q-5.2 0-10.4-0.1z"/><path class="a" d="m429.6 94.6q5-0.1 10-0.1c1.3 11.4 3.3 22.7 4.3 34 5.8-11.2 11-22.6 16.7-33.9q5.6-0.1 11.1-0.1c-8.1 15.9-16.1 31.9-24 47.9-3.9 0.1-7.8 0.1-11.8 0.1-1.2-10.8-2.9-21.4-4-32.2-5.4 10.6-10.7 21.4-16 32-3.9 0.5-8 0.1-12 0.2-1.5-16.1-3.7-32-5.6-48q5.4 0 10.8 0c1.3 11.2 2.6 22.3 3.8 33.5 5.7-11.1 10.9-22.4 16.7-33.4z"/><path class="a" d="m713 94.5c13.4 0 26.9 0 40.3 0-0.6 3-1.3 6-1.9 9-4.9 0-9.7 0-14.5 0-2.6 13-5 26-7.6 39q-5.5 0-11 0c2.4-13 5.1-26 7.6-39-4.9 0-9.8 0-14.7 0 0.6-3 1.2-6 1.8-9z"/><path class="a" d="m503.6 110c3.6-3.5 8.4-4.9 13.3-4.9q-0.6 4.8-1.4 9.5c-4.9-0.3-10.9 1-12.6 6.2-1.9 7.1-3 14.5-4.4 21.7q-5.3 0-10.6 0c2.5-12.2 4.9-24.4 7.2-36.7q4.8-0.1 9.5-0.1-0.5 2.2-1 4.3z"/><path class="a" d="m520.7 113.7c3.9-6 11.4-8.9 18.4-8.5 5.2 0.1 10.8 2.6 13.2 7.5 2.3 4.3 2.1 9.4 1.4 14.1-9.1 0.2-18.2 0-27.2 0.1 0.9 2.4 1.7 5.2 4.2 6.4 4.8 2.3 10.5 1 14.7-1.9 1.2 2.2 3.6 4.1 3.9 6.6-3.3 3.8-8.5 4.9-13.3 5.1-6 0.2-12.7-1.7-16.3-6.9-4.8-6.6-3.5-16 1-22.5zm6.5 7.1c6-0.1 12 0.1 18-0.1-0.7-2.8-1.5-6.2-4.7-7-5.6-2-11.3 1.8-13.3 7.1z"/><path class="a" d="m593.8 105.8c6.4-1.3 14.2-0.7 18.6 4.8 3.7 4.5 3.3 10.7 2.6 16.2-9.1 0.1-18.1 0-27.2 0.1 0.8 2.3 1.5 5.1 3.9 6.4 4.8 2.5 10.7 1.1 15-1.9 1.5 2.1 3.1 4.3 4.5 6.4-8.4 7.6-24.1 7.4-30.7-2.4-6.6-10.9 0.7-27.3 13.3-29.6zm-5.3 14.9q9 0.2 18 0c-0.7-2.6-1.4-5.9-4.3-6.8-5.6-2.3-11.9 1.2-13.7 6.8z"/><path class="a" d="m627 107.9c7.7-4.2 17.3-3.2 25.1 0.2-1.3 2.5-2.6 5.1-3.9 7.6-4.4-2.2-9.7-3.4-14.5-1.9-1.7 0.4-2.4 2.1-3.5 3.2 4.7 5 12.9 2.2 17.6 7.2 4.3 5.4 1.4 14.3-4.9 16.7-8.4 3.5-18.3 2.5-26.4-1.4 1.4-2.6 2.8-5.2 4.1-7.8 5.1 2.4 11 4.1 16.6 2.5 2.1-0.4 3.6-3.4 1.4-4.7-4.9-2.4-11.3-1.6-15.4-5.8-4.2-4.8-1.7-13 3.8-15.8z"/><path class="a" d="m668.4 105.7c6.5-1.3 13.3-0.3 19.3 2.4-1.3 2.6-2.7 5.2-4 7.8-4.7-2.3-10.5-3.9-15.6-1.7-2.2 0.7-2.5 4-0.2 4.9 5.2 1.9 12.2 1.1 16 6.1 3.9 6.1-0.5 14.4-7 16.4-8.1 2.6-17.2 1.5-24.9-2.1 1.3-2.7 2.7-5.4 4-8.1 5 2.7 10.9 4.5 16.6 3 1.4-0.5 3.2-1.8 2.5-3.5-0.6-1.7-2.6-2.1-4.1-2.5-4.2-1-8.9-1.2-12.2-4.3-3.2-3.1-2.8-8.4-0.7-12 2.1-3.7 6.3-5.6 10.3-6.4z"/><path class="a" d="m763.8 110c3.8-3.2 8.4-5.1 13.4-4.8q-0.9 4.8-1.7 9.6c-4.9-0.5-10.7 1.1-12.5 6.2-2.2 7-2.8 14.4-4.4 21.6q-5.4 0-10.7-0.1c2.5-12.2 4.7-24.5 7.2-36.7 3.3-0.1 6.5-0.1 9.8 0q-0.6 2.1-1.1 4.2z"/><path class="a" d="m783.4 110.4c6.4-6.1 18.5-7.8 24.6-0.4 0.3-1.3-0.2-3.1 0.9-4.1 3.3-0.3 6.7-0.1 10-0.2-1.9 12.3-4.6 24.5-6.7 36.8q-5.2 0.1-10.3-0.1 0.4-1.9 0.8-3.8c-4 4.4-10.5 5.3-16 3.6-5-2-8.8-6.8-9.6-12.1-1.2-7 1-14.8 6.3-19.7zm10.1 4.3c-5.3 2.4-7.1 9.2-5.7 14.5 1.5 4.9 8 6.4 12.1 3.8 4.6-2.7 6.2-8.9 5.1-13.9-1.2-4.9-7.3-6.5-11.5-4.4z"/><path class="a" d="m831.6 108.5c6.4-3.9 15-4.7 21.7-1.1 3 1.4 4.7 4.3 6.2 7-2.8 1.4-5.7 2.8-8.5 4.3-2.2-3.7-6.8-5.9-11-4.4-6.3 1.8-8.9 9.7-6.7 15.5 1.7 3.9 6.7 5.3 10.6 4 2.4-0.7 4.1-2.7 5.8-4.5 2.4 1.6 4.8 3 7.3 4.4-2 2.7-4 5.6-7.1 7.2-4.5 2.5-10 2.6-15 1.6-6.8-1.3-12.4-7.5-12.7-14.4-0.7-7.6 2.8-15.6 9.4-19.6z"/><path class="a" d="m908.3 111.4c5.2-5.6 13.7-7.4 20.9-5.5 3.7 1 7.2 3.5 8.8 7 2.3 4.3 1.9 9.3 1.3 14-9 0.1-18.1-0.2-27.1 0 0.8 2.4 1.8 5.1 4.2 6.4 4.8 2.4 10.6 1.1 14.7-2 1.4 2.2 3 4.2 4.1 6.6-3.7 4.3-9.8 5.3-15.2 5.2-5.9-0.1-12.1-2.7-15.2-7.9-4.4-7.5-2.4-17.7 3.5-23.8zm4.6 9.4c5.9 0 12 0 18-0.1-0.8-2.9-1.7-6.5-5-7.2-5.6-1.7-11.2 2-13 7.3z"/><path class="a" d="m958.8 110c3.7-3.3 8.4-5 13.3-4.8-0.6 3.2-1.2 6.4-1.8 9.7-4.8-0.7-10.6 0.8-12.4 5.8-2.1 7.1-2.9 14.6-4.5 21.8q-5.4 0-10.7-0.1c2.6-12.2 5-24.4 7.2-36.6 3.3-0.1 6.7-0.1 10.1 0q-0.6 2.1-1.2 4.2z"/><path class="a" d="m475.1 105.7q5.3 0 10.6 0.1c-2.3 12.3-4.5 24.6-7.1 36.8q-5.3 0-10.5 0c2.1-12.3 5-24.5 7-36.9z"/><path class="a" d="m998.9 110.8c5.5 0.4 13.1-2 16.6 3.7 2.7 3.7 0.5 8.5-2.9 10.9 1.5 2.2 2.9 4.5 4.4 6.8q-2.5 0-5 0c-1.3-2-2.5-4.2-4.1-6q-2.2-0.3-4.4-0.5 0.1 3.2 0.1 6.5-2.4 0-4.7-0.1-0.1-10.6 0-21.3zm4.6 3.8q0 3.8 0 7.6c2.5-0.2 5.4 0.4 7.6-1.1 1.3-1.9 1-4.9-1.1-6-2.1-0.5-4.3-0.4-6.5-0.5z"/><path class="a" d="m1070.2 114.2c3.7-4.6 12.4-5.7 15.4 0 2.5 6.1-3.9 10.3-7.6 14q4.4 0 8.9 0 0 2 0 4c-5.2 0-10.3-0.1-15.5 0 0-0.9 0-2.6 0-3.4 2.8-3 6.1-5.5 8.8-8.6 1.3-1.5 1.8-4.3-0.3-5.4-2.3-1-4.6 0.5-6.5 1.7q-1.6-1.1-3.2-2.3z"/><path class="a" d="m1102.2 111.2c3.6-1.8 8.5-0.5 10.6 3.1 2.5 4.1 2.6 9.7 0.5 14-2.6 5-10.4 5.8-13.8 1.3-4.3-5.3-3.7-15 2.7-18.4zm1.3 4.3c-2 2.3-2 5.7-1.6 8.5 0.3 2.4 2.3 5.2 5.1 4.4 3.4-2 3.7-6.9 2.7-10.4-0.6-2.5-4.1-4.7-6.2-2.5z"/><path class="a" d="m1020.1 120.1c2.3-5.3 11-6.2 14.1-1.3 1.3 1.9 1.4 4.3 1.7 6.5-4.3 0.1-8.6-0.3-12.9 0.1 1.4 1.5 2.8 3.3 5 3.4 1.5-0.1 2.9-0.8 4.4-1.2q1.3 1.2 2.6 2.4c-3.4 2.6-8.3 3.4-12 1.1-3.6-2.3-4.8-7.3-2.9-11zm3.8 0.6c0 0.5-0.2 1.6-0.3 2.1 2.9-0.4 5.8-0.4 8.7-0.5-1.1-1.1-1.9-2.4-3.3-3.1-1.9-0.6-3.6 0.6-5.1 1.5z"/><path class="a" d="m1036.4 115.9q2.4 0 4.8-0.1c1.3 3.7 2.8 7.4 4.3 11.1 1.5-3.6 3-7.3 4.4-11q2.3-0.1 4.7-0.1c-2.5 5.4-4.7 10.8-6.8 16.4q-2.3 0-4.7-0.1c-2.2-5.4-4.3-10.8-6.7-16.2z"/><path class="a" d="m1056.5 126.6c3.5-1.5 5.6 4.6 2 5.7-3.5 1.4-5.5-4.6-2-5.7z"/><path class="a" d="m1090.1 127c3.3-2.3 6.9 2.7 3.7 5-3.1 2.2-6.2-2.8-3.7-5z"/><path class="a" d="m1211.3 300.7c9.3-11.4 18.3-23.1 27.7-34.5 2.6 1.9 5.3 3.9 7.9 6-7.5 9.3-14.7 18.9-22.4 28.1 5.6 4.5 11.4 8.8 17 13.3q-2.6 3.5-5.2 7c-8.2-6.8-16.7-13.3-25-19.9z"/><path class="a" d="m1257.5 302.7c11.5-3.8 25.5 6 25.1 18.3-0.1 9.1-8.3 17.7-17.6 17.3-8.8-0.2-17-6.7-19.1-15.3-2.1-8.4 3.6-17.6 11.6-20.3zm3.8 8.7c-6.7 2.5-9.1 12.9-2.3 16.7 6.5 4.4 15.3-2.9 14-10.1-0.8-5.2-6.8-9.1-11.7-6.6z"/><path class="a" d="m1273.7 349.2c9-11.7 18.3-23.3 27.5-35 6.2 5 12.8 9.6 18.5 15.2 4.3 4.2 6.5 10.9 4.2 16.7-2.7 7.3-10.8 11.8-18.3 9.8-0.7 5.9-1.3 11.8-1.8 17.7-2.8-2.4-5.7-4.6-8.6-6.8 0.2-5.1 1.1-10.1 1.3-15.1-2-2.3-4.7-4-7-6-2.7 3.4-5.3 6.8-7.9 10.2-2.7-2.2-5.6-4.1-7.9-6.7zm21-10.1c3.7 2.7 6.9 6.3 11.4 7.6 5.4 1.4 10.4-4.9 8.1-9.9-2.2-4.3-6.6-6.7-10.2-9.6-3.1 4-6.1 8-9.3 11.9z"/><path class="a" d="m1326.5 360q0.6-3.8 1.4-7.6c7.8 0.9 15.5 5.5 19.3 12.5 2.4 4.4 1.3 9.7-1.5 13.6-4.3 6-9.1 11.6-13.5 17.4-2.5-2-5-4-7.4-6q1.2-1.2 2.5-2.4c-7.5 0.8-15.6-4.8-16.2-12.4-0.6-5.9 4.9-11.6 10.9-10.7 6.3 0.7 10.5 6 15.5 9.3 0.6-2.2 1.9-4.7 0.7-6.9-2.3-4.3-7.2-6.1-11.7-6.8zm-6.3 16.9c0.6 3.1 3.9 4.6 6.8 5.1 2.8 0.8 4.7-1.7 6.7-3.2-2.8-2.4-5.4-5.3-9-6.6-2.7-1-5.2 2.1-4.5 4.7z"/><path class="a" d="m1138.2 359.2c14.1-3.6 29.8 7.6 30.8 22.2-3.1 0.2-6.2 0.4-9.2 0.8-0.8-4.9-3.2-9.9-7.8-12.2-5.5-3.4-13.2-2.2-17.4 2.7-3.8 4.2-5.1 10.8-2.1 15.8 2.3 4.3 6.8 6.7 11.3 8.1 2.8-3.3 5.5-6.8 8.3-10.1q3.6 2.9 7.2 5.9c-3.4 4.2-6.5 8.7-10.3 12.6-1.5 2.1-4.1 1.2-6.1 0.9-11.4-2.3-21.5-12.1-22.1-23.9-0.3-10.4 7.3-20.5 17.4-22.8z"/><path class="a" d="m1152.4 415.9c9.1-11.6 18.2-23.3 27.5-34.7 2.2 1.9 5.3 3.3 6.6 5.9 0.2 11.2 0.7 22.4 0.7 33.6 5.5-7 11.1-13.9 16.8-20.7q3.9 3 7.7 6.1c-8.9 12-18.6 23.3-27.7 35.1q-3.2-2.5-6.4-5.1c-0.3-11.7-0.8-23.4-0.7-35.1-5.4 7.2-11.2 14.2-16.7 21.3-2.6-2.1-5.2-4.2-7.8-6.4z"/><path class="a" d="m1207.3 430.1c-1.3-7.9 7.1-14.9 14.7-13.3 9.4 1.7 17.1 9.2 20.3 18-2.4 1.3-4.9 2.7-7.4 4.1-2.3-5.4-5.9-11.1-11.8-12.8-2.9-1.2-6.9 1.6-5.4 4.8 2.9 6.5 9.4 11 10.9 18.2 1.4 7.2-5.6 13.8-12.5 13.6-6.5 0-12-4.1-16.5-8.4-3.6-3.4-6-7.8-7.5-12.5 2.5-1.3 5.1-2.5 7.7-3.8 2.4 6.7 6.8 13.8 14.2 15.4 3 0.7 5.3-2.9 3.8-5.4-3-6.3-9.2-10.8-10.5-17.9z"/><path class="a" d="m1238.9 454.1c-0.4-7.3 6.9-13.3 14-12.5 10 1.2 17.6 9.4 21.5 18.1q-3.7 2.1-7.5 4.3c-2.4-4.8-5.3-9.9-10.4-12.3-2.1-1.1-5.3-1.2-6.8 1-1.4 2 0.1 4.5 1.2 6.3 3.6 5.4 9.5 10 9.5 17 0 7.9-8.7 13.5-16 11.3-9.7-2.7-18-10.7-20.5-20.6 2.6-1.3 5.2-2.5 7.7-3.7 2 5.7 5.2 11.6 10.9 14.5 2.2 1 5.7 1.7 7.2-0.8 1.2-2-0.2-4.3-1.4-6.1-3.7-5.1-8.9-9.8-9.4-16.5z"/><path  d="m67.7 29.7c5.5-9.5 16.3-15.7 27.2-15.5q69.1 0 138.3 0c-0.1 5.5 0 10.9 0 16.4q1.6 0 3.2 0c0.1-5.5 0.2-10.9 0.1-16.4 400.5 0 801 0 1201.5 0 5-0.1 10.1 0 14.8 1.9 8.9 3.4 16.2 10.8 18.9 19.9 2.1 6.5 1.4 13.4 1.5 20q-0.1 305 0 610c0.1 6.1 0 12.3-2.3 18.1-4.4 11.6-16.4 20-28.9 19.7-119.3 0.6-238.7 0.8-358 1.1-52.4 0.4-104.7 0.2-157 0.5-66.7 0.3-133.4 0.3-200.1 0.5-41.3 0.4-82.6 0.3-123.9 0.5-56 0-112 0.3-168 0.4-66.9 0.1-133.8 0.5-200.7 0.5 0-5.6 0-11.3 0.1-17-1 0-2.8 0.1-3.7 0.1 0.1 5.6 0 11.3 0.1 17-45.6 0.1-91.2 0.2-136.7 0.2-16.5-0.4-30.5-15.3-30.5-31.6-0.1-59.6 0-119.1-0.1-178.6 5.1 0 10.2-0.1 15.4-0.1 0-5.3-0.1-10.7-0.1-16.1-17.6 0.1-35.3 0.1-53 0.1-6.2-7.5-7.8-17.9-8.1-27.3-0.1-62 0-124 0-186-0.2-10.1 1.9-20.3 7.3-29 17.9-0.3 35.9-0.1 53.9-0.1q0-7.9 0-15.7-7.7-0.1-15.4 0c0.1-59.1 0-118.1 0-177.2 0-5.6 1.5-11.3 4.2-16.3zm0.2 16.3c-0.1 57.6 0 115.1-0.1 172.7 45.4-0.1 90.8-0.1 136.2-0.1 12.2-0.4 24.5 4.6 33 13.4 8.3 8.7 12.4 21 12.2 33 0.1 64.3 0.1 128.6 0.1 193-0.2 16.9-10.9 33.1-26.4 39.8-5.6 2.5-11.7 3.9-17.9 3.8-45.7 0.2-91.4 0.1-137.1 0.2 0 58.1-0.1 116.1 0 174.2 0.1 14.3 12.7 27.4 27.1 27.4 43.9 0 87.8-0.3 131.6-0.2-0.1-31.7 0-63.5 0-95.2-0.1-16.6 7-33 18.8-44.5 11.1-11.3 26.8-17.6 42.6-17.7 16.6-0.1 33.2-0.1 49.9-0.1-0.1 4 0 7.9 0 11.9q-25.9 0.1-51.8 0.1c-20.8 0.8-39.7 16.3-45.3 36.2-2.9 8.8-2.1 18.1-2.2 27.1q0 41.1 0.1 82.1c21.8-0.5 43.5-0.1 65.3-0.3 112.3-0.1 224.7-0.5 337-0.7 41.7-0.4 83.3-0.3 125-0.5 117.2-0.3 234.4-0.8 351.6-1.1 108.5-0.2 216.9-0.5 325.4-1 13.8-0.2 25.8-12.7 25.7-26.4q0-314.1 0-628.1c0-14.4-13.2-27.4-27.7-26.4-400 0-800.1-0.1-1200.1 0-0.1 30.5 0 60.9-0.1 91.4-0.1 7.4 0.6 14.9 3.1 21.9 6.6 17.9 24.9 30.9 44 30.4 17.1 0 34.2 0.1 51.3 0q0.1 5.9 0.1 11.9c-17.5 0-34.9 0.1-52.3 0-13.8-0.3-27.4-5.3-37.9-14.3-9.8-9-17.2-21.1-19.5-34.4-1.3-6.7-0.9-13.6-0.9-20.5 0-28.8-0.1-57.6 0.1-86.5-45 0.1-89.9 0-134.8 0.1-14.3 0-26.5 13.3-26.1 27.4zm15.2 177.2q0.2 7.8 0.1 15.7c39.3-0.2 78.6-0.1 117.8-0.1 5.5-0.1 11 0 16.4 0.4 1.6 9.9 1.2 19.9 1.4 29.8 0 3.9 0.3 7.8-0.4 11.6-0.9 4.1-4.1 7.9-8.4 8.4-7.9 1.1-15.9 0-23.9 0.7-1.9 0-3.7 1.4-3.7 3.3-0.6 6-0.2 12-0.2 18 0.1 5.2-0.4 10.4 0.4 15.6 1.1 3.3 5.1 2.4 7.7 2.1 1.6-5.4 2.5-11 4.2-16.3 1.1-3.4 3.8-6.7 7.6-7 5.5-0.5 11.1-0.1 16.6-0.3 0.2 36.6 0 73.1 0.1 109.6-5.6-0.1-11.2 0.2-16.7-0.2-2.9-0.2-5.7-2.1-6.8-4.8-2.4-5.8-2.5-12.3-5-18-2.5-0.8-5.9-1.1-7.5 1.2-1 3.6-0.5 7.4-0.6 11.1 0.1 7.7-0.8 15.4 0.1 23 0 2.2 2.3 3.2 4.2 3.3 7.8 0.7 15.7-0.3 23.5 0.6 5.7 0.7 9 6.7 8.8 12 0 12.7 0.4 25.4-1.3 38-15.2 0.9-30.3 0.2-45.5 0.4q-44.3 0-88.7 0c0 5.4-0.1 10.7-0.1 16.1 40.2-0.1 80.5 0.1 120.8 0 15 0.3 29.7-8.6 36.3-22 4.3-7.4 4.7-16.2 4.5-24.5-0.1-62.6 0.1-125.3-0.1-188 0-10.4-4.4-20.6-11.3-28.3-7.1-7.2-17.3-11.5-27.4-11.4-41-0.1-81.9 0-122.9 0zm-55.4 20.4c-3.6 5.9-5 13-5.5 19.9-0.5 16.8-0.2 33.7-0.3 50.6 0 41.6 0 83.2 0.1 124.9-0.1 12.6-1 26.2 5.7 37.4 3.1 0.6 6.2 0.4 9.3 0.4q88.4 0 176.7 0c1-11.5 0.6-23.2 0.5-34.8 0.1-3.1-2-6.4-5.2-6.9-7.7-0.7-15.4 0.3-23.1-0.2-4.6-0.2-8.6-4.2-8.2-8.9 0.1-10.3-0.2-20.7 0-31 0-4.4 4-8.2 8.3-8.3 2.9-0.1 6.8-0.1 8.3 2.9 2.1 5.3 3 10.9 4.4 16.4 0.4 1.7 1.4 3.6 3.2 4.2 4.1 0.6 8.3 0.1 12.4 0.2 0.1-33.6 0.1-67.3 0-100.9-4.7 0.5-10.3-1.6-14.4 1.4-3.5 6.3-2.6 14.3-6.6 20.4-4.8 4.6-14.9 1.9-15.4-5.2-0.6-10.3 0-20.8-0.3-31.1-0.5-4.8 3.3-9.8 8.3-9.8 7.3-0.3 14.8 0.2 22.2-0.2 3.6 0 6.2-3.6 6.2-7 0.3-11.6-0.1-23.1-0.2-34.7-60.7-0.1-121.4 0.2-182.1-0.1-1.5 0.1-3-0.1-4.3 0.4z"/><path  d="m359.4 40.2q543.6 0 1087.1 0c-0.1 212.4 0 424.9-0.1 637.4-271.8 0.7-543.6 1.5-815.4 2.2-53.3-0.1-106.7 0.5-160.1 0.5-37.1 0.1-74.3 0.1-111.4 0.3-0.1-213.5-0.1-426.9-0.1-640.4zm4.5 4.6c-0.3 33.7 0 67.5-0.1 101.2 0 176.7 0 353.4 0.1 530.2 9.6 0 19.1 0.1 28.7 0.1 9.1-0.1 18.2 0 27.4 0 1.5-0.1 3.2 0.2 4.7-0.5 17.7 0.7 35.5 0.2 53.2 0.1 3.9 0 7.8 0.7 11.7-0.1 7.1 0.2 14.2 0 21.4 0.1 3.2 0.1 6.6 0.5 9.8-0.2 21.8 0.1 43.7-0.1 65.5-0.1 10.6-0.1 21.2 0.2 31.8 0l0.2-0.3c21.5 0.3 42.9 0 64.3 0 10.7-0.1 21.4 0.2 32.1 0.1 21.6-0.4 43.2-0.1 64.9-0.3 10.4 0 20.8 0.1 31.1 0 21.7-0.4 43.3-0.2 64.9-0.3 10.5 0.1 20.9 0.1 31.4 0 16.7-0.2 33.4 0 50-0.1 15.7-0.1 31.4 0.6 47-0.2l0.3-0.3c21.4 0.5 42.8 0.1 64.2 0.1 10.5 0.1 21.1 0 31.6 0l0.4-0.4c21.6 0.7 43.2 0.1 64.8 0.2 10.4-0.3 21 0.6 31.4-0.3 21.6 0.2 43.2 0.1 64.8 0 10.4 0 20.9-0.1 31.4 0 49.8-0.5 99.6 0.7 149.3-0.4 0.1-20.8-0.1-41.7 0-62.5 0-80-0.1-159.9 0-239.9-0.1-108.7 0.2-217.5-0.1-326.3-23 0.1-46.1-0.5-69.1-0.3-24.4 0.5-48.9-0.2-73.3 0.5l-0.6-0.2c-9.3-0.8-18.7-0.2-28.1-0.3-22.8 0.5-45.7-0.1-68.6 0.4l-0.3-0.3c-18.7-0.6-37.4 0.3-56.1 0.1-13.8 0.2-27.7-0.2-41.5 0.2-11.6-0.8-23.4-0.3-35.1-0.2-20.7 0.1-41.4-0.1-62.1 0.2l-0.3-0.3c-9.3-0.4-18.6-0.2-28-0.2-23.2 0.6-46.3 0.3-69.5 0.4-11.7-0.4-23.4-0.2-35.1-0.1-20.9 0.1-41.8 0-62.7 0h-0.7c-9.7-0.4-19.4-0.2-29-0.2-22.5 0.6-45.1-0.1-67.6 0.4l-0.3-0.3c-9.7-0.3-19.4-0.1-29.1-0.1-22.8 0.5-45.8-0.1-68.6 0.4l-0.4-0.2c-10.4-0.5-20.7-0.2-31-0.2-21.9 0.6-43.8-0.2-65.7 0.5l-0.3-0.4-0.9 0.1c-19.4-0.9-38.7 0.2-58.1 0-12.8 0.3-25.7-0.3-38.6 0.4l-0.4-0.4h-0.8c-18.8-1-37.5 0.2-56.3 0.2z"/><path  d="m731 173.2c93-0.5 186-0.5 279-0.9 0.3 36.2 0.2 72.4 0.3 108.7-0.2 33 0.4 66 0.3 99-0.3 54.2 0.3 108.3 0.1 162.5-128.2 0.5-256.5 0.9-384.7 1.2-28 0.2-56-0.1-84 0.4-49.6 0.1-99.2 0.3-148.8 0.4 0-26.9 0-53.7-0.1-80.5 0.2-23-0.5-46-0.3-69-0.1-73.5-0.1-147.1-0.5-220.6q169.3-0.9 338.7-1.2z"/><path class="b" d="m363.9 44.8c18.8 0 37.5-1.2 56.3-0.2-11.3 0.3-22.6-0.1-33.9 0.3 4.2 4 8.6 8 12.9 12 2.1 1.9 4.6 3.9 7.7 3.8 10.2 0.2 20.3-0.1 30.4-0.3-5.2-5.2-11-9.9-15.9-15.4 12.9-0.7 25.8-0.1 38.7-0.4 19.3 0.2 38.7-0.9 58 0-11.5 0.2-23-0.1-34.5 0.3 5.1 4.4 10 9 15 13.5 2.5 2.5 6.1 2.4 9.4 2.4 9.1-0.3 18.2-0.2 27.4-0.2-5.4-5.2-11.2-10-16.1-15.7 21.9-0.7 43.8 0.1 65.7-0.5 10.3 0 20.6-0.2 31 0.2q-17.2 0-34.4 0.3c4.2 3.7 8.3 7.4 12.3 11.2 1.7 1.5 3.4 3.2 5.5 4.1 2.5 0.7 5.1 0.5 7.6 0.5 8.8-0.2 17.5 0 26.2-0.2-5.7-5.2-11.1-10.6-16.8-15.7 22.9-0.5 45.8 0.2 68.6-0.4 9.7 0 19.4-0.2 29.1 0.1-11.5 0.4-23.1 0-34.7 0.4 5.2 4.4 9.9 9.3 15 13.8 2.6 2.4 6.3 2 9.6 2.1 8.9-0.2 17.8-0.1 26.6-0.3-5.3-5.3-10.9-10.3-16.2-15.7 22.5-0.5 45.1 0.2 67.6-0.4 9.7 0 19.3-0.2 29 0.2-11.3 0.2-22.6-0.1-33.8 0.4 4 3.6 8 7.2 11.9 10.9 1.7 1.6 3.3 3.3 5.4 4.2 2.8 0.8 5.7 0.6 8.5 0.7 8.5-0.3 17-0.1 25.5-0.2-5.7-5.1-11.3-10.5-16.7-16 20.8 0 41.7 0.1 62.6 0 4.1 3.6 8.2 7.2 12 11 2.4 2.3 4.9 5.2 8.5 5.1 10.4 0.2 20.7-0.1 31.1 0-5.6-5.2-11.4-10.3-16.5-16 23.2-0.1 46.4 0.2 69.5-0.4 9.4 0 18.7-0.1 28 0.2-11.6 0.5-23.2-0.1-34.9 0.4 5.1 4.3 9.9 8.8 14.7 13.3 2.6 2.8 6.6 2.6 10.1 2.7 9-0.2 18-0.1 26.9-0.3-5.5-5.2-11.5-10-16.5-15.8 20.7-0.3 41.4-0.1 62.1-0.2 5.3 4.4 10.3 9.1 15.3 13.7 2.7 2.8 6.7 2.6 10.3 2.6 8.8-0.2 17.6-0.1 26.5-0.3-5.6-5.4-11.2-10.7-17-15.8 13.8-0.3 27.7 0 41.5-0.2 18.7 0.2 37.4-0.7 56.1-0.1-11.5 0.4-23.1 0-34.6 0.3 5 4.3 9.7 8.8 14.5 13.2 2.3 2.5 5.8 2.9 9 2.8 9.4-0.2 18.8 0 28.2-0.2-5.7-5.2-11.5-10.2-16.8-15.8 22.9-0.5 45.8 0.1 68.6-0.4 9.4 0.1 18.8-0.5 28.1 0.3-11.2 0.2-22.5-0.1-33.7 0.2 5.1 4.4 10 9.2 15.1 13.7 2.5 2.4 6.2 2.2 9.5 2.2 8.9-0.2 17.8 0 26.7-0.4-5.6-5.2-11-10.7-17-15.5 24.4-0.6 48.9 0 73.3-0.5 23-0.2 46.1 0.4 69.1 0.4 0.3 108.7 0 217.5 0.1 326.2-0.1 80 0 159.9 0 239.9-6.1 6.4-12.8 12-19 18.3-7.3 7.4-15 14.3-22.3 21.6-2.4 2.3-4.4 5-7.3 6.4-6.6 1.7-13.6-0.9-20 1.3-5.7 4.2-9.8 10.1-14.9 14.8 27.8 0.1 55.7-0.1 83.5 0.1-49.7 1.1-99.5-0.1-149.3 0.4 5.5-5 10.7-10.3 15.7-15.8-7.9-0.2-15.8 0-23.6-0.1-2.6 0-5.2-0.1-7.6 0.7-2.3 1.1-4 3.2-5.7 5-3.2 3.6-6.7 7-10.2 10.2-21.6 0.1-43.2 0.2-64.8 0 5.5-4.9 10.6-10.2 15.7-15.4-9.5 0-19-0.2-28.5 0-2.8-0.1-5.1 1.6-6.8 3.6-3.8 4.2-7.8 8.3-11.8 12.1-21.6-0.1-43.2 0.5-64.8-0.2 5-5 10.2-9.9 14.9-15.1-8.1-0.1-16.2 0-24.4-0.1-3.1 0-6.7-0.2-8.9 2.3-4.6 4.4-8.9 9.1-13.6 13.4-21.4-0.1-42.8 0.3-64.2-0.2 4.6-5.3 9.6-10.1 14.3-15.2-7.9 0-15.7 0.1-23.6 0-3.3 0-7.1-0.3-9.6 2.3-4.4 4.2-8.5 8.7-12.9 12.9 10.5 0.3 21-0.1 31.5 0.3-15.6 0.8-31.3 0.1-47 0.2-16.6 0.1-33.3-0.1-50 0.1 5.1-5 10.1-10 14.9-15.2-7.6-0.1-15.3 0-22.9-0.2-3.5 0.1-7.6-0.4-10.2 2.4-4.6 4.2-8.7 8.8-13.2 13.1-21.6 0-43.2-0.2-64.8 0.2 4.9-5.1 9.9-10.1 14.9-15.1-7.9-0.1-15.8 0.1-23.7-0.1-3.3 0-7.2-0.4-9.8 2.2-4.5 4-8.4 8.7-12.6 13-21.7 0.2-43.3-0.1-64.9 0.3 4.6-5 9.5-9.9 14.1-14.9-7.9-0.1-15.9 0.1-23.8-0.2-3.2 0.1-7-0.3-9.5 2.2-4.5 4-8.5 8.7-12.9 12.8-21.4 0-42.8 0.3-64.3 0 4.5-5 9.3-9.5 13.9-14.3-8-0.1-16.1-0.1-24.2-0.2-3.1 0.1-6.6-0.1-9 2.1-4.5 4-8.4 8.6-12.7 12.7-21.8 0-43.7 0.2-65.5 0.1 5.2-4.3 9.7-9.2 14.4-14.1-8.1-0.3-16.1-0.2-24.2-0.3-2.9 0.2-6.3-0.1-8.6 2.1-4.6 3.8-8.2 8.6-12.8 12.4-3.8 0.8-7.8 0.1-11.6 0.1-17.8 0.1-35.6 0.6-53.3-0.1 4.7-4.3 8.9-9.1 13.4-13.5-8-0.2-16-0.4-24.1-0.5-3.1 0-6.6-0.1-8.9 2.3-4.3 3.9-8.2 8.3-12.5 12.2-9.6 0-19.1-0.1-28.7-0.1-0.1-176.8-0.1-353.5-0.1-530.2 0.1-33.7-0.2-67.5 0.1-101.2zm999.3 0.1c4.1 3.8 8.3 7.7 12.3 11.7 2 1.9 4.3 4.3 7.5 4 10.3 0 20.7-0.1 31.1 0-5.1-4.5-9.8-9.5-14.6-14.2-1.9-2-4.9-1.7-7.4-1.8-9.7 0.3-19.3 0-28.9 0.3zm-187.7 49.2c-0.5 8.6 0 17.3-0.2 25.9 0.2 4.9-0.4 9.8 0.4 14.6 2.8 3.5 6.9 5.6 10.3 8.4 21.3 16.4 42.7 32.6 63.9 49.1 29.4 21.9 58.1 44.7 87.4 66.6 14.8 11.1 29.3 22.7 44.1 33.7 8.6 6.5 16.9 13.4 25.8 19.5 0.1-33 0-66 0-99-4.4-4-9.2-7.5-13.9-11.1-47.1-36.3-94.4-72.2-141.3-108.7-3.6-2.8-7-6.8-12-6.6-18.3 0-36.7 0.1-55.1 0-4.5-0.3-9.1 2.9-9.4 7.6zm148-7.3c21.2 15.9 41.8 32.7 63.2 48.5 6.9 5 13.4 10.7 20.5 15.5 0.1-17.6 0-35.2 0.1-52.8 0-3.7-0.5-8.1-4-10.3-3.5-1.7-7.5-1.2-11.3-1.3-22.8 0.3-45.7-0.1-68.5 0.4zm-844 2.9c-3.8 1.7-4.7 7.6-1.1 10 4.1 3.3 11.5-0.2 10.5-5.7-0.2-4.5-5.9-6.1-9.4-4.3zm77.7 52.6q5.3 0.3 10.6 0.2c3.3-16.9 6.3-33.8 9.8-50.7-3.6 0-7.1 0-10.7 0-3.2 16.9-6.2 33.7-9.7 50.5zm303.2 0.2q5.2 0.1 10.4 0.1c0.6-3 0.8-6.1 1.9-9 1.6-2.1 3.8-3.7 5.8-5.4 3 4.7 5.5 9.6 8.2 14.4q6.1-0.2 12.3-0.1c-4.1-7-8.2-13.9-12.2-20.8 5.7-5.5 11.7-10.6 17.6-15.9-4.1 0.1-8.3-0.3-12.5 0.1-6.1 4.1-11.3 9.6-17.1 14.2 2.1-9.4 3.7-18.9 5.8-28.4q-5.4 0-10.7 0.1c-2.9 16.9-6.7 33.7-9.5 50.7zm-430.8-47.9c-5.8 11-10.9 22.3-16.7 33.4-1.2-11.2-2.5-22.3-3.8-33.5q-5.4 0-10.8 0c2 16 4.1 31.9 5.6 48 4 0 8.1 0.3 12-0.2 5.4-10.6 10.6-21.4 16-32 1.2 10.8 2.8 21.4 4 32.2 4 0 7.9 0 11.8-0.1 7.9-16 15.9-32 24-47.9q-5.5 0-11.1 0.1c-5.7 11.3-10.9 22.7-16.7 33.9-1-11.3-3-22.6-4.3-34q-5 0-10 0.1zm283.4-0.1c-0.6 3-1.2 6-1.8 9 4.9 0 9.8 0 14.7 0-2.5 13-5.2 26-7.6 39q5.5 0 11 0c2.6-13 5-26 7.6-39 4.8 0 9.6 0 14.5 0 0.6-3 1.3-6 1.9-9-13.4 0.1-26.9 0-40.3 0zm-209.4 15.5q0.5-2.1 1-4.3-4.7 0-9.5 0.1c-2.3 12.3-4.7 24.5-7.2 36.7q5.3 0 10.6 0c1.4-7.2 2.5-14.6 4.4-21.7 1.7-5.2 7.7-6.5 12.6-6.2q0.8-4.7 1.4-9.5c-4.9 0-9.7 1.4-13.3 4.9zm17.1 3.7c-4.5 6.5-5.8 15.9-1 22.6 3.7 5.1 10.3 7 16.3 6.8 4.8-0.2 10-1.2 13.3-5.1-0.3-2.5-2.7-4.4-3.9-6.6-4.1 2.9-9.9 4.2-14.7 1.9-2.5-1.2-3.3-4-4.2-6.4 9.1-0.1 18.1 0.1 27.2 0 0.7-4.8 0.9-9.9-1.4-14.2-2.4-4.9-8-7.4-13.2-7.5-7-0.4-14.5 2.5-18.4 8.5zm73.1-7.9c-12.6 2.3-19.9 18.7-13.3 29.6 6.6 9.8 22.3 10 30.7 2.4-1.4-2.1-3-4.3-4.5-6.4-4.3 3-10.2 4.4-15 1.9-2.4-1.3-3.1-4.1-3.9-6.4 9.1-0.1 18.1 0 27.2-0.1 0.7-5.5 1.1-11.7-2.6-16.2-4.4-5.5-12.2-6.1-18.6-4.8zm33.2 2.1c-5.5 2.8-8 11-3.8 15.9 4.1 4.1 10.5 3.3 15.4 5.7 2.2 1.3 0.7 4.3-1.4 4.7-5.6 1.6-11.5-0.1-16.6-2.5-1.3 2.6-2.7 5.2-4.1 7.8 8.1 3.9 18 4.9 26.4 1.4 6.3-2.4 9.2-11.3 4.9-16.7-4.6-5-12.9-2.2-17.5-7.1 1-1.2 1.8-2.8 3.4-3.3 4.8-1.5 10.1-0.3 14.5 2 1.3-2.6 2.6-5.2 3.9-7.7-7.8-3.4-17.4-4.4-25.1-0.2zm41.4-2.2c-4 0.8-8.2 2.7-10.3 6.4-2.1 3.6-2.5 8.9 0.7 12 3.3 3.1 8 3.3 12.2 4.3 1.5 0.4 3.5 0.8 4.2 2.5 0.6 1.7-1.2 3-2.6 3.5-5.7 1.5-11.6-0.3-16.6-3-1.3 2.7-2.7 5.4-4 8.1 7.7 3.6 16.8 4.7 24.9 2.1 6.5-2 10.9-10.3 7-16.4-3.8-5-10.7-4.2-16-6.1-2.3-0.9-2-4.2 0.2-4.9 5.1-2.1 10.9-0.6 15.6 1.7 1.3-2.6 2.7-5.2 4-7.8-6-2.7-12.8-3.7-19.3-2.4zm95.4 4.3q0.5-2.1 1.1-4.2c-3.3-0.1-6.5-0.1-9.8 0-2.5 12.2-4.7 24.5-7.2 36.7q5.3 0.1 10.7 0.1c1.6-7.2 2.2-14.6 4.4-21.6 1.8-5.1 7.6-6.7 12.5-6.2q0.8-4.8 1.7-9.6c-5-0.3-9.6 1.7-13.4 4.8zm19.6 0.4c-5.3 4.9-7.5 12.7-6.3 19.7 0.8 5.3 4.6 10.2 9.6 12.1 5.5 1.7 12 0.8 16-3.6q-0.4 1.9-0.8 3.9 5.1 0.1 10.3 0c2.1-12.3 4.8-24.5 6.7-36.8-3.3 0.1-6.7-0.1-10 0.2-1.1 1-0.6 2.8-0.9 4.1-6.1-7.4-18.2-5.7-24.6 0.4zm48.2-1.9c-6.6 4-10.1 12-9.4 19.6 0.3 6.9 5.9 13.1 12.7 14.4 5 1 10.5 0.9 15-1.6 3.1-1.6 5.1-4.5 7.1-7.2-2.5-1.4-4.9-2.8-7.3-4.4-1.7 1.8-3.4 3.8-5.8 4.5-3.9 1.3-8.8-0.1-10.6-4-2.2-5.8 0.4-13.7 6.7-15.5 4.2-1.5 8.8 0.7 11 4.4 2.8-1.5 5.7-2.9 8.5-4.3-1.5-2.7-3.2-5.6-6.2-7-6.7-3.5-15.3-2.8-21.7 1.1zm76.7 2.9c-5.9 6.1-7.9 16.3-3.5 23.8 3.1 5.2 9.3 7.8 15.2 7.9 5.4 0.1 11.5-0.9 15.2-5.2-1.1-2.4-2.7-4.4-4.1-6.6-4.1 3.1-9.9 4.4-14.7 2-2.4-1.3-3.4-4-4.2-6.4 9-0.2 18.1 0.1 27.1 0 0.6-4.6 1-9.7-1.3-13.9-1.6-3.6-5.1-6.1-8.8-7-7.2-1.9-15.7-0.2-20.9 5.4zm50.5-1.4q0.6-2.1 1.2-4.2c-3.4-0.1-6.8-0.1-10.1 0-2.2 12.2-4.6 24.4-7.2 36.6q5.3 0.1 10.7 0.1c1.6-7.2 2.4-14.7 4.5-21.8 1.8-5 7.6-6.5 12.4-5.8 0.6-3.3 1.3-6.5 1.8-9.7-4.9-0.2-9.6 1.5-13.3 4.8zm-483.7-4.3c-2 12.4-4.9 24.6-7 36.9q5.2 0 10.5 0c2.6-12.2 4.9-24.5 7.1-36.8q-5.3-0.1-10.6-0.1zm523.8 5.1q-0.1 10.7 0 21.3 2.3 0.1 4.7 0.1 0-3.3 0-6.5 2.1 0.2 4.3 0.5c1.6 1.8 2.8 4 4.1 6q2.5 0 5 0c-1.5-2.3-2.9-4.6-4.4-6.8 3.4-2.4 5.6-7.2 2.9-10.9-3.5-5.7-11.1-3.3-16.6-3.7zm71.3 3.4q1.6 1.2 3.3 2.4c1.8-1.3 4.1-2.8 6.5-1.7 2 1 1.5 3.8 0.2 5.3-2.7 3.1-6 5.6-8.8 8.6 0 0.8 0 2.5 0 3.4 5.2-0.1 10.4 0 15.5 0q0-2 0-4-4.5 0-8.9 0c3.7-3.7 10.1-7.8 7.6-13.9-3-5.8-11.7-4.7-15.4-0.1zm32-3c-6.4 3.4-7 13.1-2.7 18.4 3.4 4.5 11.3 3.7 13.8-1.3 2.1-4.3 2-9.9-0.5-14-2.1-3.6-7-4.9-10.6-3.1zm-82.1 8.9c-1.9 3.7-0.7 8.7 2.9 11 3.7 2.3 8.6 1.5 12.1-1.1q-1.4-1.2-2.7-2.4c-1.5 0.4-2.9 1.1-4.4 1.2-2.2-0.1-3.6-1.9-5-3.4 4.3-0.4 8.6 0 12.9-0.1-0.3-2.2-0.4-4.6-1.7-6.4-3.1-5-11.8-4.1-14.1 1.2zm16.3-4.2c2.4 5.4 4.5 10.8 6.7 16.2q2.4 0.1 4.7 0.1c2.1-5.5 4.3-11 6.8-16.4q-2.4 0-4.7 0.1c-1.4 3.7-2.9 7.4-4.4 11-1.5-3.7-3-7.3-4.3-11.1q-2.4 0.1-4.8 0.1zm20.1 10.7c-3.4 1.1-1.5 7.1 2 5.7 3.6-1.1 1.5-7.2-2-5.7zm33.6 0.4c-2.5 2.2 0.6 7.2 3.7 5 3.2-2.3-0.4-7.3-3.7-5zm-359.1 46.2q-169.4 0.3-338.7 1.2c0.4 73.5 0.4 147.1 0.5 220.6-0.2 23 0.5 46 0.3 69 0.1 26.8 0.1 53.7 0.1 80.5 49.6-0.1 99.2-0.3 148.8-0.4 28-0.5 56-0.2 84-0.4 128.2-0.3 256.5-0.7 384.7-1.2 0.2-54.2-0.4-108.3-0.1-162.5 0.1-33-0.5-66-0.3-99-0.1-36.3 0-72.5-0.3-108.7-93 0.4-186 0.4-279 0.9zm295.6-1c0.3 3.6-1.4 8.5 2.2 11 35.1 26.2 69.4 53.3 104.4 79.6q21.4 16.7 43 33c6.4 4.9 12.6 10.1 19.2 14.7 7.6 5.3 14.5 11.5 22 17 14.8 10.8 29 22.4 43.7 33.3 12.8 10.4 26.5 19.4 39.1 30 35.8 27 71.2 54.6 107 81.6 0.2-31.4-0.1-62.9 0.1-94.4 0.1-2.5-0.4-5.2-2.7-6.6-13.4-10.2-26.5-20.8-40.1-30.8-7.7-6-15.4-12-23.4-17.7-7.1-5.1-13.6-11-20.7-16.2-12.7-9.3-24.8-19.3-37.6-28.5-13.4-10.6-27.3-20.7-40.8-31.4-29.7-22.5-59-45.5-88.9-67.9-3.6-2.7-7-6.9-12.1-6.4-38.1-0.1-76.3-0.1-114.4-0.3zm0.1 70.5c-0.4 32.8 0 65.6-0.2 98.4 16 12.3 31.8 24.5 48 36.4 14.7 12.1 30.4 22.8 45.1 34.8 8.6 6.6 17.3 12.8 25.7 19.4 11.6 9.5 24 17.9 35.6 27.4q60.3 45.6 120.2 91.8c30.2 22.7 60 46 90.1 68.9 3.7 3.3 9.6 4 13.7 1.1 2.5-1.8 2.3-5.2 2.4-7.9-0.1-25 0-50 0-75 0-2.3-0.1-4.8-2.2-6.2-14.4-11.3-29.1-22.2-43.5-33.4-14.3-11.1-29-21.6-43.2-32.8q-40.3-31.2-81-62c-12-9.7-24.7-18.5-36.7-28.3-14.3-10.3-27.8-21.6-42.1-31.9-16.5-12.8-33.3-25.4-49.9-38.1-17.2-13.5-34.9-26.4-52.2-39.7-10.1-7.5-19.6-15.6-29.8-22.9zm0 159.8c-0.4 32.9 0 65.7-0.1 98.6 50.2 38.2 100.5 76.3 150.5 114.8 3 2.2 5.7 5 9.3 6.6 4.4 1.1 9.1 0.4 13.6 0.4 38.4-0.2 76.8-0.1 115.2-0.3-7-6-14.6-11.3-21.9-16.9-41.3-31.7-82.8-63.3-124.3-94.8-32.2-24.5-64.2-49.2-96.5-73.5-15.4-11.5-30.4-23.4-45.8-34.9zm0 159.3c-0.2 17.7-0.1 35.5-0.1 53.2-0.4 4.6 3.6 9 8.4 8.4q35.9 0.1 71.8-0.1c-12.5-10.3-25.6-19.7-38.4-29.6-13.7-10.8-27.8-21.3-41.7-31.9zm-120.7 24c-2.4 2.2-3.8 5.1-5.5 7.8-4.1 6.3-8.2 12.6-11.9 19.2 2.3-0.1 4.7 0 7.1-0.4 1.6-1.3 2.6-3.2 3.8-4.9q6.8-11.1 14-22c-2.5 0-5.1-0.4-7.5 0.3zm18.3-0.5c-5.5 9.3-11.9 18-17.1 27.5 2.2-0.1 4.4 0.2 6.6-0.2 2.2-1.8 3.5-4.3 5.1-6.7 4.3-7 9.1-13.7 13.3-20.8q-4 0.1-7.9 0.2zm18.8-0.2c-6.3 8.8-11.2 18.4-17.2 27.4q3.4 0.1 6.9 0.2c5.7-9.2 12.3-17.9 17.5-27.5q-3.7-0.1-7.2-0.1zm0.5 27.3q3.6-0.1 7.3-0.1c6.1-8.9 12.1-17.9 17.4-27.3q-3.8 0-7.4 0c-6.1 8.9-11.4 18.4-17.3 27.4zm30.3-18.4c-3.9 6-7.9 12-11.5 18.3 2.9-0.4 7 0.9 8.7-2.2 5.4-8.3 10.5-16.9 15.8-25.3-2.3 0-4.7-0.1-6.9 0.2-2.8 2.5-4.1 6-6.1 9zm23.1-7c-5.6 8.2-10.7 16.7-16.1 25.1q3.6 0 7.2 0.1c5.7-9.4 12.4-18.2 18.1-27.5-3.1 0.2-7.5-1.2-9.2 2.3zm-275.7 0c-1.8 1.7-3 3.9-4.3 6-4.3 7.1-8.8 14.2-13.4 21.2q3.7 0 7.5-0.1c5.7-9.3 12.1-18.2 17.8-27.6-2.6 0-5.2-0.4-7.6 0.5zm36.5-0.5c-6.3 8.9-12.2 18.1-17.9 27.5 3-0.4 7.2 1 8.9-2.3 5.6-8.3 10.8-16.8 16.2-25.2q-3.6 0-7.2 0zm18.2 0.1c-5.5 9.2-12 17.8-17.3 27.1q3.6 0.1 7.2 0.1c6.3-8.8 11.8-18.1 17.2-27.5q-3.6 0.1-7.1 0.3zm18.2-0.6c-5.6 9.4-11.3 18.5-17.2 27.7 2.5-0.2 5 0.1 7.5 0.1 5.4-9.6 12-18.3 17.6-27.7q-3.9 0-7.9-0.1zm13.2 8.3c-3.8 6.6-7.9 12.9-11.8 19.4 2.3 0 4.7 0.1 7-0.3 2.6-2.5 4.1-5.9 6.1-8.8 4-6.1 8.4-12.1 11.8-18.6-2.5 0-5-0.2-7.4 0.2-2.5 2.2-3.9 5.4-5.7 8.1zm22.9-6c-5.7 8.1-10.4 17-16 25.2q3.7-0.2 7.4-0.4c5.9-8.9 12.2-17.7 17.3-27.2-2.9 0.4-7-0.8-8.7 2.4zm15.1 5.1c-4.4 6.4-8.6 13-12.4 19.9 2.5-0.2 5.2 0.4 7.6-0.6 2.2-2.3 3.6-5.2 5.3-7.9 3.7-6.4 7.8-12.6 11.6-19-2.2 0-4.4-0.1-6.5 0.2-2.5 1.9-3.9 4.9-5.6 7.4zm6.1 19.8q3.7 0 7.4 0c5.4-9.5 12.2-18.1 17.8-27.4q-3.9 0-7.8 0c-5.5 9.3-11.8 18.1-17.4 27.4zm36-26.9c-2.9 2.9-4.8 6.7-7.1 10.1-3.3 5.8-7 11.3-10.7 16.8 2.4-0.1 4.9 0 7.3-0.4 2.3-2 3.7-4.8 5.4-7.4 4.3-6.4 8.6-12.9 12.2-19.7-2.4 0.1-4.8-0.1-7.1 0.6zm-261.4 2.7c-6.1 8.2-11.4 17-16.5 25.9q3.5-0.1 7-0.2c6.2-9 11.7-18.4 17.7-27.5-2.7 0.4-6.5-1-8.2 1.8zm19.1-2c-5.5 9.6-11.8 18.5-17.4 28 2.4-0.1 4.7 0.1 7.1-0.3 1.8-1.5 2.9-3.7 4.1-5.7 4.2-7.7 9.7-14.5 14.1-22q-4 0-7.9 0zm18.8 0c-6.1 9.1-11.5 18.6-17.7 27.5q3.8 0 7.6 0c5.6-9.3 12.4-17.9 17.5-27.5q-3.7 0-7.4 0zm18.3 2.3c-5.4 8.1-10.7 16.4-15.1 25.2q3 0 6 0.1c6.4-9 12.4-18.2 18-27.7-3 0.4-7.2-0.8-8.9 2.4zm17.6 1.6c-5 7.8-10.2 15.4-14.8 23.5q3.8-0.1 7.7-0.2c5.6-9.3 11.6-18.3 17.4-27.5-2.5 0.1-4.9 0-7.3 0.4-1.2 1.1-2.1 2.5-3 3.8zm21.8 23.2c2.5 0 4.9 0.1 7.4-0.3 1.3-1.2 2.2-2.9 3.2-4.4 4.6-7.7 9.9-14.9 14.1-22.7q-3.7-0.1-7.4-0.1c-5.8 9.1-11.4 18.4-17.3 27.5zm-225.2-25.7c-6.2 8.9-11.7 18.3-17.5 27.5 2.4-0.2 4.9 0.1 7.2-0.7 1.6-1.4 2.7-3.4 3.9-5.2 4.3-7.2 9.2-14 13.3-21.3q-3.5-0.2-6.9-0.3zm17.5 1.6c-5.5 8.5-10.8 17.2-16.3 25.9q3.8-0.2 7.6-0.4c5.9-9 11.5-18.2 17.2-27.4-2.8 0.5-6.8-1.1-8.5 1.9zm20.2-1.7c-2.2 1.9-3.5 4.5-5 6.9-4.1 7.1-9.1 13.6-13.2 20.7q3.8-0.1 7.6-0.2c5.8-9.3 12.3-18.1 17.7-27.7-2.4 0-4.8-0.1-7.1 0.3zm14.5 5.4c-4.4 7.2-9 14.2-13.4 21.4q3.4 0 6.7 0.1c6.4-8.8 12.4-17.9 17.7-27.4-2.2 0.1-4.4 0.1-6.6 0.5-2 1.3-3 3.6-4.4 5.4zm5.1 21.4q3.6 0 7.3 0.1c5.9-9.1 11.7-18.2 17.4-27.4q-3.8-0.1-7.7-0.2c-5.4 9.3-11.7 18.1-17 27.5zm35.6-27c-1.9 2.3-3.2 5.1-4.7 7.6-3.9 6.7-8.7 13-12.7 19.6 2.5-0.1 5.1 0.1 7.6-0.5 1.4-1.4 2.4-3.1 3.4-4.8 4.5-7.6 9.7-14.7 14.2-22.3-2.6 0-5.3-0.3-7.8 0.4zm1.3 27c3-0.5 7.3 0.8 8.9-2.4 5.3-8.3 11.3-16.1 15.8-24.9q-3.3-0.2-6.6-0.4c-6.9 8.6-12.1 18.5-18.1 27.7zm-150.5-26c-5.6 9-11.7 17.8-17 27.1q3.5-0.1 6.9-0.1c6.2-8.9 12-18.1 17.9-27.1q-3.9 0-7.8 0.1zm1.8 26.9q3.5 0 7 0c5.7-9.1 11.7-18 17.4-27q-3.8-0.1-7.5-0.1c-5.8 8.9-11.5 17.9-16.9 27.1zm18.4 0q3.7-0.1 7.4-0.1c6.1-9 11.6-18.3 17.7-27.2q-3.8-0.1-7.7-0.1c-5.8 9.1-11.4 18.4-17.4 27.4zm-65.3-14.8c-2.4 4-1.4 8.8-1.2 13.3 5.7-8.1 10.9-16.6 16.4-24.8q-3.7 0-7.5-0.1c-2.6 3.8-5.5 7.5-7.7 11.6zm9.2 15.1q3.4 0.1 6.9 0.3c6.3-8.9 11.9-18.1 17.7-27.2q-3.5-0.1-7.1-0.1c-6 8.9-12 17.8-17.5 27zm595.4-4.4q3.6 0 7.3 0.1c1.6-2.5 3.8-4.9 4.1-8 0.3-3.3 0.1-6.7 0-10-3.8 6-7.5 12-11.4 17.9z"/><path class="b" d="m527.3 120.8c1.9-5.3 7.6-9.1 13.2-7.1 3.2 0.8 4 4.2 4.7 7-6 0.2-12 0-17.9 0.1z"/><path class="b" d="m588.5 120.7c1.8-5.6 8.1-9.1 13.7-6.8 2.9 0.9 3.6 4.2 4.3 6.8q-9 0.2-18 0z"/><path class="b" d="m912.9 120.8c1.8-5.3 7.4-9 13-7.3 3.3 0.7 4.2 4.3 5 7.2-6 0.1-12.1 0.1-18 0.1z"/><path class="b" d="m793.5 114.7c4.2-2.1 10.3-0.5 11.5 4.4 1.1 5-0.5 11.2-5.1 13.9-4.1 2.6-10.6 1.1-12.1-3.8-1.4-5.3 0.4-12.1 5.7-14.5z"/><path class="b" d="m1003.5 114.6c2.2 0.1 4.4 0 6.5 0.5 2.1 1.1 2.4 4.1 1.1 6-2.2 1.5-5.1 0.9-7.6 1.1q0-3.8 0-7.6z"/><path class="b" d="m1103.5 115.5c2.1-2.2 5.6 0 6.2 2.5 1 3.5 0.7 8.4-2.7 10.4-2.8 0.8-4.8-1.9-5.1-4.4-0.4-2.8-0.4-6.2 1.6-8.5z"/><path class="b" d="m1023.9 120.7c1.5-0.9 3.2-2.1 5.1-1.5 1.4 0.7 2.3 2 3.3 3.1-2.9 0.1-5.8 0.1-8.6 0.5 0-0.5 0.2-1.6 0.2-2.1z"/><path class="b" d="m151.4 295.5c4.4-2.8 11 0.3 11.6 5.5 0.6 6 0.1 12 0.2 18-0.1 3.3 0.4 6.9-1.1 10-2.6 4.9-10.5 5-13.4 0.3-1.4-2.5-1-5.5-1.1-8.3 0.1-6.3-0.3-12.7 0.1-19 0-2.6 1.4-5.2 3.7-6.5z"/><path class="b" d="m152.4 387.5c3.1-0.9 6.7-0.3 8.8 2.3 2.7 3 1.9 7.4 2.1 11.1-0.3 6.4 0.5 12.8-0.6 19-1.2 5.3-8.4 7.2-12.3 3.7-3-2.2-2.8-6.2-2.9-9.6 0.1-6.7-0.2-13.4 0.2-20.1 0.1-2.8 2-5.5 4.7-6.4z"/><path class="c" d="m386.3 44.9c11.3-0.4 22.6 0 33.9-0.3h0.8l0.4 0.4c4.9 5.5 10.7 10.2 15.9 15.4-10.1 0.1-20.3 0.5-30.4 0.3-3.1 0.1-5.6-1.9-7.7-3.8-4.3-4-8.7-8-12.9-12z"/><path class="c" d="m483.6 44.9c11.5-0.4 23-0.1 34.5-0.3l0.9-0.1 0.3 0.4c4.9 5.7 10.7 10.5 16.1 15.7-9.2 0-18.3-0.1-27.4 0.2-3.3 0-6.9 0.1-9.4-2.4-5-4.5-9.9-9.1-15-13.5z"/><path class="c" d="m581.6 44.9q17.2-0.3 34.4-0.3l0.4 0.2c5.7 5.1 11.1 10.5 16.8 15.7-8.7 0.2-17.4 0-26.2 0.2-2.5 0-5.1 0.2-7.6-0.5-2.1-0.9-3.8-2.6-5.5-4.1-4-3.8-8.2-7.5-12.3-11.2z"/><path class="c" d="m679.4 44.9c11.6-0.4 23.2 0 34.7-0.4l0.3 0.3c5.3 5.4 10.9 10.4 16.2 15.7-8.8 0.2-17.7 0.1-26.6 0.3-3.3-0.1-7 0.3-9.6-2.1-5.1-4.5-9.8-9.4-15-13.8z"/><path class="c" d="m777.2 45c11.2-0.5 22.5-0.2 33.8-0.4h0.7c5.5 5.5 11 10.9 16.8 16-8.5 0.1-17-0.1-25.5 0.2-2.8-0.1-5.8 0.1-8.5-0.7-2.1-0.9-3.8-2.6-5.4-4.2-3.9-3.8-7.9-7.3-11.9-10.9z"/><path class="c" d="m874.4 44.6c11.7-0.1 23.4-0.3 35.1 0.1 5.1 5.7 10.9 10.8 16.5 16-10.4-0.1-20.7 0.2-31.1 0-3.6 0.1-6.1-2.8-8.5-5.1-3.8-3.8-7.9-7.4-12-11z"/><path class="c" d="m972.1 44.9c11.7-0.5 23.3 0.1 34.9-0.4l0.3 0.3c5 5.8 11 10.6 16.5 15.8-8.9 0.2-17.9 0.1-26.9 0.3-3.5-0.1-7.5 0.1-10.1-2.7-4.8-4.5-9.6-9-14.7-13.3z"/><path class="c" d="m1069.4 44.6c11.7-0.1 23.5-0.6 35.1 0.2 5.8 5.1 11.4 10.4 16.9 15.8-8.8 0.2-17.6 0-26.4 0.3-3.6 0-7.6 0.2-10.3-2.6-5-4.6-10-9.3-15.3-13.7z"/><path class="c" d="m1167.5 44.8c11.5-0.3 23.1 0.1 34.6-0.3l0.3 0.3c5.3 5.6 11.1 10.6 16.8 15.8-9.4 0.2-18.8 0-28.2 0.2-3.2 0.1-6.7-0.3-9-2.8-4.8-4.4-9.5-8.9-14.5-13.2z"/><path class="c" d="m1265.4 44.9c11.2-0.3 22.5 0 33.7-0.2l0.6 0.2c6 4.8 11.4 10.3 17 15.5-8.9 0.4-17.8 0.2-26.7 0.4-3.3 0-7 0.2-9.5-2.3-5.1-4.4-10-9.2-15.1-13.6z"/><path class="c" d="m1363.2 44.9c9.6-0.3 19.2 0 28.9-0.3 2.5 0.1 5.5-0.2 7.4 1.8 4.8 4.7 9.5 9.6 14.6 14.1-10.4 0-20.8 0.1-31.1 0.1-3.2 0.3-5.5-2.1-7.5-4.1-4-3.9-8.2-7.8-12.3-11.6z"/><path class="c" d="m1175.5 94.1c0.3-4.7 4.9-7.9 9.4-7.6 18.4 0.1 36.8 0 55.1 0 5-0.2 8.4 3.8 12 6.6 46.9 36.5 94.2 72.3 141.3 108.7 4.7 3.6 9.5 7.1 13.9 11 0 33.1 0.1 66.1 0 99.1-8.9-6.1-17.2-13-25.8-19.5-14.8-11-29.3-22.6-44.1-33.7-29.3-21.9-58.1-44.7-87.4-66.6-21.2-16.5-42.6-32.7-63.9-49.1-3.4-2.8-7.5-4.9-10.3-8.4-0.8-4.8-0.2-9.7-0.4-14.6 0.2-8.6-0.3-17.3 0.2-25.9z"/><path class="c" d="m1323.5 86.8c22.8-0.5 45.7-0.1 68.5-0.4 3.8 0.1 7.8-0.4 11.3 1.3 3.4 2.1 3.9 6.6 4 10.3-0.1 17.6 0 35.2-0.1 52.8-7.1-4.8-13.6-10.5-20.5-15.5-21.4-15.8-42-32.6-63.2-48.5z"/><path class="c" d="m1026.6 172.2c38.1 0.2 76.3 0.2 114.4 0.3 5.1-0.5 8.5 3.7 12.1 6.4 29.9 22.4 59.2 45.4 88.9 67.9 13.5 10.6 27.4 20.8 40.8 31.4 12.8 9.2 24.9 19.2 37.6 28.5 7.1 5.2 13.6 11.1 20.7 16.2 8 5.7 15.7 11.7 23.4 17.7 13.6 10 26.7 20.6 40.1 30.8 2.3 1.4 2.8 4.1 2.7 6.6-0.2 31.5 0.1 63-0.1 94.4-35.8-27-71.2-54.6-107-81.6-12.6-10.6-26.3-19.7-39.1-30-14.7-10.9-28.9-22.5-43.7-33.3-7.5-5.5-14.4-11.7-22-17-6.6-4.6-12.8-9.8-19.2-14.7q-21.6-16.3-43-33c-35-26.3-69.3-53.4-104.4-79.6-3.6-2.5-1.9-7.4-2.2-11zm184.7 128.5c8.3 6.6 16.8 13.1 25 19.9q2.6-3.5 5.2-7c-5.6-4.5-11.4-8.8-17-13.3 7.7-9.2 14.9-18.8 22.4-28.1-2.6-2.1-5.3-4.1-7.9-6-9.4 11.4-18.4 23.1-27.7 34.5zm46.2 2c-8 2.7-13.7 11.9-11.6 20.3 2.1 8.6 10.3 15.1 19.1 15.3 9.3 0.4 17.5-8.2 17.6-17.3 0.4-12.3-13.6-22.1-25.1-18.3zm16.2 46.5c2.3 2.6 5.2 4.5 7.9 6.7 2.6-3.4 5.2-6.8 7.9-10.2 2.3 2 5 3.7 7 6-0.2 5-1.1 10-1.3 15.1 2.9 2.2 5.8 4.4 8.6 6.8 0.5-5.9 1.1-11.8 1.8-17.7 7.5 2 15.7-2.5 18.3-9.8 2.3-5.8 0.1-12.5-4.2-16.7-5.7-5.6-12.3-10.2-18.5-15.2-9.1 11.7-18.5 23.3-27.5 35zm52.8 10.8c4.5 0.7 9.4 2.5 11.7 6.8 1.2 2.2-0.1 4.7-0.7 6.9-5-3.3-9.2-8.6-15.5-9.3-5.9-0.9-11.5 4.8-10.9 10.7 0.6 7.6 8.8 13.2 16.2 12.4q-1.3 1.2-2.5 2.4c2.4 2 4.9 4 7.4 6 4.4-5.8 9.2-11.4 13.5-17.4 2.8-3.9 3.9-9.2 1.5-13.6-3.8-7-11.5-11.6-19.3-12.5q-0.8 3.8-1.4 7.6z"/><path class="c" d="m83.1 223.2c41 0 81.9-0.1 122.9 0 10.1-0.1 20.3 4.2 27.4 11.4 6.9 7.7 11.3 17.9 11.3 28.3 0.2 62.7 0 125.4 0.1 188 0.2 8.3-0.2 17.1-4.5 24.5-6.6 13.4-21.3 22.3-36.3 22-40.3 0.1-80.5-0.1-120.8 0 0-5.4 0.1-10.8 0.1-16.1q44.4 0 88.7 0c15.2-0.2 30.3 0.5 45.5-0.4 1.7-12.6 1.3-25.3 1.3-38 0.2-5.3-3.1-11.3-8.8-12-7.8-0.9-15.7 0.1-23.5-0.6-1.9-0.2-4.2-1.1-4.2-3.3-0.9-7.6 0-15.3-0.1-23 0.1-3.7-0.4-7.5 0.6-11.1 1.6-2.3 5-2 7.5-1.2 2.5 5.7 2.6 12.2 5 18 1.1 2.7 3.9 4.6 6.8 4.8 5.5 0.4 11.1 0.1 16.7 0.2-0.1-36.5 0.1-73.1-0.1-109.6-5.5 0.2-11.1-0.2-16.6 0.3-3.8 0.3-6.5 3.5-7.6 7-1.7 5.3-2.6 10.9-4.2 16.3-2.6 0.3-6.6 1.2-7.7-2.1-0.8-5.2-0.3-10.4-0.4-15.7 0-5.9-0.4-11.9 0.2-17.9 0-1.9 1.8-3.3 3.7-3.3 8-0.7 16 0.4 24-0.7 4.2-0.5 7.4-4.4 8.3-8.4 0.7-3.8 0.4-7.7 0.4-11.6-0.2-9.9 0.2-19.9-1.4-29.8-5.4-0.4-10.9-0.5-16.4-0.4-39.2 0-78.5-0.1-117.8 0q0.1-7.8-0.1-15.6z"/><path class="c" d="m1026.7 242.7c10.2 7.3 19.7 15.4 29.8 22.9 17.3 13.3 35 26.2 52.2 39.7 16.6 12.7 33.3 25.3 49.9 38.1 14.3 10.3 27.8 21.6 42.1 31.9 12 9.8 24.7 18.6 36.7 28.3q40.7 30.8 81 62c14.2 11.2 28.9 21.7 43.2 32.8 14.4 11.2 29.1 22.1 43.5 33.4 2.1 1.4 2.2 3.9 2.2 6.2 0 25-0.1 50 0 75-0.1 2.7 0.1 6.1-2.4 7.9-4.1 2.9-10 2.1-13.7-1.1-30.1-22.9-59.9-46.2-90.1-68.9q-59.9-46.2-120.2-91.8c-11.6-9.5-24-17.9-35.6-27.4-8.4-6.6-17.1-12.8-25.7-19.4-14.7-12-30.4-22.7-45.1-34.8-16.2-11.9-32.1-24.1-48-36.4 0.2-32.8-0.2-65.6 0.2-98.4zm111.5 116.5c-10.1 2.3-17.7 12.4-17.4 22.8 0.6 11.8 10.7 21.6 22.1 23.9 2 0.3 4.6 1.2 6.1-0.9 3.8-3.9 6.9-8.4 10.3-12.6q-3.6-3-7.2-5.9c-2.8 3.3-5.5 6.8-8.3 10.1-4.5-1.4-9-3.8-11.3-8.1-3-5-1.7-11.6 2.1-15.8 4.2-4.9 11.9-6.1 17.4-2.7 4.6 2.3 7 7.3 7.8 12.2 3-0.4 6.1-0.6 9.2-0.8-1-14.6-16.7-25.8-30.8-22.2zm14.2 56.7c2.6 2.2 5.2 4.3 7.8 6.4 5.5-7.1 11.3-14.1 16.7-21.3-0.1 11.7 0.4 23.4 0.7 35.1q3.2 2.6 6.4 5.1c9.1-11.8 18.8-23.1 27.7-35.1q-3.8-3.1-7.7-6.1c-5.7 6.8-11.3 13.7-16.8 20.7 0-11.2-0.5-22.4-0.7-33.6-1.3-2.6-4.4-4-6.6-5.9-9.3 11.4-18.4 23.1-27.5 34.7zm54.9 14.2c1.3 7.1 7.5 11.6 10.5 17.9 1.5 2.6-0.9 6.1-3.8 5.4-7.4-1.6-11.8-8.7-14.2-15.4-2.6 1.3-5.2 2.5-7.7 3.8 1.5 4.7 3.9 9.1 7.5 12.5 4.5 4.3 10 8.4 16.5 8.4 6.9 0.2 13.9-6.4 12.4-13.6-1.4-7.2-7.9-11.7-10.8-18.2-1.5-3.1 2.5-6 5.4-4.8 5.9 1.7 9.5 7.4 11.8 12.8 2.5-1.4 5-2.8 7.4-4.1-3.2-8.8-10.9-16.3-20.3-18-7.6-1.6-16 5.4-14.7 13.3zm31.6 24c0.5 6.7 5.7 11.4 9.4 16.5 1.2 1.8 2.6 4.1 1.4 6.1-1.5 2.5-5 1.8-7.2 0.8-5.7-2.9-8.9-8.8-10.9-14.5-2.5 1.2-5.1 2.5-7.7 3.7 2.5 9.9 10.8 17.9 20.5 20.6 7.3 2.2 16-3.4 16-11.3 0-7-5.9-11.6-9.5-17-1.1-1.8-2.6-4.3-1.2-6.3 1.5-2.2 4.7-2.1 6.8-1 5.1 2.4 8 7.5 10.4 12.3q3.8-2.2 7.5-4.3c-3.9-8.7-11.5-16.9-21.5-18.1-7.1-0.8-14.4 5.2-14 12.5z"/><path class="c" d="m1261.3 311.4c4.9-2.5 10.9 1.4 11.8 6.6 1.2 7.2-7.6 14.5-14.1 10.1-6.8-3.8-4.4-14.2 2.3-16.7z"/><path class="c" d="m1294.7 339.1c3.2-3.9 6.2-7.9 9.3-11.9 3.6 2.9 8 5.3 10.2 9.6 2.3 5-2.7 11.3-8.1 9.9-4.5-1.3-7.7-4.9-11.4-7.6z"/><path class="c" d="m1320.2 376.9c-0.7-2.6 1.8-5.7 4.5-4.7 3.6 1.3 6.2 4.2 9 6.6-2 1.5-3.9 4-6.7 3.2-2.9-0.5-6.2-2-6.8-5.1z"/><path class="c" d="m1026.7 402.5c15.4 11.5 30.4 23.4 45.8 34.9 32.3 24.3 64.3 49 96.5 73.5 41.5 31.5 83 63.1 124.3 94.8 7.3 5.6 14.9 10.9 21.9 16.9-38.4 0.2-76.8 0.1-115.2 0.3-4.5 0-9.2 0.7-13.6-0.4-3.6-1.6-6.3-4.4-9.3-6.6-50-38.5-100.3-76.6-150.5-114.8 0.1-32.9-0.3-65.7 0.1-98.6z"/><path class="c" d="m1026.7 561.8c13.9 10.6 28 21.1 41.7 31.9 12.8 9.9 25.9 19.3 38.4 29.6q-35.9 0.2-71.8 0.1c-4.8 0.6-8.8-3.8-8.4-8.4-0.1-17.7-0.1-35.5 0.1-53.2z"/><path class="c" d="m906 585.8c2.4-0.7 5-0.3 7.5-0.3q-7.2 10.9-14 22c-1.2 1.7-2.2 3.6-3.8 4.9-2.4 0.4-4.8 0.3-7.1 0.4 3.7-6.6 7.8-12.9 11.9-19.2 1.7-2.7 3.1-5.6 5.5-7.8z"/><path class="c" d="m924.3 585.3q3.9-0.1 7.9-0.2c-4.2 7.1-9 13.8-13.3 20.8-1.6 2.4-2.9 4.9-5.1 6.7-2.2 0.4-4.4 0.1-6.6 0.2 5.2-9.5 11.6-18.2 17.1-27.5z"/><path class="c" d="m943 585.1q3.6 0 7.3 0.1c-5.2 9.6-11.8 18.3-17.5 27.5q-3.5-0.1-6.9-0.2c6-9 10.9-18.6 17.1-27.4z"/><path class="c" d="m943.6 612.4c5.9-9 11.2-18.5 17.3-27.4q3.6 0 7.4 0c-5.3 9.4-11.3 18.4-17.4 27.3q-3.7 0-7.3 0.1z"/><path class="c" d="m973.9 594c2-3 3.3-6.5 6.1-9 2.2-0.3 4.6-0.2 6.9-0.2-5.3 8.4-10.4 17-15.9 25.3-1.6 3.1-5.7 1.8-8.6 2.2 3.6-6.3 7.6-12.3 11.5-18.3z"/><path class="c" d="m997 587c1.6-3.5 6.1-2.1 9.2-2.3-5.7 9.3-12.4 18.1-18.1 27.5q-3.6-0.1-7.2-0.1c5.4-8.4 10.5-16.9 16.1-25.1z"/><path class="c" d="m721.3 587c2.4-0.9 5-0.5 7.6-0.5-5.7 9.4-12.1 18.3-17.8 27.6q-3.8 0.1-7.5 0.1c4.6-7 9.1-14.1 13.4-21.2 1.3-2.1 2.5-4.3 4.3-6z"/><path class="c" d="m757.8 586.5q3.6 0 7.2 0c-5.4 8.4-10.6 16.9-16.2 25.2-1.7 3.3-5.9 1.8-8.9 2.3 5.7-9.4 11.6-18.6 17.9-27.5z"/><path class="c" d="m776 586.6q3.5-0.2 7.1-0.3c-5.4 9.4-10.9 18.7-17.2 27.5q-3.6 0-7.2-0.1c5.3-9.3 11.8-17.9 17.3-27.1z"/><path class="c" d="m794.2 586q4 0.1 7.9 0.1c-5.6 9.4-12.2 18.1-17.6 27.6-2.5 0-5-0.2-7.5 0 5.8-9.2 11.6-18.3 17.2-27.7z"/><path class="c" d="m807.4 594.3c1.8-2.7 3.2-5.9 5.7-8.1 2.4-0.4 4.9-0.2 7.4-0.2-3.4 6.5-7.8 12.5-11.8 18.6-2 2.9-3.5 6.3-6.1 8.8-2.3 0.4-4.7 0.3-7 0.3 3.9-6.5 8-12.8 11.8-19.4z"/><path class="c" d="m830.3 588.3c1.7-3.2 5.8-2 8.7-2.4-5.1 9.5-11.4 18.3-17.3 27.2q-3.7 0.2-7.4 0.4c5.6-8.2 10.3-17.1 16-25.2z"/><path class="c" d="m845.4 593.4c1.7-2.5 3.1-5.5 5.6-7.4 2.1-0.3 4.3-0.2 6.5-0.2-3.8 6.4-7.9 12.6-11.6 19-1.7 2.7-3.1 5.6-5.3 7.9-2.4 0.9-5.1 0.4-7.6 0.6 3.8-6.9 8-13.5 12.4-19.9z"/><path class="c" d="m851.5 613.2c5.6-9.3 11.9-18.1 17.4-27.4q3.9 0 7.8 0c-5.6 9.3-12.4 17.9-17.8 27.4q-3.7 0-7.4 0z"/><path class="c" d="m887.5 586.3c2.3-0.7 4.7-0.5 7.1-0.6-3.6 6.8-7.9 13.3-12.2 19.7-1.7 2.6-3.2 5.4-5.4 7.4-2.5 0.4-4.9 0.3-7.3 0.4 3.7-5.5 7.4-11 10.7-16.8 2.3-3.4 4.2-7.2 7.1-10.1z"/><path class="c" d="m626.1 589c1.7-2.8 5.5-1.4 8.2-1.8-6 9.1-11.5 18.5-17.7 27.5q-3.5 0.1-7 0.2c5.1-8.9 10.4-17.7 16.5-25.9z"/><path class="c" d="m645.1 587q4 0 8 0c-4.4 7.5-9.9 14.3-14.1 22-1.2 2-2.3 4.2-4.1 5.7-2.4 0.3-4.8 0.2-7.1 0.3 5.6-9.5 11.9-18.5 17.3-28z"/><path class="c" d="m664 587q3.7 0 7.4 0c-5.1 9.6-11.9 18.2-17.5 27.5q-3.8 0-7.7 0c6.3-8.9 11.7-18.4 17.8-27.5z"/><path class="c" d="m682.3 589.3c1.7-3.2 5.9-2 8.9-2.4-5.6 9.5-11.6 18.7-18 27.7q-3-0.1-6-0.1c4.4-8.8 9.7-17.1 15.1-25.2z"/><path class="c" d="m699.9 590.9c0.9-1.4 1.8-2.8 3-3.8 2.4-0.4 4.8-0.3 7.3-0.4-5.8 9.2-11.8 18.2-17.4 27.5q-3.9 0.1-7.7 0.2c4.6-8.1 9.8-15.7 14.8-23.5z"/><path class="c" d="m721.7 614.1c5.9-9.1 11.5-18.4 17.3-27.5q3.7 0 7.4 0c-4.2 7.9-9.5 15.1-14.1 22.8-1 1.5-1.9 3.2-3.3 4.4-2.4 0.4-4.9 0.3-7.3 0.3z"/><path class="c" d="m496.4 588.4q3.5 0.1 7 0.3c-4.1 7.3-9 14.1-13.3 21.3-1.2 1.8-2.3 3.8-3.9 5.2-2.3 0.8-4.8 0.5-7.2 0.7 5.8-9.2 11.3-18.6 17.5-27.5z"/><path class="c" d="m514 590c1.7-3 5.7-1.4 8.5-1.9-5.7 9.2-11.3 18.4-17.2 27.4q-3.8 0.2-7.6 0.4c5.5-8.7 10.8-17.4 16.3-25.9z"/><path class="c" d="m534.2 588.3c2.3-0.4 4.7-0.3 7.1-0.3-5.4 9.6-11.9 18.4-17.7 27.7q-3.8 0.1-7.6 0.2c4.1-7.1 9.1-13.6 13.2-20.7 1.5-2.4 2.8-5 5-6.9z"/><path class="c" d="m548.7 593.7c1.3-1.9 2.4-4.1 4.4-5.4 2.2-0.4 4.4-0.4 6.6-0.5-5.3 9.5-11.3 18.6-17.7 27.4q-3.3-0.1-6.7-0.1c4.4-7.2 9-14.2 13.4-21.4z"/><path class="c" d="m553.8 615.1c5.3-9.4 11.6-18.2 17-27.5q3.9 0.1 7.7 0.2c-5.7 9.2-11.5 18.3-17.4 27.3q-3.7 0-7.3 0z"/><path class="c" d="m589.4 588.1c2.5-0.7 5.2-0.4 7.8-0.4-4.5 7.6-9.7 14.7-14.2 22.3-1 1.7-2 3.4-3.4 4.8-2.5 0.6-5.1 0.4-7.6 0.5 4-6.6 8.8-12.9 12.7-19.6 1.5-2.6 2.8-5.3 4.7-7.6z"/><path class="c" d="m590.7 615.1c6-9.2 11.2-19.1 18.1-27.7q3.3 0.2 6.6 0.4c-4.5 8.7-10.5 16.6-15.8 24.9-1.7 3.2-5.9 1.9-8.9 2.4z"/><path class="c" d="m440.2 589.1q3.9-0.1 7.8-0.1c-5.9 9-11.7 18.2-17.9 27.1q-3.4 0-6.9 0c5.3-9.2 11.4-18 17-27z"/><path class="c" d="m441.9 616c5.5-9.2 11.2-18.2 17-27.1q3.7 0 7.5 0.1c-5.7 9-11.7 17.9-17.4 27q-3.5 0-7 0z"/><path class="c" d="m460.4 616c6-9 11.6-18.3 17.4-27.4q3.9 0 7.7 0.1c-6.1 8.9-11.6 18.2-17.7 27.2q-3.7 0-7.4 0.1z"/><path class="c" d="m395.1 601.2c2.2-4.1 5.1-7.8 7.7-11.6q3.8 0.1 7.5 0.1c-5.5 8.2-10.7 16.7-16.4 24.8-0.2-4.5-1.2-9.3 1.2-13.3z"/><path class="c" d="m404.3 616.3c5.5-9.2 11.5-18.1 17.5-27q3.6 0 7.1 0.1c-5.8 9.1-11.5 18.3-17.7 27.1q-3.5-0.1-6.9-0.2z"/><path class="c" d="m999.7 611.9c3.9-5.9 7.6-11.9 11.4-17.9 0.1 3.3 0.3 6.7 0 10-0.4 3.1-2.5 5.5-4.1 8q-3.7-0.1-7.3-0.1z"/><path class="c" d="m1423.2 629.2c6.2-6.3 12.9-11.9 19-18.3-0.1 20.8 0.1 41.7 0 62.5-27.8-0.2-55.7 0-83.5-0.1 5.1-4.7 9.2-10.6 14.9-14.8 6.4-2.3 13.4 0.4 20-1.3 2.9-1.4 4.9-4.1 7.3-6.4 7.3-7.3 15-14.2 22.3-21.6z"/><path class="c" d="m1177.1 662c1.8-2 4-3.7 6.8-3.6 9.5-0.2 19 0 28.5 0-5.1 5.2-10.2 10.5-15.7 15.4-10.4 0.9-21 0-31.4 0.3 4-3.9 8-7.9 11.8-12.1z"/><path class="c" d="m1277.4 658.6c2.4-0.8 5-0.7 7.6-0.7 7.8 0.1 15.7-0.1 23.6 0.1-5 5.5-10.2 10.8-15.7 15.8-10.5-0.1-21 0-31.5 0 3.6-3.2 7-6.6 10.2-10.2 1.8-1.8 3.4-3.9 5.8-5z"/><path class="c" d="m985.4 661.3c2.5-2.6 6.3-2.3 9.6-2.3 7.9 0.1 15.7 0 23.6 0-4.7 5.1-9.7 9.9-14.3 15.2l-0.3 0.3c-10.5-0.4-21 0-31.5-0.3 4.4-4.2 8.5-8.7 12.9-12.9z"/><path class="c" d="m1082 661c2.3-2.5 5.9-2.3 9-2.3 8.2 0.1 16.3 0 24.4 0.1-4.7 5.2-9.9 10.1-14.9 15.1l-0.4 0.4c-10.5 0-21.1 0.1-31.6 0.1 4.7-4.3 9-9 13.5-13.4z"/><path class="c" d="m792.2 662.1c2.6-2.6 6.4-2.2 9.8-2.3 7.9 0.3 15.8 0.1 23.6 0.2-4.9 5-9.9 10-14.9 15.1-10.3 0.1-20.7 0-31.1 0 4.2-4.3 8.1-9 12.6-13z"/><path class="c" d="m888.8 661.8c2.6-2.8 6.7-2.3 10.2-2.4 7.6 0.3 15.3 0.1 22.9 0.2-4.8 5.2-9.8 10.2-14.9 15.2-10.4 0.1-20.9 0.1-31.4 0.1 4.5-4.3 8.6-8.9 13.2-13.1z"/><path class="c" d="m599 662.9c2.4-2.2 5.9-2 9-2.1 8.1 0.1 16.2 0.1 24.2 0.2-4.6 4.8-9.4 9.3-13.9 14.3l-0.2 0.3c-10.6 0.2-21.2-0.1-31.8 0 4.3-4.1 8.2-8.7 12.7-12.7z"/><path class="c" d="m695.5 662.5c2.5-2.5 6.3-2.1 9.5-2.2 7.9 0.3 15.9 0.1 23.8 0.2-4.6 5-9.5 9.9-14.1 14.9-10.7 0.1-21.4-0.2-32.1-0.1 4.4-4.1 8.4-8.8 12.9-12.8z"/><path class="c" d="m405.1 664.1c2.3-2.4 5.8-2.3 8.9-2.3 8 0.1 16.1 0.3 24.1 0.5-4.5 4.4-8.7 9.2-13.4 13.5-1.5 0.7-3.2 0.4-4.7 0.5-9.2 0-18.3-0.1-27.4 0 4.3-3.9 8.2-8.3 12.5-12.2z"/><path class="c" d="m502.4 663.4c2.3-2.2 5.7-1.9 8.6-2.1 8.1 0.1 16.1 0 24.2 0.3-4.7 4.9-9.2 9.8-14.4 14.1-3.2 0.7-6.6 0.3-9.8 0.2-7.2-0.1-14.3 0.1-21.4-0.1 4.6-3.8 8.2-8.6 12.8-12.4z"/><path class="d" d="m27.7 243.6c1.3-0.5 2.9-0.3 4.3-0.4 60.7 0.2 121.4 0 182.1 0.1 0.1 11.6 0.5 23.1 0.2 34.7 0 3.4-2.6 7-6.2 7-7.4 0.4-14.8-0.1-22.2 0.2-5-0.1-8.8 5-8.3 9.8 0.3 10.3-0.3 20.8 0.3 31.1 0.5 7.1 10.7 9.8 15.4 5.2 4-6.1 3.1-14.1 6.6-20.4 4.1-3 9.7-0.9 14.4-1.4 0.1 33.6 0.1 67.3 0.1 100.9-4.2-0.1-8.3 0.4-12.5-0.3-1.8-0.5-2.8-2.4-3.2-4.1-1.4-5.5-2.3-11.1-4.4-16.4-1.5-3-5.4-3-8.3-2.9-4.3 0.1-8.3 3.9-8.2 8.3-0.3 10.3 0 20.6-0.1 31-0.4 4.6 3.6 8.7 8.2 8.9 7.7 0.5 15.4-0.5 23.1 0.2 3.2 0.5 5.3 3.8 5.2 6.9 0.1 11.6 0.5 23.2-0.5 34.8q-88.3 0-176.7 0c-3.1-0.1-6.2 0.2-9.3-0.4-6.7-11.2-5.8-24.8-5.7-37.4-0.1-41.7-0.1-83.3-0.1-125 0.1-16.8-0.2-33.7 0.3-50.6 0.5-6.8 1.9-13.9 5.5-19.8zm123.7 51.9c-2.3 1.3-3.7 3.9-3.8 6.5-0.3 6.3 0.1 12.7-0.1 19 0.2 2.8-0.2 5.8 1.2 8.3 2.9 4.7 10.8 4.6 13.4-0.3 1.5-3.1 1-6.7 1.1-10-0.1-6 0.4-12-0.2-18-0.6-5.2-7.2-8.3-11.6-5.5zm1 92c-2.7 0.9-4.6 3.6-4.7 6.4-0.4 6.7-0.1 13.4-0.2 20.1 0 3.4-0.1 7.4 2.9 9.6 3.9 3.5 11.1 1.6 12.3-3.7 1.1-6.2 0.3-12.6 0.6-19-0.2-3.7 0.6-8.1-2.1-11.1-2.1-2.6-5.7-3.2-8.8-2.3z"/></svg>