<svg version="1.2" xmlns="http://www.w3.org/2000/svg" viewBox="0 0 758 1321" width="758" height="1321"><style>.a{fill:#8d9192}.b{fill:#292d2f}.c{fill:#505050}.d{fill:#e6822a}</style><path class="a" d="m148.1 27.1c13.3-5.2 27.6-7.8 41.9-8.6 12-0.4 24 0 36 0.1 21.7 0 43.3 0.1 65 0.1 17.7 0.4 35.3-0.2 53 0.4 11 0.1 22-0.4 33-0.2 9.3 0.5 18.6 0.2 27.9 0.3 58.7 0 117.4 0.3 176.1 0.3 18.9 0.4 37.7 4.7 54.8 12.7 26.9 12.9 50.7 33.3 65.5 59.5 11.8 21 17.5 45.2 17.2 69.3 0 108.3-0.3 216.7-0.3 325 0.2 30.4-0.3 60.7 0.2 91 6 8.1 13.6 14.8 20.1 22.5 1.7 2.2 2.2 4.9 2.1 7.5q-0.1 62.5-0.5 125.1c-0.5 22.3-0.3 44.7-0.4 67-0.5 6.3-8.5 7.2-11.5 11.9-0.7 3.2-0.5 6.6-0.1 9.9 3.3 4.1 11.2 4.6 11.5 11-0.1 54.7-0.2 109.4-0.3 164.1-0.3 4.7 0.9 9.8-1.1 14.3-6.8 8.7-14.9 16.5-21.5 25.5-0.2 6.7-0.1 13.4 0.1 20.1 1 1.5 2.3 3.1 2.2 5 0.4 9.4-0.3 18.8-0.2 28.2 0.4 3.3-2.7 5.6-2.6 8.8 0.1 22.4 0.1 44.7-0.1 67.1-0.9 24-7 48-19.4 68.7-21.2 36.7-60.7 61.2-102.6 66-10.3 1.3-20.7 1-31.1 1-114 0-228 0-341.9 0-13-0.1-26 0.5-38.9-0.9-32.5-3.3-63.9-17.8-86.6-41.3-26.1-26.7-39.1-64.5-38-101.5 0.1-40.3 0.2-80.7 0-121-0.8-4-4.5-6.6-7-9.6-4.5-4.8-8.6-10.1-13-15-2.4-2.5-3.2-6-3.2-9.4 0.2-40.6 0.4-81.3 0.5-122q0.1-1.8 0.2-3.7c0.6-8.5 0.2-17 0.2-25.6-0.1-5.2 0.2-10.5 0-15.7 0-2.7-0.1-5.7 2.1-7.6 3.9-3.7 8.7-6.1 13-9.2q0.1-3.2 0.1-6.4c-4.4-2.3-9.1-4.1-12.9-7.4-2.1-1.9-2.3-4.8-2.2-7.4 0.1-64.4 0.3-128.7 0.3-193 0.6-3.6 2.7-6.6 5.3-9 6-5.7 11.7-11.8 17.3-18 0.3-33.8 0.1-67.7 0.2-101.5-2.7-1.6-5.7-3.4-6.6-6.6-0.7-2.5-0.5-5.3-0.6-7.9-0.2-39.6 0-79.3-0.1-119 0-5 0.1-10.2 1.8-14.9 0.9-2.5 3.5-3.4 5.5-4.6-0.1-9.9-0.1-19.8 0.1-29.6-1.8-1-3.8-1.8-4.9-3.6-2.1-3-1.9-6.8-2-10.3-0.1-35.3 0.1-70.6-0.1-106 0.1-3-0.1-6.2 1.5-8.9 1.2-2.1 3.5-3.2 5.6-4.4 0.1-13.5 1.4-27.2 4.9-40.3 6.3-24.3 19.8-46.6 38.4-63.4 13.4-12.3 28.9-22.5 46.1-28.9zm49.1 27.2c-27.1 2-55 11.7-73.4 32.4-18.1 20.5-25.7 48.4-25.5 75.3-0.1 274-0.1 548-0.2 822 0.2 18-0.6 36-0.2 54-0.6 42.3-0.1 84.7-0.2 127 0.3 21.5 7.3 42.9 20 60.3 10.2 13.3 23.2 24.5 38.3 31.7 15.2 7.6 32.1 11.1 49 11.1 46 0 92 0.2 138-0.2 24 0.6 48-0.1 72 0.2 53.3 0 106.6 0.1 160 0 34.9-0.1 69.5-18.3 88.3-47.9 10.8-17.3 16.3-37.8 16-58.2 0.1-42 0.2-84-0.2-126 0-212 0.1-424-0.1-636-0.3-78 0.4-156-0.1-234 0.6-19.5-2.6-39.3-10.7-57.1-7-15.3-18.6-28.4-32.7-37.4-14.7-9-31.4-14.4-48.5-16.4-10.6-1.5-21.3-0.7-32-0.9-96.3 0-192.7 0.8-289 0-22.9 0.1-45.9-0.4-68.8 0.1z"/><path class="b" d="m197.2 54.3c22.9-0.5 45.9 0 68.8-0.1 96.3 0.8 192.7 0 289 0 10.7 0.2 21.4-0.6 32 0.9 17.1 2 33.8 7.4 48.5 16.4 14.1 9 25.7 22.1 32.7 37.4 8.1 17.8 11.3 37.6 10.7 57.1 0.5 78-0.2 156 0.1 234 0.2 212 0.1 424 0.1 636 0.4 42 0.3 84 0.2 126 0.3 20.4-5.2 40.9-16 58.2-18.8 29.6-53.4 47.8-88.3 47.9-53.4 0.1-106.7 0-160 0-24-0.3-48 0.4-72-0.2-46 0.4-92 0.2-137.9 0.2-16.9 0-33.9-3.5-49-11.1-15.2-7.2-28.2-18.4-38.3-31.7-12.8-17.4-19.8-38.8-20.1-60.3 0.1-42.3-0.4-84.7 0.2-127-0.3-18 0.4-36 0.2-54 0.2-274 0.2-548 0.2-822-0.2-26.9 7.4-54.8 25.5-75.3 18.5-20.7 46.3-30.4 73.4-32.4zm13.1 33.2c-19.9 2.3-38.8 11.7-53.4 25.4-13.6 13.6-23.3 31.2-26.6 50.1-2 10.6-1.3 21.3-1.4 32 0 311.6 0 623.3 0 935-0.5 14.6 1.2 29.5 7.1 43 12.2 29.4 40.4 51.6 71.9 55.9 12.3 1.6 24.7 0.8 37 1q150.6-0.1 301.1 0c8.6-0.1 17.4 0.4 25.9-1.2 27.3-4.6 52.1-22 65.3-46.4 7.9-14.1 11.6-30.3 11.3-46.3 0.1-320.4 0-640.7 0.1-961-0.4-12.6-4-25-9.4-36.3-15.3-32.1-50.7-53.3-86.2-51.9-107 0-214 0-321 0-7.2 0.1-14.5-0.3-21.7 0.7z"/><path class="c" d="m210.3 87.5c7.2-1 14.5-0.6 21.7-0.7 107 0 214 0 321 0 35.5-1.4 70.9 19.8 86.2 51.9 5.4 11.3 9 23.7 9.4 36.3-0.1 320.3 0 640.6-0.1 961 0.3 16-3.4 32.2-11.3 46.3-13.2 24.4-38 41.8-65.3 46.4-8.5 1.6-17.3 1.1-25.9 1.2q-150.5-0.1-301.1 0c-12.3-0.2-24.7 0.6-37-1-31.5-4.3-59.7-26.5-71.9-55.9-5.9-13.5-7.6-28.4-7.1-43 0-311.7 0-623.4 0-935 0.1-10.7-0.6-21.4 1.4-32 3.3-18.9 13-36.5 26.6-50.1 14.6-13.7 33.5-23.1 53.4-25.4z"/><path class="d" d="m19.9 851.8c5.1-0.9 10.2-1.3 15.4-1 0 8.5 0.5 17-0.2 25.5-5 0-10-0.3-15-0.9-3.1-0.4-6.1-3.1-5.9-6.3-0.1-3.8-0.1-7.7 0.4-11.4 0.2-2.9 2.4-5.4 5.3-5.9z"/></svg>