<svg version="1.2" xmlns="http://www.w3.org/2000/svg" viewBox="0 0 800 1326" width="800" height="1326"><style>.a{fill:#fff}.b{fill:#010101}.c{fill:#2c2c2c}.d{fill:#6f764b}.e{fill:#c5703e}</style><path class="a" d="m0 0h800v1326h-800zm545.9 38.2c-3.2-3.7-7.9-6-12.9-5.6q-49.5 0.9-99 1.2c-30 0.8-60 0.6-90 1.3-29.7 0.3-59.4 0.7-89.1 1.1-3.3 0-6.2 1.7-8.9 3.3-2.4-2.2-4.9-4.7-8.3-5.4-3.8-0.8-7.8-0.3-11.7-0.4-5.9 0.1-12.5-1.1-17.6 2.7-6 4-7.4 11.8-7.4 18.5-1.9 3.9-4 7.7-4.2 12.1-0.7 7.2-0.3 15.1 4.3 21 1.2 4.3 0.3 9.3 2.7 13.2 1.1 1.9 3.1 3.4 3.2 5.8 0.3 3.5 0.2 7 0.4 10.5-4 0.4-8 1.4-11.3 3.7-2.4 1.6-3.6 4.5-6.2 5.7-14.6 7.9-25.8 22.6-28.2 39.2-1.4 10.9-0.2 22.9 6.8 31.7-5.6 1.1-7.6 7.2-7.6 12.2-0.8 19.8-1.2 39.5-2 59.2-13.8 1.5-27.8 5.2-38.8 13.9-6 5.1-11.7 10.7-15.5 17.7-8.8 16.3-17.5 32.6-25.7 49.2-2.5 5.2-5.6 10.2-7.4 15.7-5.2-0.1-11.4-0.8-15.1 3.5-6.7 7-12.1 15.2-16.4 23.9-2 3.8-1.6 8.4 0.7 11.9-2.4 0.8-3.6 3.1-4.1 5.4-0.9 4.2-1.1 9 1.8 12.5-1.4 1-3.1 2.1-3.4 3.9-1.1 4.7-2.2 10.2 0.9 14.4-1 1.1-2.1 2.3-2.5 3.9-1.3 5.3-1.4 11.3 1.8 16-5.2 4.8-4.2 14.1 0.8 18.8-1.8 1.1-3.6 2.8-3.5 5.2 0 4.5-0.6 10.1 3.5 13.2-1.2 1.3-2.7 2.7-2.6 4.6-0.2 4.8 0.1 10.3 3.9 13.8-1.3 1.4-2.4 3.2-2.4 5.2 0 5.1 1.4 10.5 5.5 13.9-3.8 3.4-2.6 8.8-1 13 3.1 7.6 7.9 14.4 12.9 20.8 2.8 3.4 5.9 7 10.5 7.9-0.2 13.8-0.1 27.7-0.3 41.6-3.3-0.2-6.3 1.5-8.5 4-6 6.8-11.1 14.5-15.2 22.7-2.2 3.9-2.5 9.3 0.2 13.1-1.2 0.7-2.7 1.3-3.2 2.7-2.1 4.9-1.9 10.8 1 15.2-2.3 1.3-3.7 3.6-4 6.2-0.6 4.2-1 8.9 1.5 12.6-1 1.2-2.4 2.2-2.7 3.7-1 4.8-1.3 10.2 1.6 14.3-0.8 1.4-1.8 2.7-2 4.4-0.6 5-0.8 10.4 1.3 15.2-0.3 1.6-1.3 3-1.2 4.7-0.1 4.7-0.9 10.2 2.7 13.9-1.3 1.9-2.7 3.8-2.6 6.2 0.2 4.8-0.2 10.6 4.3 13.6-1.5 1.5-2.8 3.3-2.8 5.4-0.2 4.8 0.4 10.6 5.1 13.3-1.5 2.2-3 4.8-2.4 7.6 1.4 9.8 7.6 18.1 13.8 25.5 2.8 3.3 5.6 6.9 9.8 8.4 0.2 8.8-0.5 17.5-0.4 26.2 0 12.8 1.3 25.7 5 38 3.1 10.5 8.4 20.2 13.1 30.1 7 14.5 14.6 28.7 22 43 5.4 10.4 14.6 18.3 24.6 24.2 9.2 4.5 19.5 6.8 29.8 7.8 0.8 5.3 1.9 10.5 2.8 15.8-0.6 20.3-1.5 40.7-1.6 61 0.3 4.4 0 9.8 3.7 13 3.6 1.7 7.8 1.1 11.7 1.6 0.6 3 0.8 6.1 1.7 9.1 0.4 1.1 2.4 1 2.1 2.5-0.7 14.3-0.5 28.6-0.3 42.9 0 7 1.9 14 1.4 21-0.2 7.3-1.9 14.7-0.5 22 0.6 3.5 2.9 7.3 6.7 7.9 6.4 1 13.1-0.7 19.5 0.8 3.4 0.9 5.4 4.2 6.4 7.3 2.8 7.3 1.1 16.2 6.5 22.5 2.3 3.5 7.2 4.2 10.8 2.3 1.5 5.2 3.2 10.8 7 14.9 4.9 4.5 11.8 5.4 18 6.7 14.2 2.1 28.5 2.7 42.8 3.2-1.9 15.8-4 32.1-0.1 47.7 13 0.1 26-1.2 39.1-1.6 55-2.7 110.1-5.4 165.1-8.2 3.1-0.4 6.4 0.3 9.3-1 1.2-13.5 1.6-27.1 1-40.6 11-0.6 22.1-1.2 32.9-3.8 6.3-1.4 9.8-7.7 10.3-13.8 4-0.8 8.5-2.2 10.6-6.1 4.6-7.5 3.1-16.7 2.8-25.1 9.7-0.4 20.5 2.5 29.3-2.9 4.8-4.7 4.7-12.1 5.9-18.3 2.9-25.2 4-50.5 4.3-75.8 1.5 0 3.1 0 4.6 0 0.9-3.5 1.1-7.3 2.2-10.7 2.1-0.9 4.5-0.4 6.8-0.6 4.3 0 8.6-3.3 9.1-7.7 1.7-11.9 0.5-24 0.4-36-0.7-12.7-0.7-25.5-2.4-38.1 0.1-2.9 0.5-5.8 1.2-8.6 16-0.8 31.8-7.5 42.7-19.3 8.4-7.3 12.7-17.7 17.7-27.3 9.9-19.1 19.8-38.1 28.7-57.6 9.6 0.6 20 1.3 28.4-4.1 2.9-2 6.8-4 7.1-8 4.9-20 2.1-40.8 2.8-61.1 2.1-7.9 2.7-16 3.2-24.1 1.7-13.5 1.6-27.2 2.5-40.9 0.7-23.3 1.4-46.6 1.1-70-3-7.2 1.7-15.8-2.9-22.5-1-3.6 1-7.6-1.2-11-0.9-2.6-3.4-4-4.6-6.3-0.5-30.8-0.7-61.6-1.2-92.4 5.4-6.2 5.9-15 5.5-22.8 0.5-4 1.4-7.9 1.4-12 0.2-19 0.6-38 1-57 0-9 1.9-18.1-0.5-26.9 1.7-6.3 0.9-13.2-1.7-19.1 1.7-6 2.3-13.9-2.7-18.4 2.9-5.3 0.9-13-4.5-15.7-0.2-9-0.2-18.1-1.7-27-0.6-3.7-1.3-7.7-4-10.4-4.3-3.9-9.8-6.5-15.6-6.8-8.7-0.5-17.4-0.8-26-0.8-1.5 0.5-1.9-1.1-2.4-2-5.2-10.6-10.7-21-16.2-31.4-2.9-5.5-5.6-11.3-9.6-16.1-7.4-9.1-17.3-16.2-28.5-19.7-6.1-2.2-12.5-3.1-18.9-4.1 0.1-15.9 0.2-31.7 0.4-47.6 0.1-1.9-0.3-3.7-1.1-5.3 10.3-6.3 18.6-16.2 22-27.9 3.1-11.7 1.1-24-1.8-35.5-4.3-15.2-17.9-24.8-30.8-32.3-4.5-2.3-8-6.4-12.9-7.9-2.4-0.8-4.9-0.7-7.3-0.9 0.1-8.8-0.1-17.7-0.3-26.5 5.2-3.3 6.1-10 6.2-15.7 0.1-7-1.1-15-6.9-19.7-0.1-3-0.1-5.9-0.6-8.8-1.1-6.1-6.9-11.2-13.2-10.8-6.7 0.1-13.4 0.1-20 0.2-5 0-9.9 2.8-12.1 7.3z"/><path class="b" d="m545.9 38.2c2.2-4.5 7.1-7.3 12.1-7.3 6.6-0.1 13.3-0.1 20-0.2 6.3-0.4 12.1 4.7 13.2 10.8 0.5 2.9 0.5 5.8 0.6 8.8 5.8 4.7 7 12.7 6.9 19.7-0.1 5.7-1 12.4-6.2 15.7 0.2 8.8 0.4 17.7 0.3 26.5 2.4 0.2 4.9 0.1 7.3 0.9 4.9 1.5 8.4 5.6 12.9 7.9 12.9 7.5 26.5 17.2 30.8 32.3 2.9 11.5 4.9 23.8 1.8 35.5-3.4 11.7-11.7 21.6-22 27.9 0.8 1.6 1.2 3.4 1.1 5.3-0.2 15.9-0.3 31.7-0.4 47.6 6.4 1 12.8 1.9 18.9 4.1 11.2 3.5 21.1 10.6 28.5 19.7 4 4.8 6.7 10.6 9.6 16.1 5.5 10.4 11 20.8 16.2 31.4 0.5 0.9 0.9 2.5 2.4 2 8.6 0 17.3 0.3 26 0.9 5.8 0.2 11.3 2.8 15.6 6.7 2.7 2.8 3.4 6.8 4 10.4 1.5 8.9 1.5 18 1.7 27 5.4 2.7 7.4 10.4 4.5 15.7 5 4.5 4.4 12.4 2.7 18.4 2.6 5.9 3.4 12.8 1.8 19.1 2.3 8.8 0.4 17.9 0.4 26.9-0.4 19-0.8 38-1 57 0.1 4.1-0.9 8-1.4 12 0.4 7.8-0.1 16.6-5.5 22.8 0.5 30.8 0.7 61.6 1.2 92.4 1.2 2.3 3.8 3.7 4.6 6.3 2.2 3.4 0.2 7.4 1.2 11 4.6 6.7-0.1 15.3 2.9 22.5 0.3 23.4-0.4 46.7-1.1 70-0.9 13.7-0.8 27.4-2.5 40.9-0.5 8.1-1.1 16.2-3.2 24.1-0.7 20.3 2.1 41.1-2.8 61.1-0.3 4-4.2 6-7.1 8-8.4 5.4-18.8 4.7-28.4 4.1-8.9 19.5-18.8 38.5-28.7 57.6-5 9.6-9.3 20-17.7 27.3-10.9 11.8-26.7 18.5-42.7 19.3-0.7 2.8-1.1 5.7-1.2 8.6 1.7 12.6 1.7 25.4 2.4 38.1 0.1 12 1.3 24.1-0.4 36-0.5 4.4-4.8 7.7-9.1 7.7-2.3 0.2-4.7-0.3-6.8 0.6-1.1 3.4-1.3 7.2-2.2 10.7-1.5 0-3.1 0-4.6 0-0.3 25.3-1.4 50.6-4.3 75.8-1.2 6.2-1 13.6-5.9 18.3-8.8 5.4-19.6 2.5-29.3 2.9 0.3 8.4 1.8 17.6-2.8 25.1-2.1 3.9-6.6 5.3-10.6 6.1-0.5 6.1-4 12.4-10.3 13.8-10.8 2.6-21.9 3.2-32.9 3.8 0.6 13.5 0.2 27.1-1 40.6-2.9 1.3-6.2 0.6-9.3 1-55 2.8-110.1 5.5-165.1 8.2-13.1 0.4-26.1 1.7-39.1 1.6-3.9-15.6-1.8-31.9 0.1-47.7-14.3-0.5-28.6-1.1-42.8-3.2-6.2-1.3-13.1-2.2-18-6.7-3.8-4.1-5.5-9.7-7-14.9-3.6 1.9-8.5 1.2-10.8-2.3-5.4-6.3-3.7-15.2-6.5-22.5-1-3.1-3-6.4-6.4-7.3-6.4-1.5-13.1 0.2-19.5-0.8-3.8-0.6-6.1-4.4-6.7-7.9-1.4-7.3 0.3-14.7 0.5-22 0.5-7-1.4-14-1.4-21-0.2-14.3-0.4-28.6 0.3-42.9 0.3-1.5-1.7-1.4-2.1-2.5-0.9-3-1.1-6.1-1.7-9.1-3.9-0.5-8.1 0.1-11.7-1.6-3.7-3.2-3.4-8.6-3.7-13 0.1-20.3 1-40.7 1.6-61-0.9-5.3-2-10.5-2.8-15.8-10.3-1-20.6-3.3-29.8-7.8-10-5.9-19.2-13.8-24.6-24.2-7.4-14.3-15-28.5-22-43-4.7-9.9-10-19.6-13.1-30.1-3.7-12.3-5-25.2-5-38-0.1-8.7 0.6-17.4 0.4-26.2-4.2-1.5-7-5.1-9.8-8.4-6.2-7.4-12.4-15.7-13.8-25.5-0.6-2.8 0.9-5.4 2.4-7.6-4.7-2.7-5.3-8.5-5.1-13.3 0-2.1 1.3-3.9 2.8-5.4-4.5-3-4.1-8.8-4.3-13.6-0.1-2.4 1.3-4.3 2.6-6.2-3.6-3.7-2.8-9.2-2.7-13.9-0.1-1.7 0.9-3.1 1.2-4.7-2.1-4.8-1.9-10.2-1.3-15.2 0.2-1.7 1.2-3 2-4.4-2.9-4.1-2.6-9.5-1.6-14.3 0.3-1.5 1.7-2.5 2.7-3.7-2.5-3.7-2.1-8.4-1.5-12.6 0.3-2.6 1.7-4.9 4-6.2-2.9-4.4-3.1-10.3-1-15.2 0.5-1.4 2-2 3.2-2.7-2.7-3.8-2.4-9.2-0.2-13.1 4.1-8.2 9.2-15.9 15.2-22.7 2.2-2.5 5.2-4.2 8.5-4 0.2-13.9 0.1-27.8 0.3-41.6-4.6-0.9-7.7-4.5-10.5-7.9-5-6.4-9.8-13.2-12.9-20.8-1.6-4.2-2.8-9.6 1-13-4.1-3.4-5.5-8.8-5.5-13.9 0-2 1.1-3.8 2.4-5.2-3.8-3.5-4.1-9-3.9-13.8-0.1-1.9 1.4-3.3 2.6-4.6-4.1-3.1-3.5-8.7-3.5-13.2-0.1-2.4 1.7-4.1 3.5-5.2-5-4.7-6-14-0.8-18.8-3.2-4.7-3.1-10.7-1.8-16 0.4-1.6 1.5-2.8 2.5-3.9-3.1-4.2-2-9.7-0.9-14.4 0.3-1.8 2-2.9 3.4-3.9-2.9-3.5-2.7-8.3-1.8-12.5 0.5-2.3 1.7-4.6 4.1-5.4-2.3-3.5-2.7-8.1-0.7-11.9 4.3-8.7 9.7-16.9 16.4-23.9 3.7-4.3 9.9-3.6 15.1-3.5 1.8-5.5 4.9-10.5 7.4-15.7 8.2-16.6 16.9-32.9 25.7-49.2 3.8-7 9.5-12.6 15.5-17.7 11-8.7 25-12.4 38.8-13.9 0.8-19.7 1.2-39.4 2-59.2 0-5 2-11.1 7.6-12.2-7-8.8-8.2-20.8-6.8-31.7 2.4-16.6 13.6-31.3 28.2-39.2 2.6-1.2 3.8-4.1 6.2-5.7 3.3-2.3 7.3-3.3 11.3-3.6-0.2-3.6-0.1-7.1-0.4-10.6-0.1-2.4-2.1-3.9-3.2-5.7-2.4-4-1.5-9-2.7-13.3-4.6-5.9-5-13.8-4.3-21 0.2-4.4 2.3-8.2 4.2-12.1 0-6.7 1.4-14.5 7.4-18.5 5.1-3.8 11.7-2.6 17.6-2.7 3.9 0.1 7.9-0.4 11.7 0.4 3.4 0.7 5.9 3.2 8.3 5.4 2.7-1.6 5.6-3.3 8.9-3.2 29.7-0.4 59.4-0.9 89.1-1.2 30-0.7 60-0.5 90-1.2q49.5-0.4 99-1.3c5-0.4 9.7 1.9 12.9 5.6zm9-2.5c-4.2 0.9-6.7 5.2-6.4 9.3 0.4 21.3 0.8 42.6 0.8 63.9 0 2.3 0.8 6 3.7 5.9 11.9 0.3 24-0.2 35.7-2.1 0.7-8.5-0.3-17.1-0.2-25.6-0.6-14.4 0.2-28.8-1.2-43.2-0.3-3.8-2.6-7.8-6.5-8.8-4.3-0.7-8.5 0-12.8 0-4.4 0.2-8.8-0.3-13.1 0.6zm-298.9 4.5c-5.2 0.1-10.5 3.8-11.7 9-0.8 3.5-0.7 7.1-0.8 10.6-1.7 40.4-4.1 80.7-5.7 121 11.5 0 23 0.5 34.5 0 0.5-24.8 1.6-49.6 2.3-74.5-0.4-2.1 1.4-3.5 3.3-3 77.4-0.3 154.7-0.8 232.1-0.9 2.1-0.4 3.6 1.5 3.2 3.5-0.1 25.6-0.7 51.2-0.4 76.7 10.1 0 20.2 0.1 30.2 0.1 0.2-43.9 0.5-87.8 0.8-131.7-0.1-3.1 0.3-6.2-0.4-9.3-2.1-3.5-6.3-5.3-10.3-5-92.4 1.3-184.7 2.5-277.1 3.5zm-45.2-0.4c-3.9 3.2-5.3 8.4-5.5 13.3-0.2 13.6-0.2 27.2 0.8 40.8 0.4 5.2 4.1 11.1 9.9 10.9 7.1 0 14.3 0.3 21.4-0.3 0.5-17.1 1.5-34.2 2.2-51.4 0-3.9 1.9-7.4 3.3-11-3.9-5.4-11.1-4.2-16.9-4.1-5 0.4-10.8-1.5-15.2 1.8zm381.3 25.2c0.4 5.1 0.3 10.2 0.3 15.3 2.1-4.1 1.9-8.8 2-13.3 0-3.2-0.6-6.4-1.7-9.5-1.2 2.4-0.7 5-0.6 7.5zm-302.4 42.2c5.5 2.4 11.3 4.1 17 6.1 28.2 9.9 56.3 19.8 84.3 29.9 33.7-11.2 67.1-23.1 100.8-34.5 2-0.6 3.9-1.4 5.8-2.4-69.3 0.4-138.6 0.6-208 0.9zm108.1 38.1c29.8 10.4 59.6 21.1 89.5 31.5 7.1 2.3 13.9 5.8 21.5 6.1 0.1-25.3 0.5-50.6 0.2-75.8-37.1 12.6-74.1 25.6-111.2 38.2zm-186.7-37.1c-0.2 3-0.1 5.9 0.1 8.8 8.6 0 17.1-0.3 25.6-0.1q0.1-4 0.1-8c-8.6-0.4-17.3 0.7-25.8-0.7zm67.5-0.3c-0.4 24.5-2 48.9-2.2 73.4 2.4-0.2 4.8-0.2 7.1-0.9 33.7-11.9 67.5-23.2 101.2-35.1-16.9-6.7-34.3-12-51.3-18.4-18.3-6.3-36.4-12.9-54.8-19zm268.9 10.5c-0.4 21.4-0.2 42.9-0.4 64.3 18.6 0.1 37.2 0.2 55.8 0.4-0.1-11-0.2-22 1.4-33 0.7-5.3 3.1-10.3 4.4-15.5 1.4-5.4-0.6-11.7-5.2-15-3.8-3-8.9-3.5-13.5-2.9-14 1.9-28.3 3.5-42.5 1.7zm-351.3 8.7c-5.5 7-5.5 16.4-5.6 24.9 0.1 4.9-2.8 9.2-3.5 14.1-0.7 4.8 0.4 9.7 1.3 14.5 15.2 0 30.4 0.2 45.6 0.2 0.8-19.8 1.8-39.5 2.6-59.3q-12.8-0.4-25.5-0.3c-5.4 0.2-11.5 1.3-14.9 5.9zm416.7-1.2c0.6 4.9 0.5 9.9-1.4 14.5-5.3 12.8-4.9 27-4.6 40.6 1.7 9.6 3.7 19.1 5.4 28.6 3.7 0.5 7.1 3.6 10.8 2.5 13.8-8.3 22.1-25 19.9-41.1-1.2-9-2.3-18.5-7.5-26.2-5.3-8.6-14.2-13.8-22.6-18.9zm-447.7 49.1c0.4 8.2 2.6 17.3 9.2 22.8 2.5-5.3 2.7-11.4 4.8-16.9 1.6-0.1 3.2-0.3 4.8-0.4-1-4.4-1.9-9-1.2-13.5 0.5-5.9 4.4-11 3.8-17-0.3-5.7 0.3-11.5 1.7-17.1-14.1 9-23 25.4-23.1 42.1zm224.2-26.9c-29.5 10.3-59.1 20.3-88.6 30.5-2.3 0.7-4.6 1.2-6.6 2.6 65.6 0.2 131.2 1 196.8 1.1-32.1-11.3-64.2-22.6-96.3-33.9-1.7-0.7-3.6-1.2-5.3-0.3zm-207.5 39.7c-2.7 12.3-5.9 24.5-8.2 36.8-2.7 14.2-6.4 28.2-8.8 42.4 22.7-0.4 45.5 0.3 68.2 0.3 78.3 0.3 156.7 1.1 235 1.5 50.3 0.6 100.5 0.3 150.8 1.1-4.8-27.5-9.7-55.1-15.2-82.6-33.2-0.6-66.4-0.6-99.6-0.7-15.7-0.5-31.4-0.1-47-0.4-37 0.2-74-0.5-111-0.5-14-0.4-28-0.1-42.1-0.3-23.3-0.1-46.6-0.6-69.9-0.5-16.7 0.1-33.3-0.6-50-0.1-1.9-0.4-1.8 1.9-2.2 3zm-16.3 17.8c-1.8 8.7-0.9 17.6-1.4 26.4 0.4 4.7-0.6 9.6 0.3 14.2 2-7 2.9-14.2 4.6-21.2 1.8-7.6 3.8-15.1 4.8-22.7-2.9-0.1-7.5-0.4-8.3 3.3zm447.8 8.7c1.9 10.3 3.6 20.6 5.4 30.9 0.3 1.3 0.1 3.1 1.5 4 0.3-9.8 0.1-19.5 0.1-29.3 0.3-3.8-4.4-4.2-7-5.6zm-402.9 66.2c-25.8 3.2-49.4 19.5-61.6 42.5-10.2 19.2-19.9 38.6-29.8 58-3.7 7.8-7.7 15.6-10.1 23.9-4.1 14-5.8 28.6-5.7 43.1 0.1 113.7-0.1 227.3 0 341 0 16-0.1 32 0.7 47.9 1.2 17.4 7.2 34 14.4 49.7 9.6 19.5 19.3 39.1 30 58.1 4.4 7.6 10.7 13.9 17.1 19.9 10.7 9.9 24.5 16.3 38.8 19.1 10.1 2 20.5 1.3 30.8 1.4q149.5 0 299 0c11-0.1 21.9 0.4 32.9-0.4 20.3-2.2 39.5-12.6 52.8-28 7.6-8 12-18.1 17.5-27.5 7-12.8 13.4-26 20-39 7.5-15.9 14.2-32.6 15.9-50.2 0.7-6 0.6-12 0.6-18 0.1-123.7 0.2-247.3 0-371 0-19.1-1.6-38.8-9.2-56.6-3.5-7.1-6.8-14.3-10.4-21.4-9.3-17.8-17.8-36-27.8-53.3-9.6-15.9-24.5-28.6-42-34.9-9.4-3.4-19.4-5.1-29.3-5q-164 0-328 0c-5.5 0-11.1-0.1-16.6 0.7zm483.1 67.2c-8.5 2-17 7-20.7 15.1-3.6 8.3-0.5 17.5 3.1 25.2 4.8 9.9 6 21.1 6 32 1.2 23.7 0.6 47.4 1.2 71 0.4 55.4 0.9 110.7 1.5 166 0.4 68 1.3 136 1.6 204 0 7.6 3.4 14.9 8.2 20.7 5.7 5.9 13.1 9.8 20 14.1 8.6 1.5 18.1 1.2 25.8-3.5 2.2-1.4 4.9-3.1 5.2-6 1.2-7.1 2.2-14.2 2.2-21.3 0.3-28.7-0.3-57.3-0.7-86-0.3-58.7-1.2-117.4-1.8-176.1-0.3-49.3-1.2-98.6-1.5-147.9-0.1-24-1-47.9-0.7-72 0.2-8.5-0.9-17-2.4-25.4-1-5.6-7-7.7-11.7-9.3-6.8-1.1-13.8-0.9-20.8-1-4.8 0.1-9.7-0.5-14.5 0.4zm-633.6 24.2c-5.8 5.8-10.5 12.5-14.5 19.6-1.2 2.3-2.5 4.7-2.6 7.4 0.3 2.8 3.2 4.8 2.9 7.7-1 1.7-3.2 2.3-4.5 3.7-0.9 1.7-1.1 3.7-1.1 5.6-0.4 3.4 3.9 5.4 3.5 8.8-1 1.9-3.7 2.3-4.5 4.4-1.1 3-1.7 6.6 0.4 9.3 0.5 1.3 2.3 2.7 1 4.1-2 2.8-4.5 5.7-4 9.5-0.6 3.7 2.8 6.4 3 9.8-1.1 3.2-5 5.3-3.6 9.2-0.8 4.4 5.8 5.6 4.5 10-0.9 2.2-4.1 3.1-3.9 5.9-0.1 1.9-0.2 4 0.6 5.8 1.5 1.9 4 3.4 3.7 6.1-1.1 2.4-3.8 4.1-3.5 7 0.1 2.3 0.4 4.9 2.3 6.6 1.1 1.4 3.2 2.5 2.7 4.7-0.7 2.5-4.1 3.9-3.5 6.9 0.1 4.3 3.9 6.9 5.8 10.3 1.3 3.3-3.1 5.4-2.5 8.6 0.5 3.8 2.5 7.3 4.3 10.7 4 7.2 8.7 14.7 15.8 19.3 1.2-4.2 1.5-8.6 3.3-12.6 3.3-8.8 11.8-15.4 12.2-25.4 1.4-43.6 0.8-87.3 0.7-130.9 0.1-8.5-1.8-16.8-4.6-24.8-1.1-3-1.7-6.1-2-9.2-4-0.4-8.9-1.3-11.9 1.9zm-3.3 254.8c-4.4 5-8.3 10.5-11.5 16.4-1.6 2.9-3.4 5.7-3.8 9-0.4 3.3 3.5 5.4 2.8 8.6-2 2.1-5.9 2.9-5.6 6.6-1.2 4.2 3.7 7.1 3 11.1-2 2.2-4.9 4-4.9 7.3-1 3.7 1.1 7 2.2 10.3-0.7 3-4.4 4.6-4 8-0.6 3.5 1.4 6.3 2.8 9.2-0.5 2.4-2 4.5-2.4 6.9-0.3 3.4 0.1 6.7 0.6 10 1.4 5.4-1.9 10.9-0.3 16.4 0.9 2.1 4.4 4 2.5 6.5-2.4 3.8-3.2 8.5-1.9 12.8 1.5 2.1 5.4 4 3.8 7.1-2 2.6-4.1 5.5-2.8 8.9 0.1 3.5 3.9 4.3 5.7 6.5 0.5 2.4-1.3 4.4-2.3 6.4-1.9 2.7-0.2 6.1 0.9 8.8 4.5 8.8 10 17.1 17.2 23.9q1.2-2.9 2.1-5.8c1.2-4.3 4-7.9 6.2-11.8 3.4-6.3 7.1-12.7 8.2-19.9 1.5-9.5 1-19.2 1.3-28.9 0.9-29.3 0.4-58.7-0.2-88-0.2-7 0.4-14.2-0.9-21.2-1.9-10.3-9.2-18.5-11.7-28.6-2.9-0.6-5.3 1.4-7 3.5zm101.4 375.1c2.7 18.9 6.8 37.4 9.8 56.2 2.7 13.5 4.5 27.2 7.7 40.6 33.7 0.6 67.4 0.4 101.1 0.8 109.1 0.9 218.1 1.8 327.2 2.5 2-9.1 2.9-18.4 4.6-27.6 3.7-22.8 7.5-45.6 11.5-68.3-0.1-0.4-0.4-1-0.5-1.4-4.5-0.5-9-0.1-13.4-0.1-29.7-0.5-59.3-0.5-89-0.7-29.3-0.2-58.7-0.7-88-0.6-12.4 0.1-24.6-0.5-37-0.3-71.9-0.4-143.9-0.9-215.9-1.3-6 0-12.1-0.4-18.1 0.2zm461.4 32.7c-3.5 18.8-6.3 37.8-9.6 56.7 3.4-0.3 7.3 0 10.3-2.2 2.4-4.5 1.8-10 2-15.1-0.4-13.3-0.6-26.7-1.8-40.1zm-460 3.6c0.1 12-0.3 23.9-0.8 35.9 0.2 4.3-0.3 9 1.4 13 2.7 1.9 6.2 1.1 9.2 1.3-2.8-16.4-6.1-32.6-8.9-48.9-0.2-0.3-0.7-1-0.9-1.3zm18.4 65c-0.3 19.1-1.5 38.2 0.8 57.2 0.7 7.9-0.4 15.8-0.9 23.7 0 3.2 0.3 6.6 2.2 9.2 4.7 2.2 10.1 0.1 15 0.8 5.1 0.3 11.2 1.1 13.8 6.2 5.4 8.1 2.3 19 8.4 26.7 2.4 0.1 4.9 0 7.3-0.3 2.8-28.2 1.1-56.7 0.1-85-0.3-12.7-1.8-25.5-1.8-38.2-15-0.2-29.9-0.2-44.9-0.3zm48.8 0.2c0.9 15.9 1.7 31.8 2.2 47.8 1.1 25.6 2.4 51.4-0.9 76.9 1.4 6.9 3.8 15.6 11.5 17.7 9.5 3.2 19.6 3.9 29.6 4.9 15.6 0.9 31.3 1.2 47 1.5 52.7 0.6 105.4-0.7 158-2.4 21.2-1.2 42.6-1.3 63.5-5.3 4.1-0.6 7.1-4.4 7.6-8.3 1.4-8.3 1.1-16.7 1.4-25 0.2-35.2-1.5-70.2-2.4-105.3-105.8-1.1-211.6-1.7-317.5-2.5zm321.5 2.6c1 41.4 3.5 82.8 2 124.2 3.1-0.8 6.3-2.4 7.3-5.6 3.1-8.1 1.3-16.9 1.7-25.2 2.9-1.5 6.7 0 9.9-0.2 7 0.1 14.6 1.5 21-2.1 1.5-2.1 2.1-4.7 2.7-7.2 3.2-14.3 3.1-29.1 4.4-43.7 0.6-13.3 0.8-26.6 1.1-39.9-16.7 0.1-33.4-0.7-50.1-0.3zm-84.1 148.3c-56 1.7-112 2.9-168 1.8-1.7 14.4-3.7 29-1.1 43.3 47-1.8 94-4.7 140.9-6.9 22-1.3 44-1.9 66-3.4 0.4-12.2 1-24.5 0.5-36.7-12.8 0.8-25.6 1.2-38.3 1.9z"/><path class="b" d="m214.4 291.4c7.8-1 15.8-0.6 23.7-0.7 100.9-0.1 201.9 0 302.9 0 7.5 0.1 15.1-0.4 22.6 0.8 18.4 2.6 35.3 12.6 47.3 26.6 6.2 7.5 10.5 16.3 15.1 24.9 8.5 17.1 17.4 34.1 25.6 51.3 6.6 14.3 10.1 30 10.2 45.8 0.1 123.9 0 247.9 0.1 371.9-0.1 12.6 0.8 25.4-2.1 37.8-3 15.3-10.3 29.1-17 43-6.7 13.2-13.3 26.4-20.7 39.3-5.6 10.5-13.3 20-22.9 27.1-13.5 10.1-30.4 15.2-47.2 15.1q-160.5 0-321 0c-9.8 0.1-19.7-0.3-29.1-3.2-13.3-3.7-25.2-11.3-34.7-21.3-7-8-12.5-17.2-17.2-26.7-8.5-15.5-16.2-31.4-23.7-47.4-6.5-14.3-11.2-29.8-11.2-45.7 0-126.3 0-252.6 0.1-378.9-0.1-14.2 0.5-28.6 4.8-42.3 3.1-10.4 8.2-20.1 12.9-29.9 8-15.7 16.1-31.3 24.3-46.9 11-21.7 32.9-37.6 57.2-40.6z"/><path class="b" d="m264.2 1110c4.2-0.8 8.5-0.3 12.8-0.4 73.3-0.2 146.6 0 220-0.2 1.9 0.2 4.1-0.3 5.9 0.8 1 6.1 0.2 12.5 0.5 18.8-0.2 24.4-0.1 48.8 0 73.3-4.7 1.1-9.6 0.3-14.4 0.5q-83.5 0-167 0c-17.6 0.1-35.3-0.2-53 0.1-1.5 0-3 0.1-4.5-0.2-1.2-1.3-0.8-3.1-0.9-4.7 0.3-17.6 0-35.3 0-53 0.3-11.6-0.3-23.3 0.6-35zm13.8 3.8c34.8 13.4 69.6 26.5 104.5 39.7q1.4 0.6 2.8-0.1c16.9-6.6 33.9-12.7 50.8-19.2 17.7-7 35.7-13.2 53.2-20.5-51.8-0.2-103.5-0.1-155.3-0.1-18.6 0.1-37.4-0.4-56 0.2zm-10.3 0.5c0.2 27.8-0.1 55.7 0 83.5 18.3-6.6 36.4-13.8 54.6-20.5 18.7-6.8 37.1-14.4 55.8-21-5.7-2.5-11.7-4.5-17.6-6.8-20.1-7.6-40.1-15.5-60.3-22.8-10.7-4.5-21.7-8-32.5-12.4zm121.6 41.9c36.7 13.8 73.3 28 110 41.6 0.1-27.8 0-55.6 0.1-83.5-36.6 14.3-73.4 27.9-110.1 41.9zm-84.1 31.9c-9.2 3.6-18.7 6.6-27.7 10.6 70.7 0.1 141.4 0.2 212.1 0-13.4-5.6-27.3-10-40.7-15.6-19.6-7.3-39.2-14.8-58.8-22.3-2.3-0.8-4.5-2.2-7-2.3-25.9 10.1-52 19.6-77.9 29.6z"/><path class="c" d="m554.9 35.7c4.3-0.9 8.7-0.4 13.1-0.6 4.3 0 8.5-0.7 12.8 0 3.9 1 6.2 5 6.5 8.8 1.4 14.4 0.6 28.8 1.2 43.1-0.1 8.6 0.9 17.2 0.2 25.7-11.7 1.9-23.8 2.4-35.7 2.1-2.9 0.1-3.7-3.6-3.7-5.9 0-21.3-0.4-42.6-0.8-63.9-0.3-4.1 2.2-8.4 6.4-9.3z"/><path class="c" d="m210.8 39.8c4.4-3.3 10.2-1.4 15.2-1.8 5.8-0.1 13-1.3 16.9 4.1-1.4 3.6-3.3 7.1-3.3 11-0.7 17.2-1.7 34.3-2.2 51.4-7.1 0.6-14.3 0.3-21.4 0.3-5.8 0.2-9.6-5.7-9.9-10.9-1-13.6-1-27.2-0.8-40.8 0.2-4.9 1.6-10.1 5.5-13.3z"/><path class="c" d="m592.1 65c-0.1-2.5-0.6-5.1 0.6-7.5 1.1 3 1.7 6.3 1.7 9.5-0.1 4.5 0.1 9.2-2 13.3 0-5.1 0.1-10.2-0.3-15.3z"/><path class="c" d="m211 108.2c8.5 1.4 17.2 0.3 25.8 0.7q0 4-0.1 8c-8.5-0.2-17 0.1-25.6 0.1-0.2-2.9-0.3-5.8-0.1-8.8z"/><path class="c" d="m612.8 125.9c8.4 5.1 17.3 10.3 22.6 18.9 5.2 7.7 6.3 17.2 7.5 26.2 2.2 16.1-6.1 32.8-19.9 41.1-3.7 1.1-7.1-2-10.8-2.5-1.7-9.5-3.7-19-5.4-28.6-0.3-13.6-0.7-27.8 4.6-40.6 1.9-4.6 2-9.6 1.4-14.5z"/><path class="c" d="m165.1 175c0.1-16.7 9-33.1 23.1-42.1-1.4 5.6-2 11.4-1.7 17.1 0.6 6-3.3 11.1-3.8 17-0.7 4.5 0.2 9.1 1.1 13.5-1.5 0.2-3.1 0.3-4.7 0.4-2.2 5.5-2.3 11.6-4.8 16.9-6.6-5.5-8.8-14.6-9.2-22.8z"/><path class="c" d="m181.8 187.8c0.4-1.1 0.3-3.4 2.2-3 16.6-0.5 33.3 0.3 50 0.1 23.3-0.1 46.6 0.4 69.9 0.5 14.1 0.2 28.1-0.1 42.1 0.3 37 0 74 0.7 111 0.5 15.6 0.3 31.3-0.1 47 0.4 33.2 0.1 66.4 0.1 99.6 0.7 5.5 27.5 10.4 55.1 15.2 82.6-50.3-0.8-100.5-0.5-150.8-1.1-78.3-0.4-156.7-1.2-235-1.5-22.7 0-45.5-0.7-68.2-0.3 2.4-14.2 6.1-28.2 8.8-42.4 2.3-12.3 5.5-24.5 8.2-36.8zm18 9.1c0 5-0.2 10-0.1 15 6-4.6 11.7-9.5 17.4-14.5-5.7-0.3-11.5-0.8-17.3-0.5zm162 1.7c0 0.9 0 2.6 0.1 3.5 16.7 0 33.5 0.2 50.2 0 0.1-0.8 0.1-2.5 0.1-3.3-16.8 0-33.6-0.2-50.4-0.2zm206.4 2c5.8 4.9 11.4 10 17.3 14.7 0.1-4.9 0.2-9.9 0.2-14.8-5.9-0.1-11.7-0.1-17.5 0.1zm-103.8 9c-5.8 2.7-5 11.9 0.3 14.6 2.5 0.8 5.2 0.8 7.7 0.1 3-1.5 4.9-4.9 4.4-8.2 0.1-6-7.6-9.5-12.4-6.5zm-149.1 28.9c6.7 0.1 13.3-0.1 19.9 0.6q0-3.4 0-6.8c-4 0-8 0-12.1-0.1 0-6.8 0.1-13.6 0.1-20.4q-3.8 0-7.6 0c-0.1 8.9-1.2 17.8-0.3 26.7zm23.3-26.5c-0.2 9-0.3 18.1-0.7 27.1 2.5-0.2 5.1-0.3 7.7-0.4 0.2-9 0.8-17.9 0.5-26.8q-3.7 0-7.5 0.1zm13.2-0.2c-0.1 9.1-0.4 18.2-0.2 27.3 6.8 0 13.7 0.2 20.5 0.2q0.1-3.4 0.1-6.7c-4.3-0.2-8.6-0.1-12.9-0.1-0.1-6.9 0.3-13.8 0.1-20.7q-3.8 0-7.6 0zm18 0.6c2.8 5.4 6.3 10.4 9.4 15.6 1 3.7 0.1 7.7 0.4 11.5q3.9 0 7.8 0.1c0.5-4.4-1.2-9.5 1.9-13.3 2.9-4.6 5.9-9.1 8.8-13.7-2.8-0.2-5.7-0.2-8.6-0.1-1.9 3.2-3.8 6.4-5.5 9.7-2.2-3.1-4-6.4-5.7-9.8-2.9-0.2-5.7-0.1-8.5 0zm31.6 5c-4.4 4.7-4.4 12.6-0.5 17.5 5.7 7.5 17.7 7.4 24.5 1.5 0-4 0-8 0.1-12.1-4.3 0-8.6 0-12.9 0 0 1.8-0.1 3.6-0.1 5.4 1.9 0.1 4-0.5 5.8 0.3 1.4 2.6-1.9 5.1-4.3 4.5-6.9 0.8-10.5-8.9-5.9-13.4 3.3-3.4 8.8-2.2 12.3 0.3 1.7-1.5 3.1-3.4 4.3-5.4-6.4-5.8-17.7-5.2-23.3 1.4zm38.9-4.9c-6.4 1.6-11.9 7.6-11.3 14.5 0 6.7 5.4 13 12.1 13.8 8.6 2.1 18.6-4.6 18.4-13.8 0.5-9.7-10.1-17.1-19.2-14.5zm-245.8 27.8q-0.1 2.1-0.2 4.3c-1.5 0-2.9 0.2-4.4 0.2 0 0.6 0 1.8 0 2.4 1.5 0.1 3 0.2 4.4 0.4q0 2 0 4.1c3.2 1 2.2-2.4 2.4-4.3q1.9 0 3.8 0c0-0.6 0.2-1.9 0.2-2.6-1.3 0-2.7-0.1-4-0.2-0.2-1.8 0.7-4.7-2.2-4.3zm389.2 4.4q0 1.9 0.1 3.8-2 0.1-4 0.2c0 0.6 0.1 1.9 0.1 2.5q2 0 4 0 0.2 2.3 0.5 4.5c0.5 0 1.6-0.1 2.1-0.2q0.2-2.1 0.3-4.3c2.1-0.1 5.1 0.8 4.6-2.4-1.5-0.3-3.5 0.4-4.6-0.6 0-0.9-0.1-2.6-0.2-3.5-0.7 0-2.1 0-2.9 0zm-256.3 6.4q0.1 1.7 0.1 3.3c12.5 0.2 25-0.3 37.5 0.7 25.5 0 51 0.3 76.5 0.4-0.1-0.9-0.2-2.7-0.2-3.5-25.8-0.2-51.6-0.4-77.4-0.6-12.2-0.5-24.4-0.8-36.5-0.3z"/><path class="c" d="m165.5 205.7c0.8-3.8 5.3-3.5 8.3-3.4-1 7.7-3 15.2-4.8 22.7-1.7 7-2.7 14.2-4.6 21.2-1-4.6 0-9.5-0.3-14.2 0.5-8.8-0.4-17.7 1.4-26.3z"/><path class="c" d="m465.3 211.3c4.3-2.6 10.4 1.8 9.4 6.7-0.4 4.2-5.6 6-9.1 4.5-4.5-1.7-4.7-9.3-0.3-11.2zm0.4 1.3c-2.3 2.6-2.3 8 1.6 9 0-0.8-0.1-2.4-0.2-3.3 0.6 0.1 1.7 0.1 2.3 0.1 0.1 0.9 0.2 2.6 0.3 3.5 1.7-0.7 2.3-2.4 2.9-4-0.3-0.4-1-1.4-1.3-1.8 0.1-0.6 0.5-1.7 0.7-2.2-1.5-1.7-4.3-2.2-6.3-1.3z"/><path class="c" d="m467.4 214.9q2.5-0.9 1.7 1.6-2.5 0.9-1.6-1.6z"/><path class="c" d="m613.3 214.3c2.6 1.4 7.3 1.8 7 5.6 0 9.8 0.3 19.5-0.1 29.3-1.4-0.9-1.2-2.7-1.5-4-1.8-10.3-3.5-20.6-5.4-30.9z"/><path class="c" d="m441.4 219.4c2.6-0.6 5.8-0.7 7.7 1.5 2.5 2 1.8 5.5 1.8 8.2-0.8 6.2-11.1 6.9-13.4 1.4-1.2-4-0.7-9.6 3.9-11.1z"/><path class="c" d="m210.4 280.5c5.5-0.8 11.1-0.7 16.6-0.7q164 0 328 0.1c9.9-0.2 19.9 1.5 29.3 4.9 17.5 6.3 32.4 19 42 34.9 10 17.4 18.5 35.6 27.8 53.3 3.6 7.1 6.9 14.3 10.4 21.4 7.6 17.8 9.2 37.5 9.2 56.6 0.2 123.7 0.1 247.3 0 371 0 6 0.2 12-0.6 18-1.7 17.6-8.4 34.3-15.9 50.2-6.6 13-13 26.2-20 39-5.4 9.4-9.9 19.5-17.5 27.5-13.3 15.4-32.5 25.8-52.8 28-11 0.8-21.9 0.3-32.9 0.4q-149.5 0-299 0c-10.3-0.1-20.7 0.6-30.8-1.4-14.3-2.8-28.1-9.2-38.8-19.1-6.4-6-12.7-12.3-17.1-19.9-10.7-19-20.4-38.6-30-58.1-7.2-15.7-13.2-32.3-14.4-49.7-0.8-15.9-0.7-31.9-0.7-47.9 0-113.7 0.1-227.3 0.1-341-0.2-14.5 1.5-29.1 5.6-43.1 2.4-8.3 6.4-16.1 10.1-23.9 9.9-19.4 19.6-38.8 29.9-58 12.1-23 35.7-39.3 61.5-42.5zm4 10.9c-24.3 3-46.2 18.9-57.2 40.6-8.2 15.6-16.3 31.2-24.3 46.9-4.7 9.8-9.8 19.5-12.9 29.9-4.3 13.7-4.9 28.1-4.8 42.3-0.1 126.3-0.1 252.6-0.1 378.9 0 15.9 4.7 31.4 11.2 45.7 7.5 16 15.2 31.9 23.7 47.4 4.7 9.5 10.2 18.7 17.2 26.7 9.5 10 21.4 17.6 34.7 21.3 9.4 2.9 19.3 3.3 29.1 3.2q160.5 0 321 0c16.8 0.1 33.7-5 47.2-15.1 9.6-7.1 17.3-16.6 22.9-27.1 7.4-12.9 14-26.1 20.7-39.3 6.7-13.9 14-27.7 17-43 2.9-12.4 2-25.2 2.1-37.8-0.1-124 0-248-0.1-371.9-0.1-15.8-3.6-31.5-10.2-45.8-8.2-17.2-17.1-34.2-25.6-51.3-4.6-8.6-8.9-17.4-15.1-24.9-12-14-28.9-24-47.3-26.7-7.5-1.1-15.1-0.6-22.6-0.7-101 0-202-0.1-302.9 0-7.9 0-15.9-0.3-23.7 0.7z"/><path class="c" d="m693.5 347.7c4.8-0.9 9.7-0.3 14.5-0.4 7 0.1 14-0.1 20.8 1 4.7 1.6 10.7 3.7 11.7 9.3 1.5 8.4 2.6 16.9 2.4 25.5-0.3 24 0.6 48 0.7 72 0.3 49.3 1.2 98.5 1.5 147.8 0.6 58.7 1.5 117.4 1.8 176.1 0.5 28.7 1 57.3 0.7 86 0 7.1-1 14.2-2.2 21.3-0.3 2.9-3 4.6-5.2 6-7.7 4.7-17.2 5-25.8 3.5-6.9-4.3-14.3-8.2-20-14.1-4.8-5.8-8.2-13.1-8.2-20.7-0.2-68-1.2-136-1.6-204-0.6-55.3-1.1-110.6-1.5-166-0.6-23.6 0-47.3-1.2-71 0-10.9-1.2-22.1-5.9-32-3.6-7.7-6.8-16.9-3.2-25.1 3.7-8.2 12.2-13.2 20.7-15.2z"/><path class="c" d="m59.9 371.9c3-3.1 7.9-2.3 11.9-1.9 0.3 3.1 1 6.2 2 9.2 2.8 8 4.7 16.3 4.6 24.8 0.1 43.6 0.7 87.3-0.7 130.9-0.4 10-8.9 16.6-12.2 25.4-1.8 4-2.1 8.4-3.2 12.6-7.2-4.6-11.8-12.1-15.9-19.3-1.8-3.4-3.8-6.9-4.3-10.7-0.6-3.2 3.8-5.3 2.5-8.6-1.9-3.4-5.7-6-5.8-10.3-0.6-3 2.8-4.4 3.5-6.9 0.5-2.2-1.5-3.3-2.7-4.7-1.9-1.7-2.2-4.3-2.3-6.6-0.3-2.9 2.4-4.6 3.5-7 0.3-2.7-2.2-4.2-3.7-6.1-0.8-1.8-0.7-3.9-0.6-5.8-0.2-2.8 3-3.7 3.9-5.9 1.4-4.4-5.3-5.6-4.5-9.9-1.4-4 2.5-6.1 3.6-9.2-0.2-3.5-3.6-6.2-3-9.9-0.5-3.8 2-6.7 4-9.5 1.3-1.4-0.5-2.8-1-4-2-2.7-1.5-6.4-0.4-9.4 0.8-2.1 3.5-2.5 4.5-4.4 0.4-3.4-3.8-5.4-3.5-8.8 0-1.9 0.2-3.9 1.1-5.6 1.3-1.4 3.5-2 4.5-3.7 0.3-2.9-2.6-4.9-2.9-7.7 0.1-2.6 1.4-5.1 2.7-7.4 3.9-7.1 8.6-13.8 14.4-19.6z"/><path class="c" d="m56.6 626.7c1.7-2.1 4.1-4.1 7-3.5 2.5 10.1 9.8 18.3 11.7 28.6 1.3 7 0.7 14.1 0.9 21.2 0.6 29.3 1.1 58.7 0.2 88-0.3 9.7 0.2 19.4-1.3 28.9-1.1 7.2-4.8 13.6-8.2 19.9-2.2 3.9-5 7.5-6.2 11.8q-0.9 2.9-2.1 5.8c-7.2-6.8-12.7-15.1-17.2-23.9-1.1-2.7-2.8-6.1-0.9-8.8 1-2 2.8-4 2.3-6.4-1.8-2.2-5.6-3-5.7-6.5-1.3-3.4 0.8-6.3 2.8-8.9 1.6-3.1-2.3-5-3.8-7.1-1.3-4.3-0.5-9 1.9-12.8 1.9-2.5-1.6-4.4-2.5-6.5-1.6-5.5 1.7-11 0.4-16.4-0.6-3.3-1-6.6-0.7-10 0.4-2.4 1.9-4.5 2.4-6.9-1.4-2.9-3.4-5.7-2.8-9.2-0.4-3.4 3.3-5 4-8-1.1-3.3-3.2-6.6-2.2-10.3 0-3.3 2.9-5.1 4.9-7.3 0.7-4-4.2-6.9-3-11.1-0.3-3.7 3.6-4.5 5.6-6.6 0.7-3.2-3.2-5.3-2.8-8.6 0.4-3.3 2.2-6.1 3.8-9 3.2-5.9 7.1-11.4 11.5-16.4z"/><path class="c" d="m158 1001.9c6-0.7 12.1-0.3 18.1-0.3 72 0.4 144 0.9 215.9 1.3 12.4-0.2 24.6 0.4 37 0.4 29.3-0.2 58.7 0.3 88 0.5 29.7 0.2 59.3 0.2 89 0.7 4.4 0 8.9-0.4 13.4 0.1 0.1 0.4 0.4 1 0.5 1.4-4 22.7-7.8 45.5-11.5 68.3-1.7 9.2-2.6 18.5-4.6 27.6-109.1-0.7-218.1-1.6-327.2-2.5-33.7-0.4-67.4-0.2-101.1-0.8-3.2-13.4-5-27.1-7.7-40.6-3-18.8-7.1-37.3-9.8-56.1zm62.6 5.9c-0.2 5.5 0 11.1-0.1 16.6q2.8-0.1 5.5-0.1c0.3-5.3-0.5-10.6-0.3-16q-2.6-0.2-5.1-0.5zm37 0c-0.1 5.5 0 11.1 0 16.6q2.5 0.1 5 0.2c0-5.6 0.2-11.2 0-16.8q-2.5 0-5 0zm36.8 16.9q2.5-0.1 5.1 0 0-8.5 0.1-17c-1.7 0-3.3-0.1-4.9-0.2-0.6 5.7-0.1 11.4-0.3 17.2zm110.2-16.6c-0.2 5.7-0.1 11.4 0 17.1q2.7 0 5.5 0c0.1-5.6 0-11.2 0.1-16.8-1.8-0.1-3.7-0.2-5.6-0.3zm-221.7 0.7c-0.1 5.3-0.2 10.5-0.2 15.8 1.8 0.1 3.6 0.1 5.5 0.2q0.1-8.1-0.1-16.2-2.6 0.1-5.2 0.2zm148.5-0.1c0.2 5.5-0.8 11-0.4 16.6q2.6 0 5.3 0 0-8.3-0.1-16.5c-1.6-0.1-3.2-0.1-4.8-0.1zm36.4-0.1c0 5.6 0 11.1 0.1 16.7q2.7 0 5.4 0.2c0-5.6 0-11.2 0-16.8q-2.7 0-5.5-0.1zm73.8 0.2q-0.2 8.7 0 17.3 2.4 0 4.9 0.1c0.2-5.8 0.1-11.6 0-17.3q-2.5-0.1-4.9-0.1zm36.3 1.1c0 5.7-0.1 11.4 0 17.2q2.7-0.1 5.4 0c0.1-5.7 0.1-11.5 0-17.2q-2.7 0-5.4 0zm37.4 0.8c-0.1 5.5-0.6 11-0.4 16.5q2.7 0 5.4 0.1c-0.1-5.5 0-11-0.1-16.5q-2.4-0.1-4.9-0.1zm37.1 0.6q0 8.1 0.1 16.3 2.4 0 4.9 0.1c0.2-5.4 0.1-10.8 0.1-16.3q-2.6 0-5.1-0.1zm37.2 0c0 5.4-0.1 10.8-0.1 16.2q2.8-0.1 5.6-0.1c0.1-5.3 0-10.6 0-15.9q-2.8-0.1-5.5-0.2zm-216.2 37c-0.2 7.5-1.1 15.3 0.4 22.8 6.5 3.9 13.4 7.2 20.1 10.6 7.1-3.1 13.7-7 20.4-10.8 0.3-7.3 0.2-14.6 0.2-22-6.8-3.9-13.4-8.2-20.5-11.6-7.1 3.2-13.8 7.2-20.6 11zm-197.3-10.5c2.9 14.6 6.1 29.2 9.3 43.8 26.5 0.1 53 0.1 79.5 0.2 27.4 0 54.8 0.5 82.2 0.3q0-1.9 0-3.7c-5-0.5-10-0.6-15.1-0.5-47.8-0.1-95.5 0-143.3-0.2-2.5-13.5-5.7-26.8-8.1-40.2-1.5 0.1-3 0.2-4.5 0.3zm419.8 1.6c-2.8 13.5-5.8 27.1-8.4 40.7-8.4 0.8-17.1-0.4-25.6-0.2q-45-0.3-90-0.6c-11.4-0.6-22.8-0.4-34.2-0.4q0 2.1-0.1 4.3c27.1 0.2 54.3 0.3 81.4 0.4 23.8 0.7 47.7 0.7 71.5 0.7 3.4-14.9 6.5-29.9 9.9-44.8q-2.2-0.1-4.5-0.1zm-252 10.2c-0.1 4.2-0.2 8.3-0.1 12.4 4.1-1.6 7.9-3.8 11.7-5.9-3.9-2.1-7.8-4.3-11.6-6.5zm91.6 7.4c3.6 2.1 7.4 3.8 11.1 5.8 0.1-4.1 0-8.2 0-12.3-3.7 2.1-7.5 4-11.1 6.5z"/><path class="c" d="m619.4 1034.5l0.9-0.7c1.2 13.4 1.4 26.8 1.9 40.1-0.3 5.1 0.3 10.6-2.1 15.1-3 2.2-6.9 1.9-10.3 2.2 3.3-18.9 6.1-37.9 9.6-56.7z"/><path class="c" d="m159.4 1038c0.2 0.4 0.7 1 0.9 1.4 2.9 16.3 6.1 32.5 8.9 48.8-3-0.2-6.5 0.6-9.1-1.2-1.8-4.1-1.3-8.7-1.4-13 0.4-12 0.8-24 0.7-36z"/><path class="c" d="m392.6 1042.4c1.4-0.8 3.1-0.2 4.4 0.6 3.7 2 7.2 4.4 10.8 6.6-4.2 2.2-8.3 4.6-12.6 6.6-1.6 1.1-3.1-0.2-4.5-0.8-3.7-2-7.3-4.1-11.1-6 4.4-2.1 8.6-4.7 13-7z"/><path class="c" d="m377.5 1052.9c4.7 2.5 9.3 5.3 14 7.8q0.1 7.8 0.1 15.6c-4.7-2.5-9.4-5.1-14-7.8q-0.2-7.8-0.1-15.6z"/><path class="c" d="m395.7 1060.8c4.7-2.8 9.6-5.2 14.2-8q0.1 7.9 0 15.8c-4.7 2.8-9.5 5.4-14.2 8.1-0.1-5.3 0-10.6 0-15.9z"/><path class="c" d="m464 1254.1c12.8-0.6 25.6-1 38.3-1.9 0.5 12.3 0 24.5-0.5 36.8-21.9 1.5-44 2-65.9 3.4-47 2.2-94 5.1-141 6.9-2.6-14.4-0.5-29 1.2-43.3 55.9 1 111.9-0.2 167.9-1.9z"/><path class="d" d="m256 40.2c92.4-1 184.7-2.2 277.1-3.5 4-0.3 8.2 1.5 10.3 5 0.7 3.1 0.3 6.2 0.4 9.3-0.3 43.9-0.6 87.8-0.8 131.7-10 0-20.1-0.1-30.2-0.1-0.3-25.5 0.3-51.1 0.4-76.7 0.4-2-1.1-3.9-3.2-3.5-77.4 0.1-154.7 0.6-232.1 0.9-1.9-0.5-3.7 0.9-3.4 3-0.6 24.9-1.7 49.7-2.2 74.5-11.5 0.5-23 0-34.5 0 1.6-40.3 3.9-80.6 5.7-121 0.1-3.5 0-7.1 0.8-10.6 1.2-5.2 6.5-8.9 11.7-9z"/><path class="d" d="m289.6 107.2c69.4-0.3 138.7-0.5 208-0.9-1.9 1-3.8 1.8-5.8 2.4-33.7 11.4-67.1 23.3-100.8 34.5-28-10.1-56.1-20-84.3-29.9-5.7-2-11.5-3.7-17.1-6.1z"/><path class="d" d="m397.7 145.3c37.1-12.6 74.1-25.6 111.2-38.2 0.3 25.2-0.1 50.5-0.2 75.8-7.6-0.3-14.4-3.8-21.5-6.1-29.9-10.4-59.7-21.1-89.5-31.5z"/><path class="d" d="m278.5 107.9c18.4 6.1 36.5 12.7 54.8 19 17 6.4 34.4 11.7 51.3 18.4-33.7 11.9-67.5 23.2-101.2 35.1-2.3 0.7-4.7 0.7-7.1 0.9 0.2-24.5 1.8-48.9 2.2-73.4z"/><path class="d" d="m547.4 118.4c14.2 1.8 28.5 0.3 42.5-1.7 4.6-0.6 9.7-0.1 13.5 2.9 4.6 3.3 6.6 9.6 5.2 15-1.3 5.2-3.7 10.2-4.4 15.5-1.6 11-1.5 22-1.4 33-18.6-0.2-37.2-0.3-55.8-0.4 0.2-21.4 0-42.9 0.4-64.3z"/><path class="d" d="m196.1 127.1c3.4-4.6 9.5-5.7 14.9-5.8q12.7-0.2 25.4 0.2c-0.7 19.8-1.7 39.5-2.5 59.3-15.2 0-30.4-0.2-45.6-0.2-0.9-4.7-2-9.7-1.3-14.5 0.7-4.9 3.6-9.2 3.5-14.1 0.1-8.5 0.1-17.9 5.6-24.9z"/><path class="d" d="m389.3 148.1c1.7-0.9 3.6-0.4 5.3 0.3 32.1 11.3 64.2 22.6 96.3 33.9-65.6-0.1-131.2-0.9-196.8-1.1 2-1.4 4.3-1.9 6.6-2.6 29.5-10.2 59.1-20.2 88.5-30.5z"/><path class="d" d="m177.8 1103.1c15 0.1 29.9 0.1 44.9 0.2 0 12.8 1.5 25.5 1.8 38.3 1.1 28.3 2.7 56.8-0.1 85-2.4 0.3-4.8 0.4-7.3 0.3-6.1-7.8-3-18.7-8.4-26.8-2.6-5-8.7-5.8-13.7-6.2-5-0.6-10.3 1.5-15.1-0.7-1.9-2.6-2.2-6.1-2.2-9.2 0.5-7.9 1.6-15.8 0.9-23.7-2.3-19-1.1-38.1-0.8-57.2z"/><path class="d" d="m226.7 1103.2c105.8 0.8 211.6 1.5 317.4 2.5 0.9 35.1 2.7 70.2 2.4 105.3-0.3 8.4 0 16.8-1.3 25-0.6 4-3.5 7.8-7.7 8.4-20.9 4-42.3 4.1-63.5 5.3-52.6 1.7-105.3 2.9-157.9 2.4-15.7-0.4-31.4-0.6-47.1-1.6-9.9-1-20.1-1.6-29.6-4.9-7.6-2-10.1-10.8-11.5-17.6 3.3-25.5 2-51.3 1-77-0.6-15.9-1.4-31.8-2.2-47.8zm37.5 6.8c-0.9 11.7-0.3 23.4-0.6 35 0 17.7 0.3 35.4 0 53 0.1 1.6-0.3 3.4 0.9 4.7 1.5 0.3 3 0.2 4.5 0.2 17.7-0.3 35.4 0 53-0.1q83.5 0 167 0c4.8-0.2 9.7 0.6 14.4-0.5-0.1-24.5-0.2-48.9 0-73.3-0.3-6.3 0.5-12.7-0.5-18.8-1.8-1.1-4-0.6-5.9-0.8-73.4 0.2-146.7 0-220 0.2-4.3 0.1-8.6-0.4-12.8 0.4z"/><path class="d" d="m548.1 1105.8c16.7-0.3 33.4 0.5 50.1 0.4-0.3 13.3-0.5 26.6-1.1 39.9-1.2 14.6-1.2 29.3-4.3 43.7-0.7 2.5-1.3 5.1-2.8 7.2-6.4 3.6-14 2.1-21 2.1-3.2 0.1-7-1.4-9.9 0.2-0.4 8.3 1.4 17.1-1.6 25.1-1.1 3.3-4.3 4.9-7.4 5.7 1.5-41.5-0.9-82.9-2-124.3z"/><path class="d" d="m278 1113.8c18.6-0.6 37.4 0 56-0.2 51.8 0 103.5-0.1 155.3 0.1-17.5 7.3-35.6 13.5-53.2 20.5-16.9 6.5-33.9 12.6-50.8 19.2q-1.4 0.7-2.8 0.1c-34.9-13.2-69.7-26.3-104.5-39.7z"/><path class="d" d="m267.7 1114.3c10.8 4.4 21.8 7.9 32.5 12.4 20.2 7.3 40.2 15.2 60.3 22.8 5.9 2.3 11.9 4.3 17.6 6.8-18.7 6.6-37.1 14.2-55.8 21-18.2 6.7-36.3 13.9-54.6 20.5-0.1-27.8 0.2-55.7 0-83.5z"/><path class="d" d="m389.3 1156.2c36.7-14 73.5-27.6 110.1-41.9-0.2 27.9 0 55.7-0.1 83.5-36.7-13.6-73.3-27.8-110-41.6z"/><path class="d" d="m305.2 1188.1c25.9-10 52-19.5 77.9-29.6 2.5 0.1 4.7 1.5 7 2.3 19.6 7.5 39.2 15 58.8 22.3 13.4 5.6 27.3 10 40.7 15.6-70.7 0.2-141.4 0.1-212.1 0 9-4 18.5-7 27.7-10.6z"/><path class="e" d="m199.8 196.9c5.8-0.3 11.6 0.2 17.3 0.5-5.7 5-11.4 9.9-17.4 14.5-0.1-5 0-10 0.1-15z"/><path class="e" d="m361.8 198.6c16.8 0 33.6 0.2 50.4 0.2 0 0.8 0 2.5-0.1 3.3-16.7 0.2-33.5 0-50.2 0-0.1-0.9-0.1-2.6-0.1-3.5z"/><path class="e" d="m568.2 200.6c5.8-0.2 11.6-0.2 17.5-0.1 0 4.9-0.1 9.9-0.2 14.8-5.9-4.7-11.5-9.8-17.3-14.7z"/><path class="e" d="m464.4 209.6c4.9-3 12.5 0.5 12.4 6.5 0.5 3.3-1.4 6.7-4.4 8.2-2.5 0.7-5.2 0.7-7.6-0.1-5.4-2.7-6.2-11.9-0.4-14.6zm0.9 1.7c-4.3 2-4.2 9.5 0.3 11.2 3.5 1.5 8.7-0.3 9.1-4.5 1-4.9-5.1-9.2-9.4-6.7z"/><path class="e" d="m315.3 238.5c-0.9-8.9 0.2-17.8 0.3-26.7q3.8 0 7.6 0c0 6.8-0.1 13.6-0.1 20.4 4.1 0.1 8.1 0.1 12.1 0.1q0 3.4 0 6.8c-6.6-0.7-13.2-0.5-19.9-0.6z"/><path class="e" d="m338.6 212q3.8-0.1 7.5-0.1c0.3 8.9-0.3 17.8-0.5 26.8-2.6 0.1-5.2 0.2-7.7 0.5 0.4-9.1 0.5-18.2 0.7-27.2z"/><path class="e" d="m351.8 211.8q3.8 0 7.6 0c0.2 6.9-0.2 13.8-0.1 20.7 4.3 0 8.6-0.1 12.9 0.1q0 3.3-0.1 6.7c-6.8 0-13.7-0.2-20.5-0.2-0.2-9.1 0.1-18.2 0.2-27.3z"/><path class="e" d="m369.8 212.4c2.8-0.1 5.6-0.2 8.5 0 1.7 3.4 3.5 6.7 5.7 9.8 1.7-3.3 3.6-6.5 5.5-9.7 2.9-0.1 5.8-0.1 8.6 0.1-2.9 4.6-5.9 9.1-8.8 13.7-3.1 3.8-1.4 8.9-1.9 13.3q-3.9-0.1-7.8-0.1c-0.3-3.8 0.6-7.8-0.4-11.5-3.1-5.2-6.6-10.2-9.4-15.6z"/><path class="e" d="m401.4 217.4c5.7-6.6 16.9-7.2 23.3-1.4-1.2 2-2.6 3.9-4.3 5.4-3.5-2.5-8.9-3.7-12.3-0.3-4.6 4.5-1 14.2 5.9 13.4 2.4 0.6 5.7-1.9 4.3-4.5-1.8-0.8-3.9-0.2-5.8-0.3 0-1.8 0.1-3.6 0.1-5.4 4.3 0 8.6 0 12.9 0-0.1 4.1-0.1 8.1-0.1 12.1-6.8 5.9-18.8 6-24.5-1.5-3.8-4.9-3.9-12.8 0.5-17.5z"/><path class="e" d="m440.3 212.5c9.1-2.6 19.7 4.8 19.2 14.5 0.2 9.2-9.8 15.9-18.4 13.8-6.7-0.8-12.1-7.1-12.1-13.8-0.6-6.8 4.9-12.9 11.3-14.5zm1.1 6.9c-4.6 1.5-5.1 7.1-3.9 11.1 2.3 5.5 12.6 4.8 13.4-1.4 0-2.7 0.7-6.2-1.8-8.2-1.9-2.2-5.1-2.1-7.7-1.5z"/><path class="e" d="m465.7 212.6c2.1-0.9 4.8-0.4 6.3 1.3-0.2 0.5-0.5 1.6-0.7 2.2 0.3 0.4 1 1.4 1.3 1.8-0.6 1.6-1.2 3.3-2.9 4-0.1-0.8-0.2-2.6-0.3-3.5-0.6 0-1.7 0-2.3-0.1 0.1 0.9 0.2 2.5 0.2 3.3-3.9-1-3.9-6.4-1.6-9zm1.8 2.3q-0.9 2.5 1.6 1.6 0.8-2.5-1.7-1.6z"/><path class="e" d="m194.5 240.3c2.9-0.4 2 2.5 2.2 4.3 1.3 0.1 2.7 0.2 4 0.2 0 0.7-0.2 2-0.2 2.6q-1.9 0-3.8 0c-0.2 1.9 0.8 5.3-2.4 4.3q0-2.1 0-4.1c-1.4-0.2-2.9-0.3-4.4-0.4 0-0.6 0-1.8 0-2.4 1.5 0 2.9-0.2 4.4-0.2q0.1-2.2 0.2-4.3z"/><path class="e" d="m583.7 244.7c0.8 0 2.2 0 2.9 0 0.1 0.9 0.2 2.6 0.2 3.5 1.1 1.1 3.1 0.3 4.6 0.6 0.5 3.2-2.6 2.3-4.6 2.4q-0.1 2.2-0.3 4.3c-0.5 0.1-1.6 0.2-2.1 0.2q-0.3-2.2-0.5-4.5-2 0-4 0c0-0.6-0.1-1.9-0.1-2.5q2-0.1 4-0.2-0.1-1.9-0.1-3.8z"/><path class="e" d="m327.4 251.1c12.1-0.5 24.3-0.2 36.5 0.3 25.8 0.2 51.6 0.4 77.4 0.6 0 0.9 0.1 2.6 0.2 3.5-25.5-0.1-51-0.4-76.5-0.4-12.5-1-25-0.5-37.5-0.7q0-1.6-0.1-3.3z"/><path class="e" d="m220.6 1007.8q2.5 0.3 5.1 0.5c-0.2 5.4 0.6 10.7 0.3 16q-2.7 0-5.5 0.1c0.1-5.5-0.1-11.1 0.1-16.6z"/><path class="e" d="m257.6 1007.8q2.5 0 5 0c0.2 5.6 0 11.2 0 16.8q-2.5-0.1-5-0.2c0-5.5-0.1-11.1 0-16.6z"/><path class="e" d="m294.4 1024.7c0.2-5.8-0.3-11.5 0.3-17.2 1.6 0.1 3.2 0.2 4.9 0.2q-0.1 8.5-0.1 17-2.6-0.1-5.1 0z"/><path class="e" d="m404.6 1008.1c1.9 0.1 3.8 0.2 5.6 0.3-0.1 5.6 0 11.2-0.1 16.8q-2.8 0-5.5 0c-0.1-5.7-0.2-11.4 0-17.1z"/><path class="e" d="m182.9 1008.8q2.6-0.1 5.2-0.2 0.2 8.1 0.1 16.2c-1.9-0.1-3.7-0.1-5.5-0.2 0-5.3 0.1-10.5 0.2-15.8z"/><path class="e" d="m331.4 1008.7c1.6 0 3.2 0 4.9 0q0 8.3 0 16.6-2.7 0-5.3 0c-0.4-5.6 0.6-11.1 0.4-16.6z"/><path class="e" d="m367.9 1008.6q2.7 0.1 5.4 0.1c0 5.6 0 11.2 0 16.8q-2.7-0.2-5.4-0.2c-0.1-5.6-0.1-11.1 0-16.7z"/><path class="e" d="m441.6 1008.8q2.4 0 4.9 0.1c0.1 5.7 0.2 11.5 0 17.3q-2.5-0.1-4.9-0.1-0.2-8.6 0-17.3z"/><path class="e" d="m477.9 1009.9q2.7 0 5.4 0c0.1 5.7 0.2 11.5 0 17.2q-2.7-0.1-5.4 0c0-5.8 0-11.5 0-17.2z"/><path class="e" d="m515.3 1010.7q2.5 0 5 0.1c0 5.5-0.1 11 0 16.5q-2.7-0.1-5.4-0.1c-0.1-5.5 0.3-11 0.4-16.5z"/><path class="e" d="m552.4 1011.3q2.5 0.1 5.1 0.1c0 5.5 0.1 10.9-0.1 16.3q-2.5-0.1-4.9-0.1-0.1-8.2-0.1-16.3z"/><path class="e" d="m589.6 1011.3q2.7 0.1 5.5 0.2c0 5.3 0.1 10.6 0 15.9q-2.8 0-5.6 0.1c0-5.4 0.1-10.8 0.1-16.2z"/><path class="e" d="m373.4 1048.3c6.8-3.8 13.5-7.8 20.6-11 7.1 3.4 13.7 7.7 20.5 11.6 0 7.4 0.1 14.7-0.1 22-6.8 3.8-13.4 7.7-20.5 10.8-6.7-3.4-13.6-6.7-20.1-10.6-1.4-7.5-0.6-15.3-0.4-22.8zm19.2-5.9c-4.4 2.3-8.6 4.9-13 7 3.8 1.9 7.4 4 11.1 6 1.4 0.6 2.9 1.9 4.5 0.9 4.3-2.1 8.4-4.5 12.7-6.7-3.7-2.2-7.2-4.6-10.9-6.6-1.3-0.8-3-1.4-4.4-0.6zm-15.1 10.5q-0.1 7.8 0.1 15.6c4.6 2.7 9.3 5.3 14.1 7.8q-0.1-7.8-0.2-15.6c-4.7-2.5-9.3-5.3-14-7.8zm18.2 7.9c0 5.3-0.1 10.6 0 15.9 4.7-2.7 9.5-5.3 14.2-8.1q0.1-7.9 0-15.8c-4.6 2.8-9.5 5.2-14.2 8z"/><path class="e" d="m176.1 1037.8c1.5-0.1 3-0.2 4.5-0.3 2.4 13.4 5.6 26.7 8.1 40.2 47.8 0.2 95.6 0.1 143.3 0.2 5.1-0.1 10.1 0 15.1 0.5q0 1.8 0 3.7c-27.4 0.2-54.8-0.3-82.2-0.3-26.5-0.1-53-0.1-79.5-0.2-3.2-14.6-6.4-29.2-9.3-43.8z"/><path class="e" d="m595.9 1039.4q2.3 0 4.5 0.1c-3.4 14.9-6.5 29.9-9.9 44.8-23.8-0.1-47.7 0-71.5-0.7-27.1-0.1-54.2-0.2-81.4-0.4q0.1-2.2 0.1-4.3c11.4 0 22.8-0.2 34.2 0.4q45 0.3 90 0.6c8.5-0.2 17.2 1 25.6 0.2 2.6-13.6 5.6-27.2 8.4-40.7z"/><path class="e" d="m343.9 1049.6c3.9 2.2 7.7 4.4 11.6 6.5-3.8 2.1-7.6 4.3-11.6 5.9-0.2-4.1-0.1-8.2 0-12.4z"/><path class="e" d="m435.6 1057c3.5-2.5 7.3-4.4 11-6.5 0 4.1 0.1 8.2 0 12.3-3.7-2-7.5-3.7-11.1-5.8z"/></svg>