<svg version="1.2" xmlns="http://www.w3.org/2000/svg" viewBox="0 0 1264 848" width="1264" height="848"><style>.a{fill:#fffffe}.b{fill:#010101}.c{fill:#cea951}.d{fill:#c9c9c7}.e{fill:#646464}.f{fill:#a2a2a2}.g{fill:#a38975}</style><path class="a" d="m890.1 118.2c3.3-0.3 6.5-0.3 9.8-0.3q-0.1 1.2-0.2 2.5c-3.1-0.1-6.2-0.1-9.4 0 0-0.6-0.1-1.7-0.2-2.2z"/><path class="a" d="m166.1 118.3c7.7 0 15.3-0.4 22.9-0.1 59.6 0.1 119.2 0 178.8 0.1 0.2 0.5 0.4 1.5 0.6 2-64.6 0.2-129.3-0.2-193.9 0.2q-0.3 1.6-0.7 3.2c-0.8 0-2.4 0.1-3.1 0.1-0.2 19.9 0.1 39.8-0.1 59.7q-2.5-0.1-4.9-0.2c-0.1-17.7 0-35.5 0-53.3 0.1-3.9-0.3-7.8 0.4-11.7z"/><path class="a" d="m405.5 118.9c3.5-1.7 7.6-1.1 11.4-0.7 0 0.5 0 1.5 0 2-3.8-0.3-8.2 1.3-11.4-1.3z"/><path class="a" d="m454.6 118.9c3.3-1.9 7.2-0.8 10.8-1 0.1 0.6 0.3 1.8 0.4 2.4-3.7-0.5-8.1 1.2-11.2-1.4z"/><path class="a" d="m504.1 117.9c3.4-0.2 6.7-0.2 10 0 0.1 0.6 0.2 1.7 0.3 2.3-3.4-0.3-6.9 0.6-10.1-0.5-0.1-0.4-0.1-1.3-0.2-1.8z"/><path class="a" d="m552.4 118.6c2.7-0.9 5.7-0.5 8.5-0.5 1.6-0.3 1.4 1.1 1.5 2.2-3-0.1-5.9 0-8.9-0.1l-0.6-0.8c-0.1-0.2-0.4-0.6-0.5-0.8z"/><path class="a" d="m601 118.1c3-0.4 6.1-0.3 9.1 0 0 0.6-0.1 1.6-0.1 2.1-3.1 0.2-6.2 0.1-9.3 0 0.1-0.5 0.3-1.6 0.3-2.1z"/><path class="a" d="m648.3 118.7c3.2-1.3 6.7-0.6 10-0.8 0.1 0.6 0.3 1.9 0.4 2.5q-4.4-0.1-8.9-0.1l-0.8-0.9c-0.2-0.2-0.5-0.5-0.7-0.7z"/><path class="a" d="m697.1 118.2c2.9-0.1 6.9-1.2 9.1 0.7-0.2 0.4-0.6 1.1-0.7 1.4-2.9 0.1-5.7 0-8.5 0 0.1-0.6 0.1-1.6 0.1-2.1z"/><path class="a" d="m743.8 118.7c3.5-1.4 7.5-0.5 11.2-0.5 0.1 0.5 0.2 1.6 0.3 2.1-3.8-0.6-8.6 1.5-11.5-1.6z"/><path class="a" d="m792.8 118.8c4-1.3 8.7-1.6 12.5 0.1-1.5 2.1-4.1 1.3-6.3 1.4-2.2-0.1-4.8 0.7-6.2-1.5z"/><path class="a" d="m842.6 118.8c2.7-1.4 6.2-0.3 9.3-0.7-0.1 0.6-0.1 1.7-0.2 2.3-2.9-0.3-6.3 0.7-8.9-0.5z"/><path class="a" d="m938.3 118.3c3.7-0.4 7.4-0.5 11.1-0.5 0.1 0.7 0.2 2 0.2 2.6-3.8-0.1-7.6 0.1-11.5-0.1 0.1-0.5 0.1-1.5 0.2-2z"/><path class="a" d="m987.9 118.2c25.4-0.8 50.7 0.1 76.1 0 11.8 0 23.7-0.1 35.5 0.1-0.1 0.5-0.3 1.6-0.4 2.2-37.2-0.4-74.4-0.2-111.6-0.2 0.1-0.5 0.3-1.6 0.4-2.1z"/><path class="a" d="m1107.3 133.9c2.2 2.3 5.4 4.5 5 8.2-0.1 15.1-0.1 30.1-0.1 45.2q-2.6 0.1-5 0.1c0.1-17.8-0.1-35.7 0.1-53.5z"/><path class="a" d="m253.3 152.4c0.2 0 0.6-0.1 0.8-0.1 5.3 1.1 10.7 0.3 16.1 0.7 8.7 0.4 17.5 0.3 26.3 0.2 5.1-0.4 10.6 0.8 15.5-1 6.6 0 13.1-0.1 19.7 0.1-3.6 1-7.3 0.7-11 0.7q0 3.4 0 6.7c0.3 13.1-0.1 26.2 0.1 39.3 0.2 4.8-0.4 9.6 0.7 14.3v0.8c-0.2 2.4-0.2 4.8-0.3 7.2-8.3 0.5-16.7 0.2-25 0.3-6.5 0.1-13-0.1-19.5 0q-2.9 0-5.8 0.1c-0.1 3.6 0 7.2-0.1 10.7-0.9-3.5-0.4-7.2-0.4-10.9-5.9-0.1-11.8 0.3-17.6-0.3-0.2-2.3-0.4-4.7-0.3-7l0.1-1.2c0.1-2 0.4-4 0.5-6 0.1-15.7 0-31.5 0-47.2 0-2.5 0.1-4.9 0.2-7.4zm28.8 4.7c-14.1 1.6-25.6 14.6-25.7 28.8-0.9 13.8 9.4 26.9 22.6 30.3 8.2 1.1 17.1 0.8 24.3-3.8 7.7-4.5 12-13 13.9-21.4 0.8-10.3-3.1-21.3-11.5-27.8-6.4-5.3-15.3-7.3-23.6-6.1z"/><path class="a" d="m282.7 162.6c5.9-1.1 12.2 0.3 17.3 3.5 5.1 3.9 10.2 9 10.8 15.8 0.1 5.6 0.8 11.7-2.2 16.7-3.3 5.7-8.6 10.3-15 12.1-13.6 4.5-29.2-5.9-31.3-19.7-1.1-7.9 1.3-16.1 7.1-21.6 3.9-3.2 8.2-6 13.3-6.8zm-4.3 24.5c-0.3 5.8 5.9 10.2 11.3 9 1.5-2.6 4.8-3.9 5.3-7.1 1.3-4.4-2.1-8.5-6-10.1-4.9-1.1-11.2 2.7-10.6 8.2z"/><path class="a" d="m27.6 166.1c34.4 0.5 68.7 0 103 0.3 0.1 171.2 0 342.3 0 513.4 0.5 2.2-1.5 3.5-3.6 3.3-11.7-0.5-23.3 0.3-35-0.2-21.5 0.2-42.9 0-64.4 0.2 0.1-172.3 0-344.6 0-517zm4.3 5.2c0.4 19.9 0.1 39.8 0.2 59.7q0 142 0 283.9c-0.1 20.3 0.3 40.7-0.3 61 27 0.1 54.1 0 81.2 0 4.2 0.2 8.4 0.6 12.6 0.1-0.2-46.4-0.1-92.7-0.1-139 0-88.5-0.2-177.1 0.1-265.6-31.2-0.3-62.5 0-93.7-0.1zm-0.2 410.2c0.1 4.2 0.5 8.4 0.4 12.5q0 41.9 0 83.7c31.2 0.1 62.3 0 93.5 0.1-0.2-32.2-0.2-64.3 0-96.4-31.3 0-62.6-0.3-93.9 0.1z"/><path class="a" d="m408.1 176.1c170.3 0.1 340.6 0 510.9 0 10.5 0.2 21.1-0.3 31.6 0.2 21.4 21.3 42.7 42.7 64.1 64 8 7.7 15.5 16 23.8 23.4 0.1 102.7-0.1 205.4 0.1 308.1-56.3 0.3-112.5 0-168.8 0.1-0.2 27.6-0.2 55.3-0.1 82.9-210.2 0.2-420.4-0.1-630.6 0.1-0.1-121.7 0-243.3 0-365q0-2.2 0.1-4.5c43.3 0.2 86.5 0 129.8 0.1 13-0.1 26.1 0.1 39.1-0.2 0-36.4-0.1-72.8 0-109.2zm149.2 45.2c-5.8 5.1-9.7 11.9-12.9 18.8 3.2 0.4 6.1 1.7 8.8 3.5 6.3-2.4 9.8-8.5 15.1-12.2 9.3-7 21.1-10.2 32.6-9 5.8 1 9.9-7.1 6.2-11.4-1.6-2.3-4.5-2.9-7-3.2-15.3-1.6-31.2 3.4-42.8 13.5zm118 4.7c-0.2 10.3 0.2 20.6-0.4 31 0.9 19.7-0.5 39.5 0.3 59.3q10 0 20.1 0c0-11.7 0.1-23.4 0-35.1q11.3-0.1 22.7 0c4-0.1 8.4 1.7 10.5 5.3 4.8 9.2 1.9 20.5 6.4 29.8 6.7-0.1 13.4-0.1 20.1-0.1-4.4-9.7-2.5-20.6-5.5-30.7-1.6-5.5-5.7-10.4-11.4-11.9 14.4-5.2 18.9-25.7 9.6-37.3-4.7-6.5-12.8-9.9-20.7-10.1-17.2-0.9-34.5 0.4-51.7-0.2zm115.7 3c-6.3 16.1-12.8 32-18.9 48.2-4.9 13-10.6 25.8-15 39 6.7 0.1 13.4 0 20.1 0.1 2.7-6.8 5.2-13.7 8-20.5q16.8 0.1 33.7 0c2.9 6.8 4.8 13.9 7.8 20.6 7-0.2 14.1 0 21.1-0.2-11.6-29.9-22.9-60-34.4-90-6.5-0.5-12.9 0.2-19.4-0.3-2-0.5-2.4 1.9-3 3.1zm61.3-2.9c-0.2 30-0.1 60.1-0.1 90.1 6.7 0.1 13.5 0 20.2 0.1 0.1-8.8 0-17.6 0-26.3 0.1-1.6-0.1-3.3 1.3-4.3 3.4-3.5 7.1-6.6 10.7-9.8 9.2 13.4 18 27.2 27.7 40.2 8.4 0 17 0.6 25.4-0.2-13-18-26-36.1-39.2-54 11.8-12.4 24.7-23.7 36.6-36-8.6 0.1-17.2-0.1-25.8 0.1-3 2-5.1 5.1-7.7 7.5-9.7 9.5-19 19.4-28.6 28.9-0.9-12.1 0-24.3-0.4-36.5-6.7 0.4-13.4 0-20.1 0.2zm-286.4 14.7c2.5 0.6 4.6 2.4 7 2.9 10.5-2.6 21.5-4.3 32.2-2 5.9-1.2 6.6-13-0.3-13.7-13.8-2.1-29.8 1.5-38.9 12.8zm49-4.5c-0.4 3.1-1.8 6-3.4 8.6 2.6 6 8.6 9.2 12.5 14.2 5.4 6.8 8.4 15.3 9.2 23.9 0.3 3.7-0.3 7.5 0.1 11.2 3.1 3.8 11.1 5.5 13.9 0.3 2.1-11.4 1.1-23.6-4.4-33.9-6-11.1-16-20-27.9-24.3zm-78.5 12.6c-3.2 14 1.4 30.1 13.1 38.9 0.5-2.5 1.5-5 3.2-6.9-4-10.1-3.9-21.4-2.4-32-2.7-4.4-11.5-5.1-13.9 0zm20.1 0.6c-3.8 9.2-2.1 19.7 0.8 28.9 4.7-0.7 9.4-0.9 14.1-1-0.1-8.1-0.7-16.2-0.6-24.3 0.1-7.1-11.3-10.2-14.3-3.6zm19-1.3c2 4.4 0.9 9.4 1.1 14.1 5.5 0 10.9-0.3 16.4-0.5 3.7-0.2 7.5 0.2 11.2-0.6 5.3-1.2 6.8-9.2 3.1-12.7-10-4.5-21.5-2.7-31.8-0.3zm-58.8 3c-2.2 8-1.5 16.6 0.7 24.5 4.8 15.1 16.8 27.6 31.6 33.1 0.6-3.1 0.6-6.6 3.2-8.8-2.5-6.8-9.6-9.9-13.5-15.7-7-8.8-8.9-20.5-8.1-31.4 0.7-3.4-3.1-5-5.8-5.5-3.1-0.8-7.3 0.3-8.1 3.8zm95.3 14.7c1.8 7.5 2.8 15.3 2.1 23-0.2 2.8-2.1 6.3 0.6 8.5 3.5 2.8 9.9 2.9 12.6-1.2 1.9-8.4 0.9-17.3-2.2-25.2-2.1-5.6-6.3-10-10.3-14.3-0.3 3.3-4.3 5.8-2.8 9.2zm-19.7 1.3c0 8.3 0 16.6 0.6 24.8 0.6 7.1 12 9.4 14.8 2.7 2.9-9.2 1.7-19.3-1.2-28.3-4.7 0.5-9.4 0.7-14.2 0.8zm-35.9 18.3c-3.1 3.2-2.7 9.8 2 11.2 9.8 2.8 20.3 2 30-0.7-1.2-4.5-1.1-9.2-1.5-13.8-7 0.2-14 0.4-20.9 0.4-3.3 0.1-7.3 0.1-9.6 2.9zm7.5 17.9c-2.4-0.2-5.1-1.4-7.3 0.2-3.8 2.9-4.1 10.1 0.6 12.3 3 1.3 6.5 0.8 9.8 1 11.5 0.5 23.1-4.3 31-12.7q-3.7-1.5-7-3.7c-8.7 2.7-17.9 4.3-27.1 2.9zm29.7 11.2c-8.9 6-19.9 8.8-30.6 7.7-4-0.8-7 3.2-7.3 6.7-0.3 3.2 1.9 6.7 5.2 7.4 15.6 2.6 32.3-1.8 44.4-12.2 6.4-5 10.4-12.3 14.2-19.4-3.3-0.6-6.4-2-9.3-3.8-6.7 3-10.6 9.6-16.6 13.6zm-317.7 16.7c-5.3 10-11.7 19.4-17.4 29.1 11.6 0.3 23.2 0.2 34.8 0.1-5.8-9.8-11.5-19.6-17.4-29.2zm43.2 35.1c-0.3 8.9-0.2 17.7 0 26.6 0 7-0.5 14.1 0 21.2 15.8 0 31.7 0.2 47.6 0 0-15.9 0.1-31.8 0-47.8-15.8 0.1-31.7 0.1-47.6 0zm68.1 0q-0.1 3.4-0.1 6.9-3.4-0.1-6.8-0.1-0.1 3.5-0.1 7 3.5 0.1 7.1 0.1 0-3.4 0-6.8 3.5 0 6.9-0.1c0-2.3 0.1-4.7-0.2-7q-3.4 0.1-6.8 0zm54.4 0.2c0.1 15.8 0 31.7 0 47.6 16 0 32 0.1 48.1 0-0.1-15.9 0-31.9-0.1-47.8-16 0.1-32 0-48 0.2zm-34-0.1q-0.1 3.4 0 6.8 3.4 0.1 6.8 0.1c-0.1 2.3-0.1 4.5-0.1 6.8q-3.4 0-6.7 0.1c0 2.3 0 4.6 0.2 6.9 4.3 0 8.7 0 13.1 0 0.2 2.3 0.3 4.5 0.4 6.7q2.6 0 5.3 0c0.4-0.3 1.3-0.9 1.8-1.3-0.2-1.9-0.2-3.8-0.3-5.7q-3.4-0.1-6.8-0.1c0.2-4.4-0.1-8.9 0.1-13.3q3.2 0.1 6.5 0.1-0.1 3.3-0.1 6.6c2.3 0.1 4.7 0.1 7.1 0.2 0.1-2.4 0.2-4.8 0-7.2q-3.3 0-6.7 0.1 0.1-3.4 0.1-6.8-10.4-0.1-20.7 0zm296.6 1.7c-7.7 1.9-13.8 8.7-14.4 16.6 4.3 0.9 8.9 0.1 13.3 0.4 1.1-6.4 9-8.6 14-5.4 4.2 2.6 3.3 9.9-1.4 11.3-3.3 1.2-6.9 0.9-10.4 1.1q0.1 5.1 0.2 10.2c4.1 0.2 8.8-0.8 12.5 1.7 3.8 2.3 3.9 8.6 0.4 11.3-5.2 4.1-14.6 2-15.8-5.1q-7.1 0.2-14.2 0.3c0.5 3.8 1.8 7.6 4.4 10.5 4.4 5.3 11.5 7.5 18.2 7.6 7 0.3 14.5-1.1 19.6-6.1 5.2-4.5 7.4-12.8 3.5-18.8-2.5-4.2-7.5-5.7-11.8-7.1 3.3-1.2 6.9-2.4 9.1-5.3 4.5-5.4 2.6-14-2.3-18.5-6.6-6.2-16.6-6.8-24.9-4.7zm53.3-0.5c-5.1 3.2-10.6 5.9-15.4 9.5-0.6 3.9-0.1 7.9-0.2 11.8 4.9-2.1 9.3-5.2 13.7-8.1 0.2 15.6 0 31.3-0.1 46.9 4.9 0.2 9.8 0.1 14.8 0.1-0.1-20.1 0-40.1-0.1-60.1-4.2-0.1-8.5 0-12.7-0.1zm36.4 2.1q-6 3.8-12.2 7.3 0 6 0.1 12c4.8-2.2 9.1-5.4 13.7-8 0.1 15.6 0 31.2 0 46.8 4.8-0.1 9.6-0.1 14.4-0.1 0-20 0.1-40.1-0.2-60.1-5.2 0.7-11.3-1.6-15.8 2.1zm33.4 1.5c-5.2 3.5-7.7 9.8-7.8 15.8 4.5-0.2 8.9-0.1 13.4 0 1.1-1.5 0.9-3.7 2-5.2 3-4.7 11.2-4.6 14 0.2 2.3 3.9 0.7 8.6-2.1 11.7-7.8 8.9-18.3 15.2-26 24.2-0.4 3.3-0.1 6.7-0.1 10 14.7-0.5 29.5 0.2 44.2-0.2 0-3.7 0.1-7.4 0.2-11.1-8.4-0.3-16.8 0.2-25.2-0.4 6.5-6.6 14.1-12.1 20-19.3 4-4.8 5-11.5 3.3-17.4-2.2-7-9.3-11.3-16.4-12.1-6.7-0.7-13.9-0.3-19.5 3.8zm-308.9 56.5c4.8 0.5 9.6 0 14.4 0.1-0.1-6.8 0-13.5-0.1-20.2 2.7-0.1 5.4-0.1 8.1 0 3.7 6.6 7 13.4 10.7 20.1 5.1 0.2 10.3 0 15.5 0.1-3.6-7.7-8.2-15-12-22.6 10.7-5 12.7-19.7 6.7-28.9-4.4-6.3-12.4-8.7-19.7-8.5-7.8 0.6-15.6 0.1-23.4-0.2-0.4 20 0 40.1-0.2 60.1zm71-59.6c-3.4 9.7-6.7 19.4-10.1 29.2-3 10.2-7.2 20.1-10.2 30.4 5.2 0.1 10.3 0.1 15.5 0 1.2-4.2 2.6-8.4 3.8-12.6 5.6-0.1 11.1 0 16.6-0.2 1.3 0.2 3.1-0.4 4.2 0.6 1.6 4 2.6 8.2 4 12.2 5.3 0.1 10.5 0.2 15.7-0.1-7.4-19.8-13.7-40.1-20.8-60-6.2 0.2-12.5 0.5-18.8 0.5zm43.5-0.1c0 19.9 0 39.8 0 59.7 4.9 0.1 9.8 0.1 14.7 0-0.2-5.3-0.2-10.6-0.2-16 2-2.5 4-5 6-7.5 5.3 7.6 9.3 16.2 15.1 23.4 5.6 0.3 11.3 0.3 17 0-7.5-10.9-14.6-22.1-21.7-33.3 7-8.9 14.5-17.5 21.2-26.7-5.5 0.2-11.1 0.4-16.7 0.5-7.3 8.1-13.7 17.1-20.6 25.6-0.6-8.7 0.1-17.4-0.2-26.1-4.9 0-9.7 0.6-14.6 0.4zm-346.4 1.3c-0.1 5.8-0.1 11.6-0.1 17.4-3.3-0.1-6.5-0.1-9.8-0.1-0.1-5.3-0.1-10.6-0.2-16-0.9 0-2.8 0-3.7 0 0 5.4-0.1 10.7 0 16.1-3.1 0-6.2 0-9.2 0 0-5.7 0.1-11.3 0-17-1 0-2.9 0-3.9 0-0.1 7.2 0.1 14.4 0 21.5 10.3 0 20.6 0 30.9 0.1 0.2-7.3 0-14.7 0.1-22q-2.1 0-4.1 0zm87 10.8q0 3.5 0 6.9c2.2-0.1 4.4 0.4 6.4-0.3 1.2-2 0.4-4.4 0.6-6.6q-3.5 0-7 0zm20.4 0.2c0 2.2 0.1 4.5 0.3 6.7q3.3 0 6.7 0.1 0.1-3.5 0-7-3.5 0.1-7 0.2zm-12.6 6.8c-2 4.1-0.5 9-1 13.5q3.6 0 7.1-0.1c0-4.6-0.1-9.1-0.1-13.7-2 0-4.1-0.4-6 0.3zm19.6 6.5q0 3.5 0 7c-4.7-0.1-9.3-0.1-13.9 0.1 0 4.5 0 9 0.2 13.5q3.3 0 6.7 0 0.1-3.2 0.1-6.5c2.3-0.2 4.7 0.2 6.9-0.8 0.2-2 0.1-4.1 0.2-6.2q3.2 0 6.5-0.1c-0.1 2 0.5 4.2-0.6 6 2.4 1 4.9 1.1 7.4 1.1 0.2 4.5 0.1 9 0.1 13.5 4.4-0.1 8.8-0.1 13.3-0.1q0 3.3 0.1 6.6 6.9 0 13.8 0 0.1 3.5 0 7c2.4 0.3 4.8 0.4 7.2 0.4q-0.1 3.2-0.1 6.4c-4.5-0.1-9 0-13.6 0-0.2-2.3-0.3-4.5-0.4-6.7q-3.3 0-6.5-0.1-0.1 3.3-0.1 6.6c-4.6 0.2-9.1 0-13.6 0.1q0.1-3.2 0.1-6.4 3.3 0 6.6 0 0.1-3.7 0.1-7.3-10.1 0-20.2 0-0.1 3.7 0 7.3c2.1-0.1 4.3-0.2 6.4-0.2q0.1 3.3 0.1 6.6-3.4 0-6.8 0 0.1 3.6 0.1 7.1-3.4-0.1-6.8-0.1c-0.3-4.6 0.1-9.2-0.1-13.7q-3.4 0-6.8 0 0-3.5 0-7.1-3.3 0.1-6.6 0.2c0-6.9 0-13.7 0-20.5q-3.6 0-7.2 0c0 4.6 0.1 9.2 0 13.8-9-0.1-18 0.1-27-0.1q-0.1 3.3-0.1 6.7c-2.2 0-4.5 0-6.7-0.1 0-2.1 0-4.2 0-6.4-6.8-0.3-13.7-0.1-20.5-0.1q0 3.3 0 6.6 6.7 0 13.4 0.1 0 3.4 0 6.9c6.9 0.1 13.8 0.1 20.7 0q0-3.4 0-6.8c6.8 0.3 13.6-0.4 20.4 0.1q-0.1 3.4-0.1 6.9c4.6 0.1 9.1 0 13.7 0.1 0 2.2-0.1 4.3-0.3 6.5-4.4 0-8.9 0-13.3-0.1q-0.1-3.3-0.2-6.6c-4.6-0.2-9.1-0.1-13.7-0.3q0.3 3.4 0.4 6.9c-4.5 0.1-9.1 0.1-13.7 0 0 2.4-0.1 4.7-0.3 7.1q-3.3-0.1-6.6-0.1 0-3.5 0-6.9-3.4 0-6.8 0c0 4.5 0 9 0 13.4-2.4 0.3-4.8 0.3-7.2 0.3q0 3.3 0.1 6.5 3.4 0.2 6.9 0.4 0 3.2 0 6.5c-2.1 0.1-4.3-0.3-6.3 0.5-1.3 2.1-0.9 4.9 0.7 6.7 4.2-0.2 8.4-0.1 12.6-0.2q0.1 3.4 0.1 6.7 6.9 0.1 13.7 0 0-3.3-0.1-6.7 3.2 0 6.5 0.1c-0.1 2.3 0 4.5 0.3 6.8q3.4-0.1 6.7-0.1 0.1-3.5 0.1-7-3.5 0-7 0c0.1-2.1 0-4.3 0.4-6.4 4.3-0.6 8.8-0.2 13.2-0.4q0-3.5-0.1-6.9c-4.5 0-9 0-13.6-0.1q0.1-3.2 0.1-6.3 3.5-0.1 7-0.1 0-3.3 0-6.7 3.3 0 6.6 0 0.1 3.4 0.1 6.7 3.5 0 7 0 0-3.4 0.1-6.7 3.3 0 6.6 0-0.1 16.9-0.1 33.8-3.3 0-6.5 0-0.2-3.5-0.1-7-3.6 0-7.1 0c-0.1 11.4 0.1 22.8 0.1 34.2 2.1 0.1 4.3-0.4 6.3 0.6 1 1.9 0.4 4.1 0.5 6.2q-3.4 0-6.9 0c0 6.9 0 13.7 0 20.6 4.6 0.4 9.2 0.1 13.9 0.2 0.1-7-0.1-13.9 0.1-20.8q3.4 0.1 6.8 0.2c-0.2 2.2-0.3 4.5 0 6.8q3.3-0.1 6.6 0 0.3-3.4 0.3-6.9 3.1 0 6.3 0c0 2.3 0 4.6 0.1 6.9q3.5 0 7 0c0.1-2.3 0.1-4.6 0.1-6.9q3.3-0.1 6.7-0.1c-0.1 6.9 0 13.7 0 20.6 2.3 0.1 4.6 0.2 6.9 0.2 0-2.3 0-4.7 0.2-7 2.1 0.1 4.2 0.1 6.3 0.1 0-2.3 0-4.6 0.2-6.9q3.4 0.1 6.8 0.1 0 3.4 0 6.8 3.5 0 7.1 0 0 3.3 0 6.6c2.2 0.2 4.4 0.2 6.6 0.3q0.1-3.5 0.1-6.9 3.4-0.1 6.8-0.1 0.1-3.4 0.1-6.8 3.3 0 6.7 0c0.1 2.3 0.1 4.6 0.1 6.9 4.5 0 9 0.1 13.4 0 0.1 2.3 0.1 4.6 0.2 6.9q3.4 0 6.9 0 0.2-10.4 0.1-20.9-3.6 0.1-7.1 0.1c-0.1-2.3-0.1-4.6-0.2-6.9q-3.4 0.1-6.9 0.2 0 3.2 0 6.5c-4.4 0.3-8.8 0.1-13.2 0.3-0.1-2.3-0.1-4.6 0-6.8q3.4 0 6.8-0.1-0.1-3.4-0.1-6.8-3.4 0-6.7-0.1-0.1-3.3-0.1-6.6 3.5 0 6.9 0.1 0-3.4 0-6.7 3.3 0 6.7 0.1-0.1 3.2-0.1 6.6c4.7-0.2 9.3 0.1 13.9-0.2q0-3.6-0.1-7.2c-4.6 0.2-9.3-0.1-14 0.4q0-3.3 0-6.6 3.5-0.1 7.1-0.1 0.1-3.4 0.1-6.8 3.5 0 6.9 0 0.1-3.5 0-7-3.5 0-6.9 0 0-3.5-0.1-7 3.5 0 7 0.1 0-3.3 0-6.6c-6.8-0.1-13.7 0.1-20.5-0.1q0-3.3-0.1-6.5c-6.7-0.1-13.4-0.1-20.1-0.1-0.2-2.2-0.2-4.5-0.2-6.7q3.4 0 6.8 0-0.1-3.5 0-7c2.2-0.1 4.4 0.4 6.5 0.1 0.7-2.3 0.1-4.8 0.2-7.1-4.5 0.1-9 0.4-13.5 0.3q-0.1-3.5-0.1-6.9c-6.8 0.1-13.6-0.1-20.4 0q-0.1-3.4-0.2-6.8 3.3-0.1 6.6-0.1 0-3.5 0-7-3.4 0-6.8 0.1 0 3.4-0.1 6.7-3.2 0-6.4-0.3c0-4.3 0-8.7-0.1-13.1q-3.1 0-6.2 0c-0.2-2.4-0.3-4.8-0.5-7.1-4.6 0.1-9.2 0-13.8 0.1zm27.4 0.5c-0.9 2-0.1 4.3-0.4 6.4q3.5 0.1 7 0.1 0-3.6 0-7.2c-2.1 0.4-4.8-0.8-6.6 0.7zm-141.8 1.3c-0.2 5-0.1 10 0 15-9-0.1-18-0.1-27-0.1q0 2.1 0 4.3c10.4 0.1 20.7 0 31.1 0-0.1-6.5 0-12.9 0-19.4q-2.1 0.1-4.1 0.2zm696.8 3.3c0.1 6.2-0.1 12.4 0.1 18.7q1.8 0 3.6 0.1c0.5-4.9 0.1-9.8 0.2-14.6 9.1-0.2 18.2 0.4 27.2-0.1q0.1-2.1 0.1-4.2c-10.4 0-20.8-0.2-31.2 0.1zm-582 9.3c-0.7 2-0.3 4.1-0.3 6.1q3.3 0 6.7 0.1 0.1-2.4 0.1-4.8c-0.9-2.6-4.5-2.8-6.5-1.4zm-7.4 6.1q0 3.5 0.1 7 3.6 0 7.2 0c-0.2-2.3-0.2-4.7-0.3-7q-3.5 0-7 0zm-119.7 11.4c-2.9-5.9-12.4-4.6-14 1.6-1 5.3-0.4 10.7-0.5 16.1 10.3 0.1 20.6-0.1 30.9 0.1-0.2-5.7 0.6-11.6-0.5-17.2-2.1-6.9-13.6-7.7-15.9-0.6zm194.7-4.4c-0.1 4.6 0.1 9.3 0 14-2 0.1-4-0.3-5.9-0.2-1.1 2.1-0.4 4.6-0.5 6.9 6.5-0.2 13 0 19.5-0.1 1.5-2.1 0.6-4.7 0.7-7q-3.2 0.2-6.3 0.4c-0.3-4.6-0.1-9.3-0.2-13.9q-3.6-0.1-7.3-0.1zm521.2-0.2c-8 2-9.2 14.4-2.3 18.4 4.3 2.4 10.1 2.5 14.3-0.4 5-3.5 5.5-11.7 0.9-15.7-3.4-3.1-8.6-3.5-12.9-2.3zm-671.1 13.7c0 4.7-0.1 9.3 0.2 13.9q3.4-0.1 6.8 0c-0.2-4.6 0.7-9.2-0.1-13.7-2.3-0.3-4.6-0.2-6.9-0.2zm164.3 7.5c-1.1 1.9-0.5 4.2-0.6 6.3q3.6 0 7.2 0 0-3.5 0-7.1c-2.2 0.3-4.6-0.5-6.6 0.8zm-223.8 4.1q0 1.6 0 3.3c10.4 3 20.8 5.7 31.1 8.8 0-0.9 0-2.6 0-3.5-10.5-2.5-20.6-6.2-31.1-8.6zm723.9 0.3q0 2.3 0.1 4.6c4.5 0 8.9 0 13.3 0q-0.1 3.5-0.3 7.1c-3.8 3.8-8.7 6-12.8 9.2-0.3 1.7-0.2 3.4-0.2 5.1 4.8-2.8 9.8-5.6 13.5-9.7 0.6 4 3.9 7.8 8.2 7.8 4.5 0.5 8.6-3.2 9.1-7.7 0.3-5.4 0-10.9 0.1-16.4-10.3 0-20.7-0.1-31 0zm-469.3 5.7c-0.3 10.3-0.1 20.7 0 31 5.2-0.4 10.8 1 15.8-1.3 4.9-2.7 6.2-8.8 6.4-14-0.2-5.7-1.8-13.2-8.1-15.1-4.6-1-9.4-0.3-14.1-0.6zm49.2 0c3.2 10.5 6.8 20.9 10.5 31.3 1.4-0.5 4 0.6 4.4-1.4 3.3-9.9 6.5-19.9 10-29.8q-2-0.1-3.9-0.1c-3.2 8.7-5.5 17.8-8.7 26.6-2.5-8.9-5.5-17.7-8.3-26.5q-2-0.1-4-0.1zm28.1 0c-0.2 10.4 0.1 20.7-0.1 31 6.7 0 13.4 0.1 20.1 0q-0.3-2-0.6-4c-5.2 0.1-10.4 0-15.7 0-0.1-3.4-0.2-6.8 0.1-10.1 4.8-0.6 9.6 0.3 14.4-0.4q0-1.7 0.1-3.5c-4.9 0.1-9.8 0.1-14.7 0.1 0.3-3 0.2-6.1 0.2-9.1 5 0.1 10 0 15 0q0.1-2 0.2-4c-6.3 0.1-12.6 0.1-19 0zm24.7 0c-0.4 5.2 0.3 10.4-0.1 15.7 0.1 4.2-0.3 9 2.5 12.5 3 3.6 8.3 3.7 12.5 2.5 4.2-1.3 6.1-5.9 6.2-10 0.2-6.9 0-13.9 0-20.8q-1.8 0-3.7 0.1c0 5.9 0.1 11.8 0.1 17.7-0.1 2.8-0.1 6.1-2.3 8.2-3.7 3.3-11 1.1-11.1-4.2-0.6-7.2-0.2-14.5-0.3-21.8q-1.9 0.1-3.8 0.1zm28.1 0c-0.2 10.3 0.1 20.6-0.3 31q2-0.1 4-0.1c-0.2-10.3 0-20.6-0.1-30.9q-1.8 0-3.6 0zm27.5 0.2c3.4 4.8 6.2 10.1 9.8 14.8-3.3 5.1-6.7 10.2-9.8 15.4 1.4 0.1 2.9 0.8 4.2 0.1 3.2-3.5 4.4-8.6 8-11.7 2.9 3.6 4.9 7.9 7.6 11.6 1.5 0.2 2.9 0.1 4.4 0.2-2.8-5.3-6.2-10.3-9.5-15.3 2.9-5.2 6.6-9.9 9.4-15.2-1 0.1-3 0.1-3.9 0.1-2.8 3.9-5.3 8-8 11.9-3-3.9-5.2-8.3-8.1-12.2q-2.1 0.1-4.1 0.3zm45.1-0.1c-2.4 4.1-5.2 8-7.6 12-2.7-3.9-4.9-8.2-7.6-12.2-1.1 0.1-3.2 0.2-4.2 0.3 2.7 5.4 6.4 10.2 9.5 15.3-3.7 4.7-6.8 9.8-9.9 14.9q2.3 0.2 4.7 0.1c2.5-4.1 4.7-8.3 7.4-12.3 2.6 4 5.1 8.1 7.5 12.3q2.3 0.1 4.6-0.2c-3.1-5.1-6.4-10.2-9.6-15.3 3.2-4.9 6.4-10 9.6-14.9q-2.2-0.1-4.4 0zm76.6 0.9c-2.7 3.6-5 7.4-7.3 11.1-2.5-4-5-8.2-7.8-12-1 0-3 0.1-4 0.1 2.9 5.3 6.4 10.1 9.4 15.2-3.8 4.6-6.4 10-9.6 15q2.2 0.1 4.5 0c2.3-4.2 4.8-8.2 7.5-12.2 2.5 4 4.7 8.2 7.5 12 1.5 0.7 3.2 0.2 4.8 0.2-3.3-5.2-6.7-10.3-9.9-15.5 3.5-4.7 6.3-10 9.7-14.8-1.6 0.2-3.9-0.9-4.8 0.9zm6.1-1c3.3 4.9 6.1 10.2 9.7 15-3.4 5.2-7.1 10.3-9.8 15.9 1.5-0.2 3-0.3 4.4-0.6 2.8-3.8 4.9-8.1 7.5-12 3 3.8 5.2 8.2 8.1 12 1.4 0.2 2.9 0.3 4.3 0.4-3-5.4-6.5-10.4-9.6-15.7 3.2-4.9 6.4-9.7 9.5-14.7q-2.1-0.1-4.1-0.3c-2.8 4-5.1 8.3-8.1 12.1-2.5-4.1-5.1-8.1-7.7-12.1q-2.1 0-4.2 0zm26.3 0.3c3.3 4.9 6.5 10 9.4 15.1-3.4 4.9-6.8 9.9-9.7 15.3 1.5-0.3 3.3 0.1 4.7-0.6 2.7-3.9 4.7-8.2 7.5-12 2.7 4.1 5.2 8.3 7.7 12.4q2.2 0 4.4-0.1c-2.9-5.3-6.3-10.3-9.5-15.5 3.2-4.8 6.3-9.9 9.5-14.7q-2.1-0.1-4.3-0.2c-2.5 4-5.1 8-7.7 12-3-3.8-4.9-8.3-7.7-12.2q-2.2 0.2-4.3 0.5zm25.3-0.1c3.3 4.9 6.1 10.1 9.5 14.8-3.3 5.1-6.4 10.3-9.7 15.4q2.2 0 4.5 0c2.5-4.1 5-8.2 7.7-12.1 2.7 3.9 5.1 8 7.6 12.1q2.3 0.2 4.6-0.2-4.9-7.7-9.8-15.4c3.7-4.6 6.3-10 9.8-14.7-1.6 0.2-3.8-0.7-4.8 1-2.6 3.6-4.8 7.5-7.4 11.1q-3.8-6-7.5-12.1-2.3 0-4.5 0.1zm25.5-0.1c2.9 5 6 10 9.4 14.9-3.1 5.3-7.3 10.1-9.7 15.9q2.3-0.3 4.5-0.6c2.7-3.9 4.7-8.3 7.4-12.2 2.8 3.9 5.3 8.1 7.5 12.3q2.4 0 4.8-0.1c-3.2-5.1-6.3-10.2-9.6-15.3 3.3-4.8 6.2-10 9.6-14.8q-2.3 0-4.6 0c-2.4 4-4.9 8.1-7.7 11.9-2.5-4-4.8-8.1-7.5-12.1q-2.1 0.1-4.1 0.1zm26.3 0.1c3 5 6.1 10 9.4 14.8-3.4 5-6.4 10.2-9.6 15.3q2.3 0.2 4.6 0.1c2.3-4.2 4.8-8.3 7.5-12.4 2.6 4.2 5 8.5 7.8 12.5q2.1 0 4.3 0c-2.9-5.1-6.1-10-9.3-14.9l-0.1-0.9c3-5 6.3-9.8 9.4-14.7-1 0-3 0.1-4 0.1-3.2 3.6-5.5 8.1-8.2 12.1-2.4-4-4.8-8.1-7.4-12.1q-2.2 0.1-4.4 0.1zm25.2-0.1c3.4 4.8 6 10.1 9.7 14.8-3.4 5.1-6.8 10.2-9.8 15.5 1.4-0.1 3.2 0.6 4.5-0.3 2.6-3.9 4.7-8.1 7.4-11.9 2.7 3.9 5.2 8 7.9 12 1.4 0.8 3.2 0.1 4.8 0.2-3.5-5.1-7.2-10.2-9.7-15.7 3-5 6.5-9.6 9.5-14.6-1.5 0.1-3.1-0.4-4.4 0.4-2.9 3.7-5.2 7.8-7.9 11.6q-3.8-5.9-7.6-12-2.2 0-4.4 0zm-387.2-0.1c0 10.4 0 20.7 0 31.1 6.8-0.1 13.6 0 20.4-0.1q-0.3-2-0.5-4c-5.3 0-10.7 0.1-16-0.1q-0.1-5 0-10c4.9-0.3 9.9 0.2 14.8-0.4q-0.1-1.7-0.2-3.3c-4.9-0.1-9.7-0.1-14.6-0.1-0.1-3-0.1-6.1-0.1-9.2 5.3 0.2 10.6 0.1 15.8 0.1 0-0.9-0.2-2.9-0.2-3.9-6.5-0.1-13 0-19.4-0.1zm181.5 0c2.9 5.3 6.9 10.2 9.4 15.5-3.2 4.9-6.2 9.9-9.4 14.9q2.2 0.1 4.3 0.1c2.6-4 5.1-8 7.6-12 2.9 3.4 4.8 7.3 7.2 11 1 2 3.4 1 5.2 0.9-3.3-5.2-6.6-10.2-9.7-15.4 3.4-4.9 6.5-10 9.7-15q-2.2 0.2-4.4 0.4c-2.6 3.9-4.8 8.1-7.9 11.6-2.4-3.5-4.4-7.3-6.9-10.8-0.9-1.9-3.5-0.8-5.1-1.2zm26.5 0c3 5.1 6.2 10.1 9.5 15-3.3 5.3-7.2 10.3-10 15.9 1.7-0.2 3.3-0.2 4.9-0.7 2.5-3.9 4.8-8.1 7.2-12.1 3.1 3.8 5.4 8.1 7.7 12.3q2.3 0.1 4.6 0.1c-2.8-5.4-6.3-10.4-9.4-15.6 3.2-4.8 6.4-9.7 9.4-14.7q-2.3 0-4.5 0.1c-2.4 3.9-5.1 7.7-7.4 11.7-2.8-3.9-5.1-7.9-7.5-11.9-1.1 0-3.3 0-4.5-0.1zm-93.7 8q0 2.5 0.1 4.9 1.6 0 3.3-0.1c1.1-1.2 0.4-3 0.7-4.5q-2.1-0.1-4.1-0.3zm-395.7 1.5q0 2 0 4 2.3 0.3 4.8 0.3-0.2-2.1-0.3-4.3-2.2 0.1-4.5 0zm8.9 0.2q0 2 0 3.9c7.3 0.6 14.7 0.1 22 0.3q0.2-2 0.4-4c-7.5-0.5-15-0.4-22.4-0.2zm50.6-0.1q0 3.3-0.1 6.7c2.1-0.1 4.4 0.8 6.1-0.7 1.6-1.6 0.6-4 0.7-6q-3.3 0-6.7 0zm-59.3 10.5q0 10.1-0.1 20.1c10.4 0 20.7-0.1 31.1-0.1q0-2.3-0.1-4.6-7 0-14.1-0.1 0.2-6.9 0.1-13.9c-1 0-2.9 0-3.8 0 0 4.7 0 9.4 0.1 14-3.2 0-6.3 0-9.4 0 0-5.1 0.1-10.3 0.1-15.4-1 0-3 0-3.9 0zm59.3 3.2q-0.1 3.4-0.1 6.8 3.5 0.1 6.9 0.1 0.1-2.8 0.2-5.5c-1.9-2-4.6-1.5-7-1.4zm664.7 4c-1.2 3.7-0.3 7.9 2.3 10.8q-1.3 0.7-2.5 1.3c0 1 0.2 3 0.3 4 5.9-2.1 12.4-0.1 18.5-1.4 3.4-1.6 4.2-5.9 4-9.3-0.2-3.5-1.7-7.7-5.4-8.6-2.2-0.6-2 2.2-2.3 3.5 5.5 0.8 5.6 11.8-0.7 10.6-1.8-3.5-0.8-7.9-2.8-11.4-2-4.7-9.6-4.1-11.4 0.5zm-328.5-0.9q0 2.3 0 4.6 1.9 0 3.8 0 0.1-2.3 0-4.5-1.9-0.1-3.8-0.1zm-336.2 10.5c0 16 0.2 32 0 48 15.9-0.1 31.9-0.4 47.9-0.1 0.1-16-0.1-32 0-48-12.3 0-24.6 0.2-36.8 0q-5.6-0.4-11.1 0.1zm-59.3 9.3q-0.1 2.1-0.2 4.2 2.4 0.1 4.8 0.1 0-2.1 0-4.3-2.3 0-4.6 0zm8.6 4.3c7.4 0.1 14.8 0.4 22.2 0.3q0-2.3 0.1-4.5c-7.3-0.1-14.7 0-22-0.1q-0.2 2.1-0.3 4.3zm403.5 0.5c3.3 4.9 6.2 10 9.7 14.7-3.4 5.1-6.7 10.3-9.7 15.6 1.4-0.1 3.1 0.4 4.4-0.4 2.6-3.9 4.9-8 7.4-11.9 3 3.9 5.4 8.2 8.2 12.2 1.1 0 3.1-0.1 4.2-0.1-3.1-5.2-6.5-10.3-9.6-15.5 3.3-4.8 6.4-9.8 9.4-14.8-1.6 0.1-3.7-0.8-4.7 0.7-2.6 3.7-4.8 7.6-7.2 11.4-2.6-3.8-5-7.9-7.6-11.7-1.3-0.9-3-0.2-4.5-0.2zm25.6-0.4c2.5 5.4 6.2 10.2 9.5 15.2-3.5 5-6.8 10.2-10 15.4q2.3 0 4.6 0c2.6-4.2 5.1-8.4 7.6-12.5 2.5 4.2 5.1 8.4 7.7 12.6 1.1-0.1 3.3-0.1 4.4-0.1-3.1-5.2-6.2-10.5-9.6-15.5 3.2-5 6.5-9.9 9.4-15.1q-2.2 0.2-4.4 0.4c-2.4 4.1-5 8-7.5 12-2.4-3.7-4.5-7.6-7-11.4-0.9-1.7-3.2-0.7-4.7-1zm25.1 0c2.8 5.2 6.2 10.3 9.6 15.2-3.5 5-6.7 10.3-9.8 15.6 1.6-0.5 4.2 0.6 5.1-1.2 2.5-3.7 4.4-7.8 7.2-11.3 2.6 4 5.2 8 7.6 12.2q2.3 0.1 4.6 0.2c-2.8-5.4-7-10.1-9.5-15.7 2.8-5.1 6.5-9.7 9.4-14.8-1.5 0-2.9 0-4.3 0.2-3 3.8-5 8.2-8 12-2.5-4.1-4.7-8.3-7.7-12.1-1.3-0.5-2.8-0.2-4.2-0.3zm26.4 0.4c3.1 4.9 6.3 9.9 9.4 14.9-3.4 5.1-6.7 10.2-9.9 15.5q2.4 0 4.7-0.5c2.8-3.8 4.9-8 7.4-11.9 3.1 3.7 5.1 8 7.6 12.1q2.4 0.1 4.8 0.2c-3-5.4-6.3-10.5-9.5-15.7 3.5-4.7 6.2-9.9 9.4-14.8q-2.2 0.1-4.4 0.1c-2.6 3.9-4.9 8-7.7 11.7-2.3-3.5-4.5-7.1-6.7-10.7-0.9-2.2-3.4-1-5.1-0.9zm25.5 0c2.9 5.1 6.2 9.9 9.5 14.7-3.5 5-6.8 10.2-9.6 15.6 1 0 3-0.1 4-0.1 3.2-3.7 5.1-8.5 7.8-12.6 2.7 4.2 5.3 8.5 8.1 12.7q2.3-0.1 4.5-0.1c-3.3-5.1-6.8-10.2-9.6-15.6 2.6-5.1 6.1-9.8 9.3-14.6-1.4-0.2-2.7-0.4-4-0.4-3.1 3.8-5.3 8.2-8.2 12.1-2.5-4-4.9-8-7.5-11.9q-2.1 0.1-4.3 0.2zm-515.1 5.9q0.1 2 0.2 4.2c8.3 2 16.6 3.9 24.8 6.2-8.1 2.1-16.3 4.1-24.4 6.3-0.9 1.5-0.2 3.6-0.4 5.3 8.3 2.1 16.5 4.3 24.7 6.4-8.1 2.5-16.4 4.4-24.7 6.3q0 2.3 0.1 4.5c10.3-2.8 20.6-5.8 31-8.4q0-2.2 0.1-4.3-13.3-3.6-26.6-7.3c9-1.2 17.5-4.9 26.5-6.3q0-2.4-0.1-4.9c-10.5-2.1-20.6-5.9-31.2-8zm722.1 1c5.3 10 11.7 19.4 17.1 29.3 5.9-9.7 11.6-19.6 17.4-29.4-11.5 0.2-23 0-34.5 0.1zm-587.4 20q-0.1 3.3-0.1 6.7c6.9 0 13.8 0.1 20.7 0 0-2.4 0-4.7-0.2-7.1-6.8 0.7-13.6-0.4-20.4 0.4zm307.5 59.2c-2.3 5.8-1.6 12.9 2.2 17.9 4.1 5.3 12.2 6.3 17.8 3.2 3.3-1.9 5.1-5.3 6.2-8.7q-2.3-0.3-4.5-0.5c-0.6 2.5-2 5.1-4.6 6.2-4.4 2.4-10.6 0.4-12.6-4.3-1.8-4.2-2-9.3 0-13.4 2.4-4.9 9.4-6.5 13.7-3.3 1.6 1.1 2.3 3.1 3.4 4.7q1.9-0.4 3.8-0.8c-0.7-2.9-2.5-5.5-5-7.1-6.8-4.4-17.4-1.6-20.4 6.1zm50.8-7.9c-0.4 4.1-0.3 8.3-0.3 12.4-5.1 0.2-10.3 0.3-15.4 0 0-4.1 0-8.2 0-12.3-1-0.1-3-0.1-4.1-0.1-0.3 10.1 0 20.2-0.1 30.3q2.1 0 4.3-0.1c-0.1-4.7-0.1-9.3-0.1-14 5.1 0 10.3 0 15.4 0.1 0 4.6-0.2 9.3 0.2 13.9q2.1 0 4.2 0.1 0.1-15 0-30-2.1-0.2-4.1-0.3zm-237.9 30.2q2.1 0 4.2-0.1c0-7.9-0.7-15.8 0.1-23.7 2.6 8 5.5 15.9 8.5 23.8q1.8 0 3.7-0.1c3-8.1 5.3-16.5 8.6-24.6-0.2 8.2 0.1 16.4-0.2 24.6q2.2 0.1 4.3 0.2c0-10.1 0.3-20.2-0.1-30.2q-2.9-0.1-5.7-0.1c-3.1 8.2-5.8 16.6-8.6 25-2.8-8.4-5.6-16.7-8.8-24.9q-2.9 0-5.8 0c-0.5 10-0.1 20.1-0.2 30.1zm43.8-30c-3.9 9.9-7.4 19.9-11.2 29.9q2.2 0.1 4.5 0.1c1-3.1 2.1-6.1 3.2-9.1 3.9 0.1 7.8 0.1 11.7 0 1.5 3 2.6 6.1 3.8 9.2q2.4-0.1 4.8-0.2c-4.6-9.9-7.7-20.4-12.6-30.1q-2.1 0.1-4.2 0.2zm20.1 0c0 10 0.1 20 0 30 4.8 0 9.7 0.3 14.5-0.1 5.7-0.6 9.7-6.1 10.2-11.6 1.2-6.7-1.1-15.4-8.3-17.7-5.3-1.3-11-0.4-16.4-0.6zm30.5-0.1c0.1 10.1 0 20.1 0.2 30.1 7.4 0 14.8 0.1 22.3 0q-0.2-1.9-0.3-3.8c-6.1-0.3-12.1 0.3-18.1 0.3q0-5 0-10c5.5-0.4 11 0 16.5-0.1q-0.1-1.9-0.1-3.9c-5.5 0.1-10.9 0.1-16.4 0.1 0-3-0.1-6 0.1-8.9 5.8 0 11.6 0 17.3 0 0-0.9 0.1-2.9 0.1-3.8-7.2 0-14.4 0-21.6 0zm39.5 0.1q0.1 15 0 30.1 2.2-0.1 4.4-0.1c-0.2-10 0-20.1-0.2-30.1q-2.1 0-4.2 0.1zm11 0c0.1 10-0.1 20 0 30q2 0 3.9 0c0.2-7.4 0.2-14.9-0.2-22.4 5.8 7 10.5 14.8 15.6 22.3q2.2 0.1 4.3 0.2 0-15.1 0.1-30.2-2.1 0-4.1 0c-0.2 7.5 0.2 15.1-0.1 22.6-5.4-7.3-10.1-15.2-15.6-22.5q-2 0-3.9 0zm103.9-0.1c0.1 10.1 0.2 20.1 0.1 30.1q2.1 0 4.1 0.1c0.1-10.1 0.1-20.2 0.1-30.2q-2.2 0-4.3 0zm11.3 30.2q2.1-0.1 4.2-0.2c-0.2-7.7-0.2-15.4-0.1-23 5.2 7.8 10.3 15.6 15.7 23.2q2.1 0 4.2 0c0.1-10 0-20.1 0-30.1-1 0-3-0.2-3.9-0.2-0.4 7.6 0.1 15.2-0.3 22.8-5.8-7.2-9.8-15.8-16-22.7-0.9 0-2.7-0.1-3.7-0.1 0 10.1 0 20.2-0.1 30.3zm38.8-30.2q-6 14.9-11.2 30.2 2.2-0.1 4.5-0.1c1-3.1 2-6.1 3.3-9 4 0 7.9-0.1 11.9 0 1.1 3.1 2.2 6.2 3.6 9.2q2.3-0.1 4.6-0.3c-4-10-7.9-20-12-29.9q-2.4-0.1-4.7-0.1z"/><path class="a" d="m165.8 221.8q2.4 0.2 4.9 0.4c0 4.5-0.1 9-0.1 13.5q-2.4 0.1-4.8 0.2-0.3-7.1 0-14.1z"/><path class="a" d="m1107.3 225.8q2.4 0 4.9 0.1 0 4.9-0.1 9.8-2.4 0.1-4.9 0.2-0.2-5.1 0.1-10.1z"/><path class="a" d="m1176.5 232.6c13.5-0.4 27 0 40.5-0.2 1.7 0.1 4.5-0.6 5 1.8 0.7 5.2-0.4 10.5 0.1 15.8 0.2 4.1 0.1 8.1 0 12.2q-2.4-0.1-4.8-0.2c0.1-8.1 0.1-16.3 0-24.4-11.8 0.1-23.6-0.2-35.4 0.1l-0.4 0.6c-0.3 8 0 16-0.2 24q-2.5-0.1-5-0.2c0-9.8-0.2-19.7 0.2-29.5z"/><path class="a" d="m695.5 266.5q-0.2-12.5 0-25c8.5 0.2 17-0.1 25.5 0.1 6.4 0 11 6.3 10.5 12.4 0.5 6-4.2 12.1-10.4 12.3-8.5 0.2-17.1-0.1-25.6 0.2z"/><path class="a" d="m1188.5 259.9c0-6.1-0.1-12.2 0.1-18.3 8.8 0.1 17.7-0.1 26.5 0.1 0.1 6.7 0.1 13.5 0.1 20.2q-2.1 0.1-4.1 0.2 0-5.2 0-10.4-10.1-0.1-20.2 0.1 0 5.2 0 10.5c-1.7 0.3-2.7-0.7-2.4-2.4z"/><path class="a" d="m802.4 248.9c2.1 4.5 3.1 9.3 4.9 13.9 1.9 6.1 4.5 12.1 6.4 18.2-7.7 0.2-15.4-0.3-23.2-0.1 4-10.6 7.5-21.5 11.9-32z"/><path class="a" d="m165.6 273.7q2.5 0.1 5.1 0.1c-0.1 19.3 0.1 38.5 0 57.8q-2.5 0.1-5 0.2c-0.3-19.4 0.1-38.7-0.1-58.1z"/><path class="a" d="m1107.2 274.4q2.3 0 4.8 0.1c0.2 3.2 0.2 6.4 0 9.6q-2.4 0-4.8 0-0.1-4.8 0-9.7z"/><path class="a" d="m1217.3 281.7q2.4 0 4.9 0.1c-0.1 10.3 0.2 20.7-0.2 31-0.4 2.4-3.2 1.9-5 2-13.5-0.2-27.1 0.3-40.6-0.2-0.3-10.9-0.1-21.9-0.2-32.8q2.6-0.1 5.2-0.1c0 9.3-0.1 18.6 0 28 11.9 0.1 23.8-0.1 35.8 0 0.3-9.3 0.1-18.7 0.1-28z"/><path class="a" d="m1188.5 282.3c0.6-0.1 1.8-0.4 2.4-0.5q0 5.6 0 11.3 10.1 0 20.2 0-0.1-5.4 0-10.9 2-0.2 4-0.4c0.1 6.9 0.1 13.9-0.1 20.8-8.8 0-17.6 0.1-26.4-0.1-0.1-6.7-0.2-13.5-0.1-20.2z"/><path class="a" d="m1107.2 322.7q2.5 0 5 0c0 3.3 0 6.5-0.3 9.8q-2.3 0-4.6 0c-0.1-3.3 0-6.6-0.1-9.8z"/><path class="a" d="m165.7 370q1.6-0.3 3.2-0.6c0.4 0.3 1.2 0.7 1.7 1 0.2 3.1 0 6.2 0.1 9.3q-2.5-0.1-5.1-0.2 0-4.7 0.1-9.5z"/><path class="a" d="m1107.1 371.7q2.6 0 5.1 0.1 0 4.7 0 9.4-2.5 0.1-4.9 0.2c-0.1-3.2-0.1-6.5-0.2-9.7z"/><path class="a" d="m448.9 373.4c11.2 0.1 22.4 0.2 33.7 0-0.1 11.3 0 22.5 0 33.7-11.3 0.4-22.5 0-33.8 0.1-0.1-11.2-0.2-22.5 0.1-33.8zm6.4 6.9c0 6.8-0.1 13.6 0.1 20.4 7-0.2 13.9 0 20.9-0.1-0.1-6.8 0-13.6-0.1-20.4-6.9 0.2-13.9 0.1-20.9 0.1z"/><path class="a" d="m326 373.5c11.2-0.1 22.4 0.2 33.6-0.1 0.3 11.3 0 22.6 0.2 33.9-9.6 0-19.2-0.1-28.7-0.1-1.7-0.1-3.5 0.3-5-0.4-0.1-11.1 0-22.2-0.1-33.3zm6.4 6.9c0.1 6.7 0 13.5 0 20.3 7-0.1 14 0.1 21-0.2-0.2-6.7 0-13.4 0-20.1-7 0-14-0.1-21 0z"/><path class="a" d="m532.8 379.7c4 0 8.1-0.4 12 0.2 6.7 2 7.4 12.9 1 15.6-4.2 1.3-8.7 0.7-13 0.7-0.1-5.5 0-11 0-16.5z"/><path class="a" d="m591.9 404.2c2.4-7.2 4.3-14.6 7-21.6 2.3 7.2 4.4 14.5 6.9 21.7q-7 0-13.9-0.1z"/><path class="a" d="m165.7 418.1q2.6 0 5.1-0.1 0 4.8 0 9.5-2.6-0.1-5.2-0.3 0-4.5 0.1-9.1z"/><path class="a" d="m1107.2 420.1q2.5 0.1 5 0.2-0.1 4.6-0.1 9.2-2.4 0.1-4.9 0.2 0-4.8 0-9.6z"/><path class="a" d="m276.7 427.9c1.6-4.1 8.6-3.6 9.5 0.6 0.4 3.4 0.1 6.9 0.2 10.3-3.3 0.4-6.7 0.2-10.1 0 0.2-3.6-0.4-7.3 0.4-10.9z"/><path class="a" d="m990.5 425.4c4.5-2.3 12.4-0.5 12 5.7-0.5 6.5-9.5 7.5-13.8 4.1-3.3-2.6-2.3-8.5 1.8-9.8z"/><path class="a" d="m263.8 428.7c1.1-3.6 7.2-3.5 8.3 0.2 0.6 3.2 0.3 6.5 0.5 9.8q-4.6 0-9.2 0c0.1-3.3-0.2-6.7 0.4-10z"/><path class="a" d="m359.8 441.8c2.3 0 4.7 0.1 7 0.2q0 3.2 0.1 6.4-3.5 0-7.1 0 0-3.3 0-6.6z"/><path class="a" d="m407.7 441.8q3.3 0 6.7 0-0.1 3.3 0 6.7-3.4-0.1-6.7-0.1 0-3.3 0-6.6z"/><path class="a" d="m346.4 448.6q3.3 0 6.7 0c-0.1 9 0.2 18.1-0.2 27.1q-3.2-0.1-6.3-0.2c0-9 0-18-0.2-26.9z"/><path class="a" d="m441.8 448.8c2.3-0.1 4.5-0.2 6.7-0.3q0.1 3.2 0.1 6.4c-2.2 0.2-4.5 0.2-6.8 0.2q0-3.2 0-6.4z"/><path class="a" d="m1000.5 451.2q4.9-0.5 9.8 0c-0.6 4.6 1.5 10.2-2.1 14-2.6 2.6-7 0.2-7.3-3.1-0.4-3.6-0.2-7.3-0.4-10.9z"/><path class="a" d="m421.3 455.3c6.8-0.1 13.6 0 20.3 0.1 0 2.1 0 4.1-0.1 6.2q-3.5 0-7 0 0 3.6 0 7.1 3.6 0 7.2 0.1c0 2.2 0 4.4-0.2 6.6-4.4-0.1-8.8 0-13.2-0.1q0-3.3 0-6.6c-2.1 0.3-4.6-0.7-6.3 0.4-1.4 2-0.7 4.4-0.7 6.6q3.4-0.1 6.8-0.1 0 3.4 0 6.8c-4.5 0-9 0-13.5 0-0.1-2.3-0.1-4.6-0.1-6.9q-3.5 0-7 0c-0.1 2.3 0.1 4.5-0.3 6.8-2.1 0.2-4.2 0.1-6.3 0.1q0-3.5 0-7-3.4 0-6.8 0.1 0-3.3 0.1-6.6 3.3-0.1 6.7-0.1 0-3.5-0.1-7.1-3.5 0.1-6.9-0.1 0-3.1 0-6.1c6.8-0.2 13.6-0.2 20.5-0.1q-0.1 3.1-0.1 6.3-3.4 0.1-6.8 0.1-0.1 3.5-0.1 6.9c4.5 0 9 0.9 13.5 0.1 1.2-4.3 0.2-9 0.4-13.5z"/><path class="a" d="m448.7 455.2q3.3 0.1 6.6 0.2 0.1 3.1 0.1 6.3c-2.2 0-4.4 0.1-6.7 0.1q0-3.3 0-6.6z"/><path class="a" d="m517.8 456.3c4.3 0.3 10.1-1.3 12.7 3.2 2.7 5.2 2.5 11.7-0.2 16.8-2.7 4.2-8.4 3-12.6 3.1 0-7.7 0-15.4 0.1-23.1z"/><path class="a" d="m469.2 461.8q3.4 0 6.7 0 0.1 3.5-0.1 6.9-3.3-0.1-6.6-0.2-0.1-3.3 0-6.7z"/><path class="a" d="m165.7 466q2.5-0.1 5-0.2c0.1 3.2 0 6.4 0 9.6q-2.5 0-5-0.1-0.1-4.7 0-9.3z"/><path class="a" d="m1107.2 468.7q2.3 0 4.7 0c0.4 3 0.3 6.1 0.2 9.2q-2.5 0.1-4.9 0.2-0.1-4.7 0-9.4z"/><path class="a" d="m448.6 475.3q0-3.3 0.2-6.6c2.1 0 4.2-0.1 6.3 0.1 0.7 2.1 0.2 4.4 0.3 6.6q-3.4-0.1-6.8-0.1z"/><path class="a" d="m462.3 475.9c4.5-0.3 9-0.1 13.4-0.2q0.1 3.4 0 6.8-3.3-0.1-6.7-0.1c-0.1 2.1-0.2 4.3-0.2 6.4q-3.2 0-6.5 0 0.1-6.5 0-12.9z"/><path class="a" d="m987 482c0.6-2.3 4.5-2.6 5.2-0.1 1 2.8 1.2 5.8 1.8 8.7-4.8 1-9.1-4.2-7-8.6z"/><path class="a" d="m387.2 482.3c4.5 0.1 9.1 0.1 13.6 0.1q0 3.5 0 7 3.3 0 6.7 0.1-0.1 3.2-0.2 6.4c-8.9 0.5-17.8-0.4-26.7 0q-0.1-3.2-0.2-6.3c2.3-0.1 4.6-0.2 6.8-0.3q0-3.5 0-7z"/><path class="a" d="m435.1 482.4c6.8 0.1 13.5 0 20.3 0.1 0.1 6.7 0 13.4 0.1 20.1-6.8 0.4-13.6 0.2-20.4 0.3 0.1-6.8-0.4-13.7 0-20.5zm6.5 6.8q0 3.5 0 6.9 3.5 0 7 0.1 0-3.5 0.1-7-3.6 0-7.1 0z"/><path class="a" d="m414.6 489.4c4.4 0 8.9 0 13.4 0 0.1 2.1 0.1 4.3 0.1 6.4-4.6 0-9.1 0.1-13.6 0q0.1-3.2 0.1-6.4z"/><path class="a" d="m325.9 497.9q-0.3-2.3 2.1-1.9c10.6-0.4 21.1 0.4 31.7-0.1 0.3 11.4 0 22.7 0.1 34.1-11.2-0.5-22.5 0.5-33.7-0.2-0.2-10.6-0.1-21.2-0.2-31.9zm6.7 25.5c6.9-0.1 13.9-0.1 20.8 0 0-6.9 0-13.8 0-20.7-7-0.1-13.9 0-20.8-0.1-0.1 7-0.2 13.9 0 20.8z"/><path class="a" d="m380.5 503c4.4 0.1 8.9 0.1 13.3 0.1q0 3.2 0.1 6.4c-4.3-0.3-8.9 1.1-12.9-0.5-1.2-1.8-0.5-4-0.5-6z"/><path class="a" d="m401.2 502.9c8.9 0 17.8-0.1 26.7 0.2q0.1 3.2 0 6.5c-4.4-0.1-8.9 0-13.4 0q-0.1 3.4-0.1 6.8-3.5 0-6.9 0 0.1-3.3 0.2-6.5-3.3-0.3-6.6-0.2 0-3.4 0.1-6.8z"/><path class="a" d="m428.3 509.7c9 0.1 18.1-0.1 27.1 0q0.1 3.4 0.1 6.8c2.1 0 4.2 0 6.4-0.1 0.3 2.3 0.3 4.6 0.3 6.8q-6.7 0-13.4-0.1-0.1-3.4-0.1-6.7c-6.8-0.1-13.5-0.1-20.3-0.1q-0.1-3.3-0.1-6.6z"/><path class="a" d="m165.7 513.7q2.5 0 5-0.1c0.1 3.4 0 6.8 0.1 10.2q-2.6-0.1-5.1-0.1-0.1-5 0-10z"/><path class="a" d="m475.8 516.5q3.3 0.1 6.8 0.1-0.1 3.3-0.2 6.6-3.3 0-6.5 0c0-2.2-0.1-4.5-0.2-6.7z"/><path class="a" d="m1107.2 517.3q2.4 0 5 0c0.3 19-0.1 38.1 0.1 57.1q-2.5 0.2-5 0.3-0.2-28.7-0.1-57.4z"/><path class="a" d="m165.6 562.7q2.6-0.1 5.1-0.2c0.1 3.3 0.1 6.6-0.1 9.9q-1.9-0.3-3.7-0.4l-1.4-0.3c0.2-3 0.2-6 0.1-9z"/><path class="a" d="m582.3 607.9c0.1-7.5-0.2-15 0.1-22.4 3.6 0.1 7.2-0.3 10.7 0.3 4.5 1.6 5.9 6.9 5.7 11.2 0 4-1.4 8.9-5.4 10.5-3.6 0.7-7.4 0.2-11.1 0.4z"/><path class="a" d="m811 599.1c1.5-4.5 2.9-8.9 4.7-13.3 1.4 4.5 3.2 8.8 4.4 13.3q-4.5 0-9.1 0z"/><path class="a" d="m556 599.1c1.3-4.4 2.7-8.8 4.6-13 1.4 4.4 3.2 8.7 4.6 13.1q-4.6 0-9.2-0.1z"/><path class="a" d="m165.6 611q2.6 0 5.2 0.1c0 3.2 0 6.5 0 9.8q-2.5 0.1-5.1 0.2-0.1-5.1-0.1-10.1z"/><path class="a" d="m1107.2 613.4q2.5 0.1 5 0.2 0 4.6 0 9.2-2.5 0-5.1 0.1-0.1-4.8 0.1-9.5z"/><path class="a" d="m963.2 631.7c8.2-0.2 16.4-0.2 24.6 0.1l1.5 0.2c6.2 0.4 12.5 0.2 18.8 0.1 0.7-0.1 1.9-0.2 2.6-0.2 6.9-0.5 13.9-0.1 20.9-0.2q0 2 0 3.9c5.7 1.1 11.6 0.4 17.3 0.5-0.2 20.8 0 41.7-0.1 62.5-5.5-0.3-10.9 0-16.4-0.3-0.4 0.5-1.1 1.6-1.5 2.1-6.9 0.2-13.8-0.1-20.7 0.2-0.8 0.1-2.4 0.2-3.2 0.2q-0.3 2.9-0.5 5.8-0.1-3 0-6.1-9-0.1-17.9 0 0 3.3 0 6.7c0.1 2.9 0.3 5.8 0.5 8.8 2.4 0 4.9-0.1 7.1 0.9-2.7-0.1-5.4-0.1-8.1 0-0.1-5.5-0.5-11-0.5-16.6-7.9 0-15.8 0.3-23.7-0.1-0.1-0.4-0.5-1.1-0.7-1.5 0.5-2.5 1.2-5.1 1.1-7.7-0.2-13.7 0.2-27.4 0-41-0.2-4.8 0.7-9.7-1.1-14.3q0-2 0-4zm28.1 4.6c-9.9 2.8-18.9 9.9-22.3 19.8-3.2 6.4-3 14.2 0.1 20.6 3 9.2 10.9 16.3 20.2 19 12.5 2.7 27.4-1.8 33.9-13.6 4.2-5.8 4.9-13.1 4.3-20.1-2.2-16.5-19.6-29.8-36.2-25.7zm40.1 1.1c0.4 18.9 0 37.8 0.2 56.7 0 0.8 0 2.5-0.1 3.4 5.5 0 11 0.1 16.4-0.1 0.2-20.1 0.1-40.3 0.1-60.5-5.5 0.3-11.2-0.7-16.6 0.5z"/><path class="a" d="m991.6 642.3c4.9 0 10.2-1 14.8 1.2 9 3.1 15 12.2 15.9 21.5 0.6 10.4-6.3 20.5-15.9 24.4-3.6 0.4-7.2 1.4-10.8 1.3-2.3-1.5-5.3-0.4-7.8-1.5-7.2-3.4-13.2-10.1-14.4-18.1-0.3-4.9-0.7-10 1.3-14.5 3-7.1 9.4-12.6 16.9-14.3zm2.8 15.7c-1.4 1.4-3 2.8-4.6 4.1-0.2 2.8-1 5.9 0.6 8.5 2.1 3.8 7.4 4.9 11.1 3 4-2.1 4.8-7.4 3.4-11.3-2.3-3.5-6.5-5.2-10.5-4.3z"/><path class="a" d="m165.4 659.5q2.7-0.1 5.3-0.2c0.1 22.6 0 45.3 0 68 32 0.3 64 0 96 0.1q0.1 2.4 0.1 4.9c-32.6 0.2-65.2-0.1-97.8 0.2-2 0.3-3.8-1.5-3.5-3.5 0.1-23.2 0.3-46.4-0.1-69.5z"/><path class="a" d="m1107.2 662q2.5 0.1 5.1 0.1c-0.1 19 0 37.9-0.1 56.9-1.1 2.4-3.4 4.1-5 6.2 0-21.1-0.1-42.1 0-63.2z"/><path class="a" d="m305.3 727.5c3.6 0 7.3-0.1 11 0.3q-0.2 2.3-0.4 4.7c-3.6-0.1-7.1-0.1-10.7-0.1q0-2.5 0-4.9z"/><path class="a" d="m354.4 727.6q5.2-0.1 10.4 0 0 2.4 0 4.7c-3.4 0-6.9 0-10.3 0q-0.1-2.4-0.1-4.7z"/><path class="a" d="m547.4 727.5c3.5 0 7 0 10.6 0.2q0.1 2.3 0.2 4.6c-3.6 0.1-7.1 0.1-10.7 0.1q0-2.5-0.1-4.9z"/><path class="a" d="m790.1 727.4q5.4 0.1 10.8 0.1 0.1 2.4 0.3 4.9-5.7 0.1-11.4-0.1 0.1-2.4 0.3-4.9z"/><path class="a" d="m887.8 727.6c26.4-0.5 52.8 0 79.2-0.2 46.3 0.1 92.5-0.2 138.8 0.2q-1.5 2.3-3 4.7-107.5 0.2-214.9 0-0.1-2.4-0.1-4.7z"/><path class="a" d="m403.2 727.5c3.3 0 6.6 0.1 9.9 0.3q0 2.2 0 4.4-5 0.2-9.8 0.1-0.1-2.4-0.1-4.8z"/><path class="a" d="m451.3 727.5c3.3 0 6.6 0 10 0.2q0 2.3 0 4.6c-3.3 0.1-6.6 0.1-9.9 0.1q-0.1-2.5-0.1-4.9z"/><path class="a" d="m499.6 732.4q-0.1-2.4-0.1-4.8c3.2 0 6.4 0 9.6 0.1q0 2.3 0.1 4.6c-3.2 0.1-6.5 0.1-9.6 0.1z"/><path class="a" d="m596.6 727.6q4.6-0.1 9.2 0 0 2.4-0.1 4.8-4.5-0.1-9.1-0.1 0-2.4 0-4.7z"/><path class="a" d="m644.3 727.6q5 0 10.1 0.1 0 2.3 0 4.6c-3.4 0-6.8 0-10.1 0.1q0-2.4 0-4.8z"/><path class="a" d="m692.8 727.6q5 0 10 0-0.1 2.4-0.1 4.8-5 0-9.9 0 0-2.4 0-4.8z"/><path class="a" d="m741 727.6q5.3-0.1 10.6 0-0.1 2.4-0.1 4.8-5.2 0-10.3 0-0.1-2.4-0.2-4.8z"/><path class="a" d="m839.8 727.6q4.7-0.1 9.3-0.1 0 2.5 0 4.9c-3.1 0-6.2 0-9.3-0.1q0-2.3 0-4.7z"/><path class="b" d="m27.4 25.1c75.9-0.1 151.8 0.1 227.6-0.2 17 0.2 34 0.2 50.9 0.2 14.4-0.8 28.7 0.5 43.1-0.3 15.7 0.5 31.4 0.2 47 0.3 19-0.3 38 0.1 57 0 18.7-0.5 37.4 0.4 56-0.3 31 0.8 62-0.3 93 0.3 34.6-0.1 69.4 0.1 104-0.2 8.4 0.6 16.7-0.5 25 0.2 47 0 94-0.1 141 0 12.7-0.6 25.3 0.4 38-0.2 66.3 0.4 132.7 0.1 199 0.2 22-0.4 44 0.4 66-0.3 20.1 0.4 40.2 0.5 60.3 0 0.2 268.3 0 536.5 0.1 804.8-3.7 0.8-7.6 0.4-11.4 0.5-394.7 0-789.4 0-1184 0-4.2 0-8.4 0.1-12.5-0.4 0.2-96.6-0.3-193.1-0.1-289.7-0.1-113.7 0-227.3-0.1-341 0.2-58 0.1-116 0.1-173.9zm70.2 21.6c-12.5 3.3-24.4 10.2-31.9 20.9-7.1 9.2-10.5 20.9-10.5 32.4-0.4 14 5.7 27.6 15 37.8 10.3 10.8 25.1 16.2 39.8 17.1 7.2-0.6 14.3-2.1 21-4.8 15-5.6 26-19.2 30.8-34.2 3.9-12.9 2.9-27.4-3.1-39.6-4.4-8.7-10.5-16.9-19-22-12.4-7.8-27.8-10.7-42.1-7.6zm1014.5 15.4c-8.6 9.1-14.5 21.2-14.9 33.9-0.3 8-0.1 16.5 3.6 23.8 8.8 25.5 39.2 40.2 64.9 32.7 13.1-3.6 25-12 32-23.8 8.7-13.9 10.6-31.9 4.8-47.3-4.2-11-11.8-20.7-21.6-27.2-11.4-7.2-25.5-10.3-38.8-7.8-11.2 2.2-22.2 7.1-30 15.7zm-743.2 33.5c0.1 8.3-0.1 16.5 0 24.8q2.5 0.1 4.9 0.1c0.8 2.6 1.1 5.5 3 7.7 4.6 5.7 13.9 6.8 19.6 2.1 3.3-2.3 4.8-6.1 5.9-9.8 0.6 0 2-0.1 2.7-0.1 0.3-8.2 0-16.5 0.1-24.7-12.1-0.1-24.1-0.1-36.2-0.1zm49.1 0.1c-0.2 8.2 0.3 16.4 0.6 24.6q1.5 0.1 3.1 0.3c1 7.3 7.8 13.3 15.3 12.6 6.9-0.3 12.4-6.2 13.4-12.8q1.7 0 3.3-0.1c0.6-8.2 0.3-16.4 0.3-24.6-12-0.1-24-0.2-36 0zm49 0c0 8.2 0 16.3-0.1 24.4 1.3 0.5 3.7 0.1 3.7 2.1 1 5.8 6.5 10.5 12.4 11 7.5 0.9 14.9-5.1 15.7-12.6q1.9-0.2 3.8-0.4c0.3-8.1 0.8-16.3 0.5-24.5-12-0.2-24-0.1-36 0zm48.9 0c-0.1 8.1 0 16.3 0 24.5 0.7 0.1 2.1 0.2 2.8 0.2 0.9 6.6 6.4 12.3 13.2 12.7 7.5 0.7 14.3-5.2 15.5-12.4 1.9-0.4 3.7-0.8 5.5-1.3l0.6 0.8c3 0.1 5.9 0 8.9 0.1-0.1-1.1 0.1-2.6-1.5-2.2-2.8 0-5.8-0.4-8.5 0.5l-0.6-0.6c0.2-7.4 0.4-14.8 0.2-22.2-12-0.3-24.1-0.2-36.1-0.1zm48-0.1c0 8.2-0.2 16.5 0.2 24.6 0.7 0.1 1.9 0.2 2.6 0.3 0.7 6 5.3 11.2 11.3 12.4 8 1.8 16.4-4.3 17.4-12.3 1.7-0.1 3.3-0.4 4.8-1.3-0.1-7.9-1-15.7-0.6-23.6-11.9-0.1-23.8-0.1-35.7-0.1zm47.7 0c-0.1 8.2-0.2 16.5 0 24.7 1.4 0.4 4.1-0.4 3.9 1.8 1 5.9 6.4 10.3 12.1 11.2 7.6 0.9 15.1-5 15.8-12.7 1.9-0.3 3.7-0.8 5.6-1.2l0.8 0.9q4.5 0 8.9 0.1c-0.1-0.6-0.3-1.9-0.4-2.5-3.3 0.2-6.8-0.5-10 0.8l-0.6-0.7c0.1-7.4 0.6-14.8 0.1-22.2-12.1-0.3-24.2-0.1-36.2-0.2zm48.3 0.1c0 8.1 0.1 16.3 0 24.4 1.3 0.5 3.7 0 3.7 2 1.1 5.5 5.7 9.8 11 11.1 7.9 1.6 16.4-4.5 17-12.7q1.9-0.2 3.9-0.4c0.7-8.1 0.6-16.2 0.5-24.3-12-0.3-24-0.1-36.1-0.1zm47.6 0c-0.2 8.2-0.1 16.4 0.1 24.6q1.9 0.1 3.9 0.2c0.4 8.9 10.8 15.4 18.9 11.8 4.9-1.6 8.1-6.2 9.1-11q1.5-0.5 3.1-1c1.1-8.1 0.2-16.4 0.5-24.6-11.9-0.1-23.7-0.1-35.6 0zm49.1-0.1c-0.1 8.2-0.1 16.5 0.1 24.7 0.8 0 2.3 0.1 3 0.2 1.3 4.9 4.1 9.8 9.2 11.7 8.3 3.7 18.7-2.8 19.6-11.8q1.8 0 3.7-0.1c0.4-8.2 0.2-16.4 0.2-24.6q-17.9 0-35.8-0.1zm49.2 0c0.1 8.2-0.1 16.3 0.2 24.4 2.6 0.6 2.7 3.4 3.7 5.3 2.6 5.7 9.1 8.9 15.2 8 5.9-1.7 11.4-6.3 11.5-12.9 1.6-0.3 3.9 0.5 5-0.8 0.7-7.9 0.7-15.9 0.6-23.8-12-0.3-24.1-0.2-36.2-0.2zm47.7 0c0.1 8.3-0.4 16.7 0.2 25 0.8 0 2.4 0.2 3.1 0.3 0.8 5.2 4.3 10 9.3 11.6 8.3 3.2 18.5-3 19-12 0.8 0 2.4 0 3.2 0.1 0.5-1.6 0.9-3.1 0.9-4.8q0.1-10 0-20.1c-11.9-0.1-23.8 0-35.7-0.1zm47.9 0c-0.1 8.3-0.2 16.5 0.2 24.8 0.7 0 2.2 0.1 2.9 0.1 1.1 9 11.5 15.9 19.8 11.7 5.1-1.9 7.9-6.7 9-11.7q1.7-0.2 3.3-0.3c0.8-8.1 0.3-16.3 0.5-24.5-11.9-0.1-23.8-0.1-35.7-0.1zm49.6 0.1c0 8.4-0.1 16.8 0 25.2 0.6 0.1 1.8 0.2 2.3 0.3 0.3 6.2 5.8 11.1 11.7 11.9 7.5 1.2 16.3-4.5 15.9-12.6q2.7-0.1 5.4-0.3c1.4-8.1 0.5-16.3 0.8-24.5-12.1-0.1-24.1-0.1-36.1 0zm-60.9 22.4c0.1 0.6 0.2 1.7 0.2 2.3 3.2-0.1 6.3-0.1 9.4 0q0.1-1.3 0.2-2.5c-3.3 0-6.5 0-9.8 0.2zm-724 0.2c-0.7 3.9-0.3 7.8-0.4 11.7 0 17.8-0.1 35.5 0 53.3q2.4 0.1 4.9 0.2c0.2-19.9-0.1-39.8 0.1-59.7 0.8 0 2.3-0.1 3.1-0.1q0.4-1.6 0.7-3.3c64.6-0.3 129.3 0.1 193.9-0.1-0.1-0.5-0.4-1.5-0.6-2-59.6-0.2-119.2 0-178.8-0.1-7.6-0.3-15.2 0.1-22.9 0.1zm239.4 0.6c3.2 2.6 7.6 1 11.4 1.3 0-0.5 0-1.5 0-2-3.8-0.4-7.9-1-11.4 0.7zm49.1 0c3.1 2.6 7.5 0.9 11.2 1.4-0.1-0.6-0.3-1.8-0.4-2.4-3.6 0.2-7.5-0.9-10.8 1zm49.6-1c0 0.5 0 1.4 0.1 1.8 3.2 1.1 6.7 0.2 10.1 0.5-0.1-0.6-0.2-1.7-0.3-2.3-3.3-0.2-6.6-0.2-9.9 0zm96.8 0.2c0 0.5-0.2 1.6-0.3 2.1 3.1 0.1 6.2 0.2 9.3 0 0-0.5 0.1-1.5 0.1-2.1-3-0.3-6.1-0.4-9.1 0zm96.1 0.1c0 0.5 0 1.5-0.1 2.1 2.8 0 5.7 0.1 8.5 0 0.1-0.4 0.5-1 0.7-1.4-2.2-1.9-6.2-0.8-9.1-0.7zm46.7 0.5c2.9 3.1 7.7 1 11.5 1.6-0.1-0.5-0.2-1.6-0.3-2.1-3.7 0-7.7-0.9-11.2 0.5zm49 0.1c1.4 2.2 4 1.4 6.2 1.5 2.2-0.1 4.8 0.7 6.3-1.4-3.8-1.7-8.5-1.4-12.5-0.1zm49.8 0l0.2 1.1c2.6 1.2 6 0.1 8.9 0.5 0.1-0.6 0.1-1.7 0.2-2.3-3.1 0.4-6.6-0.7-9.3 0.7zm95.7-0.5c-0.1 0.5-0.1 1.5-0.2 1.9 3.9 0.3 7.7 0.1 11.5 0.2 0-0.7-0.1-1.9-0.2-2.6-3.7 0-7.4 0.1-11.1 0.5zm49.6-0.1c-0.1 0.5-0.3 1.6-0.4 2.1 37.2 0 74.4-0.2 111.6 0.2 0.1-0.6 0.3-1.7 0.4-2.2-11.8-0.2-23.7-0.1-35.5-0.1-25.4 0.1-50.7-0.8-76.1 0zm-717.6 12.7c-0.1 7.3 0 14.8-0.1 22.1-5.4-0.4-10.8 0.4-16.1-0.7l1.1-1c-7.9 0.1-15.9 0.1-23.9 0 0 21 0 41.9 0 62.9 7.1 0 14.1 0 21.2 0-0.1 2.3 0.2 4.7 0.3 7 5.9 0.6 11.7 0.2 17.6 0.3 0 3.7-0.5 7.4 0.4 10.9 7.4-0.3 14.9 0 22.4-0.2q0-2 0.1-3.9c0.7 0 2.1 0 2.8 0q0.1-3.3 0.1-6.7c8.3-0.1 16.7 0.2 25-0.3 0.1-2.4 0.1-4.8 0.3-7.2 3.4 0.1 6.9 0.1 10.4 0 0.1-20.6-0.2-41.3 0.1-61.9l-0.3 0.1c-6.6-0.2-13.1-0.1-19.7-0.1-4.9 1.8-10.3 0.6-15.5 0.9-0.1-2.2-0.2-4.4-0.5-6.6l0.2-0.4c-0.9-0.1-2.6-0.3-3.5-0.4-0.1-4.9-0.1-9.9-0.1-14.8q-11.2 0-22.3 0zm837 3c-0.2 17.8 0 35.7-0.1 53.5q2.4 0 5-0.1c0-15.1 0-30.2 0.1-45.2 0.4-3.7-2.8-5.9-5-8.2zm-731.4 12c0 36.9 0.1 73.8-0.1 110.7-58-0.2-116.1-0.1-174.1 0 0.3 147.1-0.1 294.3 0.2 441.4 234.1 0 468.2 0 702.3 0 0.4-32.5 0.3-65.1 0.2-97.7 56.9-0.1 113.8 0 170.7-0.1 0.1-151.5 0.2-302.9 0-454.3-18.7-0.2-37.4 0-56.1-0.1-214.4 0.1-428.7 0-643.1 0.1zm-348.3 20.2c0 172.4 0.1 344.7 0 517 21.5-0.2 42.9 0 64.4-0.2 11.7 0.5 23.3-0.3 35 0.2 2.1 0.2 4.1-1.1 3.6-3.3 0-171.1 0.1-342.3 0-513.3-34.3-0.4-68.6 0.1-103-0.4zm120.3 18.6q-0.1 18.2-0.1 36.4c6.4 0.1 12.8-0.3 19.2 0.2 2.6 0.2 5.1-0.2 7.6-0.5q0.2-1.7 0.4-3.4c5.7-0.5 10.7-4.8 12-10.3 2.4-8.1-3.9-17-12.2-17.8q-0.1-2.3-0.1-4.7c-8.9 0.1-17.9 0-26.8 0.1zm952.5 4.1q-0.3 1.7-0.6 3.4c-6.7 0.2-12.5 6.2-13 12.8-0.8 7.7 5.5 15.3 13.4 15.5q0 2 0 4.1c8.7-0.1 17.3 0.4 26 0-0.1-12-0.1-24 0-36-8.6-0.1-17.2 0.1-25.8 0.2zm-934.6 33q-0.3 7 0 14.1 2.4-0.1 4.8-0.2c0-4.5 0.1-9 0.1-13.5q-2.5-0.2-4.9-0.4zm941.5 4q-0.3 5-0.1 10.1 2.5-0.1 4.9-0.2 0.1-4.9 0.1-9.8-2.5-0.1-4.9-0.1zm69.2 6.8c-0.4 9.8-0.2 19.7-0.2 29.5q2.5 0.1 5.1 0.2c0.1-8-0.2-16 0.1-24l0.4-0.6c11.8-0.3 23.6 0 35.4-0.1 0.1 8.1 0.1 16.3 0 24.4q2.4 0.1 4.8 0.2c0.1-4.1 0.2-8.1 0-12.2-0.5-5.3 0.6-10.6-0.1-15.8-0.5-2.3-3.3-1.7-5-1.8-13.5 0.2-27-0.2-40.5 0.2zm-1028.7 4.3q0 18.1 0 36.2c9 0.2 18-0.5 27.1-0.3-0.1-2.4 0-4.8 0.2-7.1 9-0.4 15-11 11.2-19-2.2-5.6-7.9-8.1-13.2-9.8-8.4-0.2-16.8 0.1-25.3 0zm952.6 0.5q-0.3 1.7-0.5 3.4c-5.6 0.5-10.6 4.2-12.4 9.5-3.3 8.4 3.5 18.4 12.4 18.9q0 2 0.1 3.9c8.7 0.2 17.4 0.1 26.1 0.1q0-18.1 0-36.2c-8.5 0-17.1-0.2-25.7 0.4zm88.1 22.5c-0.3 1.7 0.7 2.7 2.4 2.4 0.2 6.5 0.1 13 0 19.5-0.6 0.1-1.8 0.4-2.4 0.5-0.1 6.7 0 13.5 0.1 20.2 8.8 0.2 17.6 0.1 26.4 0.1 0.2-6.9 0.2-13.9 0.1-20.8-1.5-0.1-3-0.2-4.4-0.3-0.1-6.4 0.4-12.9 0.4-19.4q2-0.1 4.1-0.2c0-6.7 0-13.5-0.1-20.2-8.8-0.2-17.7 0-26.5-0.1-0.2 6.1-0.1 12.2-0.1 18.3zm-1022.9 13.8c0.2 19.4-0.2 38.7 0.1 58.1q2.5-0.1 5-0.2c0.1-19.3-0.1-38.5 0-57.8q-2.6 0-5.1-0.1zm941.6 0.7q-0.1 4.9 0 9.7 2.4 0 4.8 0c0.2-3.2 0.2-6.4 0-9.6q-2.5-0.1-4.8-0.1zm110.1 7.3c0 9.3 0.2 18.7-0.1 28-12-0.1-23.9 0.1-35.8 0-0.1-9.4 0-18.7 0-28q-2.6 0-5.2 0.1c0.1 10.9-0.1 21.9 0.2 32.8 13.5 0.5 27.1 0 40.7 0.2 1.7-0.1 4.5 0.4 4.9-2 0.4-10.3 0.1-20.7 0.2-31q-2.5-0.1-4.9-0.1zm-116.9 4.2q-0.3 1.7-0.6 3.5c-9.3 0.2-16 11.4-11.8 19.6 1.9 4.9 6.7 8.2 11.9 8.4q0 1.9 0.1 3.9c8.7 0.1 17.4 0.2 26.1 0.1 0-11.9 0-23.8 0.1-35.8-8.6 0.1-17.2-0.2-25.8 0.3zm6.8 36.8c0.1 3.3 0 6.5 0.1 9.8q2.3 0 4.6 0c0.3-3.3 0.3-6.5 0.3-9.8q-2.5 0-5 0zm-959.4 10c0 12 0.2 24-0.1 36 9.1 0.1 18.1-0.2 27.2-0.2q0-2.6-0.1-5.2c2.8-0.9 5.7-1.6 7.9-3.6 5.1-4.4 6.3-12.5 2.6-18.1-2.1-3.6-6-5.6-9.9-6.9-0.1-0.4-0.4-1.3-0.5-1.8-9-0.3-18-0.1-27.1-0.2zm952.6 1.3c0 0.8-0.1 2.4-0.1 3.3-2.6 0.6-5.3 1-7.4 2.6-5.9 4.1-8 13-4 19.2 2.2 4.1 6.7 6.1 11.1 6.9q-0.1 2.1 0 4.2c8.7 0 17.4 0.4 26.2 0.2-0.1-12.2-0.1-24.3-0.1-36.5-8.5-0.3-17.1 0.4-25.7 0.1zm-934.7 36q-0.1 4.8-0.1 9.5 2.6 0.1 5.1 0.2c-0.1-3.1 0.1-6.2-0.1-9.3-0.5-0.3-1.3-0.7-1.7-0.9q-1.6 0.2-3.2 0.5zm941.4 1.7c0.1 3.3 0.1 6.5 0.2 9.7q2.4-0.1 4.9-0.2 0-4.7 0-9.4-2.5-0.1-5.1-0.1zm-959.3 8.9c0.1 12-0.1 24 0 36 9.1-0.7 18.2 1.8 27.2-0.2q0.1-2.6 0.1-5.1c7.5-0.7 13.2-7.9 12.3-15.3-0.4-6.7-6-11.5-12-13.3-0.1-0.5-0.4-1.4-0.5-1.9-9-0.1-18 0-27.1-0.2zm952.5 2.2c0 0.8-0.2 2.3-0.2 3-5.6 0.6-10.7 4.5-12.4 9.9-3.2 8.2 3.4 18.1 12.2 18.6q0 2.2 0 4.5c8.8 0.3 17.5 0.3 26.2 0.3 0-12.2 0-24.3 0-36.4q-12.9 0.1-25.8 0.1zm-934.6 35.3q-0.1 4.6-0.1 9.1 2.6 0.2 5.2 0.3 0-4.7 0-9.4-2.5 0-5.1 0zm941.5 2q0 4.8 0.1 9.6 2.4-0.1 4.8-0.2 0-4.6 0.1-9.2-2.5-0.1-5-0.2zm-959.4 8.4c0 12 0.1 24-0.1 36 9.2-0.1 18.3 0.1 27.4-0.3q0-2.4 0.1-4.8c8.2-0.7 14.3-9.6 11.8-17.5-1.5-5.9-6.9-9.8-12.6-11.1q0.5-1.3 1-2.6c-9.2 0.9-18.4 0.1-27.6 0.3zm952.9 2.5c-0.5 1.2 0.1 3.4-1.8 3.4-7.3 0.9-12.8 8.4-12 15.6 0.7 6.6 6.3 12.1 13 12.5q0 2.3 0.2 4.6c8.6 0.1 17.3 0.3 26 0.2 0-12.1 0-24.3 0-36.4q-12.7 0-25.4 0.1zm-935 35q-0.1 4.6 0 9.3 2.5 0.1 5 0.2c0-3.3 0.1-6.5 0-9.7q-2.5 0.1-5 0.2zm941.5 2.7q-0.1 4.7 0 9.4 2.4-0.1 4.9-0.2c0.1-3.1 0.2-6.2-0.2-9.2q-2.4 0-4.7 0zm-959.4 7.7c0.1 11.9-0.1 23.8 0 35.7 9.1 0 18.2 0.2 27.3 0q0-2.4 0.1-4.7c2.5-0.6 5.1-1.4 7.1-3.1 5.6-4.2 6.7-12.8 2.9-18.6-2.2-3.9-6.6-6-10.9-6.9 0.3-0.6 0.9-1.7 1.1-2.2-9.2-0.1-18.4-0.2-27.6-0.2zm952.7 3.1c0 0.7-0.1 2.2-0.1 2.9-6.5 0.2-12.1 5.3-13.2 11.6-1.9 7.9 4.6 16.3 12.7 16.7q0.4 2.7 0.6 5.4c8.5-0.5 17.1 0.2 25.6 0 0-12.2-0.1-24.5 0.1-36.7-8.6-0.3-17.2 0.1-25.7 0.1zm-934.8 34.2q-0.1 5 0 10 2.5 0 5.1 0.1c-0.1-3.4 0-6.8-0.1-10.2q-2.5 0.1-5 0.1zm941.5 3.6q-0.1 28.7 0.1 57.4 2.5-0.1 5-0.3c-0.2-19 0.2-38.1-0.1-57.1q-2.6 0-5 0zm-959.4 7.6c0 12.1 0 24.2-0.1 36.3 9.1 0 18.2 0 27.3-0.1q0.1-2.3 0.1-4.6c4.1-1 8.2-3.1 10.4-6.9 2.7-4.7 2.7-11.1-0.6-15.4-2.3-3.3-5.9-5.6-9.8-6.3 0-0.7 0.1-2.2 0.1-2.9-9.1-0.2-18.3 0-27.4-0.1zm17.8 37.8c0.1 3 0.1 6-0.1 9l1.4 0.3c-6.1 2.2-12.8 0.4-19.1 1 0 12.3-0.1 24.7 0 37 9-0.5 18.1 1 27-0.5q0.2-2.6 0.4-5.1c6.7-0.5 12.3-6.6 12.3-13.4 0.4-7.2-5.2-14.1-12.4-15.1 0-0.7 0-2 0-2.7q-2.3-0.4-4.5-0.8c0.2-3.3 0.2-6.6 0.1-9.9q-2.5 0.1-5.1 0.2zm934.4 13.2c0 0.6-0.1 2-0.2 2.7-8.4 0.7-15.1 9.8-12.3 18 1.5 5.9 6.9 9.7 12.6 10.6q0.1 2.5 0.1 5c8.6-0.1 17.3 0 25.9 0q0-18.2 0-36.3c-8.7 0-17.4 0.3-26.1 0zm-934.4 35.1q0 5 0.1 10.1 2.6-0.1 5.1-0.2c0-3.3 0-6.6 0-9.8q-2.6-0.1-5.2-0.1zm941.6 2.4q-0.2 4.7-0.1 9.5 2.6-0.1 5.2-0.1-0.1-4.6-0.1-9.2-2.5-0.1-5-0.2zm-119.5 1.9c-0.1 5.5-0.1 11 0.1 16.5-8.2-0.3-16.4-0.3-24.6-0.1q0 2 0 4c-4.8 0.2-9.6 0-14.4 0.1 0 21-0.1 41.9 0 62.9q7.2 0 14.4 0c0.2 0.4 0.6 1.2 0.7 1.5 7.9 0.4 15.9 0.1 23.7 0.2 0 5.5 0.4 11 0.5 16.5 2.7-0.1 5.4-0.1 8.1 0l0.9 0.3c4.4 0.2 8.9 0.1 13.4 0.1 0-5.5 0.1-11.1-0.3-16.7 6.9-0.3 13.8 0 20.7-0.2 0.4-0.5 1.1-1.6 1.5-2.1 5.5 0.3 10.9 0 16.4 0.3 0.1-20.8-0.1-41.7 0.1-62.5-5.7-0.1-11.6 0.6-17.3-0.5q0-1.9 0-3.9c-7 0.1-14-0.3-20.9 0.2-0.3-5.5-0.1-11.1-0.1-16.6-7.7 0.2-15.3 0.1-22.9 0zm-839.9 6.5c0 12.2 0 24.3 0 36.4 9.1 0.1 18.2 0 27.3-0.1q0-2.4 0.1-4.8c6.1-0.6 11.4-5.5 12.1-11.7 1.5-7.8-4.7-15.4-12.2-16.8 0-0.7 0-2.1 0-2.8-9.1-0.5-18.2 0.2-27.3-0.2zm952.6 2.6q-0.4 1.5-0.7 3c-5.4 0.4-10.2 4.1-12 9.2-3.6 8.3 3.1 18.7 12.1 19.1q0.2 2.6 0.4 5.3c8.6 0.2 17.3 0 25.9 0q0-18.4 0-36.9-12.9 0.3-25.7 0.3zm-935 35.1c0.4 23.1 0.2 46.3 0.1 69.5-0.3 2 1.5 3.8 3.5 3.5 32.6-0.3 65.2 0 97.8-0.2q0-2.5-0.1-4.9c-32-0.1-64 0.2-96-0.1 0-22.7 0.1-45.4 0-68q-2.7 0.1-5.3 0.2zm941.8 2.5c-0.1 21.1 0 42.1 0 63.2 1.6-2.1 3.9-3.8 5-6.2 0.1-19 0.1-37.9 0.1-56.9q-2.6 0-5.1-0.1zm-1006.1 43.1c-9.3 1.5-18.2 5.5-25.7 11.2-12.3 10.1-20.3 25.6-20 41.6-0.7 12.7 4.1 25.1 11.7 35.1 7.9 10.6 20.3 17 33 19.7 20.1 3.6 41.9-5.2 53.6-21.9 8.4-11.1 11.9-25.7 9.7-39.4-1.9-14.9-10.6-28.5-22.6-37.1-11.5-7.8-25.9-11.3-39.7-9.2zm1042 0.2c-14.5 2.4-28.3 10.7-36.3 23.2-11 15-13 35.9-5 52.6 6.1 13.7 17.9 24.6 32.1 29.3 20.9 7.7 46.4 0.2 60-17.4 12.2-14.9 15.3-36.4 8.1-54-4.8-11.5-13-22-24.3-27.7-10.5-5.7-22.8-8.2-34.5-6zm-870.4 18q-2 0-4.1 0.1c-0.1 7.9-0.3 15.7 0 23.6q17.7 0 35.3 0c0.2-7.8-0.7-15.7 0.1-23.5-0.7 0-2.1 0-2.8 0-1-5.3-4.1-10.6-9.4-12.4-8.3-3.6-18.8 3.2-19.1 12.2zm48.7-0.4q-1.8 0.1-3.7 0.2 0 11.9 0.1 23.9 17.6 0 35.2 0c0.2-7.7-0.2-15.5 0-23.2-1.4-0.4-3.9 0.3-3.9-1.9-1-6.6-7.4-11.9-14.2-11.6-6.9 0-12.8 5.8-13.5 12.6zm96.3 0.7c-0.8 0-2.4-0.1-3.2-0.1 0.1 7.8-0.3 15.7 0 23.5 11.9 0 23.7 0.3 35.5-0.3 0.1-7.9 0-15.8 0-23.7q-2 0-3.9 0c-0.8-7.4-7.7-13.5-15.2-12.8-6.9 0.7-12.4 6.6-13.2 13.4zm48.6-0.1q-1.8 0-3.6 0.1c0.1 7.8-0.2 15.6 0 23.4 11.8 0 23.6 0.1 35.4 0 0.2-7.8-0.2-15.7-0.1-23.5q-1.9-0.1-3.8 0c-0.4-5.9-4.5-11.1-10.2-12.7-8.1-2.8-17.9 4-17.7 12.7zm96.8-0.2c-0.8 0-2.5 0-3.4 0-0.2 7.8-0.1 15.7 0 23.5 11.8 0.5 23.6 0.2 35.4 0.2 0.3-8 0.1-16-0.1-24q-1.9-0.1-3.8-0.1c-0.4-6.8-6.8-12.2-13.4-12.8-7.3 0-13.9 5.9-14.7 13.2zm47.5 0.4c-0.8-0.1-2.3-0.2-3.1-0.3-0.2 7.7 0 15.5-0.1 23.2 11.9 0.1 23.7 0.2 35.6 0 0-7.9 0.1-15.8-0.1-23.6q-1.9-0.1-3.8-0.1c-0.6-8-9.2-14.4-17-12.3-6.3 1.3-10.7 6.9-11.5 13.1zm49.3-0.7q-2.1 0-4.2 0c0 8-0.1 16 0.1 24q17.7 0.1 35.5 0c0.3-7.8 0-15.6 0-23.4-0.8 0-2.4 0-3.2 0-0.9-5.6-4.5-11-10.1-12.7-8.1-2.9-17.6 3.5-18.1 12.1zm57.8-12c-5.7 1.5-9.2 7-10 12.6q-1.9-0.1-3.9-0.1c-0.1 7.7 0 15.4 0 23.1q6.6 0.1 13.1 0.4c7.7 0.4 15.3-0.5 23-0.4 0-7.6 0.3-15.2 0-22.8q-1.8-0.2-3.6-0.3c-0.7-8.7-10.2-15.7-18.6-12.5zm48.3 0.2c-5.4 1.7-8.7 6.9-9.2 12.4q-2 0-4 0c0 7.8 0 15.6 0.1 23.4 11.8 0.3 23.6-0.2 35.4-0.2 0.2-7.8 0-15.5 0.2-23.3-0.8 0-2.5 0.1-3.3 0.2-0.7-9-10.6-16.1-19.2-12.5zm39.5 12.4c-0.7 0-2.2 0-2.9 0 0 7.8-0.1 15.6 0.1 23.4 11.8 0 23.7 0.1 35.5 0 0.2-7.7-0.1-15.4 0-23.1q-2.4-0.2-4.8-0.3c-0.1-6.4-5.3-12.1-11.6-13.2-7.9-1.5-16.2 5-16.3 13.2zm57.6-12.3c-5.4 1.7-8.9 6.9-9.5 12.4-0.8 0-2.4-0.1-3.1-0.1-0.1 7.8-0.3 15.6 0 23.4 11.8 0 23.7 0.1 35.5 0 0.1-8 0.1-16 0-24q-2 0-3.9 0c-0.9-8.9-10.8-14.9-19-11.7zm-493.5 12.3c-0.8 0-2.3-0.1-3.1-0.1 0 7.9-0.2 15.7 0 23.5 11.8 0 23.7 0 35.5 0 0-8 0.1-15.9-0.1-23.9q-2.2-0.1-4.3-0.3c-0.5-8.7-10.6-14.9-18.6-11.6-5.4 1.7-8.7 7-9.4 12.4zm144.8-0.1q-1.9 0.1-3.7 0.2c0 7.7-0.4 15.5 0 23.3 11.8 0 23.5 0.2 35.3-0.2 0.1-8-0.2-15.9 0-23.8q-1.9-0.1-3.8-0.1c-0.3-7.1-7.2-13-14.3-12.4-7 0-13.5 5.9-13.5 13zm-209.3 4q0 2.4 0 4.9c3.6 0 7.1 0 10.6 0.1q0.3-2.4 0.5-4.7c-3.7-0.4-7.4-0.3-11.1-0.3zm49.2 0.1q0 2.3 0.1 4.7c3.4 0 6.8 0 10.3 0q0-2.3 0-4.7-5.2-0.1-10.4 0zm193-0.1q0.1 2.4 0.1 4.9c3.6 0 7.1 0 10.6-0.1q0-2.3-0.1-4.6c-3.6-0.2-7.1-0.2-10.6-0.2zm242.7-0.1q-0.2 2.5-0.3 4.9 5.7 0.2 11.4 0.1-0.2-2.5-0.3-4.9-5.4 0-10.8-0.1zm97.7 0.2q0 2.3 0 4.7 107.5 0.2 215 0 1.5-2.4 3-4.7c-46.3-0.4-92.6-0.1-138.8-0.2-26.4 0.2-52.8-0.3-79.2 0.2zm-484.6-0.1q0 2.4 0 4.8 4.9 0.1 9.8-0.1 0.1-2.2 0.1-4.4c-3.3-0.2-6.6-0.3-9.9-0.3zm48.1 0q0 2.4 0.1 4.9c3.3 0 6.6 0 9.9-0.1q0-2.3 0-4.6c-3.4-0.2-6.7-0.2-10-0.2zm48.3 4.9c3.1 0 6.4 0 9.6-0.1q-0.1-2.3-0.1-4.6c-3.2-0.1-6.4-0.1-9.6-0.1q0 2.4 0.1 4.8zm97-4.8q0 2.3 0 4.7 4.6 0 9.1 0.1 0.1-2.4 0.1-4.8-4.6-0.1-9.2 0zm47.6 0q0 2.4 0.1 4.8c3.3-0.1 6.7-0.1 10.1-0.1q0-2.3 0-4.6-5.1-0.1-10.2-0.1zm48.6 0q0 2.4 0 4.8 4.9 0 9.9 0 0-2.4 0.1-4.8-5.1 0-10 0zm48.2 0q0.1 2.4 0.2 4.8 5.1 0 10.3 0 0-2.4 0.1-4.8-5.3-0.1-10.6 0zm98.8 0q0 2.4 0 4.8c3.1 0 6.2 0 9.3 0q0-2.4 0-4.9-4.6 0-9.3 0.1z"/><path class="b" d="m31.9 171.3c31.2 0.1 62.5-0.2 93.7 0.1-0.3 88.5-0.1 177.1-0.1 265.6 0 46.3-0.1 92.6 0.1 139-4.2 0.5-8.4 0.1-12.6-0.1-27.1 0-54.2 0.1-81.2 0 0.6-20.3 0.2-40.7 0.3-61q0-141.9 0-283.9c-0.1-19.9 0.2-39.8-0.2-59.7zm36.4 24.3c-9 2.7-16.9 9.8-19.6 19-5.4 14.4 1.9 32.6 16.4 38.4 13.3 6 30.7 0.7 38-12 4.3-7 5.2-15.9 3.5-23.9-2.3-7.5-6.7-15.1-13.9-18.8-7.3-4.1-16.3-5-24.4-2.7zm2.2 101.2c-8 1.9-15.3 7-19.5 14.2-5.3 8.7-5.4 20-1.1 29.1 6 13.1 22.4 20.6 36.1 15.7 13-4 22.3-17.2 21.6-30.7-0.8-11.2-7.6-22.1-18.2-26.5-5.9-2.4-12.6-3.5-18.9-1.8zm0 104.1c-9.3 2.4-17.9 8.9-21.2 18.3-6.4 14.2 0.7 33.1 15.1 39.3 13.5 6.8 31.8 1.2 39-12.1 3.9-6.7 5-14.8 3.4-22.2-2.3-8.7-8.1-16.7-16.1-20.8-6.1-3.2-13.5-4-20.2-2.5zm0.6 98.4c-8.1 1.6-15.9 6.4-19.9 13.8-3.4 6.3-5.6 13.7-3.9 20.9 1.5 8.7 6.6 16.9 14.3 21.3 8.2 5 18.8 5.7 27.5 1.8 11.6-5 19.4-17.5 18.8-30.1-1.6-10.4-7.5-20.9-17.5-25.4-5.9-3.1-12.8-3.5-19.3-2.3z"/><path class="b" d="m557.3 221.3c11.6-10.1 27.5-15.1 42.8-13.5 2.5 0.3 5.4 0.9 7 3.2 3.7 4.3-0.4 12.4-6.2 11.4-11.5-1.2-23.3 2-32.6 9-5.3 3.7-8.8 9.8-15.1 12.2-2.7-1.8-5.6-3.1-8.8-3.5 3.2-6.9 7.1-13.7 12.9-18.8z"/><path class="b" d="m675.3 226c17.2 0.6 34.5-0.7 51.7 0.2 7.9 0.2 16 3.6 20.7 10.1 9.3 11.6 4.8 32.1-9.6 37.3 5.7 1.5 9.8 6.4 11.4 12 3 10 1.1 20.9 5.5 30.6-6.7 0-13.4 0-20.1 0.1-4.5-9.3-1.6-20.6-6.4-29.8-2.1-3.6-6.5-5.4-10.5-5.3q-11.4-0.1-22.7 0c0.1 11.7 0 23.4 0 35.1q-10.1 0-20.1 0c-0.8-19.8 0.6-39.6-0.3-59.3 0.6-10.3 0.2-20.7 0.4-31zm20.2 40.5c8.5-0.3 17.1 0 25.6-0.2 6.2-0.2 10.9-6.3 10.4-12.3 0.5-6.1-4.1-12.4-10.5-12.4-8.5-0.2-17 0.1-25.5-0.1q-0.2 12.5 0 25z"/><path class="b" d="m791 229c0.6-1.2 1-3.6 3-3.1 6.5 0.5 12.9-0.2 19.4 0.3 11.5 30 22.8 60.1 34.4 90-7 0.2-14.1 0-21.1 0.2-3-6.7-4.9-13.8-7.8-20.6q-16.9 0.1-33.8 0c-2.7 6.8-5.2 13.7-7.9 20.5-6.7-0.1-13.4 0-20.1-0.1 4.4-13.2 10-26 15-39 6.1-16.2 12.6-32.1 18.9-48.2zm11.4 19.9c-4.4 10.5-7.9 21.4-11.9 32 7.8-0.1 15.5 0.3 23.2 0.1-1.9-6.1-4.5-12.1-6.4-18.2-1.8-4.6-2.8-9.4-4.9-13.9z"/><path class="b" d="m852.3 226.1c6.7-0.2 13.4 0.2 20.1-0.2 0.4 12.2-0.5 24.4 0.4 36.5 9.6-9.5 18.9-19.4 28.6-28.9 2.6-2.4 4.7-5.5 7.7-7.5 8.6-0.2 17.2 0 25.8-0.1-11.9 12.3-24.8 23.6-36.6 36 13.2 17.9 26.2 36 39.2 54-8.4 0.8-17 0.2-25.4 0.2-9.7-13-18.5-26.8-27.7-40.2-3.6 3.2-7.3 6.3-10.7 9.8-1.4 1-1.2 2.7-1.3 4.3 0 8.7 0.1 17.5 0 26.3-6.7 0-13.5 0-20.2-0.1 0-30-0.1-60.1 0.1-90.1z"/><path class="b" d="m565.9 240.8c9.1-11.3 25.1-14.9 38.9-12.8 6.9 0.7 6.2 12.5 0.3 13.7-10.7-2.3-21.7-0.6-32.2 2-2.4-0.5-4.5-2.3-7-2.9z"/><path class="b" d="m614.9 236.3c11.9 4.3 21.9 13.2 27.9 24.3 5.5 10.3 6.5 22.5 4.4 33.9-2.8 5.2-10.8 3.5-13.9-0.3-0.4-3.7 0.2-7.5-0.1-11.1-0.8-8.7-3.8-17.2-9.2-24-3.9-5-9.9-8.2-12.5-14.2 1.6-2.6 3-5.5 3.4-8.6z"/><path class="b" d="m536.4 248.9c2.4-5.1 11.2-4.4 13.9 0-1.5 10.7-1.6 21.9 2.4 32-1.7 1.9-2.7 4.4-3.2 6.9-11.7-8.8-16.4-24.9-13.1-38.9z"/><path class="b" d="m556.5 249.5c3-6.6 14.4-3.5 14.3 3.6-0.1 8.1 0.5 16.2 0.6 24.3-4.7 0.1-9.4 0.3-14.2 1-2.8-9.2-4.5-19.7-0.7-28.9z"/><path class="b" d="m575.5 248.2c10.3-2.3 21.8-4.2 31.8 0.3 3.7 3.5 2.2 11.5-3.1 12.7-3.7 0.8-7.5 0.4-11.2 0.6-5.5 0.2-10.9 0.5-16.4 0.5-0.2-4.7 0.9-9.7-1.1-14.1z"/><path class="b" d="m516.7 251.2c0.8-3.5 5-4.6 8.1-3.8 2.7 0.5 6.5 2.1 5.8 5.5-0.8 10.9 1.1 22.6 8.1 31.4 3.9 5.8 11 8.9 13.5 15.7-2.6 2.2-2.6 5.7-3.2 8.8-14.8-5.5-26.8-18-31.6-33.1-2.2-7.9-2.9-16.5-0.7-24.5z"/><path class="b" d="m612 265.9c-1.5-3.4 2.5-5.9 2.8-9.2 4 4.3 8.2 8.7 10.3 14.3 3.1 7.9 4.1 16.8 2.2 25.2-2.7 4.1-9.1 4-12.6 1.2-2.7-2.2-0.8-5.7-0.6-8.5 0.7-7.7-0.3-15.5-2.1-23z"/><path class="b" d="m592.3 267.2c4.8-0.1 9.5-0.3 14.2-0.8 2.9 9.1 4.1 19.1 1.2 28.3-2.8 6.7-14.2 4.4-14.8-2.7-0.6-8.2-0.6-16.5-0.6-24.8z"/><path class="b" d="m556.4 285.5c2.3-2.8 6.3-2.8 9.6-2.9 6.9 0 13.9-0.2 20.9-0.4 0.4 4.6 0.3 9.3 1.5 13.8-9.7 2.7-20.2 3.6-30 0.7-4.7-1.4-5.1-8-2-11.2z"/><path class="b" d="m563.9 303.4c9.2 1.4 18.4-0.2 27.1-2.9q3.3 2.2 7 3.7c-7.9 8.4-19.5 13.2-31 12.7-3.3-0.2-6.8 0.3-9.8-1-4.7-2.2-4.4-9.4-0.6-12.3 2.2-1.6 4.9-0.4 7.3-0.2z"/><path class="b" d="m593.6 314.6c6-4 9.9-10.6 16.6-13.6 2.9 1.8 6 3.2 9.3 3.8-3.8 7.1-7.9 14.4-14.3 19.4-12 10.4-28.7 14.8-44.4 12.2-3.2-0.7-5.4-4.2-5.1-7.4 0.3-3.5 3.3-7.5 7.3-6.7 10.7 1.1 21.7-1.7 30.6-7.7z"/><path class="b" d="m275.9 331.3c5.9 9.6 11.6 19.4 17.4 29.2-11.6 0.1-23.2 0.2-34.8-0.1 5.7-9.7 12.1-19.1 17.4-29.1z"/><path class="b" d="m319.1 366.4c15.9 0.1 31.8 0.1 47.6 0 0.1 16 0 31.9 0 47.8-15.9 0.2-31.8 0.1-47.7 0-0.4-7.1 0.1-14.1 0.1-21.2-0.2-8.9-0.3-17.7 0-26.6zm6.9 7.1c0.1 11.1 0 22.2 0.1 33.3 1.5 0.7 3.3 0.3 4.9 0.4 9.6 0 19.2 0.1 28.8 0.1-0.2-11.3 0-22.6-0.2-33.9-11.2 0.3-22.4 0-33.6 0.1z"/><path class="b" d="m387.2 366.4q3.4 0.1 6.8 0c0.3 2.3 0.2 4.7 0.2 7q-3.4 0.1-6.9 0.1 0 3.4 0 6.8-3.6 0-7.2-0.1 0.1-3.5 0.2-7 3.4 0 6.8 0.1 0-3.5 0.1-6.9z"/><path class="b" d="m441.6 366.6c16-0.2 32-0.1 48-0.2 0.1 15.9-0.1 31.9 0.1 47.8-16.1 0.1-32.1 0-48.1 0 0-15.9 0.1-31.8-0.1-47.6zm7.4 6.8c-0.3 11.3-0.2 22.5-0.1 33.8 11.2-0.1 22.5 0.2 33.8-0.1 0-11.2-0.1-22.5 0-33.7-11.3 0.2-22.5 0.1-33.7 0z"/><path class="b" d="m407.6 366.5q10.3-0.1 20.7 0-0.1 3.4-0.1 6.8 3.4-0.1 6.7-0.1c0.2 2.4 0.1 4.8 0 7.2-2.4 0-4.8-0.1-7.1-0.2q0-3.3 0.1-6.6-3.3 0-6.5-0.1c-0.2 4.4 0.1 8.9-0.1 13.3q3.4 0 6.8 0.1c0.1 1.9 0.1 3.8 0.3 5.7-0.5 0.4-1.4 1-1.8 1.3q-2.7 0-5.3 0c-0.1-2.2-0.2-4.4-0.4-6.7-4.4 0-8.8 0-13.2 0-0.1-2.3-0.1-4.6-0.1-6.9q3.3-0.1 6.6-0.1c0.1-2.3 0.1-4.5 0.1-6.8q-3.3 0-6.7-0.1-0.1-3.4-0.1-6.8z"/><path class="b" d="m704.2 368.2c8.3-2.1 18.3-1.4 24.9 4.7 4.9 4.5 6.8 13.1 2.3 18.5-2.2 2.9-5.8 4.1-9.2 5.3 4.4 1.4 9.4 2.9 11.9 7.1 3.9 6 1.7 14.3-3.5 18.8-5.1 5-12.6 6.4-19.6 6.1-6.7-0.1-13.8-2.3-18.2-7.6-2.6-2.9-3.9-6.7-4.4-10.5q7.1-0.1 14.2-0.3c1.2 7.1 10.6 9.2 15.8 5.1 3.5-2.7 3.4-8.9-0.4-11.3-3.7-2.5-8.4-1.5-12.5-1.7q-0.1-5.1-0.2-10.2c3.5-0.2 7.1 0.1 10.4-1.1 4.7-1.3 5.6-8.7 1.4-11.3-5-3.2-12.9-1-14 5.4-4.4-0.3-9 0.5-13.3-0.4 0.6-7.9 6.7-14.7 14.4-16.6z"/><path class="b" d="m757.5 367.8c4.2 0 8.5-0.1 12.7 0 0.1 20 0 40 0.1 60.1-5 0-9.9 0.1-14.8-0.1 0.1-15.6 0.3-31.3 0.1-46.9-4.4 2.9-8.8 6-13.7 8.1 0.1-3.9-0.4-7.9 0.2-11.8 4.8-3.6 10.3-6.3 15.4-9.5z"/><path class="b" d="m793.9 369.8c4.5-3.7 10.6-1.4 15.8-2.1 0.3 20 0.2 40.1 0.2 60.2-4.8-0.1-9.6-0.1-14.4 0 0-15.6 0.1-31.2 0-46.8-4.6 2.6-8.9 5.8-13.7 8q-0.1-6-0.1-12 6.2-3.5 12.2-7.3z"/><path class="b" d="m827.3 371.4c5.6-4.2 12.9-4.6 19.5-3.9 7.1 0.8 14.2 5.1 16.4 12.1 1.7 5.9 0.7 12.6-3.3 17.4-5.8 7.2-13.5 12.7-20 19.4 8.4 0.5 16.8 0 25.2 0.3-0.1 3.7-0.2 7.4-0.2 11.1-14.7 0.4-29.5-0.2-44.2 0.2 0-3.3-0.3-6.7 0.1-10 7.7-9 18.2-15.2 26-24.2 2.8-3.1 4.4-7.8 2.1-11.7-2.8-4.8-11-4.9-14-0.2-1.1 1.6-0.9 3.7-2 5.2-4.5-0.1-8.9-0.2-13.4 0 0.1-6 2.7-12.3 7.8-15.7z"/><path class="b" d="m518.4 427.8c0.2-20-0.1-40.1 0.2-60.1 7.8 0.3 15.6 0.8 23.4 0.2 7.3-0.2 15.3 2.2 19.7 8.5 6 9.2 4 23.9-6.7 28.9 3.8 7.6 8.4 14.9 12 22.6-5.2-0.1-10.4 0.1-15.5-0.1-3.7-6.7-7-13.5-10.7-20.1-2.7-0.1-5.4-0.1-8.1 0 0.1 6.7 0.1 13.4 0.1 20.2-4.8-0.1-9.6 0.4-14.4-0.1zm14.4-48.1c0 5.5-0.1 11 0 16.5 4.3 0 8.8 0.5 13-0.7 6.4-2.7 5.7-13.6-1-15.6-3.9-0.7-8-0.2-12-0.2z"/><path class="b" d="m589.4 368.2c6.2 0 12.5-0.3 18.7-0.5 7.1 19.9 13.4 40.2 20.8 60-5.2 0.3-10.4 0.2-15.7 0.2-1.4-4.1-2.4-8.3-4-12.3-1.1-1-2.9-0.4-4.2-0.6-5.5 0.2-11 0.1-16.6 0.2-1.2 4.2-2.5 8.4-3.8 12.6-5.2 0.1-10.3 0.1-15.5 0 3-10.3 7.2-20.2 10.2-30.4 3.4-9.8 6.7-19.5 10.1-29.2zm2.5 36q6.9 0.1 13.9 0.1c-2.5-7.2-4.6-14.5-6.9-21.7-2.7 7-4.6 14.4-7 21.6z"/><path class="b" d="m632.8 368.1c4.9 0.2 9.7-0.4 14.6-0.4 0.3 8.7-0.4 17.4 0.3 26.1 6.8-8.5 13.2-17.5 20.5-25.6 5.6-0.1 11.2-0.3 16.7-0.5-6.7 9.2-14.2 17.8-21.2 26.7 7.1 11.2 14.2 22.4 21.7 33.3-5.7 0.3-11.4 0.3-17 0-5.8-7.2-9.8-15.8-15.1-23.4-2 2.5-4 5-6 7.5 0 5.4 0 10.7 0.2 16-4.9 0.1-9.8 0.1-14.6 0-0.1-19.9-0.1-39.8-0.1-59.7z"/><path class="b" d="m286.4 369.4q2 0 4.1 0c-0.1 7.3 0.1 14.7-0.1 22-10.3-0.1-20.6-0.1-30.9-0.1 0.1-7.1 0-14.3 0.1-21.4 0.9-0.1 2.8-0.1 3.8-0.1 0.1 5.7 0 11.3 0 17 3.1 0 6.1 0 9.2 0-0.1-5.4 0-10.7 0-16.1 0.9 0 2.8 0 3.7 0 0.1 5.4 0.1 10.7 0.2 16 3.3 0 6.6 0 9.8 0.1 0.1-5.8 0-11.6 0.1-17.4z"/><path class="b" d="m332.4 380.4c7-0.1 14 0 21 0 0 6.7-0.1 13.4 0 20.1-7 0.3-14 0.1-21 0.2 0.1-6.8 0.1-13.6 0-20.3z"/><path class="b" d="m455.3 380.3c7 0 13.9 0.1 20.9-0.1 0.1 6.8 0 13.6 0.1 20.4-7 0.1-13.9-0.1-20.9 0.1-0.2-6.8-0.1-13.6-0.1-20.4z"/><path class="b" d="m373.4 380.3q3.5-0.1 7-0.1c-0.2 2.2 0.6 4.6-0.6 6.6-2 0.7-4.2 0.2-6.3 0.3q-0.1-3.4-0.1-6.9z"/><path class="b" d="m393.8 380.4q3.5-0.1 7-0.1 0.1 3.4 0 6.9-3.4-0.1-6.7-0.1c-0.2-2.2-0.2-4.5-0.3-6.7z"/><path class="b" d="m381.2 387.2c1.9-0.7 4-0.3 6-0.3 0 4.6 0.1 9.1 0.2 13.7q-3.6 0.1-7.2 0.1c0.6-4.5-1-9.4 1-13.5z"/><path class="b" d="m400.8 393.7c4.6-0.1 9.2 0 13.8-0.1 0.2 2.3 0.3 4.7 0.5 7.1q3.1 0 6.2 0c0.1 4.4 0.1 8.8 0.1 13.1q3.2 0.3 6.4 0.3 0.1-3.3 0.1-6.7 3.4-0.1 6.8-0.1 0 3.5 0 7-3.3 0-6.6 0.1 0.1 3.4 0.2 6.8c6.8-0.1 13.6 0.1 20.4 0q0 3.4 0.1 6.9c4.5 0.1 9-0.2 13.6-0.3-0.2 2.3 0.4 4.8-0.3 7.1-2.1 0.3-4.3-0.2-6.5 0q-0.1 3.4 0 6.9-3.4 0-6.8 0c0 2.2 0 4.5 0.2 6.7 6.7 0 13.4 0.1 20.1 0.1q0.1 3.2 0.1 6.5c6.8 0.2 13.7 0 20.5 0.1q0 3.3 0 6.6-3.5-0.1-7 0 0.1 3.4 0.1 6.9 3.4 0.1 6.9 0 0.1 3.5 0 7-3.4 0-6.9 0 0 3.4-0.1 6.8-3.6 0-7.1 0.1 0 3.3 0 6.6c4.7-0.5 9.4-0.2 14-0.4q0.1 3.6 0.1 7.2c-4.6 0.3-9.2 0-13.9 0.2q0-3.4 0.1-6.6-3.4-0.1-6.7-0.1 0 3.3 0 6.7-3.4-0.1-6.9-0.1 0 3.3 0.1 6.7 3.3 0 6.7 0 0 3.4 0.1 6.8-3.4 0.1-6.8 0.1c0 2.2-0.1 4.5 0 6.8 4.4-0.2 8.8 0 13.2-0.3q0-3.3 0-6.5 3.5-0.1 6.9-0.2c0.1 2.3 0.1 4.6 0.2 6.9q3.5 0 7.1 0 0.1 10.4-0.1 20.8-3.5 0-6.9 0c-0.1-2.3-0.1-4.6-0.2-6.9-4.4 0.1-8.9 0-13.4 0 0-2.3 0-4.6-0.1-6.9q-3.4 0-6.7 0 0 3.4-0.1 6.8-3.4 0-6.8 0.1 0 3.4-0.1 6.9c-2.2-0.1-4.4-0.1-6.6-0.3q0-3.3 0-6.6-3.6 0-7.1 0.1 0-3.5 0-6.9-3.4 0-6.8-0.1c-0.2 2.3-0.2 4.6-0.2 6.9-2.1 0-4.2 0-6.3-0.1-0.2 2.3-0.2 4.7-0.2 7-2.3 0-4.6-0.1-6.9-0.2 0-6.9-0.1-13.7 0-20.6q-3.4 0-6.7 0.1c0 2.3 0 4.6-0.1 6.9q-3.5 0-7 0c-0.1-2.3-0.1-4.6-0.1-6.9q-3.2 0-6.3 0 0 3.5-0.2 6.9-3.4-0.1-6.7 0c-0.3-2.3-0.2-4.5 0-6.8q-3.4-0.1-6.8-0.2c-0.2 6.9 0 13.9-0.1 20.8-4.7-0.1-9.3 0.2-13.9-0.2 0-6.9 0-13.7 0-20.6q3.5 0 7 0c-0.2-2.1 0.4-4.3-0.6-6.2-1.9-1-4.2-0.5-6.3-0.6 0-11.4-0.2-22.8-0.1-34.2q3.5 0 7.1 0-0.1 3.5 0.1 7 3.2 0 6.5 0 0-16.9 0.1-33.8-3.3 0-6.6 0-0.1 3.3-0.1 6.7-3.5 0-7 0 0-3.3-0.1-6.7-3.3 0-6.5 0-0.1 3.4-0.1 6.7-3.5 0-7 0.1 0 3.1-0.1 6.3c4.6 0.1 9.1 0.1 13.6 0.1q0.1 3.4 0.1 6.9c-4.4 0.2-8.9-0.2-13.2 0.4-0.4 2.1-0.3 4.3-0.4 6.4q3.5 0 7.1 0-0.1 3.5-0.2 7-3.3 0-6.7 0.1c-0.3-2.3-0.4-4.5-0.3-6.8q-3.3-0.1-6.5-0.1 0.1 3.4 0.1 6.7-6.8 0.1-13.7 0 0-3.3-0.1-6.7c-4.2 0.1-8.4 0-12.6 0.3-1.6-1.9-2-4.7-0.7-6.8 2-0.8 4.2-0.4 6.3-0.5q0-3.3 0-6.5-3.5-0.2-6.9-0.4-0.1-3.2-0.1-6.5c2.4 0 4.8 0 7.2-0.3 0-4.4 0-8.9 0-13.4q3.4 0 6.8 0 0 3.4 0 6.9 3.3 0 6.6 0.1c0.2-2.4 0.3-4.7 0.3-7.1 4.6 0.1 9.2 0.1 13.7 0q-0.1-3.5-0.4-6.9c4.6 0.2 9.1 0.1 13.7 0.3q0.1 3.3 0.2 6.6c4.4 0.1 8.9 0.1 13.3 0.1 0.2-2.1 0.3-4.3 0.3-6.5-4.6-0.1-9.1 0-13.7-0.1q0-3.4 0.1-6.9c-6.8-0.5-13.6 0.2-20.4 0q0 3.3 0 6.7c-6.9 0.1-13.8 0.1-20.7 0q0-3.5 0-6.9-6.7-0.1-13.4-0.1 0-3.3 0-6.6c6.8 0 13.7-0.1 20.5 0.1 0 2.2 0 4.3 0 6.4 2.2 0.1 4.5 0.1 6.7 0.1q0-3.4 0.1-6.7c9 0.2 18 0 27 0.1 0.1-4.6 0-9.2 0-13.8q3.6 0 7.2 0c0 6.8 0 13.7 0 20.5q3.3-0.1 6.6-0.2 0 3.6 0 7.1 3.4 0 6.8 0c0.2 4.5-0.2 9.1 0.1 13.7q3.4 0 6.8 0.1 0-3.5-0.1-7.1 3.4 0 6.8 0 0-3.3-0.1-6.6c-2.1 0.1-4.3 0.1-6.4 0.2q-0.1-3.6 0-7.2 10.1-0.1 20.2-0.1 0 3.6-0.1 7.3-3.3 0-6.6 0 0 3.2-0.1 6.4c4.5-0.1 9 0.1 13.6-0.1q0-3.3 0.1-6.6 3.2 0.1 6.5 0.1c0.1 2.2 0.2 4.4 0.4 6.7 4.6 0 9.1-0.1 13.6 0q0-3.2 0.1-6.4c-2.4 0-4.8-0.1-7.2-0.4q0.1-3.5 0-7-6.9 0-13.8 0-0.1-3.3-0.1-6.6c-4.5 0-8.9 0-13.3 0.1 0-4.5 0.1-9 0-13.5-2.6 0-5.1-0.1-7.5-1.1 1.1-1.8 0.5-4 0.6-6q-3.3 0.1-6.5 0.1c-0.1 2.1 0 4.2-0.2 6.2-2.2 1-4.6 0.6-6.9 0.8q0 3.3-0.1 6.5-3.4 0-6.7 0c-0.2-4.5-0.2-9-0.2-13.5 4.6-0.2 9.2-0.2 13.9-0.1q0-3.5 0-7zm-41 48.1q0 3.3 0 6.6 3.6 0 7.1 0-0.1-3.2-0.1-6.4c-2.3-0.1-4.7-0.2-7-0.2zm47.9 0q0 3.3 0 6.6 3.3 0 6.7 0.1-0.1-3.4 0-6.7-3.4 0-6.7 0zm-61.3 6.8c0.2 8.9 0.2 17.9 0.2 26.9q3.1 0.1 6.3 0.2c0.4-9 0-18.1 0.2-27.1q-3.4 0-6.7 0zm95.4 0.2q0 3.1 0 6.3c2.2 0 4.6 0 6.8-0.2q0-3.2-0.1-6.3c-2.2 0-4.4 0.1-6.7 0.2zm-20.5 6.5c-0.2 4.5 0.8 9.2-0.4 13.5-4.5 0.8-9-0.1-13.5 0q0-3.5 0.1-7 3.4 0 6.8-0.1 0-3.2 0.1-6.3c-6.9-0.1-13.7-0.1-20.5 0.1q0 3 0 6.1 3.4 0.2 6.9 0.1 0.1 3.6 0.1 7.1-3.4 0-6.7 0.1-0.1 3.3-0.1 6.6 3.4-0.1 6.8-0.1 0 3.5 0 7c2.1 0 4.2 0.1 6.3-0.1 0.4-2.3 0.2-4.5 0.3-6.8q3.5 0 7 0c0 2.3 0 4.6 0.1 6.9 4.5 0 9 0 13.5 0q0-3.4 0-6.8-3.4 0-6.8 0.1c0-2.2-0.7-4.6 0.7-6.6 1.7-1.1 4.2-0.1 6.3-0.4q0 3.3 0 6.6c4.4 0.1 8.8 0 13.2 0.1 0.2-2.2 0.2-4.4 0.2-6.6q-3.6-0.1-7.2-0.1 0-3.5 0-7.1 3.5 0 7 0c0.1-2.1 0.1-4.1 0.1-6.2-6.7-0.1-13.5-0.2-20.3-0.1zm27.4-0.1q0 3.3 0 6.6c2.2 0 4.5-0.1 6.7-0.1q0-3.2-0.1-6.3-3.3-0.1-6.6-0.2zm20.5 6.6q-0.1 3.4 0 6.7 3.3 0.1 6.6 0.2 0.2-3.4 0.1-6.9-3.3 0-6.7 0zm-20.6 13.5q3.4 0 6.8 0.1c-0.1-2.2 0.4-4.5-0.3-6.6-2.1-0.2-4.2-0.1-6.3-0.1q-0.2 3.3-0.2 6.6zm13.7 0.6q0.1 6.4 0 12.9 3.3 0 6.5 0c0-2.2 0.1-4.3 0.2-6.4q3.4 0 6.7 0.1 0.1-3.4 0-6.8c-4.4 0.1-8.9-0.1-13.4 0.2zm-75.1 6.4q0 3.5 0 7c-2.2 0.1-4.5 0.2-6.8 0.3q0.1 3.1 0.2 6.3c8.9-0.4 17.8 0.6 26.7 0q0.1-3.2 0.2-6.4-3.4-0.1-6.7-0.1 0-3.5 0-7c-4.5 0-9.1 0-13.6-0.1zm47.9 0.1c-0.4 6.8 0.1 13.7 0 20.5 6.8-0.1 13.6 0.1 20.4-0.3-0.1-6.7 0-13.4-0.1-20.1-6.8-0.1-13.5 0-20.3-0.1zm-20.5 7q0 3.2-0.1 6.4c4.5 0.1 9 0 13.6 0 0-2.1 0-4.3-0.1-6.4-4.5 0-8.9 0-13.4 0zm-34.1 13.6c0 2-0.7 4.2 0.5 6 4 1.6 8.6 0.3 12.9 0.5q-0.1-3.2-0.1-6.4c-4.4 0-8.9 0-13.3-0.1zm20.7-0.1q-0.1 3.4-0.1 6.8 3.3-0.1 6.6 0.2-0.1 3.2-0.2 6.5 3.4 0 6.9 0 0-3.4 0.1-6.8c4.5 0 9-0.1 13.4 0q0.1-3.3 0-6.5c-8.9-0.3-17.8-0.2-26.7-0.2zm27.1 6.8q0 3.3 0.1 6.6c6.8 0 13.5 0 20.3 0.1q0 3.3 0.1 6.7 6.7 0.1 13.4 0.1c0-2.2 0-4.5-0.3-6.8-2.2 0.1-4.3 0.1-6.4 0.1q0-3.4-0.1-6.8c-9-0.1-18.1 0.1-27.1 0zm47.4 6.8c0.1 2.2 0.2 4.5 0.2 6.7q3.2 0 6.5 0 0.1-3.3 0.2-6.6-3.5 0-6.9-0.1z"/><path class="b" d="m428.2 394.2c1.8-1.5 4.5-0.3 6.6-0.6q0 3.5 0 7.1-3.5 0-6.9-0.1c0.2-2.1-0.6-4.4 0.3-6.4z"/><path class="b" d="m286.4 395.5q2-0.1 4.1-0.2c0 6.5-0.1 12.9 0 19.4-10.4 0-20.7 0.1-31.1 0q0-2.2 0-4.3c9 0 18 0 27 0.1-0.1-5-0.2-10 0-15z"/><path class="b" d="m983.2 398.8c10.4-0.3 20.8-0.1 31.2-0.1q0 2.1-0.1 4.2c-9 0.5-18.1-0.1-27.2 0.1-0.1 4.9 0.3 9.7-0.2 14.6q-1.8-0.1-3.6-0.1c-0.2-6.3 0-12.5-0.1-18.7z"/><path class="b" d="m401.2 408.1c1.9-1.4 5.6-1.2 6.5 1.4q0 2.4-0.1 4.8-3.4-0.1-6.7-0.1c0-2-0.4-4.1 0.3-6.1z"/><path class="b" d="m393.8 414.2q3.5 0 7 0c0.1 2.3 0.1 4.7 0.3 7q-3.6 0-7.2 0-0.1-3.5-0.1-7z"/><path class="b" d="m274.1 425.6c2.3-7.1 13.8-6.3 15.9 0.6 1.1 5.6 0.2 11.5 0.5 17.2-10.3-0.2-20.6 0-30.9-0.1 0.1-5.4-0.5-10.8 0.5-16.1 1.6-6.2 11.1-7.5 14-1.6zm2.6 2.3c-0.8 3.6-0.2 7.3-0.4 10.9 3.4 0.2 6.8 0.4 10.1 0-0.1-3.4 0.2-6.9-0.2-10.3-0.9-4.2-7.9-4.7-9.5-0.6zm-12.9 0.8c-0.6 3.3-0.3 6.7-0.4 10q4.6 0 9.2 0c-0.2-3.3 0.1-6.6-0.5-9.8-1.1-3.7-7.2-3.8-8.3-0.2z"/><path class="b" d="m468.8 421.2q3.7 0 7.3 0.1c0.1 4.6-0.1 9.3 0.2 13.9q3.1-0.2 6.3-0.4c-0.1 2.3 0.8 4.9-0.7 7-6.5 0.1-13-0.1-19.5 0.1 0.1-2.3-0.6-4.8 0.5-6.8 1.9-0.2 3.9 0.2 5.9 0.1 0.1-4.7-0.1-9.3 0-14z"/><path class="b" d="m990 421c4.3-1.2 9.5-0.8 12.9 2.3 4.6 4 4.1 12.2-0.9 15.7-4.2 2.9-10 2.8-14.4 0.4-6.8-4-5.6-16.4 2.4-18.4zm0.5 4.4c-4.1 1.3-5.1 7.2-1.8 9.8 4.3 3.4 13.3 2.4 13.8-4.1 0.4-6.2-7.5-8-12-5.7z"/><path class="b" d="m318.9 434.8c2.3-0.1 4.6-0.2 6.9 0.1 0.8 4.5-0.1 9.1 0.1 13.7q-3.4-0.1-6.8 0c-0.3-4.6-0.2-9.2-0.2-13.9z"/><path class="b" d="m483.2 442.2c1.9-1.3 4.4-0.5 6.6-0.8q0 3.6 0 7.1-3.6 0-7.2 0c0.1-2.1-0.5-4.4 0.6-6.3z"/><path class="b" d="m259.4 446.3c10.5 2.4 20.6 6.1 31.1 8.6 0 0.9 0 2.6 0 3.5-10.3-3.1-20.7-5.8-31.1-8.8q0-1.7 0-3.3z"/><path class="b" d="m983.3 446.6c10.3-0.1 20.7 0 31 0-0.1 5.5 0.2 11-0.1 16.4-0.5 4.5-4.6 8.2-9.1 7.7-4.3 0-7.6-3.8-8.2-7.8-3.7 4.1-8.7 6.9-13.5 9.7 0-1.7-0.1-3.4 0.2-5.1 4.1-3.2 9-5.4 12.8-9.2q0.2-3.6 0.3-7.1c-4.4 0-8.8 0-13.3 0q-0.1-2.3-0.1-4.6zm17.2 4.6c0.2 3.6 0 7.3 0.4 10.9 0.3 3.3 4.7 5.7 7.3 3.1 3.6-3.8 1.5-9.4 2.1-14q-4.9-0.5-9.8 0z"/><path class="b" d="m514 452.3c4.7 0.3 9.5-0.4 14.1 0.6 6.3 1.9 7.9 9.4 8 15.1-0.1 5.2-1.5 11.3-6.3 14-5 2.3-10.6 0.9-15.8 1.3-0.1-10.3-0.3-20.7 0-31zm3.8 4c-0.1 7.7-0.1 15.4-0.1 23.1 4.2-0.1 9.9 1.1 12.6-3.1 2.7-5.1 2.9-11.6 0.2-16.8-2.6-4.5-8.4-3-12.7-3.2z"/><path class="b" d="m563.2 452.3q2 0 4 0.1c2.8 8.8 5.8 17.6 8.3 26.5 3.2-8.8 5.5-17.9 8.7-26.6q1.9 0 3.9 0.1c-3.5 9.9-6.7 19.9-10.1 29.8-0.3 2-2.9 0.9-4.3 1.4-3.7-10.4-7.3-20.8-10.5-31.3z"/><path class="b" d="m591.3 452.4c6.4 0 12.7 0 19 0q-0.1 1.9-0.2 3.9c-5 0-10 0.1-15 0 0 3 0.1 6.1-0.2 9.1 4.9 0 9.8 0 14.7-0.1q-0.1 1.8-0.1 3.5c-4.8 0.7-9.6-0.2-14.4 0.4-0.3 3.4-0.2 6.7-0.1 10.1 5.3 0 10.5 0.1 15.7 0q0.3 2 0.6 4c-6.7 0.1-13.4 0-20.1 0 0.2-10.3-0.1-20.6 0.1-30.9z"/><path class="b" d="m616 452.3q1.9 0 3.8-0.1c0.1 7.3-0.3 14.6 0.2 21.8 0.1 5.3 7.5 7.5 11.2 4.2 2.2-2.1 2.2-5.4 2.3-8.2 0-5.9-0.1-11.8-0.1-17.7q1.9-0.1 3.7-0.1c0 6.9 0.2 13.9 0 20.8-0.1 4.1-2.1 8.7-6.2 10-4.2 1.2-9.5 1.1-12.5-2.5-2.8-3.5-2.4-8.3-2.5-12.5 0.4-5.3-0.3-10.5 0.1-15.7z"/><path class="b" d="m644.1 452.3q1.8 0 3.5 0c0.2 10.3 0 20.6 0.2 30.9q-2 0-4 0.1c0.4-10.4 0.1-20.7 0.3-31z"/><path class="b" d="m671.6 452.5q2-0.2 4.1-0.3c2.9 3.9 5.1 8.3 8.1 12.2 2.7-3.9 5.2-8 7.9-11.9 1 0 3 0 4-0.1-2.8 5.3-6.5 10-9.4 15.2 3.3 5 6.7 10 9.5 15.3-1.5-0.1-2.9 0-4.4-0.2-2.7-3.7-4.7-8-7.6-11.6-3.6 3.1-4.8 8.3-8 11.7-1.3 0.7-2.8 0-4.2-0.1 3.1-5.2 6.5-10.3 9.8-15.4-3.6-4.7-6.4-10-9.8-14.8z"/><path class="b" d="m716.6 452.4q2.3-0.1 4.5 0c-3.3 5-6.4 10-9.6 14.9 3.2 5.1 6.5 10.2 9.6 15.3q-2.3 0.3-4.6 0.2c-2.4-4.2-4.9-8.3-7.5-12.3-2.7 4-4.9 8.2-7.4 12.3q-2.4 0.1-4.7-0.1c3.1-5.1 6.2-10.2 9.9-14.9-3.1-5.1-6.8-9.9-9.5-15.3 1-0.1 3.1-0.2 4.2-0.2 2.7 3.9 4.9 8.2 7.5 12.2 2.5-4.1 5.3-8 7.6-12.1z"/><path class="b" d="m793.3 453.3c0.9-1.8 3.2-0.7 4.8-0.9-3.4 4.8-6.2 10.1-9.7 14.8 3.2 5.2 6.6 10.3 9.9 15.5-1.6 0-3.3 0.5-4.8-0.2-2.8-3.8-5-8-7.5-12-2.7 4-5.2 8-7.5 12.2q-2.3 0.1-4.5 0c3.2-5 5.8-10.4 9.6-15-3-5.1-6.5-9.9-9.4-15.2 1 0 3-0.1 4-0.1 2.8 3.8 5.3 8 7.8 12 2.3-3.7 4.6-7.5 7.3-11.1z"/><path class="b" d="m799.4 452.3q2.1 0 4.2 0c2.6 4 5.2 8.1 7.7 12.1 3-3.8 5.3-8.1 8.1-12.1q2 0.2 4.1 0.3c-3.1 5-6.3 9.8-9.5 14.7 3.1 5.3 6.6 10.3 9.6 15.7-1.4-0.1-2.9-0.2-4.3-0.4-2.9-3.8-5.1-8.2-8.1-12-2.6 3.9-4.7 8.2-7.5 12-1.4 0.3-2.9 0.4-4.4 0.6 2.7-5.6 6.4-10.7 9.8-15.9-3.6-4.7-6.4-10.1-9.7-15z"/><path class="b" d="m825.7 452.6q2.1-0.3 4.3-0.5c2.8 3.9 4.7 8.4 7.7 12.2 2.6-4 5.2-8 7.7-12q2.1 0.1 4.3 0.2c-3.2 4.9-6.3 9.9-9.5 14.7 3.2 5.2 6.6 10.2 9.5 15.5q-2.2 0.1-4.4 0.1c-2.5-4.1-5-8.3-7.7-12.4-2.8 3.8-4.8 8.1-7.6 12-1.3 0.7-3.1 0.3-4.6 0.6 2.9-5.4 6.3-10.4 9.7-15.3-3-5.1-6.1-10.2-9.4-15.1z"/><path class="b" d="m851 452.5q2.2-0.1 4.5-0.1 3.7 6.1 7.5 12.1c2.6-3.6 4.8-7.5 7.4-11.1 1-1.7 3.2-0.8 4.8-1-3.5 4.7-6.1 10.1-9.8 14.7q4.9 7.7 9.8 15.4-2.3 0.4-4.7 0.2c-2.4-4.1-4.8-8.2-7.5-12.1-2.7 4-5.2 8-7.7 12.2q-2.3-0.1-4.5-0.1c3.3-5.1 6.4-10.3 9.7-15.4-3.5-4.7-6.2-9.9-9.5-14.8z"/><path class="b" d="m876.5 452.4q2 0 4.1 0c2.7 3.9 5 8 7.5 12 2.8-3.8 5.3-7.9 7.7-11.9q2.3 0 4.6 0c-3.4 4.9-6.3 10-9.6 14.8 3.2 5.1 6.4 10.2 9.6 15.3q-2.4 0.1-4.8 0.1c-2.2-4.2-4.7-8.4-7.6-12.3-2.6 3.9-4.6 8.3-7.3 12.2q-2.2 0.3-4.5 0.6c2.4-5.8 6.6-10.6 9.7-15.9-3.4-4.9-6.5-9.9-9.4-14.9z"/><path class="b" d="m902.8 452.5q2.2 0 4.4-0.1c2.6 4 5 8.1 7.4 12.1 2.7-4 5-8.4 8.2-12.1 1 0 3-0.1 4-0.1-3.1 4.9-6.4 9.7-9.4 14.7l0.1 0.9c3.2 4.9 6.4 9.8 9.3 14.9q-2.2 0-4.3 0c-2.8-4-5.2-8.3-7.8-12.4-2.7 4-5.2 8.1-7.5 12.3q-2.3 0.1-4.6-0.1c3.2-5.1 6.2-10.3 9.6-15.3-3.3-4.8-6.4-9.7-9.4-14.8z"/><path class="b" d="m928 452.4q2.2 0 4.4 0 3.8 6.1 7.6 12.1c2.7-3.9 5-8 7.9-11.7 1.3-0.8 2.9-0.2 4.4-0.4-3 5-6.6 9.6-9.5 14.6 2.5 5.5 6.2 10.6 9.7 15.7-1.6 0-3.4 0.6-4.8-0.2-2.7-4-5.2-8.1-7.9-12-2.7 3.8-4.8 8-7.4 11.9-1.3 0.9-3.1 0.2-4.5 0.3 3-5.3 6.4-10.4 9.8-15.5-3.7-4.6-6.3-10-9.7-14.8z"/><path class="b" d="m540.8 452.3c6.4 0.1 12.9 0.1 19.4 0.1 0 1 0.2 3 0.2 4-5.2-0.1-10.5 0-15.8-0.2 0 3.1 0 6.2 0.1 9.2 4.9 0 9.7 0 14.6 0.1q0.1 1.6 0.2 3.3c-4.9 0.6-9.9 0.1-14.8 0.4q-0.1 5 0 10c5.3 0.2 10.7 0.1 16 0.1q0.2 2 0.5 4c-6.8 0.1-13.6 0-20.4 0.1 0-10.4 0-20.7 0-31.1z"/><path class="b" d="m722.3 452.4c1.6 0.3 4.2-0.8 5.1 1.1 2.5 3.5 4.5 7.3 6.9 10.9 3.1-3.6 5.3-7.8 7.9-11.7q2.2-0.2 4.4-0.4c-3.2 5-6.3 10.1-9.7 15 3.1 5.2 6.4 10.3 9.7 15.4-1.8 0.1-4.2 1.1-5.2-0.9-2.4-3.7-4.3-7.6-7.2-11-2.5 4-5 8-7.6 12q-2.1 0-4.3-0.1c3.2-5 6.2-10 9.4-14.9-2.5-5.3-6.5-10.2-9.4-15.4z"/><path class="b" d="m748.8 452.4c1.2 0 3.4 0 4.5 0 2.4 4 4.7 8.1 7.5 11.9 2.3-4 5-7.8 7.4-11.7q2.2-0.1 4.5-0.1c-3 5-6.2 9.9-9.4 14.7 3.1 5.2 6.6 10.2 9.4 15.6q-2.3 0-4.6-0.1c-2.3-4.2-4.6-8.5-7.7-12.3-2.4 4-4.7 8.2-7.2 12.1-1.6 0.5-3.2 0.5-4.9 0.7 2.8-5.6 6.7-10.6 10-15.9-3.3-4.9-6.5-9.9-9.5-14.9z"/><path class="b" d="m655.1 460.4q2 0.1 4.1 0.2c-0.3 1.5 0.4 3.3-0.7 4.5q-1.7 0.1-3.3 0.1-0.1-2.4-0.1-4.8z"/><path class="b" d="m259.4 461.9q2.3 0 4.5 0 0.1 2.1 0.3 4.2-2.5 0-4.8-0.2 0-2.1 0-4z"/><path class="b" d="m268.3 462c7.4-0.2 14.9-0.3 22.4 0.3q-0.2 1.9-0.4 4c-7.4-0.3-14.7 0.2-22.1-0.4q0.1-1.9 0.1-3.9z"/><path class="b" d="m318.9 461.9q3.4 0 6.7 0.1c-0.1 1.9 0.9 4.3-0.7 5.9-1.7 1.5-4 0.6-6.1 0.7q0.1-3.4 0.1-6.7z"/><path class="b" d="m259.6 472.4c0.9 0 2.9 0 3.9 0 0 5.1-0.1 10.3-0.1 15.4 3.1 0.1 6.2 0 9.4 0-0.1-4.6-0.1-9.3-0.1-14 0.9 0 2.8 0 3.8 0q0.1 7-0.1 13.9 7.1 0.1 14.1 0.1 0.1 2.3 0.1 4.7c-10.4-0.1-20.7 0-31.1 0q0.1-10 0.1-20.1z"/><path class="b" d="m318.9 475.6c2.4-0.1 5.1-0.6 7 1.4q-0.1 2.7-0.2 5.5-3.4 0-6.9-0.1 0-3.4 0.1-6.8z"/><path class="b" d="m983.6 479.6c1.8-4.6 9.4-5.2 11.4-0.5 2 3.5 1 7.9 2.8 11.4 6.3 1.2 6.2-9.8 0.7-10.6 0.3-1.3 0.1-4.1 2.3-3.5 3.7 0.9 5.2 5.1 5.4 8.6 0.2 3.4-0.6 7.7-4 9.3-6.1 1.3-12.6-0.7-18.6 1.4 0-1-0.2-3-0.2-4q1.2-0.6 2.5-1.3c-2.7-2.9-3.5-7.1-2.3-10.8zm3.4 2.4c-2.1 4.4 2.2 9.6 7 8.6-0.6-2.9-0.8-5.9-1.8-8.7-0.7-2.5-4.6-2.2-5.2 0.1z"/><path class="b" d="m655.1 478.7q1.9 0 3.8 0.1 0.1 2.2 0 4.5-1.9 0-3.8 0 0-2.3 0-4.6z"/><path class="b" d="m318.9 489.2q5.5-0.5 11.1-0.1c12.2 0.2 24.5 0 36.8 0-0.1 16 0.1 32 0 48-16-0.3-32 0-47.9 0.1 0.2-16 0-32 0-48zm7 8.7c0.1 10.7 0 21.3 0.2 31.9 11.2 0.7 22.5-0.3 33.7 0.2-0.1-11.4 0.2-22.7-0.1-34.1-10.6 0.5-21.1-0.3-31.7 0.1q-2.4-0.4-2.1 1.9z"/><path class="b" d="m441.6 489.2q3.5 0 7.1 0-0.1 3.5-0.1 7-3.5-0.1-7-0.1 0-3.4 0-6.9z"/><path class="b" d="m259.6 498.6q2.3-0.1 4.6-0.1 0 2.2 0 4.3-2.4 0-4.8-0.1 0.1-2.1 0.1-4.2z"/><path class="b" d="m268.2 502.8q0.1-2.2 0.3-4.3c7.3 0.1 14.7 0 22 0.1q-0.1 2.2-0.1 4.5c-7.4 0.1-14.8-0.2-22.2-0.3z"/><path class="b" d="m332.6 523.4c-0.2-6.9-0.1-13.8 0-20.8 6.9 0.1 13.8 0 20.8 0.1 0 6.9 0 13.8 0 20.7-6.9-0.1-13.9-0.1-20.8 0z"/><path class="b" d="m671.7 503.3c1.5 0 3.2-0.7 4.5 0.2 2.6 3.9 5 7.9 7.6 11.7 2.4-3.8 4.6-7.7 7.2-11.4 1-1.5 3.1-0.6 4.6-0.7-2.9 5-6 10-9.3 14.8 3.1 5.2 6.5 10.3 9.5 15.5-1 0.1-3 0.1-4.1 0.1-2.8-4-5.2-8.3-8.2-12.2-2.5 3.9-4.8 8-7.4 11.9-1.3 0.8-3 0.3-4.4 0.4 3-5.3 6.3-10.5 9.7-15.6-3.5-4.7-6.4-9.8-9.7-14.7z"/><path class="b" d="m697.3 502.9c1.5 0.3 3.8-0.6 4.7 1.1 2.5 3.7 4.6 7.6 7 11.3 2.5-4 5.1-7.9 7.5-12q2.2-0.2 4.4-0.4c-2.9 5.2-6.2 10.1-9.4 15.1 3.4 5 6.5 10.3 9.6 15.5-1.1 0-3.3 0-4.4 0.1-2.6-4.2-5.2-8.4-7.7-12.6-2.5 4.1-5 8.4-7.6 12.5q-2.3 0-4.6 0c3.2-5.2 6.5-10.4 10-15.4-3.3-5-7-9.8-9.5-15.2z"/><path class="b" d="m722.4 502.9c1.4 0.1 2.9-0.2 4.2 0.4 3 3.7 5.2 7.9 7.7 12 3-3.8 5-8.2 8-12 1.4-0.2 2.8-0.2 4.3-0.2-2.9 5.1-6.6 9.7-9.4 14.8 2.5 5.6 6.7 10.3 9.4 15.7q-2.2-0.1-4.5-0.2c-2.4-4.1-5.1-8.2-7.6-12.2-2.8 3.5-4.7 7.6-7.2 11.3-0.9 1.8-3.5 0.8-5.1 1.2 3.1-5.3 6.3-10.6 9.8-15.6-3.4-4.9-6.8-10-9.6-15.2z"/><path class="b" d="m748.8 503.3c1.7-0.1 4.2-1.3 5.1 0.9 2.2 3.6 4.4 7.2 6.7 10.7 2.8-3.7 5.1-7.8 7.7-11.7q2.2 0 4.4-0.1c-3.2 4.9-5.9 10.1-9.4 14.8 3.2 5.2 6.5 10.3 9.5 15.7q-2.4-0.1-4.8-0.2c-2.5-4.1-4.5-8.4-7.6-12.1-2.5 3.9-4.6 8.1-7.4 11.9q-2.3 0.5-4.7 0.5c3.2-5.3 6.5-10.4 9.9-15.5-3.1-5-6.3-10-9.4-14.9z"/><path class="b" d="m774.3 503.3q2.2-0.1 4.3-0.2c2.6 3.9 5 7.9 7.5 11.9 2.9-3.9 5.1-8.3 8.2-12.1 1.3 0 2.6 0.2 4 0.4-3.2 4.8-6.7 9.5-9.3 14.6 2.8 5.5 6.3 10.5 9.6 15.6q-2.2 0-4.5 0.1c-2.8-4.2-5.4-8.5-8.1-12.7-2.7 4.1-4.6 8.9-7.8 12.6-1 0-3 0.1-4 0.1 2.8-5.4 6.1-10.6 9.6-15.6-3.3-4.8-6.6-9.6-9.5-14.7z"/><path class="b" d="m259.2 509.2c10.6 2.1 20.7 5.9 31.2 8.1q0.1 2.4 0.1 4.8c-9 1.4-17.5 5.1-26.5 6.3q13.3 3.7 26.6 7.3-0.1 2.1-0.1 4.3c-10.4 2.6-20.7 5.6-31 8.5q-0.1-2.3-0.1-4.6c8.2-1.9 16.6-3.8 24.7-6.3-8.2-2.1-16.4-4.3-24.7-6.4 0.2-1.7-0.5-3.8 0.4-5.3 8.1-2.2 16.3-4.2 24.4-6.3-8.2-2.3-16.6-4.2-24.8-6.2q-0.1-2.1-0.2-4.2z"/><path class="b" d="m981.3 510.2c11.5-0.1 23 0.1 34.5-0.1-5.8 9.8-11.5 19.7-17.4 29.4-5.4-9.9-11.8-19.3-17.1-29.3z"/><path class="b" d="m393.9 530.2c6.8-0.8 13.6 0.3 20.4-0.4 0.2 2.4 0.2 4.7 0.2 7.1-6.9 0.1-13.8 0-20.7 0q0-3.4 0.1-6.7z"/><path class="b" d="m31.7 581.5c31.3-0.4 62.6-0.1 93.9-0.1-0.2 32.1-0.2 64.2 0 96.4-31.2-0.1-62.3 0-93.5-0.1q0-41.8 0-83.7c0.1-4.1-0.3-8.3-0.4-12.5zm15.2 20.5c-0.2 20.4 0 40.8-0.1 61.2 20.2 0 40.4-0.1 60.6 0 0-20.4 0.3-40.8-0.1-61.2-8.4 0.5-16.9 0.4-25.3 0-11.7 0-23.4-0.1-35.1 0z"/><path class="b" d="m701.4 589.5c3-7.8 13.6-10.6 20.4-6.2 2.5 1.6 4.3 4.2 5 7.1q-1.9 0.4-3.8 0.8c-1.1-1.6-1.8-3.6-3.4-4.7-4.3-3.2-11.3-1.6-13.7 3.3-2 4.1-1.8 9.2 0 13.4 2 4.7 8.2 6.7 12.6 4.3 2.6-1.1 4-3.7 4.6-6.2q2.2 0.2 4.5 0.5c-1.1 3.4-2.9 6.8-6.2 8.7-5.6 3.1-13.7 2.1-17.8-3.1-3.8-5.1-4.5-12.2-2.2-17.9z"/><path class="b" d="m752.2 581.5q2 0.1 4.1 0.3 0.1 15 0 30-2.1-0.1-4.2-0.1c-0.4-4.6-0.2-9.3-0.2-13.9-5.1-0.1-10.3 0-15.4-0.1 0 4.7 0 9.3 0.1 14q-2.2 0.1-4.3 0.1c0-10.1-0.2-20.2 0.1-30.3 1.1 0 3.1 0 4.1 0.1 0 4.1 0 8.2 0 12.3 5.1 0.3 10.2 0.2 15.4 0 0-4.1-0.1-8.3 0.3-12.4z"/><path class="b" d="m514.3 611.7c0.1-10-0.3-20.1 0.2-30.1q2.9 0 5.8 0c3.2 8.2 6 16.5 8.8 24.9 2.8-8.4 5.5-16.8 8.6-25q2.8 0 5.7 0.1c0.4 10 0.1 20.1 0.1 30.2q-2.1-0.1-4.3-0.2c0.3-8.2 0-16.4 0.2-24.6-3.3 8.1-5.6 16.5-8.6 24.6q-1.9 0.1-3.7 0.1c-3-7.9-5.9-15.8-8.5-23.8-0.8 7.9-0.1 15.8-0.1 23.7q-2.1 0.1-4.2 0.1z"/><path class="b" d="m558.1 581.7q2.1-0.1 4.2-0.2c4.9 9.7 8 20.2 12.6 30.1q-2.4 0.1-4.8 0.2c-1.3-3.1-2.4-6.2-3.8-9.2-3.9 0.1-7.8 0.1-11.7 0-1.1 3-2.2 6-3.3 9.1q-2.2 0-4.4-0.1c3.8-10 7.2-20 11.2-29.9zm-2.1 17.4q4.6 0.1 9.2 0.1c-1.4-4.4-3.2-8.7-4.6-13.1-1.9 4.2-3.3 8.6-4.6 13z"/><path class="b" d="m578.2 581.7c5.4 0.2 11-0.7 16.4 0.6 7.2 2.3 9.5 11 8.3 17.7-0.5 5.5-4.5 11-10.2 11.6-4.8 0.4-9.7 0.1-14.5 0.1 0-10 0-20 0-30zm4.1 26.2c3.7-0.2 7.5 0.3 11.1-0.4 4-1.6 5.4-6.5 5.4-10.5 0.2-4.3-1.2-9.6-5.7-11.2-3.5-0.6-7.1-0.2-10.7-0.3-0.3 7.4 0 14.9-0.1 22.4z"/><path class="b" d="m608.7 581.6c7.2 0 14.4 0 21.6 0-0.1 0.9-0.1 2.9-0.1 3.8-5.8 0-11.5 0-17.3 0-0.2 2.9-0.1 5.9-0.1 8.9 5.5 0 10.9 0 16.4-0.1q0 2 0.1 3.9c-5.5 0.1-11-0.3-16.5 0.1q0 5 0 10c6 0 12-0.6 18.1-0.3q0.1 1.9 0.3 3.8c-7.5 0.1-14.9 0-22.4 0-0.1-10 0-20-0.1-30.1z"/><path class="b" d="m648.2 581.7q2.1-0.1 4.2-0.1c0.2 10 0 20.1 0.2 30.1q-2.2 0-4.4 0.1 0.1-15.1 0-30.1z"/><path class="b" d="m659.2 581.7q1.9 0 3.9 0c5.4 7.3 10.2 15.2 15.6 22.5 0.3-7.5-0.1-15.1 0.1-22.6q2 0 4.1 0-0.1 15.1-0.1 30.2-2.1-0.1-4.3-0.2c-5.1-7.5-9.8-15.3-15.6-22.3 0.4 7.5 0.4 15 0.2 22.4q-2 0-3.9 0c-0.1-10 0.1-20 0-30z"/><path class="b" d="m763.1 581.6q2.1 0 4.3 0c0 10 0 20.1-0.1 30.2q-2-0.1-4.1-0.1c0.1-10 0-20-0.1-30.1z"/><path class="b" d="m774.4 611.8c0.1-10.1 0.1-20.2 0.1-30.3 1 0 2.8 0.1 3.7 0.1 6.2 6.9 10.2 15.5 16 22.8 0.4-7.7-0.1-15.3 0.3-22.9 0.9 0 2.9 0.2 3.9 0.2 0 10.1 0.1 20.1 0 30.1q-2.1 0-4.2 0c-5.4-7.6-10.5-15.4-15.7-23.2-0.1 7.7-0.1 15.3 0.1 23q-2.1 0.1-4.2 0.2z"/><path class="b" d="m813.2 581.6q2.3 0 4.7 0.1c4.1 9.9 8 19.9 12 29.9q-2.3 0.2-4.6 0.3c-1.4-3-2.5-6.1-3.6-9.2-4-0.1-8 0-11.9 0-1.4 2.9-2.3 5.9-3.3 9q-2.3 0-4.5 0.1 5.2-15.3 11.2-30.2zm-2.2 17.5q4.6 0 9.1 0c-1.2-4.5-3-8.8-4.4-13.3-1.8 4.4-3.2 8.8-4.7 13.3z"/><path class="c" d="m97.6 46.7c14.3-3.1 29.7-0.2 42.1 7.6 8.5 5.1 14.6 13.3 19 22 6 12.2 7 26.7 3.1 39.6-4.8 15-15.8 28.6-30.8 34.2-6.7 2.7-13.8 4.2-21 4.8-14.7-0.9-29.5-6.3-39.8-17.1-9.3-10.2-15.4-23.8-15-37.8 0-11.5 3.4-23.2 10.5-32.4 7.5-10.7 19.4-17.6 31.9-20.9zm-14.2 34.7c-5.2 6.6-4.7 15.5-4 23.4 0.2 2.7 2.5 4.5 3.1 7.1 4.8 8.9 14.4 14.9 24.5 15.5 17.2 1.2 32.3-15.6 30.8-32.4-0.2-1.9 0.1-4.1-1.5-5.4-0.5-6.3-5.1-11.2-9.4-15.5-6.1-4.8-14.1-7.7-21.9-6.6-8.7 1.3-17.2 6.1-21.6 13.9z"/><path class="c" d="m1112.1 62.1c7.8-8.6 18.8-13.5 30-15.7 13.3-2.5 27.4 0.6 38.8 7.8 9.8 6.5 17.4 16.3 21.6 27.2 5.8 15.4 3.9 33.4-4.8 47.3-7 11.8-18.9 20.2-32 23.8-25.6 7.5-56.1-7.2-64.9-32.7-3.7-7.3-3.9-15.8-3.6-23.8 0.4-12.7 6.3-24.8 14.9-33.9zm33.5 6.6c-11.7 3.8-19.7 15.3-20.9 27.3-0.6 11 6.1 21.3 15 27.2 7.2 4.2 16.2 5.7 24.2 2.8 5.8-2.4 11.5-5.9 14.9-11.4 2.2-3.5 5.1-7.1 5.1-11.6 0.1-4.3 0.3-8.6-0.2-12.9-3.3-12-14.5-23.1-27.7-22-3.5 0.1-7-0.4-10.4 0.6z"/><path class="c" d="m368.9 95.7c12.1 0 24.1-0.1 36.2 0-0.1 8.3 0.2 16.5-0.1 24.7-0.7 0-2.1 0.1-2.7 0.1-1.1 3.7-2.6 7.5-5.9 9.8-5.7 4.8-15 3.6-19.6-2.1-1.9-2.2-2.2-5.1-3-7.7q-2.4 0-4.9-0.1c-0.1-8.3 0.1-16.5 0-24.7z"/><path class="c" d="m418 95.7c12-0.2 24-0.1 36 0 0 8.2 0.3 16.4-0.3 24.6q-1.6 0.1-3.3 0.1c-1 6.6-6.5 12.5-13.4 12.8-7.5 0.7-14.4-5.3-15.3-12.6q-1.6-0.2-3.1-0.3c-0.3-8.2-0.8-16.4-0.6-24.6z"/><path class="c" d="m467 95.7c12-0.1 24-0.2 36 0 0.3 8.2-0.2 16.4-0.5 24.5q-1.9 0.2-3.8 0.4c-0.8 7.5-8.2 13.5-15.7 12.6-5.9-0.5-11.4-5.1-12.4-11 0-2-2.4-1.6-3.7-2.1 0-8.1 0.1-16.2 0.1-24.4z"/><path class="c" d="m515.9 95.7c12 0 24.1-0.2 36.1 0.1 0.1 7.4 0 14.8-0.2 22.2l0.6 0.6c0.1 0.2 0.4 0.6 0.5 0.8-1.8 0.5-3.6 0.9-5.5 1.3-1.2 7.2-8 13.1-15.5 12.5-6.8-0.5-12.3-6.2-13.2-12.8-0.7 0-2.1-0.1-2.8-0.2 0-8.2-0.1-16.4 0-24.5z"/><path class="c" d="m563.9 95.7c11.9-0.1 23.8-0.1 35.7 0-0.4 7.9 0.5 15.7 0.6 23.6-1.5 0.9-3.2 1.2-4.8 1.3-1 8-9.4 14.1-17.4 12.3-6-1.2-10.6-6.4-11.4-12.4-0.6-0.1-1.8-0.2-2.5-0.3-0.4-8.1-0.2-16.4-0.2-24.6z"/><path class="c" d="m611.6 95.6c12 0.1 24.1-0.1 36.2 0.2 0.5 7.4 0 14.8-0.2 22.3l0.7 0.6c0.2 0.2 0.5 0.5 0.7 0.7-1.9 0.4-3.7 0.9-5.6 1.2-0.7 7.7-8.2 13.7-15.8 12.7-5.7-0.9-11.1-5.3-12.1-11.2 0.2-2.2-2.5-1.4-3.9-1.8-0.2-8.2-0.1-16.4 0-24.7z"/><path class="c" d="m659.9 95.7c12.1 0 24.1-0.2 36.1 0.1 0.1 8.1 0.2 16.2-0.5 24.3q-2 0.2-3.9 0.4c-0.6 8.2-9.1 14.3-17 12.7-5.3-1.3-10-5.6-11-11.1 0-2-2.4-1.5-3.7-1.9 0.1-8.2 0-16.4 0-24.5z"/><path class="c" d="m707.5 95.7c11.9-0.1 23.7-0.1 35.6 0-0.3 8.2 0.6 16.5-0.5 24.6q-1.6 0.5-3.1 1c-1 4.8-4.3 9.4-9.1 11-8.1 3.6-18.5-2.9-18.9-11.8q-2-0.1-3.9-0.2c-0.2-8.2-0.3-16.4-0.1-24.6z"/><path class="c" d="m756.6 95.7q17.9 0 35.8 0c0 8.2 0.2 16.4-0.2 24.6q-1.9 0.1-3.7 0.1c-0.9 9-11.3 15.5-19.6 11.8-5.1-1.9-7.9-6.8-9.2-11.7-0.7-0.1-2.2-0.2-3-0.2-0.2-8.2-0.2-16.5-0.1-24.6z"/><path class="c" d="m805.8 95.7c12.1-0.1 24.2-0.2 36.2 0.1 0.1 7.9 0.1 15.9-0.6 23.8-1.1 1.3-3.4 0.5-5 0.8-0.1 6.6-5.6 11.2-11.5 12.9-6.1 0.9-12.6-2.3-15.2-8-1-1.9-1.1-4.7-3.7-5.3-0.3-8.1-0.1-16.2-0.2-24.3z"/><path class="c" d="m853.5 95.6c11.9 0.1 23.8 0 35.7 0.1q0.1 10.1 0 20.1c0 1.7-0.4 3.2-0.9 4.8-0.8 0-2.4-0.1-3.2-0.1-0.5 9-10.7 15.2-19 12-5-1.6-8.6-6.4-9.3-11.6-0.8-0.1-2.3-0.2-3.1-0.3-0.6-8.3-0.1-16.6-0.2-25z"/><path class="c" d="m901.4 95.6c11.9 0 23.8 0 35.7 0.1-0.2 8.2 0.3 16.4-0.5 24.5q-1.6 0.1-3.3 0.3c-1.1 5-3.9 9.8-9 11.7-8.3 4.2-18.8-2.7-19.8-11.7-0.7 0-2.2-0.1-2.9-0.1-0.4-8.3-0.3-16.5-0.2-24.8z"/><path class="c" d="m951 95.7c12-0.1 24-0.1 36.1 0-0.3 8.2 0.6 16.4-0.8 24.5q-2.7 0.2-5.4 0.3c0.4 8.1-8.4 13.8-15.9 12.6-5.9-0.8-11.4-5.7-11.7-11.9-0.6-0.1-1.7-0.2-2.3-0.3-0.1-8.4 0-16.8 0-25.2z"/><path class="c" d="m277.7 144.9c5-0.2 10.1-0.1 15 0.8 0.9 0.1 2.6 0.3 3.5 0.4l-0.2 0.4c-0.8 1.7-1.2 3.5-1.6 5.3q-8.1 0.1-16.2 0-0.2-3.4-0.5-6.9z"/><path class="c" d="m282.1 157.1c8.3-1.2 17.2 0.8 23.6 6.2 8.4 6.4 12.3 17.4 11.5 27.7-1.9 8.4-6.2 16.9-13.9 21.4-7.2 4.6-16.1 4.9-24.3 3.8-13.2-3.4-23.5-16.5-22.6-30.3 0.1-14.2 11.6-27.2 25.7-28.8zm0.6 5.5c-5.1 0.8-9.4 3.6-13.3 6.8-5.8 5.5-8.2 13.7-7.1 21.6 2.1 13.8 17.7 24.2 31.3 19.7 6.4-1.8 11.7-6.4 15-12.1 2.9-5 2.3-11.1 2.2-16.7-0.6-6.8-5.7-11.9-10.8-15.8-5.1-3.2-11.4-4.6-17.3-3.5z"/><path class="c" d="m246.6 160.6c2-1 4.3-0.7 6.5-0.8 0 15.7 0.1 31.5 0 47.2-0.1 2-0.4 4-0.5 6-2.2-0.7-4.4-1.1-6.7-1.5-0.5-14.5 0.7-29-0.1-43.5 0-2.5-0.4-5.2 0.8-7.4z"/><path class="c" d="m320.7 159.7q3 0.3 6 0.6c0.1 17.3 0.3 34.7-0.1 52.1q-2.5 0.4-5.1 0.9c-1.1-4.7-0.5-9.5-0.7-14.3-0.2-13.1 0.2-26.2-0.1-39.3z"/><path class="c" d="m278.4 187.1c-0.6-5.5 5.7-9.3 10.6-8.2 3.9 1.6 7.3 5.7 6 10.1-0.5 3.2-3.8 4.5-5.3 7.1-5.4 1.2-11.6-3.3-11.3-9z"/><path class="c" d="m147.9 184.7c8.9-0.1 17.8 0 26.8-0.1q0 2.4 0.1 4.7c8.3 0.8 14.6 9.7 12.2 17.8-1.3 5.5-6.3 9.8-12 10.3q-0.2 1.7-0.4 3.4c-2.5 0.3-5 0.7-7.6 0.5-6.4-0.5-12.8-0.1-19.2-0.2q0-18.2 0.1-36.4z"/><path class="c" d="m1100.4 188.8c8.6-0.1 17.2-0.3 25.8-0.2-0.1 12-0.1 24-0.1 36-8.6 0.4-17.2-0.1-25.9 0q0-2.1 0-4.1c-7.9-0.2-14.2-7.8-13.4-15.6 0.5-6.5 6.2-12.5 13-12.7q0.3-1.7 0.6-3.4z"/><path class="c" d="m68.3 195.6c8.1-2.3 17.1-1.4 24.4 2.7 7.2 3.8 11.6 11.3 13.9 18.8 1.7 8 0.8 16.9-3.5 24-7.3 12.7-24.7 18-38 11.9-14.5-5.7-21.8-24-16.4-38.4 2.7-9.2 10.6-16.3 19.6-19zm-2.6 11.1c-5.8 3.6-9 10.5-8.6 17.3 0.2 2.9 0 6.6 2.8 8.4 0.1 0.5 0.3 1.6 0.4 2.2 4.5 6.9 14.1 10.7 21.9 7.7 5.2-1.7 9.6-5.6 11.7-10.7 5.8-10-0.6-24.6-11.8-27.3-5.5-0.1-11.8-1.3-16.4 2.4z"/><path class="c" d="m276.8 221.6c6.4-0.1 12.9 0.1 19.4 0q0 3.4-0.1 6.8c-0.7-0.1-2.1-0.1-2.8-0.1-5.4-0.2-10.9 0-16.3-0.1q-0.1-3.3-0.3-6.6z"/><path class="c" d="m147.8 236.9c8.5 0.1 16.9-0.2 25.3 0 5.2 1.7 11 4.2 13.2 9.8 3.8 8-2.2 18.6-11.2 19-0.2 2.3-0.3 4.7-0.2 7.1-9.1-0.2-18.1 0.5-27.2 0.3q0.1-18.1 0.1-36.2z"/><path class="c" d="m1100.4 237.4c8.6-0.6 17.1-0.5 25.7-0.4q0 18.1 0 36.2c-8.7 0-17.4 0.1-26.2-0.1q0-1.9 0-3.9c-8.9-0.5-15.7-10.5-12.4-18.9 1.8-5.3 6.8-9 12.4-9.5q0.2-1.7 0.5-3.4z"/><path class="c" d="m1100.4 285.9c8.6-0.5 17.2-0.2 25.8-0.3-0.1 12-0.1 23.9-0.1 35.8-8.7 0.1-17.4 0-26.2-0.1q0-2 0-3.9c-5.2-0.2-10.1-3.5-11.9-8.4-4.2-8.2 2.5-19.4 11.8-19.6q0.3-1.8 0.6-3.5z"/><path class="c" d="m70.5 296.8c6.3-1.7 13-0.6 18.9 1.8 10.6 4.4 17.4 15.3 18.2 26.5 0.7 13.5-8.6 26.8-21.6 30.7-13.7 4.9-30.1-2.6-36.1-15.7-4.3-9.1-4.2-20.4 1.1-29.1 4.2-7.2 11.5-12.3 19.5-14.2zm1.1 9.8c-6.5 1.9-12.1 7-14 13.6-3.7 9.9 3.7 21.1 13.4 23.9 6.1 3 13.2 0 18.2-3.8 9.8-7.5 8.3-24.2-1.7-30.8-4.5-3.5-10.5-4-15.9-2.9z"/><path class="c" d="m147.8 332.7c9 0.1 18.1-0.1 27.1 0.2 0.1 0.5 0.4 1.4 0.5 1.8 3.9 1.3 7.8 3.3 9.9 6.9 3.7 5.6 2.5 13.7-2.6 18.1-2.2 2-5.1 2.7-7.9 3.6q0.1 2.6 0.1 5.2c-9.1 0-18.1 0.3-27.2 0.2 0.3-12 0.1-24 0.1-36z"/><path class="c" d="m1100.4 334c8.6 0.3 17.1-0.4 25.7-0.1 0 12.2 0 24.3 0.1 36.5-8.8 0.2-17.5-0.2-26.2-0.2q-0.1-2.1-0.1-4.2c-4.3-0.8-8.8-2.8-11-6.9-4-6.2-1.9-15.1 4-19.2 2.1-1.6 4.8-2 7.3-2.7 0.1-0.8 0.1-2.4 0.2-3.2z"/><path class="c" d="m147.8 380.6c9.1 0.2 18.1 0.1 27.1 0.2 0.1 0.4 0.4 1.4 0.5 1.9 6 1.8 11.6 6.6 12 13.2 0.9 7.5-4.8 14.7-12.3 15.4q0 2.5-0.1 5.1c-9 2-18.2-0.5-27.3 0.2 0-12 0.2-24 0.1-36z"/><path class="c" d="m1100.3 382.8q12.9 0 25.8-0.1c0 12.1 0 24.2 0 36.4-8.7 0-17.4 0-26.2-0.3q0-2.3 0-4.5c-8.8-0.5-15.4-10.4-12.2-18.6 1.7-5.4 6.8-9.3 12.4-9.9 0-0.7 0.2-2.2 0.2-3z"/><path class="c" d="m70.5 400.9c6.7-1.5 14-0.7 20.2 2.5 8 4.1 13.8 12.1 16.1 20.8 1.6 7.4 0.4 15.5-3.4 22.2-7.2 13.3-25.5 18.9-39 12.1-14.4-6.2-21.5-25.1-15.1-39.3 3.3-9.3 11.9-15.9 21.2-18.3zm2 9.5c-7.4 1.7-13.5 7.9-14.3 15.5-1.3 10.2 6.6 20.7 16.8 21.9 10.6 1.6 21.6-8 20.9-18.8 0.1-6.6-3.6-13.1-9.1-16.7-4.2-3-9.6-2.4-14.3-1.9z"/><path class="c" d="m147.8 428.5c9.2-0.2 18.4 0.6 27.6-0.3q-0.5 1.3-1 2.6c5.7 1.3 11.1 5.2 12.6 11.1 2.4 7.9-3.6 16.8-11.8 17.5q-0.1 2.4-0.1 4.8c-9.1 0.4-18.3 0.2-27.4 0.3 0.2-12 0.1-24 0.1-36z"/><path class="c" d="m1100.7 431q12.7-0.1 25.4-0.1c0 12.1 0 24.3 0 36.4-8.7 0.1-17.4-0.1-26.1-0.2q-0.1-2.3-0.1-4.6c-6.7-0.4-12.3-5.9-13-12.5-0.8-7.2 4.6-14.7 12-15.6 1.9 0 1.3-2.2 1.8-3.4z"/><path class="c" d="m147.8 476.4c9.2 0 18.4 0.1 27.6 0.2-0.3 0.5-0.8 1.6-1.1 2.2 4.3 0.9 8.7 3 10.9 6.9 3.8 5.8 2.7 14.4-2.9 18.6-2 1.7-4.6 2.5-7.2 3.1q0 2.3 0 4.7c-9.1 0.2-18.2 0-27.3 0-0.1-11.9 0.1-23.8 0-35.7z"/><path class="c" d="m1100.5 479.5c8.5 0 17.1-0.4 25.7-0.1-0.2 12.2-0.1 24.5-0.1 36.7-8.5 0.2-17.1-0.5-25.6 0q-0.2-2.7-0.6-5.4c-8.1-0.4-14.6-8.8-12.7-16.7 1.1-6.3 6.7-11.4 13.2-11.6 0-0.7 0.1-2.2 0.1-2.9z"/><path class="c" d="m71.1 499.3c6.5-1.2 13.4-0.8 19.3 2.3 10 4.5 15.9 15 17.5 25.4 0.6 12.6-7.2 25.1-18.8 30.1-8.7 3.9-19.3 3.2-27.5-1.8-7.7-4.4-12.8-12.6-14.3-21.3-1.7-7.2 0.5-14.6 3.9-20.9 4-7.4 11.8-12.2 19.9-13.8zm0.4 11.1c-7.7 1.6-13.1 8.4-14.8 15.7-1 5.4 1.2 10.7 3.9 15.2 3.7 5.1 10.1 8.2 16.4 7.6 7.2 0.6 13.2-4.4 16.8-10 2.8-4 2.3-9.2 1.9-13.8-1.4-6.6-6.6-12.1-12.8-14.6-3.8-0.6-7.7-0.6-11.4-0.1z"/><path class="c" d="m147.8 524.9c9.1 0.1 18.3-0.1 27.4 0.1 0 0.7-0.1 2.2-0.1 2.9 3.9 0.7 7.5 3 9.8 6.3 3.3 4.3 3.3 10.7 0.6 15.4-2.2 3.8-6.3 5.9-10.4 6.9q0 2.3-0.1 4.6c-9.1 0.1-18.2 0.1-27.3 0.1 0.1-12.1 0.1-24.2 0.1-36.3z"/><path class="c" d="m166.9 572q1.8 0.1 3.7 0.4 2.2 0.4 4.5 0.8c0 0.7 0 2 0 2.7 7.2 1 12.8 7.9 12.4 15.1 0 6.8-5.6 12.9-12.3 13.4q-0.2 2.5-0.4 5.1c-9 1.5-18 0-27 0.5-0.1-12.3-0.1-24.7 0-37 6.3-0.6 13 1.2 19.1-1z"/><path class="c" d="m1100 575.9c8.7 0.3 17.4 0 26.1 0q0 18.1 0 36.3c-8.6 0-17.3-0.1-25.9 0q0-2.5-0.1-5c-5.7-0.9-11.1-4.7-12.6-10.6-2.8-8.2 3.9-17.3 12.3-18 0.1-0.7 0.2-2.1 0.2-2.7z"/><path class="c" d="m46.9 602c11.7-0.1 23.4 0 35.1 0 8.4 0.4 16.9 0.5 25.3 0 0.4 20.4 0.1 40.8 0.2 61.2-20.3-0.1-40.5 0-60.7 0 0.1-20.4-0.1-40.8 0.1-61.2zm10.5 23.1c-0.6 3.9-0.4 8-0.3 11.9-0.2 3.1 2.4 5 3.5 7.6 3.1 3.7 7.3 6.7 12.1 7.6 11.9 2 24.6-8.9 23.3-21.2 0.2-6.6-4.3-12.7-9.5-16.3-4.5-3.2-10.2-2.9-15.3-2.3-6.1 2-11.7 6.5-13.8 12.7z"/><path class="c" d="m147.8 621.8c9.1 0.4 18.2-0.3 27.3 0.2 0 0.7 0 2.1 0 2.8 7.5 1.4 13.7 9 12.2 16.8-0.7 6.2-6 11.1-12.1 11.7q-0.1 2.4-0.1 4.8c-9.1 0.1-18.2 0.2-27.3 0.1 0-12.1 0-24.2 0-36.4z"/><path class="c" d="m1100.4 624.4q12.8 0 25.7-0.3 0 18.5 0 36.9c-8.7 0-17.3 0.2-25.9 0q-0.2-2.7-0.4-5.3c-9-0.4-15.7-10.8-12.1-19.1 1.8-5.1 6.6-8.8 12-9.2q0.3-1.5 0.7-3z"/><path class="c" d="m989.4 624.9c6.2-0.2 12.5-0.2 18.7 0.1q0 3.5 0 7.1c-6.2 0.1-12.6 0.4-18.8-0.1q0-3.6 0.1-7.1z"/><path class="c" d="m991.3 636.3c16.6-4 34 9.2 36.2 25.7 0.6 7-0.1 14.4-4.3 20.1-6.5 11.8-21.3 16.3-33.9 13.7-9.3-2.8-17.2-9.9-20.2-19.1-3.1-6.4-3.3-14.2-0.1-20.6 3.4-9.9 12.4-17 22.3-19.8zm0.3 6c-7.5 1.7-13.9 7.2-16.9 14.3-2 4.5-1.6 9.6-1.3 14.5 1.2 8 7.2 14.7 14.4 18.1 2.5 1.1 5.5 0 7.8 1.5 3.6 0.1 7.2-0.9 10.8-1.3 9.6-3.9 16.5-14 15.9-24.4-0.9-9.3-6.9-18.4-15.9-21.5-4.6-2.2-9.9-1.2-14.8-1.2z"/><path class="c" d="m1031.4 637.4c2.1 1.3 4.5 2.2 6.3 3.9 0.8 2.5 0.1 5.2 0.2 7.7-0.2 14.2 0 28.4-0.1 42.5q-3.1 1.3-6.2 2.6c-0.2-18.9 0.2-37.8-0.2-56.7z"/><path class="c" d="m957.4 642.3c1.2-1.6 3.1-4.7 5.4-3.1 0.6 14.6 0.1 29.2 0.3 43.8-0.2 4.2 0.6 8.6-0.7 12.7-2-1.6-5.7-2.5-5.2-5.7 0.1-15.9-0.3-31.8 0.2-47.7z"/><path class="c" d="m994.4 658c4-0.9 8.3 0.8 10.5 4.3 1.4 3.9 0.6 9.2-3.4 11.3-3.7 1.9-9 0.8-11.1-3-1.6-2.6-0.8-5.7-0.6-8.5 1.6-1.3 3.2-2.7 4.6-4.1z"/><path class="c" d="m988.6 700.5q8.9-0.1 17.9 0-0.1 3.1 0 6.1c-5.9 1.2-11.9 0.5-17.9 0.6q0-3.4 0-6.7z"/><path class="c" d="m101.1 705.1c13.8-2.1 28.2 1.4 39.7 9.2 12 8.6 20.7 22.2 22.6 37 2.2 13.8-1.3 28.4-9.7 39.5-11.7 16.7-33.5 25.4-53.6 21.9-12.7-2.7-25.1-9.1-33-19.7-7.6-10-12.4-22.4-11.7-35.1-0.3-16 7.7-31.5 20-41.6 7.5-5.7 16.4-9.7 25.7-11.2zm3.5 22.7c-5.8 1.4-11.8 3.3-16.2 7.5-5.9 5.9-10.1 14.2-9.4 22.7-0.8 12.8 8.6 25.6 21.1 28.6 4.9 0.5 9.9 0.4 14.8 0.1 8.7-1.4 15.3-7.9 19.7-15.2 3.1-6.5 2.7-13.9 2-20.9-1-7.6-6.3-13.5-12.1-18-5.9-3.7-12.9-6.3-19.9-4.8z"/><path class="c" d="m1143.2 705.3c11.7-2.2 24 0.3 34.5 6 11.3 5.7 19.5 16.2 24.3 27.7 7.2 17.7 4.1 39.2-8.1 54-13.6 17.6-39.1 25.2-60 17.4-14.2-4.7-26-15.6-32.1-29.3-8-16.7-6-37.6 5-52.6 8-12.5 21.8-20.8 36.4-23.2zm1.4 24.3c-14.6 5.2-23.9 23.5-17.4 38 2.5 8.6 9.5 15.5 18 18.3 7.1 2.8 15 1.9 22-0.6 6.9-3.9 13-9.9 15.5-17.6 2.8-6.1 2.8-13.2 0.1-19.3-4.3-15.5-23.3-25.4-38.2-18.8z"/><path class="c" d="m272.9 723.3c0.2-9 10.7-15.8 19-12.2 5.4 1.8 8.4 7.1 9.4 12.4 0.7 0 2.1 0 2.8 0-0.8 7.8 0.1 15.7-0.1 23.5q-17.6 0-35.3 0c-0.2-7.8-0.1-15.7 0-23.6q2.1-0.1 4.2-0.1z"/><path class="c" d="m321.5 722.9c0.7-6.8 6.6-12.6 13.5-12.6 6.8-0.3 13.2 5 14.3 11.6-0.1 2.2 2.4 1.5 3.8 1.9-0.2 7.7 0.2 15.5 0 23.2q-17.6 0-35.2 0-0.1-12-0.1-23.9 1.9-0.1 3.7-0.2z"/><path class="c" d="m417.8 723.6c0.8-6.8 6.3-12.7 13.3-13.4 7.4-0.7 14.3 5.4 15.1 12.8q1.9 0 3.9 0c0 7.9 0.1 15.8 0 23.7-11.8 0.6-23.6 0.3-35.5 0.3-0.3-7.8 0.1-15.7 0-23.5 0.8 0 2.4 0.1 3.2 0.1z"/><path class="c" d="m466.4 723.5c-0.2-8.7 9.6-15.5 17.7-12.7 5.7 1.6 9.8 6.8 10.2 12.7q1.9-0.1 3.8 0c-0.1 7.8 0.3 15.7 0.1 23.5-11.8 0.1-23.6 0-35.4 0-0.2-7.8 0.1-15.6 0-23.4q1.8-0.1 3.6-0.1z"/><path class="c" d="m563.2 723.3c0.8-7.3 7.4-13.2 14.7-13.2 6.6 0.6 13 6 13.4 12.8q1.9 0 3.8 0.1c0.2 8 0.4 16 0.1 24-11.8 0-23.6 0.3-35.4-0.2-0.1-7.8-0.2-15.7 0-23.5 0.9 0 2.6 0 3.4 0z"/><path class="c" d="m610.8 723.7c0.7-6.2 5.1-11.8 11.4-13.1 7.8-2.1 16.4 4.3 17 12.3q1.9 0 3.8 0.1c0.2 7.8 0.1 15.7 0.1 23.6-11.9 0.2-23.7 0.1-35.6 0 0.1-7.7-0.1-15.5 0.1-23.2 0.8 0 2.4 0.2 3.2 0.3z"/><path class="c" d="m660 723c0.5-8.6 10-15 18.1-12.1 5.6 1.7 9.2 7.1 10.1 12.7 0.8 0 2.4 0 3.2 0 0 7.8 0.3 15.6 0 23.4q-17.8 0.1-35.5 0c-0.2-8-0.1-16 0-24q2 0 4.1 0z"/><path class="c" d="m717.8 711c8.4-3.2 17.9 3.8 18.6 12.5q1.8 0.1 3.6 0.3c0.3 7.6 0 15.2 0 22.8-7.7-0.1-15.3 0.8-23 0.4q-6.5-0.3-13-0.4c-0.1-7.7-0.2-15.4 0-23.1q1.9 0 3.8 0.1c0.8-5.6 4.3-11.1 10-12.6z"/><path class="c" d="m766.1 711.2c8.6-3.6 18.5 3.5 19.2 12.5 0.8-0.1 2.5-0.2 3.3-0.2-0.2 7.8 0 15.5-0.2 23.3-11.8 0-23.6 0.5-35.4 0.2-0.1-7.8-0.1-15.6 0-23.4q1.9 0 3.9 0c0.5-5.5 3.8-10.7 9.2-12.4z"/><path class="c" d="m805.6 723.6c0.1-8.2 8.4-14.7 16.4-13.2 6.2 1.1 11.5 6.8 11.5 13.2q2.4 0.1 4.8 0.3c-0.1 7.7 0.2 15.4 0 23.1-11.8 0.1-23.7 0-35.5 0-0.2-7.8-0.1-15.6-0.1-23.4 0.7 0 2.2 0 2.9 0z"/><path class="c" d="m863.2 711.3c8.2-3.2 18.1 2.9 19 11.7q1.9 0 3.9 0c0.1 8 0.1 16 0 24-11.8 0.1-23.6 0-35.5 0-0.3-7.8-0.1-15.6 0-23.4 0.7 0 2.3 0.1 3.1 0.1 0.6-5.5 4.1-10.7 9.5-12.4z"/><path class="c" d="m369.7 723.6c0.7-5.4 4-10.7 9.4-12.4 8-3.3 18.1 2.9 18.6 11.6q2.1 0.2 4.3 0.3c0.2 8 0.1 15.9 0.1 23.9-11.8 0-23.7 0-35.5 0-0.2-7.8 0-15.6 0-23.5 0.8 0 2.3 0.1 3.1 0.1z"/><path class="c" d="m514.5 723.5c0-7.1 6.5-13 13.5-13 7.1-0.6 14 5.3 14.3 12.4q1.9 0 3.8 0.1c-0.2 7.9 0.1 15.8 0 23.8-11.8 0.4-23.5 0.2-35.3 0.2-0.4-7.8 0-15.6 0-23.3q1.8-0.1 3.7-0.2z"/><path class="d" d="m270.3 130.9q11.1 0 22.3 0c0 4.9 0 9.9 0.1 14.8-5-0.9-10-1-15-0.8q0.3 3.5 0.5 6.9 8.1 0.1 16.2 0c0.4-1.8 0.8-3.6 1.6-5.3 0.3 2.2 0.4 4.4 0.5 6.6-8.8 0.2-17.6 0.3-26.3-0.1 0.1-7.4 0-14.8 0.1-22.1z"/><path class="d" d="m231.3 151.3c8 0.1 15.9 0.1 23.9 0l-1.1 1c-0.2 0-0.6 0.1-0.8 0.1-0.1 2.5-0.2 4.9-0.2 7.4-2.2 0.1-4.5-0.2-6.5 0.8-1.2 2.2-0.8 4.9-0.9 7.4 0.9 14.5-0.3 29 0.2 43.5 2.3 0.4 4.5 0.8 6.7 1.5l-0.1 1.2c-7.1 0-14.1 0-21.2 0 0-21 0-41.9 0-62.9z"/><path class="d" d="m331.7 152.3l0.3-0.1c-0.3 20.6 0 41.3-0.1 61.9-3.5 0.1-7 0.1-10.4 0v-0.8q2.6-0.5 5.1-0.9c0.4-17.4 0.2-34.8 0.1-52.1q-3-0.3-6-0.6 0-3.3 0-6.7c3.7 0 7.4 0.3 11-0.7z"/><path class="d" d="m270.9 221.7q2.9-0.1 5.9-0.1 0.1 3.3 0.2 6.6c5.5 0.1 10.9-0.1 16.3 0.1q-0.1 1.9-0.1 3.9c-7.5 0.2-15-0.1-22.4 0.3 0.1-3.6 0-7.2 0.1-10.8z"/><path class="d" d="m987.7 615.3c7.6 0.1 15.2 0.2 22.9 0 0 5.5-0.2 11.1 0.1 16.6-0.7 0-1.9 0.1-2.6 0.2q0-3.6 0-7.1c-6.3-0.3-12.5-0.3-18.7-0.1q-0.1 3.5-0.1 7.1l-1.5-0.2c-0.2-5.5-0.2-11-0.1-16.5z"/><path class="d" d="m948.8 635.8c4.8-0.1 9.6 0.1 14.4-0.1 1.8 4.6 0.9 9.5 1.1 14.3 0.2 13.7-0.2 27.3 0 41 0.1 2.6-0.6 5.2-1.1 7.7q-7.2 0-14.4 0c-0.1-21 0-41.9 0-62.9zm8.6 6.5c-0.5 15.9-0.1 31.8-0.2 47.7-0.5 3.2 3.2 4.1 5.2 5.7 1.3-4.1 0.5-8.5 0.7-12.7-0.2-14.6 0.3-29.2-0.3-43.8-2.3-1.6-4.2 1.5-5.4 3.1z"/><path class="d" d="m1031.4 637.4c5.4-1.2 11.1-0.1 16.6-0.4 0 20.1 0.1 40.3-0.1 60.4-5.4 0.2-10.9 0.1-16.4 0.1 0.1-0.9 0.1-2.6 0.1-3.4q3.1-1.3 6.2-2.6c0.1-14.1-0.1-28.3 0.1-42.5-0.1-2.5 0.6-5.2-0.2-7.7-1.8-1.7-4.2-2.6-6.3-3.9z"/><path class="d" d="m1007 700.8c0.8 0 2.4-0.1 3.2-0.2 0.4 5.6 0.3 11.2 0.3 16.7-4.5 0-9 0.1-13.4-0.1l-0.9-0.3c-2.2-0.9-4.7-0.9-7.1-0.9-0.2-3-0.4-5.9-0.5-8.8 6-0.1 12 0.6 17.9-0.5q0.2-3 0.5-5.9z"/><path class="e" d="m375.9 145.9c214.4-0.1 428.7 0 643.1-0.1 18.7 0.1 37.4-0.1 56.1 0.1 0.2 151.4 0.1 302.8 0 454.3-56.9 0.1-113.8 0-170.7 0.1 0.1 32.6 0.2 65.2-0.2 97.7-234.1 0-468.2 0-702.3 0-0.3-147.1 0.1-294.3-0.2-441.4 58-0.1 116-0.2 174.1 0 0.2-36.9 0.1-73.8 0.1-110.7zm16.2 8.2c-0.2 4.3 0.2 8.7-0.1 13-2.6 1.1-6 0.1-8.9 0.8 0.2 29.3 0 58.6 0.1 87.9q3.2 0.3 6.5 0.5c0.3 2.7 1.9 8.5-2.7 7.8-58.9 0-117.9 0.1-176.8 0 0 137.5-0.2 275 0 412.6q4.5-0.1 8.9 0c0.1 4 0.1 8 0.1 12.1q333.9 0.1 667.7 0c0.1-3.9-0.1-7.8 0.4-11.6 2.5-1.2 5.6-0.3 8.4-0.5-0.2-24.7 0-49.5-0.1-74.3q-3.4-0.1-6.8-0.2-0.1-4.2 0-8.4c59.3-0.3 118.6-0.1 177.9-0.1-0.2-11.2 0-22.5 0-33.7 0-117.3-0.1-234.7-0.1-352.1-0.1-13.4 0.4-26.9-0.1-40.4q-4.9-0.1-9.8-0.1-0.1-6.6 0-13.2c-221.6 0-443.1 0-664.6-0.1z"/><path class="f" d="m392.1 154.1c221.5 0.2 443 0.1 664.6 0.1q-0.1 6.6 0 13.2 4.9 0 9.8 0.2c0.5 13.4 0 26.9 0.2 40.3 0 117.4 0 234.8 0 352.1 0 11.2-0.2 22.5 0 33.7-59.3 0-118.6-0.2-177.9 0.1q-0.1 4.2 0 8.4 3.4 0.1 6.8 0.2c0.1 24.8-0.1 49.6 0.1 74.3-2.8 0.2-5.9-0.7-8.3 0.5-0.5 3.8-0.4 7.7-0.5 11.6q-333.8 0.1-667.7 0c0-4.1 0-8.1-0.1-12.1q-4.4-0.1-8.9 0c-0.1-137.6 0-275.1 0-412.6 58.9 0.1 117.9 0 176.8 0 4.6 0.7 3-5.1 2.7-7.8q-3.3-0.2-6.5-0.5c-0.1-29.3 0.1-58.6-0.1-87.9 2.9-0.6 6.3 0.3 8.9-0.8 0.3-4.3-0.1-8.6 0.1-13zm16 22c-0.1 36.4 0 72.8 0 109.2-13 0.3-26.1 0.1-39.1 0.2-43.3-0.1-86.5 0.1-129.8-0.1q-0.1 2.3-0.1 4.5c0 121.7-0.1 243.3 0 365 210.2-0.1 420.4 0.1 630.6-0.1 0-27.6-0.1-55.3 0.1-82.9 56.3-0.1 112.5 0.2 168.8-0.1-0.2-102.7 0-205.4-0.1-308.1-8.3-7.4-15.8-15.7-23.8-23.4-21.4-21.3-42.7-42.7-64.1-64-10.5-0.5-21.1 0-31.6-0.2-170.3 0-340.6 0.1-510.9 0z"/><path class="f" d="m1190.9 251.8q10.1-0.2 20.2-0.1 0 5.2 0 10.4c-0.1 6.5-0.6 13-0.4 19.4 1.4 0.1 2.9 0.2 4.4 0.3q-2 0.2-4 0.4-0.1 5.5 0 10.9-10.1 0-20.2 0 0-5.7 0-11.3c6.3 0.6 12.8 1 19.1 0 1-4.5 0.4-9.2 0.6-13.8-0.2-1.9 0.3-4.1-0.8-5.7-6.2-1.2-12.7-0.5-18.9 0q0-5.3 0-10.5z"/><path class="g" d="m1190.9 262.3c6.2-0.5 12.7-1.2 18.9 0 1.1 1.6 0.6 3.8 0.8 5.7-0.2 4.6 0.4 9.3-0.6 13.8-6.3 1-12.8 0.6-19.1 0 0.1-6.5 0.1-13 0-19.5z"/></svg>