<svg version="1.2" xmlns="http://www.w3.org/2000/svg" viewBox="0 0 896 1188" width="896" height="1188"><style>.a{fill:#fffffe}.b{fill:#bc993d}.c{fill:#262726}.d{fill:#010101}.e{fill:#ea7319}</style><path class="a" d="m145.4 803.8c1.6-8.7 2.9-17.4 5-26.1q8.5 0.3 17.1 0.1c4 12.3 7.4 24.7 10.9 37.1 8.3-12.2 16.3-24.5 24.4-36.7 5.9-0.1 11.9-0.2 17.8 0.1-3.2 18.3-6.5 36.6-9.6 54.9-5.4 0.3-10.9 0.2-16.4 0.2 1.1-7.8 3-15.3 4-23-5 7.5-9.6 15.3-14.5 22.9-5.7 0-11.4 0.1-17.1 0-2.5-8-4.3-16.2-6.8-24.2-1.4 8.1-2.7 16.2-4.3 24.2-5.3 0.1-10.6 0.1-15.9-0.1 1-9.9 3.7-19.6 5.4-29.4z"/><path class="a" d="m229.6 778.2c17 0.1 34-0.2 51 0.2-0.6 4.3-1.3 8.7-2.3 13-11.3 0.2-22.7 0-34 0.2-0.5 2.6-1 5.2-1.6 7.8 9.6 0.2 19.2 0.1 28.9 0.2q-0.8 6.3-2.4 12.4c-9.5 0.2-19.1 0-28.6-0.1-0.7 2.6-1.3 5.3-1.8 7.9 11.7 0.1 23.4-0.1 35.1 0.1-0.3 4.5-1 9.1-2.3 13.4-17.3-0.1-34.7 0.1-52-0.1 3.1-18.4 6.8-36.7 10-55z"/><path class="a" d="m286.4 787.4c3.1-6.6 10.7-9.3 17.5-9.2 12.5 0 25-0.3 37.5 0.2-0.6 4.5-1.4 8.9-2.3 13.2-11.4 0-22.8-0.3-34.2 0.1-3.6-0.3-6 6.5-2 7.6 8.3 0.5 16.7-0.5 25 0.4 4.7 0.6 10.4 3.8 10 9.2-0.2 6.2 0.1 13-3.8 18.1-3.3 4.9-9.7 6.1-15.1 6.2-13.3 0-26.6 0.1-39.9 0 0.6-4.4 1.3-8.8 2.4-13.1 1.4-0.6 3-0.4 4.5-0.4 10.4 0.1 20.7 0.1 31 0.1 4.3 0.4 5.9-7.9 1-7.5-8.3-0.5-16.6 0.3-24.8-0.8-4.4-0.7-8.8-3.7-9.2-8.4-0.5-5.3 0.5-10.8 2.5-15.7z"/><path class="a" d="m352.5 778.2c5.5 0 11-0.2 16.5 0-1.1 7.1-2.3 14.1-3.9 21.1 7.3 0.1 14.6 0 21.9 0.1 1-7.2 2.8-14.2 3.8-21.3 5.5-0.4 11.1-0.3 16.7 0.1-3.4 18.4-6.6 36.8-10.4 55.1-5.5 0-11 0-16.4 0 0.7-6.9 2.4-13.6 3.5-20.4-7.3-0.1-14.5-0.1-21.8 0-0.9 6.8-2.2 13.6-3.5 20.4-5.5 0.1-11 0-16.6 0 1.4-10.1 3.6-20.1 5.3-30.2 1.9-8.3 2.5-16.8 4.9-24.9z"/><path class="a" d="m219.4 848.5c9.5-0.2 19.1-0.2 28.6 0.2 4.5 0.3 9.7 0.9 12.6 4.7 2.8 3.5 2.3 8.3 1.7 12.4-1 6.4-2 12.8-3 19.3-0.7 4.6-1.8 9.4-5.1 12.9-4.2 4.9-11.1 5.8-17.2 5.9-9.3 0-18.7 0.2-28.1-0.2-5.6-0.2-11.8-3.7-12.5-9.8-0.5-6.4 1.8-12.6 2.6-18.9 1.4-6.8 1.4-14.4 6.1-19.9 3.4-4.4 9-6.3 14.3-6.6zm1.9 13.9c-4 1.3-4.2 6.2-4.9 9.7-0.7 5-2.2 9.9-2.2 15 0.2 3.4 4.4 3 6.8 3.1 5.6-0.2 11.4 0.4 16.9-0.4 3.7-0.5 4.2-4.7 4.8-7.7 0.9-5.7 2.5-11.4 2.5-17.2-1.2-3.4-5.3-2.8-8.1-3-5.3 0.2-10.6-0.5-15.8 0.5z"/><path class="a" d="m157.5 849.6c4-1.2 8.3-1 12.5-1.1 9.4 0 18.7-0.2 28.1 0.3-0.7 4.5-1.5 9-2.7 13.4-9.7 0.3-19.5 0-29.2 0.4-3.5 0.2-4.4 4.1-4.9 6.9-0.6 5.2-1.9 10.4-2.8 15.6-0.5 1.8 0.4 4.7 2.6 4.4 9.8 0.1 19.5-0.2 29.2 0.2-0.8 4.7-1.7 9.3-2.7 14-9.5 0.2-19.1 0-28.7 0-5.1 0-10.7-0.4-14.9-3.7-3-2.7-4-7-3.4-10.9 1.4-9.1 3.6-18.1 5.3-27.1 1.1-6 6-10.5 11.6-12.4z"/><path class="a" d="m263.5 903.7c3.2-18.3 6.8-36.6 10.2-54.8 13.1 0 26.2-0.2 39.3-0.1 4.5 0.3 9.7 0.5 13 4.1 2.8 2.9 2.4 7.4 2 11.1-0.6 5.1-1.4 10.3-2.9 15.2-1.4 4.6-5.7 7.4-9.8 9.3 2.9 5 5.6 10.1 8 15.3-6.3 0-12.7 0.4-19.1-0.2-3-4.7-5.2-9.9-8-14.7-4.4 0-8.8-0.1-13.1-0.1-1.1 4.9-2 9.9-3 14.9-5.5 0.1-11.1 0.2-16.6 0zm22.1-27.6c6.1 0 12.3 0.1 18.4 0 1.8-0.1 4-0.4 4.7-2.3 1.3-3.1 1.8-6.5 1.7-9.8 0.2-1.8-2.1-2.1-3.4-2.2-6.2-0.4-12.4-0.1-18.7-0.1-1 4.7-1.7 9.6-2.7 14.4z"/><path class="a" d="m339.4 849.2c5.5-0.4 11.1-0.3 16.6-0.2 11.7 0.3 23.3-0.2 35 0.3q-1 6.7-2.5 13.2c-11.5 0.1-23.1 0-34.6 0.1q-0.5 3.8-1.2 7.7c9.5 0.2 19-0.3 28.6 0.2-0.8 4.1-1.4 8.2-2.2 12.2-9.5 0.1-19.1 0.1-28.7 0.2q-0.6 3.6-1.3 7.3c11.5 0.1 23.1-0.4 34.7 0.3-0.6 4.5-1.5 8.9-2.3 13.3-11.5 0.6-23 0-34.5 0.3-5.6-0.2-11.3 0.4-16.9-0.3l-0.4-0.6c2.8-18.1 6.8-35.9 9.7-54z"/><path class="b" d="m630.2 45.9c0.2-3.4 3.4-6 6.7-5.6q33.1 0 66.1 0c3-0.2 5.7 2.6 5.6 5.6 0.2 4.1 0 8.2 0 12.3 2.3 1.9 6.6 3 6.1 6.8q-3.1 1.3-6.1 2.7 0.1 1.3 0.2 2.5 2.9 1 5.8 1.8c0 1.1 0.2 2.2-0.1 3.2-2.1 1.6-4.7 2.4-6.3 4.6 1.9 1.5 4.3 2.4 6.5 3.2 1 3.9-3.8 4.4-6.2 5.9q0.1 1.1 0.2 2.2c2.1 1.4 6.3 1.5 6.2 4.8-0.9 2.3-3.8 2.6-5.7 3.9q0.1 1.3 0.1 2.6 2.3 0.8 4.7 1.6c0.4 0.5 1.4 1.6 1.8 2.1-1.8 2-4.1 3.2-6.5 4.2 0 0.6 0 1.9 0 2.5q2.5 1 5 2c0.3 0.6 1 1.7 1.3 2.3q-2.8 2.3-6 3.9c-0.1 0.3-0.5 0.9-0.6 1.2 7 2.2 14.8-0.3 21.5 3.4 2.5 1.2 4.7 2.8 7 4.4 0 5.6 0.1 11.3 0 17q-1.6 0.9-3.1 1.9c3.8 5.8 2.8 12.8 2.9 19.4 0.5 0.4 1.5 1.1 2 1.4q-0.4 2.5-0.8 5.1c-30.2 0.1-60.3 0-90.5 0-16.1-0.2-32.1 0.5-48.2-0.1h-1.2q0-3 0.1-5.9 3.8 0 7.7-0.1c-0.3-6.2-0.1-12.5 0.3-18.7-2.5-1.1-4.9-2.4-7.3-3.8 0.2-5.6-0.3-11.2 0.2-16.8 4.6-4.4 11-6.6 17.3-6.3 2.7-0.5 5.5-0.8 8.2-1q0.8-1.2 1.6-2.4c0.8-0.1 2.3-0.2 3.1-0.3-0.1-1.3-0.2-2.7-0.4-4-1.5-1.1-3.3-1.6-5-2.4q0-1.7-0.1-3.3 2.6-0.9 5.2-1.7c0-1.1 0.1-2.3 0-3.5-1.7-1.5-5.3-1.7-5-4.7 1.5-1.3 3.3-2 5.1-2.9q-0.1-1.9-0.2-3.9-2.5-0.9-4.9-1.9 0-1.2 0-2.3 2.6-1.4 5.2-2.7 0-1.6 0-3.3c-2-1.3-6.1-1.7-5.2-5 1.6-1.1 3.5-1.9 5.4-2.7-0.2-1.1-0.2-2.3-0.5-3.3-1.6-1.2-3.5-2-5.2-2.9 0.8-2.6 3.4-3.6 5.6-4.8 0.2-6.1-0.4-12.2 0.4-18.2z"/><path class="b" d="m701.3 785.5c14.2-3.1 29.2 0.3 41.3 7.8 11.3 7.4 19.4 19.3 23.1 32.2 3.9 14.2 1.9 29.9-5.7 42.5-7.5 13-20.4 22.7-35 26-15.9 4.2-33.2-0.1-46.3-9.7-10-7.9-17.6-19-20.6-31.4-4.2-17.4 0.5-36.9 12.8-50 7.7-9.2 18.8-14.9 30.4-17.4zm3 1.5c-5.1 0.9-10.3 1.8-15 4.2-6.7 3.3-12.6 8.2-17.6 13.7-9.5 9.4-12.8 23.2-13.3 36.2 0.6 12 4.3 24.7 13 33.4 3.6 3.5 7 7.3 11.2 10.2 14.8 10 34.7 11.9 50.9 4.3 11.2-4.8 20.4-13.8 26.4-24.3 6.2-12.3 7.7-27.3 3.2-40.5-3.4-13.7-13.5-25-25.6-31.8-10.1-5.3-22-7.1-33.2-5.4z"/><path class="b" d="m548.4 812.6c14.1-4.3 29.7 5.9 33.3 19.7 2.1 8.4 0.6 17.8-4.8 24.7-4.9 5.9-11.9 10.5-19.9 10.7-9.8 0.9-20-4-25.2-12.4-6.7-10-6-24.4 2-33.5 3.9-4.3 9-7.7 14.6-9.2zm1.7 2c-4.9 0.7-9.7 2.7-13.2 6.3-6.6 6.1-8.3 15.8-7.3 24.4 1.4 8.2 7.3 15 14.7 18.5 4.8 2.3 10.4 2 15.6 1.6 7.8-1.2 15.1-6.5 17.8-14.1 3.9-6.9 4.1-15.6-0.1-22.4-3.9-10.8-16.6-16.4-27.5-14.3z"/><path class="c" d="m127.6 118.5c75.2-0.1 150.3 0 225.4-0.1 6.7 0 13.6-0.3 20.2 1.5 4.8 1.3 9.4 3.3 13.7 5.9 10.5 7.4 18.7 17.4 28.1 26.1 3.9 3.8 7.2 8.1 11.8 11 3.2 3.9 6.9 7.3 10.3 11 8 8.2 19.1 12.2 30.1 14.3 2.5 0.9 5.2 1.5 7.8 1.4 9.4-0.1 18.7 0.1 28 0 7.4-0.2 14.9 0.4 22.2-0.4 9.9-1 19.9-0.4 29.8-0.7 8.1-0.4 16.1 1.1 24.2 0.3l0.4-0.1c44.4-0.3 88.9 0 133.4-0.1 14.6 0 29.3 0 44 0.2 0.2-1.3 0.6-2.6 0.8-3.9q0.1 1.9 0.3 3.7l0.1 1c7.9 0.5 15.9-0.1 23.8 0q6.9 0.2 13.7-0.6c12.8 1.5 24.6 8.9 32.5 18.9 7 8.7 10.3 20 10.4 31.1 0 280.3 0 560.7 0 841 0 6 0.1 12.1-1.8 17.8-4.5 15.9-17.5 29.2-33.5 33.4-8.3 2.3-16.9 1.4-25.3 1.6-217.4 0-434.7 0-652.1 0-9.7 0.1-19.5-2.7-27.4-8.3-13.6-9-21.8-25.3-21.4-41.5 0.1-124.2-0.1-248.4 0.1-372.6 0.1-103.4-0.2-206.9 0.2-310.4 0.2-4.1 0.2-8.1-0.2-12.2-0.1-72.9-0.1-145.9-0.1-218.8-0.2-13.8 5.5-27.8 15.8-37.1 9.4-8.6 21.9-13.8 34.7-13.4zm38.7 69.7c-5.4 1.6-9.1 7.3-8.3 12.8 0.2 3.1 2.1 5.7 4.2 7.8q45.9 46.2 91.8 92.2c2.9 2.9 5.5 6.2 9.3 7.9 4 1.8 9.1 0.7 12.2-2.5 4.2-3.8 5.1-10.8 1.6-15.5-3.7-4.9-8.5-8.8-12.9-13.2-25.3-26-51.2-51.4-76.7-77.2-3.8-3.5-7.2-7.5-11.3-10.7-2.8-2.3-6.6-2.6-9.9-1.6zm71 0.2c-6.1 2-9.9 9.4-7.2 15.4 2.4 4.7 6.9 7.9 10.5 11.6 29.9 30.1 59.9 60.1 89.7 90.3 2.5 2.4 5.9 4 9.4 3.8 6.3-0.2 11.8-6.2 11.3-12.5 0-4.2-3.2-7.3-6-10.1-28.4-28.6-56.9-57.1-85.3-85.6-4-4-7.8-8.3-12.3-11.7-2.8-2.3-6.8-2.5-10.1-1.3zm71.1 0.2c-4.4 2-7.9 6.6-7.3 11.6 0 3.3 1.9 6.3 4.1 8.6 27.3 27.4 54.4 55 81.8 82.2 5.5 5.5 10.7 11.4 16.7 16.4 6.7 5.5 18 0.3 18.5-8.2 1.1-5.1-2.5-9.2-5.9-12.5-26.4-26.5-52.9-53-79.3-79.5-5.5-5.5-10.9-11.2-16.7-16.4-3.1-3-7.9-3.9-11.9-2.2zm-136 83.1c-9.7 1.5-17.3 10.6-17.3 20.4-0.4 7.3 3.7 14.3 9.7 18.3 10 6.6 25.1 2.7 30.3-8.2 4-7.9 2.5-18.2-3.7-24.5-4.8-5.1-12.2-7.2-19-6zm381 33.9c-10.8 2-20.7 7.7-28.1 15.7-5.2 5.2-8.5 12.1-14.5 16.6-5.3 4.2-12.1 6.1-18.8 6-75 0-150 0-225 0-8 0.1-16.1-0.6-23.9 1.3-19.1 4.7-33.6 23.5-33.4 43.1q-0.1 100.4-0.1 200.8c-0.3 13.9 6.6 27.5 17.3 36.2 7.4 6.5 17.4 9.6 27.1 9.8 27.7 0.3 55.3-0.2 83 0 53.3 0.2 106.7 0 160.1 0 54.3 0.1 108.6 0.2 162.9 0 9.6 0.4 19.2-2.6 27.1-8 11.8-8.3 19.1-22.6 18.9-37 0.2-38.4-0.1-76.7 0.1-115-0.2-42.7 0.1-85.4-0.1-128-1.4-17-12.8-33.1-28.8-39.1-7.4-2.9-15.4-3.2-23.2-3.2-30.3 0.1-60.7 0.1-91 0.1-3.2 0.1-6.4 0.1-9.6 0.7zm-407 38c-14.8 2.2-27.9 11.7-35.2 24.7-7.8 13.7-8.8 31.2-2 45.5 4.1 9.2 11.1 17.1 19.8 22.2 10.5 6.8 23.8 8.6 36 6.2 12.6-2.6 23.8-10.5 31.1-21.1 7.3-11.2 10.2-25.3 7.4-38.4-3.3-13.8-11.9-26.8-24.7-33.5-9.7-5.7-21.4-7.4-32.4-5.6zm605.9 0c-14.1 2.3-27 11.2-34.2 23.6-7 11.6-8.6 26.1-5.3 39.2 3.7 12.3 11.5 23.7 22.9 30 20.3 12.5 49.5 7.4 64-11.6 9.3-11.5 13.1-27.1 10.1-41.6-2.5-12.3-9.3-23.9-19.8-31-10.6-8.1-24.6-10.8-37.7-8.6zm-50.9 412c-9.3 1.2-18.5 3.7-27 8-28.4 13.9-47.8 44.7-47.5 76.5-0.3 17.9 6.2 35.3 16.3 49.8 5.4 7.9 12.6 14.2 20.2 19.8 25.9 18.4 62.3 20.4 90 4.8 17.6-9.7 31.7-25.6 38.5-44.6 5.3-13.6 7.3-28.7 4.6-43.2-3.1-16.9-10.6-33.1-22.6-45.5-6.8-7.1-14.9-12.8-23.5-17.4-15.1-7.3-32.3-10.5-49-8.2zm-556 48.3c-1.7 9.8-4.4 19.5-5.4 29.4 5.3 0.2 10.6 0.2 15.9 0.1 1.6-8.1 2.9-16.1 4.3-24.2 2.5 8 4.3 16.2 6.8 24.2 5.7 0.1 11.4 0 17.1-0.1 4.9-7.6 9.5-15.3 14.5-22.8-1 7.7-2.9 15.2-4 23 5.5 0 11 0.1 16.4-0.2 3.1-18.3 6.4-36.6 9.6-54.9-5.9-0.3-11.9-0.2-17.8-0.2-8.1 12.3-16.1 24.6-24.3 36.8-3.6-12.4-7-24.9-11-37.1q-8.6 0.2-17.1-0.1c-2.1 8.7-3.4 17.4-5 26.1zm84.2-25.6c-3.2 18.3-6.9 36.6-10 55 17.3 0.2 34.7 0 52 0.1 1.4-4.3 2-8.9 2.3-13.4-11.7-0.2-23.4 0-35.1 0 0.5-2.7 1.1-5.4 1.8-8 9.5 0.1 19.1 0.3 28.6 0.1q1.6-6.1 2.4-12.4c-9.7-0.1-19.3 0-28.9-0.2 0.6-2.6 1.1-5.2 1.6-7.8 11.3-0.2 22.7 0 34-0.2 1-4.3 1.7-8.7 2.3-13-17-0.4-34-0.1-51-0.2zm56.9 9.2c-2 4.9-3 10.4-2.5 15.7 0.4 4.7 4.8 7.7 9.2 8.4 8.2 1.1 16.5 0.3 24.8 0.8 4.9-0.4 3.3 7.9-1 7.5-10.3 0-20.6 0-31-0.1-1.5 0-3.1-0.2-4.5 0.4-1.1 4.3-1.8 8.7-2.4 13.1 13.3 0.1 26.6 0 39.9 0 5.4-0.1 11.8-1.3 15.1-6.2 3.9-5.1 3.6-11.9 3.8-18.1 0.4-5.4-5.3-8.6-10-9.2-8.3-0.9-16.7 0.1-25-0.4-4-1.1-1.6-7.9 2-7.6 11.4-0.4 22.8-0.1 34.2-0.1 0.9-4.3 1.7-8.7 2.3-13.2-12.5-0.5-25-0.2-37.5-0.2-6.8-0.1-14.4 2.6-17.4 9.2zm66-9.2c-2.4 8.1-3 16.7-4.9 24.9-1.6 10.1-3.9 20.1-5.3 30.2 5.6 0 11.1 0.1 16.6 0 1.3-6.8 2.6-13.6 3.6-20.4 7.2-0.1 14.4-0.1 21.7 0-1.1 6.8-2.7 13.5-3.5 20.4 5.5 0 10.9 0.1 16.4 0 3.8-18.3 7-36.7 10.4-55.1-5.6-0.4-11.2-0.5-16.7-0.1-1 7.1-2.8 14.1-3.8 21.3-7.3-0.1-14.6 0-21.9-0.1 1.6-6.9 2.8-14 3.9-21.1-5.5-0.2-11 0-16.5 0zm195.9 16.3c-8.5 1.4-16.8 4.8-23.3 10.6-7.8 7-13.1 16.6-15.1 26.9-3.1 16.5 4 34.5 17.7 44.3 7.7 6 17.5 9.2 27.3 9.2 11.5 0.1 22.7-4.6 31.1-12.4 9.6-8.8 15.1-22.1 14.2-35.1-0.4-11.5-5.2-22.8-13.3-30.9-10.2-9.6-24.7-14.7-38.6-12.6zm-329 54c-5.3 0.3-10.9 2.2-14.3 6.6-4.7 5.5-4.7 13.1-6.1 19.9-0.8 6.3-3.1 12.5-2.6 18.9 0.7 6.1 6.9 9.6 12.5 9.8 9.4 0.4 18.8 0.2 28.1 0.2 6.1-0.1 13-1 17.2-5.9 3.3-3.5 4.4-8.3 5.1-12.9 1-6.5 2-12.9 3-19.3 0.6-4.1 1.1-8.9-1.7-12.4-2.9-3.8-8.1-4.4-12.6-4.7-9.5-0.4-19-0.4-28.6-0.2zm-61.9 1.1c-5.6 1.9-10.5 6.4-11.6 12.4-1.7 9-3.9 18-5.3 27.1-0.6 3.9 0.4 8.2 3.4 10.9 4.2 3.3 9.8 3.7 14.9 3.7 9.6 0 19.2 0.2 28.7 0 1-4.7 1.9-9.3 2.8-14-9.8-0.4-19.5-0.1-29.3-0.2-2.2 0.3-3.1-2.6-2.6-4.4 0.9-5.2 2.2-10.3 2.8-15.6 0.5-2.8 1.5-6.7 4.9-6.9 9.7-0.4 19.5-0.1 29.2-0.3 1.2-4.5 2-9 2.7-13.5-9.4-0.5-18.7-0.3-28.1-0.3-4.2 0.1-8.5-0.1-12.5 1.1zm106 54.1c5.5 0.2 11.1 0.1 16.6 0 1-5 1.9-10 3-14.9 4.3 0 8.7 0.1 13.1 0.1 2.8 4.8 5 10 8 14.7 6.4 0.6 12.8 0.2 19.1 0.2-2.4-5.2-5.1-10.3-8-15.3 4.1-1.9 8.4-4.7 9.8-9.3 1.5-4.9 2.3-10.1 2.9-15.2 0.4-3.7 0.8-8.2-2-11.1-3.3-3.6-8.5-3.8-13-4.1-13.1 0-26.2 0.1-39.3 0.1-3.4 18.2-7 36.5-10.2 54.8zm75.9-54.5c-2.9 18.1-6.9 35.9-9.7 54l0.5 0.6c5.5 0.7 11.2 0.1 16.8 0.3 11.5-0.3 23 0.3 34.5-0.3 0.8-4.4 1.7-8.8 2.3-13.3-11.6-0.6-23.2-0.2-34.7-0.3q0.7-3.7 1.3-7.3c9.6-0.1 19.2-0.1 28.7-0.2 0.8-4 1.4-8.1 2.2-12.2-9.6-0.5-19.1 0-28.6-0.2q0.7-3.9 1.2-7.7c11.5-0.1 23.1 0 34.6-0.1q1.5-6.5 2.5-13.2c-11.7-0.5-23.3 0-35-0.3-5.5-0.1-11.1-0.2-16.6 0.2zm-80.9 101.6c-7.6 1.2-13.4 9.6-11.3 17.2 1.2 4.7 4.8 8.9 9.5 10.4 3.7 0.9 7.5 0.5 11.2 0.5 120 0 240.1 0 360.1 0 9.7-0.2 19.4 0.4 29.1-0.2 4.8-0.2 8.5-3.9 10.6-7.9 3-6.1 0.7-13.9-4.8-17.7-4.5-3.6-10.5-2.5-15.8-2.7-118.1 0.1-236.1 0.1-354.1 0.1-11.5 0.1-23.1-0.4-34.5 0.3zm-112.2 54.7c-10.3 1.8-20.3 6.5-27.5 14.3-12.1 12.1-17.5 30.7-12.9 47.3 2.9 10.1 8.4 19.7 16.8 26.3 10.7 8.7 25 12.9 38.7 11.1 13.7-2.1 26.9-9.8 34.4-21.7 7-10 10-22.7 8.4-34.8-2-13.3-9.4-25.9-20.4-33.7-10.6-8-24.5-11-37.5-8.8zm607-0.1c-16.4 2.4-31 13.9-37.8 29-7.7 16.3-5.4 37 6.3 50.9 9.7 13.4 26.8 20.7 43.2 19.5 16.6-1.6 32.9-11.3 40.4-26.4 9.6-17.8 7.2-41.3-6.4-56.4-11-13-28.9-19.5-45.7-16.6zm-494.9 28.2c-6.9 1.3-12.5 8.3-11.6 15.4 0.6 4.7 3.4 9.4 7.9 11.4 5.1 2.4 10.9 1.2 16.3 1.5 127.7-0.1 255.3-0.1 383-0.1 7.3 0.5 14.3-5.4 14.9-12.7 1-7.9-5.8-16.1-13.9-15.8-103.3 0.1-206.6 0-310 0.1-28.8 0.2-57.7-0.4-86.6 0.2z"/><path class="c" d="m556.3 318.5c5.6-0.8 11.1-0.3 16.7-0.5 27.7-0.3 55.3 0.3 83-0.1 5.3-0.1 10.8 0.1 15.8 2.2 5.7 2.5 10.9 6.4 14.7 11.4 4.6 6.5 6.5 14.6 6.3 22.5 0 76.4 0 152.7 0 229 0 6 0.3 12.2-1.9 17.9-2.7 7.5-8.8 13.4-15.5 17.5-8.1 4.6-17.6 3.2-26.5 3.3-128.3-0.1-256.5 0-384.8-0.1-7.1 0.1-14.7 0.8-21.3-2.4-11.6-4.6-20-16.6-19.8-29.2-0.3-23.6 0.1-47.3-0.1-71 0.1-43.3-0.2-86.6 0.1-129.9-1.1-17.2 15-32.8 32-32 74.7 0 149.3 0 224 0 6.4 0 12.7 0.3 19.1-0.3 7.4-0.8 14.6-3.7 20.6-8.1 9.1-6.9 13.7-18.3 23.5-24.4 4.4-2.7 9.1-4.9 14.1-5.8zm-305.9 52c-8.4 2.6-14.5 10.8-15 19.5-0.2 5-0.1 10-0.1 14.9 0 60.4-0.1 120.8-0.1 181.1-0.6 11.6 8.9 23.4 20.9 23.2 24.3 0.2 48.6 0.2 72.9 0.2 105.7-0.1 211.3 0 317 0 4.7-0.1 9.3 0.1 13.9-0.2 7.6-0.3 14.9-5.1 18.3-11.8 2.1-4.2 2-8.9 2-13.4 0-60.3 0.1-120.7 0-181-0.3-7.5 1-15.5-2.8-22.4-3.6-7.1-11.5-11.4-19.4-11-130 0-260-0.1-390 0-5.9 0.1-11.9-0.6-17.6 0.9z"/><path class="c" d="m148.3 348.4c9.3-1.6 19.1 0.5 27.4 4.8 10.2 6.1 18.4 15.7 21.8 27.1 2.8 9.7 2.6 20.4-1.5 29.7-4.3 9.6-11.4 18.3-21 23.1-7.8 3.7-16.5 5.8-25.1 4.7-13.1-1.4-25.3-9.1-32.7-20-7.3-11.3-9.7-25.9-5.2-38.7 4.9-16.1 19.6-28.4 36.3-30.7zm1.1 14.1c-10.5 1.8-19.6 9.6-23.5 19.5-4.5 10.9-1.3 24 6.7 32.4 7.2 7.4 18.2 11.2 28.4 8.6 8-1.9 15.7-6.7 19.9-14 8.5-13.6 3.6-33.6-10-42-6.3-4.2-14.1-5.8-21.5-4.5z"/><path class="c" d="m754.3 348.4c9.4-1.7 19.2 0.4 27.6 4.6 10 5.7 18.1 14.9 21.5 25.9 5 14.8 1.6 32-8.7 43.7-7 8.3-17.2 13.3-27.8 15.1-14.8 1.9-30.6-3.9-40-15.7-12.7-14.2-14.3-37-3.7-52.9 6.6-11.1 18.4-18.7 31.1-20.7zm2 14.1c-6.6 1.1-13 4.3-17.6 9.2-7.9 8.4-10.6 21.2-6.5 32 4.1 11.1 15 19.3 26.8 20 11.4 0.8 22.9-5.3 28.4-15.3 8.4-13.3 3.9-33-9.6-41.2-6.2-4.3-14-5.9-21.5-4.7z"/><path class="c" d="m761.3 371.5c7.1 0.2 14.2 4.2 17.7 10.5 3.4 5.5 3.7 12.6 1.6 18.7-3 7.9-11.1 13.7-19.6 13.5-12.6 0.5-22.9-12.8-20.6-24.9 1.3-10 10.7-18.1 20.9-17.8z"/><path class="c" d="m149.3 372.4c6-1.7 12.8-0.4 17.9 3.4 6.1 4.5 9.4 12.6 8.1 20.2-1.3 9.4-9.4 18.1-19.3 18.2-8.9 0.7-17.6-5.1-20.9-13.3-2.2-6.2-1.9-13.5 1.5-19.3 2.9-4.5 7.5-7.9 12.7-9.2z"/><path class="c" d="m63.3 591.8c1.6 6.6 0.9 13.5 1 20.2q0 14 0 28c-0.1 6.4 0.6 12.9-0.9 19.2q-0.6-3.1-0.6-6.2 0.1-26 0-52c0.1-3.1-0.3-6.2 0.5-9.2z"/><path class="c" d="m700.4 765.4c15-2.1 30.9-0.3 44.5 6.6 14.1 6 24.9 17.7 32.6 30.5 8.1 13.6 11 29.9 9.5 45.5-2.1 25-18.6 47.8-40.9 59.2-17 9-37.7 10.4-56.1 4.8-13.2-4.6-26.1-11.9-34.7-23.4-8.6-9.7-15-21.7-16.9-34.7-3.3-18.3-0.5-38 9.7-53.7 11.1-18.6 30.9-31.6 52.3-34.8zm1 9.1c-17.8 2.4-33.9 13.3-44.1 27.9-8.6 13.4-13.2 29.8-11.1 45.7 1.9 10.4 5.4 20.7 11.2 29.5 3.9 6 9.4 10.8 15 15.1 22.5 18.2 57.7 18 80-0.4 11.8-8.8 20.6-21.6 23.9-36 3.9-13.4 2.5-28-2.7-40.9-4.1-12.5-13.1-22.9-23.8-30.2-13.7-10.2-31.8-13.2-48.4-10.7z"/><path class="c" d="m548.3 799.5c18.6-3.7 38.1 8.3 44.5 25.8 4.3 11.5 3.2 24.9-2.9 35.6-6.6 10.5-17.9 18-30.3 19.6-17.3 2.3-34.8-8.6-41.9-24.2-4.3-11.1-4.4-24.1 0.7-34.9 6.1-11.1 17.2-19.9 29.9-21.9zm1.1 5c-19.7 2.2-34 24.1-29 43.1 1.7 7.3 5.4 14.1 11.1 18.9 14.2 13.5 40 11.4 51.3-4.7 7-8.8 9.6-21 6.2-31.8-2.7-7.8-7.1-15.4-14.1-19.8-7.5-4.7-16.7-7.2-25.5-5.7z"/><path class="c" d="m221.3 862.4c5.2-1 10.5-0.3 15.8-0.5 2.8 0.2 6.9-0.4 8.1 3 0 5.8-1.6 11.5-2.5 17.3-0.6 2.9-1.1 7.1-4.8 7.6-5.5 0.8-11.3 0.2-16.9 0.4-2.5-0.1-6.6 0.3-6.8-3.1 0-5.1 1.5-10 2.2-15 0.7-3.5 0.9-8.4 4.9-9.7z"/><path class="c" d="m285.6 876.1c1-4.8 1.7-9.6 2.7-14.4 6.2 0 12.5-0.3 18.7 0.1 1.2 0.1 3.6 0.4 3.4 2.2 0.1 3.3-0.4 6.7-1.7 9.8-0.7 1.9-2.9 2.2-4.7 2.3-6.1 0.1-12.3 0-18.4 0z"/><path class="c" d="m147.3 1010.4c12.5-2.1 25.8 1.6 35.5 9.8 7.6 5.9 12.7 14.6 15.2 23.8 4.2 16-1.6 34.1-14.2 44.7-7.7 6.7-17.7 10.4-27.8 10.9-24.2 1.6-47-20.4-46.4-44.6 0-8.6 2.4-17.1 7.1-24.3 6.6-10.8 18.2-18.1 30.6-20.3zm2.1 14.2c-5.8 0.8-11.1 3.6-15.4 7.4-11.9 10.8-13.4 31.4-2.4 43.4 10.2 11.1 28.7 13.2 40.9 4.1 7.6-5.7 12.7-15 12.5-24.6 0.1-8.4-3.7-16.5-9.5-22.4-6.8-6.6-16.8-9.4-26.1-7.9z"/><path class="c" d="m754.4 1010.5c19.8-3.6 40.6 8.5 48.1 26.9 7 16.2 3.3 36.3-9.3 48.7-13.5 14.8-37.7 17.7-54.6 7.3-4.4-2.8-8.6-6-12-10-8.9-11.1-12.5-26.5-8.5-40.3 3.9-17.1 19.3-30 36.3-32.6zm2.9 14c-11.1 0.8-20.5 9.1-24.6 19.2-5.7 13.5 0.3 30.5 13.2 37.4 11.6 7.2 27.8 4.7 37.1-5 8-7.7 10.6-20 7.3-30.4-4.1-13.7-18.7-23.5-33-21.2z"/><path class="c" d="m761.2 1033.5c8.6-0.2 16.9 5.5 19.8 13.6 4 9.6-0.7 21.2-9.6 26.3-5.8 3.5-13.4 3.4-19.5 0.6-8.2-4.1-13.6-13.8-11.7-22.9 1.7-9.9 10.9-17.9 21-17.6z"/><path class="c" d="m148.3 1034.3c6.4-1.7 13.6-0.7 18.9 3.5 5.9 4.3 9.3 11.8 8.5 19.1-1.1 10.9-11.6 20.4-22.8 19.1-11.1-0.5-20-11.1-19.6-22-0.1-8.9 6.6-17.1 15-19.7z"/><path class="d" d="m386.9 125.8c34.4-0.2 68.7-0.1 103-0.1 13.6-0.1 27.6 4.3 37.3 14.2 14.5 14.5 29.1 28.8 43.6 43.3 2.7 2.1 4.5 6 8.4 5.6-8.1 0.8-16.1-0.7-24.2-0.3-9.9 0.3-19.9-0.3-29.7 0.7-7.4 0.8-14.9 0.2-22.3 0.4-9.3 0.1-18.6-0.1-28 0-2.6 0.1-5.3-0.5-7.8-1.4 18.3 0.7 36.6 0.1 54.8 0.5 3.1 0.4 4.3-3.2 4.5-5.6 0.3-3.7-2.6-6.3-4.9-8.8-5.1-4.9-9.9-10.3-16.1-13.9-6.5-3.8-13.9-6.3-21.5-6.1-17.1 0.1-34.3-0.2-51.4 0.1-4.4-0.2-6.8 4.7-5.8 8.5-4.6-2.9-7.9-7.2-11.8-11-9.3-8.7-17.6-18.7-28.1-26.1z"/><path class="d" d="m583.1 175.3c5.5-0.9 11.2-0.2 16.7-0.6 16.1 0.5 32.1-0.1 48.2 0.1 30.2 0 60.3 0.1 90.5 0 5 0.2 9.9-0.1 14.8 0.2 4.1 1 5.6 6.1 4.5 9.9-0.2 1.3-0.6 2.6-0.8 3.9-14.7-0.3-29.4-0.2-44-0.2-44.5 0.1-89-0.2-133.4 0.1 0.2-4.5-1.6-11 3.5-13.4z"/><path class="d" d="m166.3 188.2c3.3-1 7.1-0.7 9.9 1.6 4.1 3.2 7.5 7.2 11.3 10.7 25.5 25.8 51.4 51.2 76.7 77.2 4.4 4.4 9.2 8.3 12.9 13.2 3.5 4.7 2.5 11.7-1.6 15.5-3.1 3.2-8.2 4.3-12.2 2.5-3.8-1.7-6.4-5-9.3-7.9q-45.9-46-91.8-92.2c-2.1-2.1-4-4.7-4.2-7.8-0.8-5.5 2.9-11.2 8.3-12.8z"/><path class="d" d="m237.3 188.3c3.3-1.2 7.3-1 10.1 1.3 4.5 3.4 8.3 7.7 12.3 11.7 28.4 28.5 56.9 57 85.3 85.6 2.8 2.8 6 5.9 6 10.1 0.4 6.3-5 12.3-11.4 12.5-3.5 0.2-6.8-1.4-9.3-3.8-29.8-30.2-59.8-60.2-89.7-90.3-3.6-3.8-8.1-6.9-10.5-11.6-2.7-6 1.1-13.4 7.2-15.5z"/><path class="d" d="m308.4 188.5c4-1.7 8.8-0.8 11.9 2.2 5.8 5.2 11.2 10.9 16.7 16.4 26.4 26.5 52.9 53 79.3 79.5 3.4 3.3 7 7.4 5.9 12.5-0.5 8.5-11.8 13.7-18.5 8.2-6-5-11.2-10.9-16.7-16.4-27.4-27.2-54.5-54.8-81.8-82.2-2.2-2.3-4.1-5.3-4.1-8.6-0.6-5 2.9-9.6 7.3-11.6z"/><path class="d" d="m758.1 188.6c12.5 0.2 25.1-0.6 37.6 0.4q-6.8 0.8-13.7 0.6c-7.9-0.1-15.9 0.5-23.8 0z"/><path class="d" d="m172.4 271.6c6.8-1.2 14.2 0.9 19 6 6.2 6.3 7.7 16.6 3.7 24.5-5.2 10.9-20.3 14.8-30.3 8.2-6-4-10.1-11.1-9.7-18.3 0-9.8 7.6-18.9 17.3-20.4z"/><path class="d" d="m553.4 305.5c3.2-0.6 6.4-0.6 9.6-0.7 30.3 0 60.6 0 91-0.1 7.8 0 15.8 0.3 23.2 3.2 16 6 27.4 22.1 28.8 39.1 0.2 42.6-0.1 85.3 0 128-0.1 38.3 0.2 76.6 0 115 0.2 14.4-7.1 28.7-19 37-7.8 5.4-17.4 8.4-27 8-54.3 0.2-108.6 0.1-162.9 0-53.4 0-106.8 0.2-160.1 0-27.7-0.2-55.3 0.3-83 0-9.7-0.2-19.7-3.3-27.1-9.8-10.7-8.7-17.6-22.3-17.3-36.2q0-100.4 0.1-200.8c-0.2-19.6 14.3-38.4 33.4-43.1 7.8-1.9 15.9-1.2 23.9-1.3 75 0 150 0 225 0 6.7 0.1 13.5-1.8 18.8-6 6-4.5 9.3-11.4 14.5-16.6 7.4-8 17.3-13.7 28.1-15.7zm2.9 13c-5 0.9-9.7 3.1-14.1 5.8-9.8 6.1-14.4 17.5-23.5 24.4-6 4.4-13.2 7.3-20.6 8.1-6.4 0.6-12.7 0.3-19.1 0.3-74.7 0-149.3 0-224 0-17-0.8-33.1 14.8-32 32-0.3 43.3 0 86.6-0.1 129.9 0.2 23.7-0.2 47.4 0.1 71-0.2 12.6 8.2 24.6 19.8 29.2 6.6 3.2 14.2 2.5 21.3 2.4 128.3 0.1 256.5 0 384.8 0.1 8.9-0.1 18.4 1.3 26.5-3.3 6.7-4.1 12.8-10 15.5-17.5 2.2-5.7 1.9-11.9 1.9-17.9 0-76.3 0-152.6 0-229 0.2-7.9-1.7-16-6.3-22.5-3.8-5-9-8.9-14.7-11.4-5-2.1-10.5-2.3-15.8-2.2-27.7 0.4-55.3-0.2-83 0.1-5.6 0.2-11.1-0.2-16.7 0.5z"/><path class="d" d="m146.4 343.5c11-1.8 22.7-0.1 32.4 5.6 12.8 6.7 21.4 19.7 24.7 33.5 2.8 13.1-0.1 27.2-7.4 38.4-7.3 10.6-18.5 18.5-31.1 21.1-12.2 2.4-25.5 0.6-36-6.2-8.7-5.1-15.7-13-19.8-22.2-6.8-14.3-5.8-31.8 2-45.5 7.3-13 20.4-22.5 35.2-24.7zm1.9 4.9c-16.7 2.3-31.4 14.6-36.3 30.7-4.5 12.8-2.1 27.4 5.2 38.7 7.4 10.9 19.6 18.6 32.7 20 8.6 1.1 17.3-1 25.1-4.7 9.6-4.8 16.7-13.5 21-23.1 4.1-9.3 4.3-20 1.5-29.7-3.4-11.4-11.6-21-21.8-27.1-8.3-4.3-18.1-6.4-27.4-4.8z"/><path class="d" d="m752.3 343.5c13.1-2.2 27.1 0.5 37.7 8.6 10.5 7.1 17.3 18.7 19.8 31 3 14.5-0.8 30.1-10.1 41.6-14.5 19-43.7 24.1-64 11.6-11.4-6.3-19.2-17.7-22.9-30-3.3-13.1-1.7-27.6 5.3-39.2 7.2-12.4 20.1-21.3 34.2-23.6zm2 4.9c-12.7 2-24.5 9.6-31.1 20.7-10.6 15.9-9 38.7 3.7 52.9 9.4 11.8 25.2 17.6 40 15.7 10.6-1.8 20.8-6.8 27.8-15.1 10.3-11.7 13.7-29 8.7-43.7-3.4-11-11.5-20.3-21.5-25.9-8.4-4.2-18.2-6.3-27.6-4.6z"/><path class="d" d="m149.4 362.5c7.4-1.4 15.2 0.3 21.5 4.4 13.6 8.5 18.5 28.5 10 42.1-4.2 7.3-11.9 12.1-19.9 14-10.2 2.6-21.2-1.2-28.4-8.6-8-8.4-11.2-21.5-6.7-32.4 3.9-9.9 13-17.7 23.5-19.5zm-0.1 9.9c-5.2 1.3-9.8 4.7-12.7 9.2-3.4 5.8-3.7 13-1.5 19.3 3.3 8.2 12 14 20.9 13.3 9.9-0.1 18-8.8 19.3-18.2 1.3-7.6-2-15.7-8.1-20.3-5.1-3.8-11.9-5-17.9-3.3z"/><path class="d" d="m756.3 362.4c7.5-1.1 15.3 0.5 21.5 4.8 13.5 8.2 18 27.9 9.6 41.2-5.5 10-17 16.1-28.4 15.3-11.8-0.7-22.7-8.9-26.8-20-4.1-10.8-1.4-23.6 6.5-32 4.6-4.9 11-8.1 17.6-9.2zm5 9c-10.2-0.3-19.6 7.8-20.9 17.8-2.3 12.1 8 25.4 20.6 24.9 8.5 0.2 16.6-5.6 19.6-13.5 2.1-6.1 1.8-13.2-1.6-18.7-3.5-6.3-10.6-10.3-17.7-10.5z"/><path class="d" d="m250.4 370.5c5.7-1.5 11.7-0.8 17.6-0.9 130-0.1 260 0 390 0 7.9-0.4 15.8 3.9 19.4 11 3.8 6.9 2.5 14.9 2.8 22.4 0.1 60.3 0 120.7 0 181 0 4.5 0.1 9.2-2 13.4-3.4 6.7-10.7 11.5-18.3 11.8-4.6 0.3-9.2 0.1-13.9 0.2-105.7 0-211.3-0.1-317 0-24.3 0-48.6 0-72.9-0.2-12 0.2-21.5-11.6-20.9-23.2 0-60.3 0.1-120.7 0.1-181.1 0-4.9-0.1-9.9 0.1-14.9 0.4-8.7 6.6-16.9 15-19.5z"/><path class="d" d="m63.7 427.7c4.3-13.4 8.5-26.8 13.5-39.9 0.4 4.1 0.3 8.1 0.2 12.2-0.4 103.5-0.1 207-0.2 310.4q-7-0.1-14-0.2c0.2-17-0.1-34 0.2-51 1.5-6.3 0.8-12.8 0.9-19.2q0-14 0-28c-0.1-6.7 0.6-13.6-1-20.2-0.2-52.9 0-105.9-0.1-158.8 0.1-1.8-0.1-3.6 0.5-5.3z"/><path class="d" d="m701.4 755.5c16.7-2.3 33.9 0.9 49 8.2 8.6 4.6 16.7 10.3 23.5 17.4 12 12.4 19.5 28.7 22.6 45.5 2.6 14.5 0.7 29.6-4.6 43.2-6.8 19-20.9 34.9-38.5 44.6-27.7 15.6-64.1 13.6-90-4.8-7.6-5.6-14.9-11.9-20.2-19.8-10.1-14.5-16.7-31.9-16.3-49.8-0.4-31.8 19.1-62.6 47.5-76.5 8.5-4.3 17.7-6.8 27-8zm-1 9.9c-21.4 3.2-41.2 16.2-52.3 34.8-10.2 15.7-13 35.4-9.7 53.7 1.9 13 8.3 25 16.9 34.7 8.6 11.5 21.5 18.8 34.7 23.4 18.4 5.6 39.1 4.2 56.1-4.8 22.3-11.4 38.8-34.2 40.9-59.2 1.5-15.6-1.4-31.9-9.5-45.5-7.7-12.8-18.5-24.5-32.6-30.5-13.6-6.9-29.5-8.8-44.5-6.6z"/><path class="d" d="m701.4 774.5c16.6-2.5 34.7 0.5 48.4 10.7 10.7 7.3 19.7 17.7 23.8 30.2 5.2 12.9 6.6 27.5 2.7 40.9-3.3 14.4-12.1 27.2-23.9 36-22.3 18.4-57.5 18.6-80 0.4-5.6-4.3-11.1-9.1-15-15.1-5.8-8.8-9.3-19.1-11.2-29.5-2.1-15.9 2.5-32.3 11.1-45.7 10.2-14.6 26.3-25.5 44.1-27.9zm-0.1 11c-11.6 2.5-22.7 8.2-30.4 17.4-12.3 13.1-17 32.6-12.8 50 3 12.4 10.6 23.5 20.6 31.4 13.1 9.6 30.4 13.9 46.3 9.7 14.6-3.3 27.5-13 35-26 7.5-12.6 9.6-28.3 5.7-42.5-3.7-12.9-11.8-24.8-23.1-32.2-12.1-7.5-27.1-10.9-41.3-7.8z"/><path class="d" d="m548.4 794.5c13.9-2.1 28.4 3 38.6 12.6 8.1 8.1 12.9 19.4 13.3 30.9 0.9 13-4.6 26.3-14.2 35.1-8.4 7.8-19.6 12.5-31.1 12.4-9.8 0-19.6-3.2-27.3-9.2-13.7-9.8-20.8-27.8-17.7-44.3 2-10.3 7.3-19.9 15.1-26.9 6.5-5.8 14.8-9.2 23.3-10.6zm-0.1 5c-12.7 2-23.8 10.8-29.9 21.9-5.1 10.8-5 23.8-0.7 34.9 7.1 15.6 24.6 26.5 41.9 24.2 12.4-1.6 23.7-9.1 30.3-19.6 6.1-10.7 7.2-24.1 2.9-35.6-6.4-17.5-25.9-29.5-44.5-25.8z"/><path class="d" d="m549.4 804.5c8.8-1.5 18 1 25.5 5.7 7 4.4 11.4 12.1 14.1 19.8 3.4 10.8 0.8 23-6.2 31.8-11.3 16.1-37.1 18.2-51.3 4.7-5.7-4.8-9.4-11.6-11.1-18.9-5-19 9.3-40.9 29-43.1zm-1 8.1c-5.6 1.5-10.8 4.9-14.6 9.2-8 9.1-8.7 23.5-2 33.5 5.2 8.4 15.4 13.3 25.2 12.4 8-0.2 15-4.8 19.9-10.7 5.4-6.9 6.9-16.3 4.8-24.7-3.6-13.8-19.2-23.9-33.3-19.7z"/><path class="d" d="m258.5 950.8c11.4-0.7 23-0.2 34.5-0.3 118 0 236 0 354.1-0.1 5.3 0.2 11.3-0.9 15.8 2.7 5.5 3.8 7.8 11.6 4.8 17.7-2.1 4-5.8 7.7-10.6 7.9-9.7 0.6-19.4 0-29.1 0.2-120.1 0-240.1 0-360.1 0-3.7 0-7.5 0.4-11.2-0.5-4.7-1.5-8.3-5.7-9.5-10.4-2.1-7.6 3.7-16 11.3-17.2z"/><path class="d" d="m146.3 1005.5c13-2.2 26.9 0.8 37.5 8.8 11 7.8 18.4 20.4 20.4 33.7 1.6 12.1-1.4 24.8-8.4 34.8-7.5 11.9-20.7 19.6-34.4 21.7-13.7 1.8-28-2.4-38.7-11.1-8.4-6.6-14-16.2-16.8-26.3-4.6-16.6 0.8-35.2 12.9-47.3 7.2-7.8 17.2-12.5 27.5-14.3zm1 4.9c-12.4 2.2-24 9.5-30.6 20.3-4.7 7.2-7.1 15.7-7.1 24.3-0.6 24.2 22.2 46.2 46.4 44.6 10.1-0.5 20.1-4.2 27.8-10.9 12.6-10.6 18.4-28.7 14.2-44.7-2.5-9.2-7.6-17.9-15.2-23.8-9.7-8.2-23-11.9-35.5-9.8z"/><path class="d" d="m753.3 1005.4c16.8-2.9 34.8 3.6 45.7 16.6 13.6 15.1 16 38.6 6.4 56.4-7.5 15.1-23.8 24.8-40.4 26.4-16.4 1.2-33.5-6.1-43.2-19.5-11.7-13.9-14-34.6-6.3-50.9 6.8-15.1 21.4-26.6 37.8-29zm1.1 5.1c-17 2.6-32.4 15.5-36.3 32.6-4 13.8-0.4 29.2 8.5 40.3 3.4 4 7.6 7.2 12 10 16.9 10.4 41.1 7.5 54.6-7.3 12.6-12.4 16.3-32.5 9.3-48.7-7.5-18.4-28.3-30.5-48.1-26.9z"/><path class="d" d="m149.4 1024.6c9.3-1.5 19.3 1.3 26.1 7.9 5.8 5.9 9.6 14 9.5 22.4 0.2 9.6-4.9 18.9-12.5 24.6-12.2 9.1-30.7 7-40.9-4.1-11-12-9.5-32.6 2.4-43.4 4.3-3.8 9.6-6.6 15.4-7.4zm-1.1 9.7c-8.4 2.6-15.1 10.8-15 19.7-0.4 10.9 8.5 21.5 19.6 22 11.2 1.3 21.7-8.2 22.8-19.1 0.8-7.3-2.6-14.8-8.5-19.1-5.3-4.2-12.5-5.2-18.9-3.4z"/><path class="d" d="m757.3 1024.5c14.3-2.3 28.9 7.5 33 21.2 3.3 10.4 0.7 22.7-7.3 30.4-9.3 9.7-25.5 12.2-37.1 5-12.9-6.9-18.9-23.9-13.2-37.4 4.1-10.1 13.5-18.4 24.6-19.2zm3.9 9c-10.1-0.3-19.3 7.7-21 17.6-1.9 9.1 3.6 18.8 11.7 22.9 6.1 2.8 13.7 2.9 19.6-0.6 8.8-5.1 13.5-16.7 9.5-26.3-2.9-8.1-11.2-13.8-19.8-13.6z"/><path class="d" d="m258.4 1033.6c28.9-0.6 57.8 0 86.6-0.2 103.4-0.1 206.7 0 310-0.1 8.1-0.3 14.9 7.9 13.9 15.8-0.6 7.3-7.6 13.2-14.9 12.7-127.7 0-255.3 0-383 0.1-5.4-0.3-11.2 0.9-16.3-1.5-4.5-2-7.3-6.7-7.9-11.4-0.9-7.1 4.7-14.1 11.6-15.4z"/><path class="e" d="m48.3 605c-0.1-4.4 2.7-8.6 6.6-10.5 2.5-0.5 5.1-0.4 7.6-0.4 0.1 21.4 0.1 42.9 0.1 64.4-4.6 0.2-9.5-1-12.1-5-2.6-2.9-2.2-6.9-2.2-10.5 0-12.7-0.2-25.3 0-38z"/><path class="e" d="m704.3 787c11.2-1.7 23.1 0.1 33.2 5.4 12.1 6.8 22.2 18.1 25.6 31.8 4.5 13.2 3 28.2-3.2 40.5-6 10.5-15.2 19.5-26.4 24.3-16.2 7.6-36.1 5.7-50.9-4.3-4.2-2.9-7.6-6.7-11.2-10.2-8.7-8.7-12.4-21.4-13-33.4 0.5-13 3.8-26.8 13.3-36.2 5-5.5 10.9-10.4 17.6-13.7 4.7-2.4 9.9-3.3 15-4.2z"/><path class="e" d="m550.1 814.6c10.9-2.1 23.6 3.5 27.5 14.3 4.2 6.8 4 15.5 0.1 22.4-2.7 7.6-10 12.9-17.8 14.1-5.2 0.4-10.8 0.7-15.6-1.6-7.4-3.5-13.3-10.3-14.7-18.5-1-8.6 0.7-18.3 7.3-24.4 3.5-3.6 8.3-5.6 13.2-6.3z"/></svg>