<svg version="1.2" xmlns="http://www.w3.org/2000/svg" viewBox="0 0 849 1084" width="849" height="1084"><style>.a{fill:#fff}.b{fill:#010101}.c{fill:#bfbfbf}.d{fill:#262626}.e{fill:#4b4b4a}.f{fill:#c9a54d}</style><path fill-rule="evenodd" class="a" d="m745 127v913h-645v-913z"/><path fill-rule="evenodd" class="a" d="m68 993v49h-42v-49z"/><path fill-rule="evenodd" class="a" d="m827 986v52h-78v-52z"/><path class="b" d="m208.7 15.1c0.2-8.9 8.7-15.9 17.3-15.3q199.5-0.1 398.9-0.1c5.9 0 11.7 3.6 14.4 8.8 1.6 2.9 1.7 6.3 1.8 9.5 0 21.6 0 43.1 0.1 64.7 41.2 0 82.5-0.1 123.8 0 18.5-0.1 36.6 6.9 51.1 18.2 20.4 15.9 32.8 41.3 33.2 67.2-0.1 9.3 0.1 18.6-0.1 27.9 0.2 2.7-2.5 3.6-4.4 4.6-7.5 3.4-10.4 12.9-8.6 20.5 1.1 4.8 4.5 8.8 8.8 11.1 1.7 1.2 4.5 2.1 4.2 4.7 0.2 27.1 0.2 54.1 0.1 81.2 0.2 2.7-3 3.3-4.8 4.6-9.3 4.9-11.4 18.7-4.9 26.7 2.5 3.4 6.7 4.7 9.7 7.4 0.2 27.4 0.2 54.8 0.1 82.2 0.5 3.1-2.7 4.3-4.8 5.6-9.3 4.7-11.5 18.1-5.4 26.2 2.1 3.3 5.9 4.7 9 6.9 1.6 0.9 1.2 2.8 1.4 4.3 0.1 25.3 0 50.6 0.1 76-0.2 2 0.3 4.7-1.7 6-2.4 1.6-5.3 2.6-7.2 4.8-7.3 7.3-6.1 21.3 2.6 26.9 2.4 1.7 6.9 2.4 6.4 6.2q0 39.6 0.1 79.1c0 1.5 0.1 3.4-1.4 4.4-3.7 2.3-7.7 4.4-9.8 8.4-4.7 7.9-2.4 19.7 5.8 24.4 2.2 1.5 5.9 2.3 5.6 5.7 0 26 0.1 52 0.1 78.1-0.1 1.5 0.3 3.3-0.7 4.6-2.6 2.1-6.1 3-8.3 5.6-6.4 6.5-6.4 18-0.2 24.7 2.5 2.8 6.1 4 9.2 6 0.2 17.7 0 35.4 0.1 53.1-0.1 10 0.3 20 0 30 0 4.1-5 4.4-7.3 6.8-8.5 6.3-8.5 20.2-0.8 27.1 2.4 2 5.4 3.2 8.1 4.8 0.9 20.8 1.1 42.5-7.5 62-11.4 27-36 48.3-64.7 54.8-7.2 1.7-14.7 2.5-22.1 2.3q-322 0-644 0c-11.6-0.2-23.4 0.8-34.9-1.5-32.1-5.8-59.9-30.3-70.4-61.1-4.4-12.2-5.9-25.3-5.5-38.1 0.3-5.3-0.7-10.8 0.6-16 2.4-1.9 5.6-2.4 7.9-4.4 8.9-7.2 8.2-23.6-2.2-29.1-2.3-1.6-6.6-2-6.3-5.6-0.1-26 0-52-0.1-78 0.1-1.8 0-4.1 2-4.8 3.1-1.4 6.5-2.7 8.6-5.6 6.9-7.9 4.8-21.8-4.3-27.1-2.3-1.5-6.3-1.9-6.4-5.3-0.2-26.7-0.1-53.5-0.1-80.3-0.3-4.4 4.9-4.4 7.5-6.5 9.4-6.4 9.9-21.8 0.6-28.6-2.6-2.8-8.9-2.8-8.2-7.8 0-26-0.1-52 0-78-0.3-2 0.6-4 2.6-4.5 5.3-1.9 9.9-6.2 11.4-11.7 2.5-8.4-1.9-18.5-10.3-21.5-2.4-0.7-4.4-2.7-4-5.3 0.1-26.4-0.1-52.7 0.1-79.1-0.4-2.5 2.1-3.5 4-4.3 7.2-2.9 11.9-11 10.6-18.6-0.7-6.6-5.5-12.2-11.4-14.8-2.2-0.8-3.8-2.8-3.5-5.2 0-26.3-0.1-52.7 0.1-79.1-0.4-2.7 2.5-3.6 4.5-4.4 4.7-1.7 8.2-5.9 9.6-10.6 2.3-7.4-0.7-16.2-7.3-20.3-2.4-1.7-6.9-1.9-6.9-5.6-0.1-26.4 0-52.7 0-79.1 0-1.3 0-2.7 0.6-4 2.2-1.5 5.1-2 7.2-3.7 3.5-2.7 6.1-6.7 6.7-11.1 1.4-7.6-2.8-16-10-19.1-1.8-1-4.4-1.8-4.5-4.2-0.3-5.3 0-10.5-0.1-15.8 0.1-9.4-0.5-18.9 1.2-28.2 3.4-21.5 15.2-41.5 32.5-54.9 15-11.9 34.1-18.4 53.2-18.2q60.8 0 121.5 0c0.1-22.6-0.1-45.1 0.1-67.6zm9.5-5c-2.2 2.4-2.3 5.8-2.3 8.9 0 91.3 0 182.7 0.1 274 0.4 18.3-0.5 36.5 0.2 54.8 14.8-0.1 29.6 0 44.4 0 0.1-5.9-0.3-11.8 0-17.7 0.5-6.6 7-11.7 13.4-11.4 11.3-0.1 22.7 0 34-0.1 6.8-0.4 13.4 5.5 13.4 12.4 0.1 5.6 0 11.2 0 16.8 72.6 0 145.3-0.2 218 0.1 0-7-0.2-14 0.1-21 0.1-7 6.5-13.3 13.6-13.1 8.9 0 17.9 0 26.9 0 7-0.2 13.4 6.2 13.4 13.2 0.2 7-0.1 13.9 0 20.8 12.8-0.1 25.7 0 38.6-0.1 1.7 0.4 1.5-1.6 1.6-2.6 0.1-107.4 0-214.7 0-322.1-0.2-4.2 0.8-9-2-12.6-1.7-2.4-4.7-3.5-7.6-3.3-132.7 0.1-265.4 0-398 0.1-2.9-0.2-6 0.6-7.8 2.9zm-196.8 115.3c-11.2 15.9-14.6 35.7-13.7 54.7 13.1-0.7 26.2 0 39.2-0.3 6.5 0.2 13.2-0.9 19.5 1-19.5-0.6-39.1 0-58.6-0.2 0 5.4-0.1 10.8-0.1 16.2 6 3.1 11 8 13.4 14.3 4.8 11.9-1.2 27-13.2 31.9q-0.1 8.1 0 16.3c15-0.1 30 0 45.1-0.1 5.1 0.1 10.3-0.2 15.4-0.7 9.7-1.3 18.4-7.2 24.2-14.9-2.6 5.9-8.6 9.7-14.2 12.5-6.9 3.6-14.8 3.3-22.4 4-16-0.2-32.1 0.1-48.1-0.1-0.2 13.9 0 27.8-0.1 41.6q27.6 0.1 55.2 0.1c7.1 0.1 14.7 1.8 19.9 6.9-5.9-3.7-12.8-6.3-19.9-6.2-18.4 0-36.8-0.1-55.2 0.1q0 7.8 0 15.7c8.8 4 15 13.1 15 22.8 0.6 9.9-5.5 19.7-14.7 23.5-0.4 5.3-0.2 10.7-0.2 16.1 18.3 0 36.7 0.1 55.1 0 5 0 10-1.3 14.6-3.4-4 2.7-8.8 4.1-13.6 4.1-18.7 0-37.4-0.1-56.1 0.1 0 13.8 0 27.5-0.1 41.3 18.4 0.1 36.8 0.1 55.3-0.1 2.9 0.2 6.3-0.1 8.6 2.1-5.1-1.6-10.4-1.1-15.7-1.1-16-0.1-32.1 0-48.1 0 0 5.4-0.1 10.7-0.1 16.1 5.7 2.9 10.8 7.4 13.1 13.4 5.4 12.1-0.3 27.9-12.6 33.1-0.2 5.2-0.1 10.4-0.1 15.5-0.2 14.3 0.1 28.6-0.2 42.9 19.4 0.4 38.8-0.1 58.1 0.1 4.2 0.1 8.3 1.6 11.8 3.9-5.9-2.9-12.5-3.7-18.9-3.4q-25.4 0.1-50.8 0.1c0.1 5.2-0.2 10.5 0.1 15.7 1.5 1.7 3.9 2.5 5.7 4 9 7.4 11.4 21.1 6.4 31.4-2.5 5.2-7.1 9.1-12.2 11.5q0.1 7.9 0.1 15.7c17.2-0.1 34.5 0 51.7-0.1 21.4 1.6 41.8-18 40.8-39.5 0.3-12.4-6.3-24.3-16.2-31.6 1.3 0.6 2.8 1.1 3.9 2.1 6.9 6 10.9 14.7 12.7 23.5 0.2 6 0.9 12.4-1.5 18.1-2.5 7.2-6.3 14.2-12.4 18.9-7.2 5.4-16 9.7-25.3 9.4-17.9-0.2-35.7-0.1-53.5-0.2-0.7 13.8 0 27.6-0.5 41.4 18.3 0.3 36.7 0.1 55 0 7.3 0 14.5 2.5 20.8 6.1 3.5 2.2 7.2 4.8 8.8 8.8-7.2-8.7-18.2-14.3-29.6-14.1-18.3 0.1-36.5 0.1-54.7 0 0 5.5 0 10.9 0.1 16.3 8.2 3.5 14.1 11.5 14.9 20.4 1.2 10.6-4.9 21.7-14.8 25.8 0 5.3 0 10.5-0.1 15.8-0.1 14.5-0.1 29.1 0.1 43.6 0 5.4-0.1 10.8 0.1 16.2q2.2 1 4.2 2.4 2 1.3 3.7 3.1 1.7 1.7 3 3.8 1.3 2.1 2.1 4.3c5.3 12.1-0.5 28-12.9 32.9-0.1 5.2-0.1 10.5 0 15.8q23.6-0.2 47.3-0.1c5.8 0 11.8 0.5 17.3-1.5-2 0.9-3.9 2.2-6.2 2.1-19.4 0.1-38.9 0-58.4 0.1-0.1 13.8-0.2 27.7 0 41.6 0 5.6 0 11.2 0.1 16.8 9.7 4.1 15.6 14.7 14.7 25.1-0.5 9.1-6.6 17.1-14.7 21q0 7.9 0 15.8c15.1 0.1 30.2-0.1 45.3 0 5.1-0.1 10.3 0.3 15.4-0.5-1.7 0.8-3.6 1.1-5.5 1.1-18.3 0.4-36.7-0.4-55.1 0.1-0.5 12 1.9 24 6.9 34.9 9.9 25.2 32.9 44.7 59.2 51.1 13.7 3.3 28 1.8 42 2.1 160.7 0 321.4 0 482 0.1 53.7-0.4 107.3 0.2 161-0.2 18.3-0.2 36.2-7.5 50.5-18.9 6.3-5.8 12.8-11.8 17.2-19.3l-1.3 0.1c0.1-14.3 0-28.5 0-42.8l1.1 0.1c0.1 14.2-0.3 28.4 0 42.6 6.3-7.5 9.5-17 12.4-26.3 2.6-8.2 3.1-17 3.3-25.6-0.1-5.4 0.1-10.9-0.2-16.4-1.5-1.9-3.8-2.8-5.5-4.4-8.5-6.8-10.9-19.6-6.4-29.4 2.1-5.6 6.9-9.3 11.8-12.3-0.1-5.3 0.5-10.6 0-15.9 0.1-14.6 0.1-29.2-0.1-43.8q0.2-8.4-0.1-16.8c-4.3-2.5-8.4-5.8-10.7-10.3-6.8-11.8-2.2-29.1 10.6-34.8 0.1-5.5 0.1-11.1 0-16.6-18.7 0.1-37.4-0.3-56.1 0.2 5.4-1.6 11-0.9 16.5-1 13.3 0.1 26.5-0.4 39.8 0.4-0.1-14 0-28-0.3-42-18.1 0.3-36.3 0.1-54.4 0.2-2 0-4-0.4-5.8-1.2 20 1 40.2 0 60.2 0.5 0.1-5.7 0.2-11.4-0.1-17.1-10.4-5.5-16.4-18.4-12.7-29.9 1.6-6.8 6.7-12.1 12.6-15.6 0.1-5.3 0.2-10.6 0.1-15.8-0.2-14.6 0-29.2-0.2-43.8 0.1-5.6 0-11.2 0-16.8-3.3-2.2-6.8-4.4-9.1-7.7-5.2-7.2-6.1-17.2-2.6-25.4 2.1-5.4 6.8-9.3 11.7-12.3 0-5.2 0-10.5-0.1-15.8 0-14.4-0.1-28.8 0-43.2-0.1-5.4 0.3-10.9-0.2-16.2-3.3-3-7.4-5.3-9.7-9.3-8-12.1-3.4-30.2 9.6-36.7 0.1-5.5 0.2-10.9 0-16.4-16.6 0.1-33.2 0-49.8 0-7-0.1-14.1 0.9-20.4 4-7.1 3.2-12.7 9-16.7 15.5 2.8-7.9 10-13.4 17.6-16.5 8.5-4 18.2-4 27.5-3.8 14 0.1 27.9-0.2 41.9 0.3-0.2-14 0.2-28.1-0.3-42.2-17.8 0.7-35.7 0.1-53.6 0.3-9 0.3-17.5-3.5-24.6-8.7-17.5-13.5-20.2-42.7-4.3-58.5 7.5-7 17.3-13.1 27.9-12.4 12.3 0 24.7 0 37-0.1 6-0.1 12 0.5 18 0-0.4-14.3-0.2-28.5-0.3-42.8 0.2-5.6 0.1-11.2 0.1-16.8-8.3-4.4-14-13.5-13.6-23-0.3-9.2 5.2-18.1 13.5-22.1 0.1-5.5 0-11 0-16.4-18.3 0.1-36.5 0-54.8 0-16.7 0.3-32.1 12.8-36.2 28.9 0.4-6.3 4.1-11.8 8-16.6 6.9-7.2 16.4-11.8 26.2-13 19-0.2 38.1 0 57.1-0.2-0.3-6.6-0.3-13.4-1.4-20-2.8-17.6-11.7-34.3-25.1-46.2-13.8-12.8-32.5-20.4-51.4-20.3-31.1 0.1-62.1-0.1-93.1 0.1-9 0-18-0.7-26.9 0-0.7 0.1-2.2 0.1-2.9 0.1 0 29.6-0.2 59.1 0 88.7 0 21.3-0.2 42.7-0.1 64 0.1 14.9-0.7 29.8 0.2 44.6-0.2 19.1 0.1 38.3-0.2 57.4-0.3 3-0.1 6.4-2.4 8.8-1.7 1.8-4.4 1.4-6.7 1.5-9.3-0.1-18.7 0-28 0-5.2 0.1-10.4-0.1-15.6-0.1q-11.8 0.2-23.7 0c-4.8 0.2-9.6 0.3-14.5 0-7.9 0.1-15.8 0.1-23.7 0.1-4.6-0.1-9.2-0.1-13.7 0q-5.4 0-10.7 0-6.5 0-13 0-5.3 0-10.7 0c-4.3-0.1-8.6-0.2-12.9 0q-5.4 0-10.8 0c-4.4 0-8.8-0.2-13.2 0.6v-0.6q-5.2 0-10.4 0-6.5-0.3-12.9 0-5.4 0.1-10.8 0c-4.4-0.1-8.8 0-13.2 0q-5.2 0-10.5 0c-4.4-0.2-8.7-0.3-13 0q-5.3 0.1-10.6 0c-4.4 0-8.8 0.1-13.3 0q-5.2 0-10.5 0c-4.3-0.2-8.7-0.1-13.1 0.1-7.9-0.1-15.7-0.2-23.6-0.1q-7.2 0.2-14.4 0-12 0-23.9 0-8 0.1-16.1 0c-9.7-0.1-19.4 0-29.1 0-2.2 0-4.9-0.3-6-2.4-1.2-2.5-1.5-5.2-1.6-7.9-0.1-19.1 0.1-38.2 0-57.3q0.1-54.2-0.1-108.3c0.2-29.7 0-59.3 0.2-88.9l-4-0.1c-8.8-1.1-17.7 0-26.6-0.2q-45-0.1-90 0c-26.3-0.9-52.3 13.3-66.6 35.2zm740.2 184.3c-7.7 7.2-12.4 17.7-12.2 28.3-0.4 11.2 4.8 22.1 12.9 29.7 7 6.2 16.3 10.1 25.7 9.8q26.9 0.1 53.8 0.1c0.1-5.7 0.5-11.4 0-17-4.5-2.5-8.5-6.1-10.8-10.7-6.3-11.9-1.8-28.7 10.8-34.5 0.2-5.3 0-10.7 0.1-16.1-18 0.2-36 0.1-53.9 0.1-9.7-0.3-19.2 3.9-26.4 10.3zm-214.5 17.3c0 6.9 0.2 13.8 0 20.7 12.9 0 25.8 0 38.8 0.1-0.1-6.9 0-13.9-0.2-20.9 0-3-2.6-5.8-5.7-5.6-9 0.1-18.1 0.1-27.1 0.2-3-0.2-6.1 2.3-5.8 5.5zm-278.8 3.8c-0.2 6.8-0.1 13.6-0.2 20.4 15.3 0 30.7 0 46 0-0.2-6.8-0.2-13.5-0.1-20.3 0.1-3.1-3.1-5.2-5.9-4.8-11.7 0.1-23.5-0.1-35.2 0.1-2.5-0.1-4.6 2.2-4.6 4.6z"/><path class="b" d="m121.2 110.4c7.5-0.3 15.1 0.1 22.7-0.1q6.5 0 13 0c7.9 0.3 16-0.5 23.8 0.6 4.8 2.1 8.7 6.6 8.3 12.1 0.7 30 0.6 60 0.5 90-0.1 4.9 0.8 10-0.7 14.7-1.1 3.5-4.1 5.9-7.2 7.6-8 2-16.5 0.5-24.7 0.9-4.3-0.1-8.5 0.1-12.8 0.1-7.6-0.2-15.3 0.3-22.9-0.3-4.8-0.7-8.9-4.2-10.5-8.7-0.9-3-0.8-6.2-0.8-9.3 0.6-16.6 0-33.3 0.2-49.9-0.1-15.1 0-30.2 0.1-45.2-0.2-6.3 5-11.6 11-12.5zm-1 5.8c-3.1 1.2-5.1 4.4-4.8 7.7 0 32.8-0.1 65.5 0 98.2-0.1 2.5 0.5 5.2 2.6 6.9 1.8 1.9 4.6 1.6 7 1.7 17-0.1 34 0 51 0 4.2 0.4 8.3-3.4 7.9-7.7 0-32.3-0.1-64.7 0-97 0-2.7 0.3-6-2-8-2.2-2.6-5.8-2.3-8.9-2.3q-23 0.1-46 0c-2.3 0.1-4.6-0.2-6.8 0.5zm547 68.3q4.6-0.1 9.3 0 3.9 0 7.8-0.1c3.1 0.1 6.3 0.2 9.4 0.2q3.7-0.1 7.3 0c3.3 0.2 6.6 0.1 9.9 0q3.4-0.1 6.8-0.2c3.3 0 6.5 0.3 9.8 0.6 0.1 19.6 0 39.2 0 58.7-3 0.2-6 0.4-9 0.5-2.7 0-5.4-0.1-8-0.1q-4.7-0.2-9.4 0c-2.6 0-5.1 0-7.6 0-3.1 0-6.3 0.1-9.4 0.1-2.5-0.1-5.1-0.2-7.6-0.3-3.1 0-6.1-0.1-9.2-0.2-0.5-19.8-0.2-39.5-0.1-59.2zm5.4 5.3c0.1 16.2-0.1 32.4 0 48.6q24.8-0.1 49.6 0c0.1-16.2 0.1-32.4 0.1-48.6-12.5 0.3-24.9-0.4-37.3 0.3-4.2 0.1-8.3-0.2-12.4-0.3zm-539.4 216c5.1-1.6 10.5-1.7 15.8-1.6 179.7 0 359.4 0 539 0 5-0.1 10 0.3 14.8 1.7 3.3 1.5 6.5 3.2 9.3 5.4q7.7 0 15.4-0.1c0.1 37.6 0 75.1 0.1 112.7-0.8-0.1-2.4-0.3-3.2-0.3q0 3 0 6c2.2 0 4.5 0 6.7-0.1-2.1 0.6-4.4 0.9-6.6 1.2-0.2 3.3-0.1 6.7-0.1 10.1-0.1 37.6 0 75.3 0 113-0.6 12.4 0.2 24.8-0.1 37.2-0.2 5.3 0 10.5 0.1 15.8q0 27.3 0 54.6-0.3 10.2 0 20.4c0 24.8 0 49.7 0 74.5-0.2 10.2 0.1 20.5-0.1 30.7-0.3 13.2-8.4 26.4-21 31.2-4.2 1.6-8.8 2.5-13.3 2.5q-22.2 0.2-44.3 0c-37 0.2-73.9 0-110.9 0.1-14.6 0.2-29.2-0.3-43.8-0.1-9.2 0.2-18.4 0.3-27.5 0.1-45.9-0.1-91.8 0-137.7 0-13.3 0-26.6 0-39.9-0.1-46.8 0.1-93.6 0.1-140.3 0.1-5.9 0.3-11.6-1.5-16.7-4.1-4.1-2-7.5-5.1-10.5-8.5-6.1-6.8-8.2-16.2-7.6-25.2 0.1-148 0-296 0-444-0.2-9.8 3.2-20.1 10.9-26.5 3.4-2.9 7.3-5.3 11.5-6.7zm8.2 5.8c-12.7 0.8-23.5 12.5-23.1 25.3-0.1 149.7 0 299.4 0 449.1-0.4 10.8 6.5 21.3 16.5 25.4 6.1 2.6 12.8 1.8 19.1 1.9 176.4 0 352.7 0 529.1 0 5.5-0.1 11.3 0.6 16.5-1.7 10.4-3.8 17.6-14.6 17.3-25.6-0.1-149.3 0-298.7-0.1-448 0-5.3-1.5-10.7-4.3-15.2-4.6-7.1-12.9-11.6-21.3-11.3q-118-0.1-236.1-0.1c-104.5 0.1-209-0.1-313.6 0.2zm572.4 0.7c2.8 3.6 5.9 7 7.5 11.3 3.8 9.3 2.8 19.6 2.9 29.4 0.3 23.2-0.4 46.4 0.3 69.6l1.9 0.1c0.5-18.6 0.1-37.1 0.2-55.7-0.3-18.2 0.4-36.4-0.3-54.6-4.2-0.2-8.3-0.2-12.5-0.1z"/><path class="b" d="m625.1 458.1c4.6-1.4 9.3 3.7 7.8 8.1-0.9 4.2-6.5 6.4-9.9 3.7-4.5-2.8-3.1-10.8 2.1-11.8zm-24.9 4.5c3.9-1.6 8-2.9 12.1-4.1 0.3 21.7 0.1 43.4 0.2 65.1q-6.2 0.1-12.4 0.1 0-2.8 0-5.6c-5.1 4.1-11.4 6.9-18.1 6.3-8.9 0-17-5.4-21.6-12.8-4.9-8.5-4.9-19.7 0-28.2 5.1-8.7 15.4-14.1 25.5-13 5.4 0.4 10.3 3 14.3 6.5-0.1-4.8-0.6-9.6 0-14.3zm-19.8 20c-9.1 2.1-13.6 13.4-9.5 21.5 3.1 7.4 12.6 11 19.8 7.7 8.3-3.4 11.3-14.9 6.6-22.3-3.2-5.9-10.6-8.5-16.9-6.9zm-184.5-19c4-1.8 8.2-3.1 12.5-4 0.1 21.8 0.1 43.7 0 65.5-4.1 0-8.1 0-12.2 0.1-0.2-1.7-0.3-3.5-0.4-5.3-4.6 4.1-10.6 6.4-16.8 6-12.2 0.4-23.4-9.5-25.3-21.4-2.8-12.5 4.4-26.5 16.4-31 8.6-3.2 19.4-2.2 26 4.5-0.4-4.8-0.2-9.6-0.2-14.4zm-20.5 21c-9 3.1-12.3 15.2-7.1 22.9 4.1 7 14.2 9.1 20.7 4.5 7.4-4.9 8.8-16.4 3.1-23.1-3.7-5.1-11-6.6-16.7-4.3zm105.8-17.6c3.8-1.6 7.6-3.4 11.4-4.9q0.1 7.1 0.2 14.2 3.2 0 6.5 0-0.1 6.4 0 12.8-3.3 0-6.6 0c0.1 6.3-0.1 12.6 0.3 19 0.1 3.4 3.6 5.5 6.8 5.7-0.4 3.6-0.5 7.2-1 10.8-4.8-0.6-10-1.3-13.4-5-3.4-3.2-4.2-8.1-4.2-12.5-0.1-13.4-0.2-26.8 0-40.1zm178.3 3.7c9.3-2.2 19.9 0.2 26.6 7.2 10.3 10 10.2 28.3-0.1 38.2-10.5 10.8-30.2 10.4-40.1-1-6.8-7.4-8.6-18.7-5-28 3.1-8 10.2-14.4 18.6-16.4zm2.7 11.5c-9.7 2.5-13.7 15.2-8.4 23.3 3.8 6.4 12.6 9.1 19.3 5.6 8.2-3.9 10.8-15.5 5.7-22.9-3.3-5.6-10.6-7.9-16.6-6zm-225.8-3.7c3.8-5.2 10.4-7.5 16.7-7.8 7.2-0.2 14.8 1.4 20.4 6.1-1.8 2.6-3.3 5.4-4.9 8.2-5.3-2.1-10.9-5-16.8-3.8-2.9 0.2-6.3 2.4-5.7 5.7 0 2.2 2.2 3.4 4.1 4 6.4 1.9 13.5 2.1 19.4 5.4 5.8 3.2 6.7 11.1 5 16.9-1.5 5.7-7 9.4-12.6 10.7-10.4 2.4-22 0.3-30.1-6.9 2.2-2.7 4.5-5.2 6.8-7.8 5.6 4.8 13.9 7.4 21 4.5 3.3-1.2 4.4-6.7 0.9-8.4-6.3-3.1-13.9-2.2-20-5.9-7.5-3.7-8.9-14.5-4.2-20.9zm68.8-7c4.1-0.1 8.2-0.1 12.4-0.1 0 9.8-0.1 19.7 0 29.5 0 3.6 0.9 7.4 3.8 9.8 4 3.6 10.8 3.3 14.5-0.8 2.4-2.6 2.9-6.4 2.9-9.9-0.1-9.6-0.1-19.1-0.2-28.6 4.2 0 8.4-0.2 12.6 0q0 15.3 0 30.6c0 6.8-3 13.7-8.5 17.8-6 4.8-14.4 5.7-21.6 3.8-8.9-2.6-15.6-11.2-15.7-20.5-0.2-10.6 0-21.1-0.2-31.6zm-315.9 4.7c5.9-3.7 13.3-4.6 20.1-3.4 7 1.3 13.1 6.1 16.8 12.1 3.1 5.8 4.2 12.7 3.6 19.3-13.4 0-26.8-0.1-40.2 0 1 2.8 2.3 5.7 4.7 7.6 6.4 5.3 16.6 4.7 22.6-1q4.4 3.3 9.1 6.1c-9.8 11.7-29.3 12.9-40.5 2.7-6.2-5.3-9-13.6-8.9-21.5 0.3-8.8 5.2-17.3 12.7-21.9zm0.1 18.2q14.1 0.1 28.1-0.1c-1.6-4.8-4.8-9.5-10.1-10.6-7.7-2.1-16.2 2.9-18 10.7zm54.7-15.3c7.3-7 18.7-8.7 28.1-5.3 4.8 1.7 8.7 5.3 11.6 9.3 4.3 5.9 5.4 13.5 4.9 20.7-13.4 0.1-26.8 0-40.2 0.1 1.4 4.6 4.8 8.7 9.5 10.2 6 2.3 13.2 0.8 17.8-3.7 3 2.3 6 4.3 9.1 6.5-9.8 11.2-28.7 12.7-39.9 2.9-12.3-9.6-12.7-30.5-0.9-40.7zm4.2 15.1c9.4 0.1 18.8-0.1 28.2 0-1.4-5.4-5.7-10-11.4-10.8-7.4-1.6-15.2 3.4-16.8 10.8zm53.6-14.2c6.7-7.3 17.7-9.8 27.1-7 7.8 2.1 14.3 8.3 16.9 15.9 1.6 4.7 1.7 9.8 1.6 14.8-13.4 0.2-26.8-0.1-40.2 0.1 1.2 4 3.7 7.5 7.4 9.4 6.5 3.2 15.1 2.2 20.1-3.2 2.8 2.4 5.8 4.5 8.8 6.6-9.8 11.4-28.8 12.8-40.1 2.9-11.6-9.5-11.9-29-1.6-39.5zm5.5 14.1c9.1-0.2 18.3-0.1 27.4-0.2-1.2-5.7-5.9-10.4-11.7-10.8-7.1-1.2-14.4 3.9-15.7 11zm-174.7-14.3c3.7-4.6 9.6-6.7 15.3-7.2 7.7-0.5 15.7 1.4 21.8 6.1-2 2.7-3.7 5.4-5.3 8.2-5.8-3.3-13.2-6-19.7-3.1-3.4 1.3-4.3 6.7-0.6 8.3 7.1 3.1 15.6 2 22.3 6.5 5.9 4.2 6.4 13.1 3.3 19.2-3.2 5.5-9.7 8-15.7 8.7-9.4 1.2-19.4-1.4-26.6-7.7 2.2-2.6 4.4-5.2 6.5-7.8 6.3 4.4 14.8 7.7 22.3 4.2 3.4-1.4 3.6-7.3-0.1-8.5-6.5-2.7-14.1-1.7-20.2-5.6-7.5-4-8.6-15.1-3.3-21.3zm487.8-3.6q6.2 0 12.3 0c0 15.8 0.1 31.5 0 47.3q-6.1 0-12.2 0c0-15.8 0.1-31.6-0.1-47.3zm-341.6 83q2.3-0.1 4.7-0.1c0.2 10.3 0 20.5 0.2 30.8q-2.4 0-4.9-0.1c0-10.2-0.1-20.4 0-30.6zm320.6 0.4c4.8-1.3 10 1.6 12 6 2.1 4.8 2.1 10.5 0.6 15.4-1.5 4.7-6.1 8.8-11.3 7.9-6.2-0.6-9.8-7.2-10-12.9-0.5-6.4 1.6-14.7 8.7-16.4zm0 5.1c-2.9 1.7-3.6 5.3-3.7 8.3 0 3.1 0.1 6.5 2 9.2 1.5 2.1 4.6 2.9 6.8 1.3 2.8-1.8 3.2-5.4 3.5-8.4 0-3.1-0.1-6.5-2.2-9-1.5-1.9-4.3-2.6-6.4-1.4zm-355.1-5.3q2.4 0 4.8 0c0 10.2 0.2 20.5 0.1 30.7q-2.2 0-4.5 0c0-0.6-0.1-1.9-0.1-2.5-4.1 4.7-12.5 3.4-15.3-2-2.9-5.4-2-13.4 3.6-16.6 3.7-2.2 8.4-1.4 11.6 1.3-0.2-3.6-0.2-7.3-0.2-10.9zm-8 13.2c-5.7 2.3-4.8 12.8 1.6 13.3 4.2 0.6 7.4-3.9 6.5-7.8 0-4-4.4-7.2-8.1-5.5zm147.1-11.8c6.5-2.1 14.2 1.3 16.9 7.6 2.8 6.5 1.2 15.1-4.9 19.2-6 4.2-15.5 2.6-19.4-3.8-5.5-7.7-2.1-20.5 7.4-23zm0.9 4.7c-6.2 2.3-7.5 11.1-3.8 16 2.7 3.7 8.2 4.8 11.9 2.1 4.6-2.9 5.3-9.6 2.8-14.1-1.9-3.9-7-5.7-10.9-4zm62.3-5.3c5.8 0.5 12-1 17.5 1.6 6.7 3.6 6 14.6-0.6 18 2.1 3.1 4 6.2 6.1 9.3q-2.9 0-5.8 0c-1.7-2.7-3-5.6-5.1-8-2.2-0.9-4.7-0.3-7-0.4q-0.1 4.2-0.1 8.5-2.5-0.1-5-0.1c0.1-9.6-0.2-19.2 0-28.9zm5 4.7c-0.1 3.8 0 7.7 0 11.5 2.7 0 5.5 0.2 8.3-0.3 4.3-1.1 5.5-8.4 1.2-10.3-3-1.3-6.3-0.9-9.5-0.9zm22.7-4.7c6.4 0 12.8 0 19.3-0.1q0 2.3 0.1 4.6c-4.8 0.1-9.6 0.1-14.3 0.1q-0.1 4.4-0.1 8.7c4.3-0.1 8.6 0 12.9-0.1q0 2.3 0 4.5c-4.2 0.2-8.5 0.2-12.7 0.2q-0.1 5.5-0.1 11-2.5 0-5 0c0-9.6-0.1-19.3-0.1-28.9zm23.1 16c0.5-5.4 0.7-10.7 1.2-16.1 5.3 0.1 10.5 0 15.8 0q0 2.2 0.1 4.5c-4 0-7.9 0-11.8 0q-0.1 3.3-0.2 6.6c3.9 0 8.5-0.2 11.4 3 4.1 4.5 2 12.9-4.1 14.6-4.8 1.1-11 0.7-14.4-3.4q1.3-1.9 2.5-3.7c3.1 2.7 7.9 3.8 11.6 1.6 2.3-1.8 1.9-5.8-0.9-6.8-3.6-1.2-7.5-0.9-11.2-0.3zm20-11.7c3.6-4.8 11-6.5 16.1-3.3 4.4 3 4.5 9.7 1.3 13.5-2.8 3.4-6.2 6.3-9.2 9.5q6.2-0.1 12.4 0c0.1 1.1 0.2 3.4 0.2 4.5-6.6 0.1-13.2 0.2-19.8 0 0.3-1.6 0-3.5 1.3-4.7 3.7-4.1 7.9-7.7 11.2-12.1 1.5-1.9 1.8-5.1-0.3-6.7-3.3-1.9-7.5-0.5-9.8 2.3q-1.8-1.5-3.4-3zm25.5-1.4c3.7-4.3 11-4.7 15.5-1.6 4.2 2.8 3.8 9.2 0.2 12.3 2 1.5 3.7 3.6 3.7 6.2 0.5 4.5-3.4 8.3-7.6 8.9-4.3 0.7-9.5 0.2-12.4-3.4-3-3.6-1.9-9.5 2.1-12-2.9-2.6-4.1-7.2-1.5-10.4zm6.2 1c-3.1 0.8-3.8 5.3-1 6.8 2.8 1.7 8.2 1.1 8.4-2.9 0.2-3.8-4.5-5.2-7.4-3.9zm-1 12.3c-1.7 0.7-2.8 2.8-2.3 4.6 1.4 5.5 11.7 5 11.5-1-0.3-4.3-6-5.1-9.2-3.6zm17.9 0.8c3.9-5.9 7.7-11.8 11.8-17.5l5.1 0.1c-3.9 6.1-7.9 12-12 17.9q4.3 0 8.7-0.1 0-3.1 0-6.2 2.3 0 4.6 0.1 0 3 0.1 6 2.2 0 4.3 0 0.1 2.3 0.2 4.6c-1.5 0.1-3 0.1-4.5 0.1q0 3.2 0 6.5-2.5 0-4.9-0.1 0.1-3.2 0.3-6.3c-4.9 0-9.8 0.1-14.7 0 0.1-1.7-0.1-3.6 1-5.1zm-396.7-15.8q2-0.1 3.9-0.1c3.8 6 6.8 12.5 10.4 18.5 0.2 0 0.5 0.1 0.6 0.2 3.4-6.3 6.5-12.7 10-18.8q2.1 0 4.1 0 0.1 14.6 0.2 29.1-2.4 0-4.8 0.1c-0.1-6.5 0-12.9-0.2-19.4-3.1 5.8-5.6 12-9.6 17.3-4-5.1-6.5-11.1-9.8-16.6q0 9.3 0 18.7-2.4 0-4.8 0c0-9.7 0.1-19.3 0-29zm137.8-0.5q2.9-0.1 5.7-0.1 3.3 5.2 6.7 10.2c2.3-3.2 4.2-6.6 6.5-9.8 1.7-0.9 3.8-0.2 5.7-0.5-2.9 4.8-6.2 9.4-9.2 14.2 3.5 4.8 6.7 9.9 10.2 14.8q-2.9 0-5.9 0-3.5-5.5-7.3-10.7c-2.6 3.4-4.7 7.1-6.9 10.7q-3 0.1-5.9 0c3.1-5 6.6-9.7 9.8-14.7-3.1-4.7-6.3-9.4-9.4-14.1zm28.3-0.2q2.5 0 5 0c0 9.6 0 19.3 0.1 29q-2.5 0-5 0c-0.1-9.7 0-19.3-0.1-29zm8.4 28.9q5.7-14.5 11.6-28.9l5-0.1c4.3 9.6 8.1 19.3 12.2 29q-2.6 0-5.1 0.1c-0.9-2.4-1.8-4.7-3-6.9-4.4 0.3-8.7 0.3-13.1 0.3q-1.1 3.3-2.2 6.6-2.7 0-5.4-0.1zm14.2-23.6q-2.2 6.5-4.9 12.8 4.9-0.1 9.8-0.1-2.3-6.4-4.9-12.7zm-67.6 1.5c4.4-1.3 5.8 6.2 1.5 7-4.2 0.6-5.1-5.8-1.5-7zm130.1-0.3q2.1-0.1 4.2-0.1c0.1 0.6 0.1 1.9 0.1 2.6 2.7-1.8 5.9-3.5 9.2-2.6 3.5 0.5 5.9 3.6 6.3 7 0.5 5 0.1 10 0.2 15.1q-2.4 0-4.8 0c-0.2-4.9 0.5-9.9-0.4-14.7-1.5-5-9.4-3.1-9.8 1.6-0.2 4.4 0 8.8 0 13.2q-2.4 0-4.9 0c0.1-7.4-0.1-14.7-0.1-22.1zm-209.4 1c5.3-1.6 11.6 1.4 13.2 6.8 1.7 5 0.1 11.1-4.4 14-4.9 3.2-12.5 1.5-15.2-3.8-3.6-6-0.9-15.5 6.4-17zm1.2 4.3c-5.6 1.9-5.5 11-0.3 13.2 3.4 1.6 7.3-1.1 7.8-4.6 1.6-4.5-2.6-10.3-7.5-8.6zm45.3-2.8c4.1-3.2 10.7-2.6 14.1 1.4 2.1 2.6 2.6 6 2.6 9.3-5.4 0.6-10.9 0.2-16.4 0.4 1.6 5.1 8.3 6.8 12.2 3.1 1.1 0.8 4 2.4 2 4-5 4.4-14 2.9-17.2-2.9-2.9-4.9-1.9-11.9 2.7-15.3zm0.3 7.6c4 0 8-0.1 12-0.1-0.9-2.3-2.1-5.1-5-5.3-3.6-0.9-6.1 2.3-7 5.4zm147.3-1.6q5.3 0 10.5 0 0 2.3 0 4.5-5.3 0-10.5 0 0-2.2 0-4.5zm-115 7.5c1.3-1.1 3.4 0.2 4 1.5 1.3 2.4-0.5 6.2-3.5 5.5-3.1-0.8-3.4-5.7-0.5-7zm365.2 24.6c3.3-1.1 7.2-0.6 9.6 2 3.3 3 4.3 7.8 4.2 12.2-0.2 4-1 8.4-4.1 11.2-3.5 3.4-9.8 3.3-13.1-0.3-3.8-4-4.2-9.9-3.6-15 0.4-4.3 2.8-8.7 7-10.1zm0.9 4.7c-4.2 2.7-3.4 8.4-3.1 12.6 0.1 3.9 4.6 8 8.2 5.4 3.8-3.3 3.4-9 2.6-13.5-0.4-3.4-4.4-6.8-7.7-4.5zm-194.9-3.6c6.3-2.5 14.1 0.9 16.5 7.2 2.9 6.8 0.6 16.1-6.4 19.2-6.1 2.8-14.1 0.5-17.1-5.6-4.3-7.3-1.3-18.1 7-20.8zm1.6 4.2c-6.4 2.1-7.5 11.4-3.3 16 2.8 3.1 8.1 3.8 11.4 1 4.2-3.4 4.4-10.3 1.2-14.5-2.1-2.8-6.1-3.6-9.3-2.5zm20.5-4.7q2 0 4 0c4.5 6.1 9 12.2 13.7 18.1q-0.1-9.1-0.2-18.3 2.3 0 4.7 0c0 9.3 0.1 18.5 0 27.8-1.8-0.3-4.2 0.2-5.1-1.8-4-5.7-8.5-11.1-12.5-16.9 0.2 6.3 0.3 12.6 0.2 18.8q-2.3-0.1-4.7-0.3c0.2-9.1-0.1-18.3-0.1-27.4zm28.5-0.1c5.2 0.1 10.7-0.9 15.7 0.9 6.9 3.1 6.7 14 0.4 17.6q2.6 4.6 5.6 8.9c-1.8 0-3.5 0.2-5.3-0.1-1.9-2.5-3.3-5.4-5.3-7.9q-3.2-0.1-6.4-0.1 0 4.1-0.1 8.2-2.3 0-4.6 0.1 0-13.8 0-27.6zm4.7 4.3q-0.1 5.5 0 11c2.6-0.1 5.4 0.2 8.1-0.5 3.6-1.4 4.8-7.1 1.4-9.4-2.9-1.7-6.4-1-9.5-1.1zm21.4-4.5c6.1 0.1 12.2-0.1 18.3-0.2q0 2.3 0 4.6c-4.6 0-9.1 0-13.7 0.1q0.1 4.1 0.1 8.2 6 0 12 0-0.1 2.2 0 4.4c-3.9 0-7.9 0-11.8 0.1 0 3.5 0 7-0.2 10.5q-2.4 0-4.7 0c0.1-9.2-0.1-18.5 0-27.7zm22.7 0.1c4.9-0.6 9.9-0.3 14.9-0.3q0.1 2.2 0.2 4.5c-3.7 0-7.3-0.1-10.9 0q-0.2 3.1-0.4 6.1c3.7 0.2 8.1-0.1 10.9 2.9 3.9 4.3 2 12.2-3.6 14-4.8 1.1-10.7 0.9-14.1-3.2q1.3-1.6 2.5-3.3c3.1 2.1 7.1 3.7 10.5 1.7 2.5-1.2 2.6-5.3 0.1-6.6-3.3-1.8-7.3-1-10.8-0.7-0.2-5.1 0.7-10.1 0.7-15.1zm17.9 3.8c3.8-4.3 10.8-6.1 15.7-2.6 3.7 2.8 3.6 8.6 1 12.1-2.6 3.5-6 6.3-8.8 9.6 3.9 0.2 7.8-0.3 11.7 0.2 0.1 1.4 0.1 2.8 0.1 4.2-6.3 0-12.6 0.3-18.8-0.1-0.4-3.8 2.9-6.1 5.2-8.6 2.3-2.6 5-5 7-7.9 1.4-2 1.3-5.5-1.3-6.4-3.2-1.3-6.4 0.2-8.6 2.6q-0.4-0.4-0.8-0.8-0.4-0.4-0.8-0.7-0.4-0.4-0.8-0.8-0.4-0.4-0.8-0.8zm23.3 0.9c2.6-7.6 15.4-7.4 18.1 0 1 2.9-0.1 6.1-2.4 8 4.7 3 4.9 11-0.3 13.5-5 2.3-12.1 2.2-15.5-2.6-2-3.6-0.9-8.5 2.4-11-1.9-2.1-3.5-5.1-2.3-7.9zm6.2-0.6c-2 0.8-2.6 3.7-1 5.3 2.2 2.5 7.9 2.2 8.5-1.6 0.9-4.1-4.7-5.5-7.5-3.7zm0 11.2c-2.1 0.7-3.4 3.4-2.3 5.5 2.1 4.6 11.1 3.5 10.8-2.1-0.5-3.9-5.5-4.4-8.5-3.4zm17.1-0.4c3.5-5.2 6.9-10.4 10.6-15.5q2.4 0.1 4.9 0.1c-4 5.7-7.9 11.3-11.6 17.1q4.1 0 8.1 0.1 0.1-3 0.1-6 2.2 0 4.3 0 0 2.9 0 5.7 2.3 0.1 4.6 0.1v4.4q-2.3 0-4.5 0.1c0 2.1 0 4.2-0.1 6.3l-4.4-0.2q-0.1-3.1-0.1-6.1c-4.6 0-9.2 0.1-13.8-0.1 0.1-2.1 0.7-4.2 1.9-6zm-454-13.5c6.1 0 12.2-0.1 18.3 0q0 2.1 0 4.2c-4.5 0.4-9 0.3-13.5 0q-0.1 4.3 0 8.5c4.1 0 8.1 0 12.2 0l-0.1 4.4q-6 0-12 0-0.1 5.3-0.1 10.5-2.3 0-4.7 0.1c0-9.3-0.1-18.5-0.1-27.7zm25.1 3c5.3-4.9 14.3-4.4 19 1.1q-1.6 1.6-3.1 3.2c-2.9-3.2-7.8-4.4-11.4-1.9-6.5 3.8-5.2 15.4 2.1 17.5 3.6 1.2 7.1-0.8 9.9-2.8q1.3 1.7 2.6 3.4c-4.4 4.9-12.4 6.1-17.7 2-7.2-4.9-7.9-16.7-1.4-22.5zm27.3-1.7c5.3-3.2 12.5-2.1 16.8 2.3q-1.4 1.7-2.8 3.4c-3.1-2.9-8-4-11.7-1.6-6 4.1-4.9 15.3 2.4 17.4 3.4 1.3 7-0.4 9.4-2.9q1.4 1.6 2.9 3.3c-4.6 5.6-13.7 6.2-18.9 1.2-6.7-5.9-6-18.5 1.9-23.1zm42.4-1.6c6.3 0.4 13.5-1.4 19 2.5 8.5 5.9 6.5 21.6-3.7 24.4-5.1 1-10.3 0.4-15.4 0.6q0.1-13.8 0.1-27.5zm4.5 4.4c0 6.2 0.1 12.4 0.1 18.5 4.3-0.1 9.6 0.9 12.8-2.6 3.3-4.2 2.9-11.5-1.7-14.5-3.4-2-7.5-1.3-11.2-1.4zm41.7-4.6c6.8 0 13.5 0 20.3-0.2-0.1 1.6 0.3 3.4-0.9 4.7-4.3 6.3-9 12.4-13.5 18.5 5-0.2 10 0.1 15 0q-0.1 2.3-0.3 4.5c-7 0-13.9 0.2-20.8 0 0.1-1.7-0.1-3.7 1.1-5.2 4.2-6.1 8.9-12 13.3-18-4.8 0.1-9.5 0.1-14.3 0.1q0.1-2.2 0.1-4.4zm27.1 10.4c2.4-3.6 4.8-7.2 7.4-10.7q2.4 0 4.8 0c-4 5.6-7.7 11.5-11.4 17.3q4 0 8 0 0.2-3 0.3-6.1 2.1 0.1 4.2 0.2 0 2.8 0 5.6 2.4 0.2 4.7 0.4 0 2 0.1 4-2.3 0.1-4.5 0.1 0 3.1 0 6.2-2.3-0.1-4.6-0.1 0-3.1 0-6c-4.7-0.1-9.4 0-14.1 0 0.1-4.3 3-7.5 5.1-10.9zm16.9-10.6c7-0.1 14 0 21-0.1q0 2.2 0 4.4-4 0-8.1 0.1c0.1 7.7 0.1 15.4 0.1 23.1q-2.4 0-4.8 0c0-7.7-0.2-15.4 0-23.1h-8.2q0-2.3 0-4.4zm34-0.1l5.1-0.2c2.3 3.2 4.3 6.6 6.5 9.8q3-4.8 6-9.6 2.6-0.1 5.3-0.1c-2.8 4.5-5.7 8.9-8.6 13.3 3.1 4.7 6.3 9.4 9.3 14.3q-2.6 0.1-5.2 0.1c-2.3-3.4-4.5-6.9-6.8-10.4-2.3 3.5-4.6 7-6.7 10.5l-5.3-0.1c2.8-4.8 6.2-9.2 9-14-2.9-4.5-5.8-9.1-8.6-13.6zm26.5-0.2q2.3 0 4.6 0c0.1 9.2 0 18.4 0.2 27.6q-2.4 0-4.8 0c0-9.2-0.1-18.4 0-27.6zm18.7 0q2.4 0 4.8 0c4 9 7.7 18.2 11.4 27.5q-2.5 0-4.9 0.1-1.2-3.2-2.6-6.4c-3.9 0-7.9 0.1-11.9 0-1.1 2.1-1.9 4.2-2.5 6.4l-5.2 0.1c3.7-9.2 7.3-18.5 10.9-27.7zm-2 17.2q4.6 0 9.2 0c-1.4-4.1-3-8.1-4.7-12.1q-0.5 1.5-1 3-0.6 1.6-1.2 3.1-0.5 1.5-1.1 3-0.6 1.5-1.2 3zm-178.9-16.5q2.3-0.1 4.6-0.1c0.1 9.2 0.1 18.4 0.2 27.7q-2.4-0.1-4.8-0.1c0.2-9.2 0-18.3 0-27.5zm40.7 6.2c4-1.4 5.7 5.9 1.6 6.4-3.8 0.9-5.1-5.5-1.6-6.4zm83.3 7.7q4.9 0.1 9.8 0 0.1 2.2 0.1 4.3c-3.3 0.2-6.6 0.1-9.9 0.1q0-2.2 0-4.4zm-84.4 7.8c1.8-2.2 5.9 0.3 5 3.1 0 1.9-2.3 3.8-4.1 2.7-2.2-0.9-2.5-4.3-0.9-5.8zm348.9 64.2c8.5-9.6 16.8-19.4 25.4-29q1.4 1.5 2.8 3c-3.8 4.9-8.1 9.5-12 14.2-3.1 3.8-6.9 7.1-9.2 11.3 0 5.2 0 10.4 0 15.5q-4 0-7.9 0.1c-1.5 17.4-3 34.9-4.2 52.4 11.1 12.4 21.9 25 32.9 37.4q-1.4 1.5-2.9 2.9c-8.3-8.9-16.3-18.1-24.2-27.4 1 5.9-2.1 12.3-8 14.1-5.7 2.2-12.3-0.8-14.9-6.2-7.7 0.1-15.4 0.1-23.1 0.1q0 3.1 0 6.1-3.9 0-7.7 0c0-2 0-3.9-0.2-5.8q-1.3-0.6-2.6-0.9c-0.6-4.7-0.9-9.4-1.3-14.1-5.3 6.1-10.3 12.5-15.7 18.5-4.9 5.4-9 11.3-14.2 16.3q-1.6-1.3-3.1-2.6c5.2-6.8 11.2-12.9 16.6-19.5 5.1-6.3 10.5-12.4 15.8-18.6-1.6-18.7-3.6-37.4-5.1-56.1-0.2-1.3-0.2-2.8-0.9-3.9-9.2-10.8-19.1-21-28.2-31.8q1.3-1.6 2.6-3.2c7.3 7.4 13.8 15.5 20.9 22.9q-0.6-1.5-1.3-3l1.4-1.8c0.7 0.1 2.2 0.3 2.9 0.4 1-4.1 4.5-6.7 8-8.6 0.4-1.1-0.6-3.9 1.3-3.7 2.1 0.3 5.7-1.1 6.6 1.7q4.7-1.2 9.4-1.8c0.1-0.7 0.2-2 0.3-2.6 6.3-0.1 12.7-0.2 19-0.1 0.1 0.7 0.2 2.1 0.2 2.8 6.4 0.7 12.9 2.7 17.9 7 3.1-4.3 10-1 9.8 3.9 0.1 3.7-3.7 5.7-7 5.9q-0.1 2.1-0.1 4.2zm-36.1-19.7v2.3c3.8-0.1 7.7-0.1 11.5-0.1 0-0.6 0.1-1.7 0.1-2.3q-5.8 0-11.6 0.1zm-13.3 5.1q-0.1 2.9-0.2 5.9c15.1-0.1 30.2 0 45.4-0.3-4.1-4.8-10.4-6.3-16.3-7.5q-0.4 1.4-1 2.8-9.2 0.2-18.4 0v-3.2c-3.2 0.5-6.4 1.3-9.5 2.3zm-11.2 5.5q1.6 0.2 3.1 0.3 0.3-1.9 0.4-3.7c-1.1 1.1-2.3 2.2-3.5 3.4zm-7.2 5.6c1.4 1.4 2.7 2.9 4 4.4v-4.3q-2 0-4-0.1zm7.9-0.1c0.4 3.3 0 6.8 1.1 10 8.8 10.4 18.1 20.4 26.9 30.7 4.5-5.4 9.2-10.6 13.7-16-6.3-0.1-12.7 0.1-19.1 0.1q0-4.1 0-8.2c7.7-0.1 15.5-0.2 23.2 0 0.1 0.6 0.2 2 0.3 2.6 2.8-2.7 5.4-5.6 8-8.5q-0.4-2.8-0.6-5.6c0.5-0.1 1.5-0.4 2-0.5q-0.1-2.4 0-4.9c-18.5 0-37 0.3-55.5 0.3zm59.2 14.2q1.6 0.2 3.3 0.4c0-2.4 0-4.7-0.1-7.1-2.4 1.5-3 4.1-3.2 6.7zm-57.8 3.3c1.6 16.2 3.2 32.5 4.6 48.8 6.7-7.2 12.7-14.9 19.2-22.1-7.9-8.9-15.7-18-23.8-26.7zm42.7 11.2q-1.7 1.9-3.4 3.8-1.7 2-3.3 3.9-1.7 1.9-3.4 3.8-1.6 2-3.3 3.9c6.9 7.3 13.3 15.1 20.1 22.5 1.1-16.3 2.6-32.5 3.5-48.7-4.1 2.9-6.9 7.1-10.2 10.8zm-29.1 34c-2.6 3.3-5.9 6.2-8.1 9.8-0.1 5.1 0.7 10.1 1 15.2 9.5 0.1 19 0 28.5 0.1 0.3-3.6 1-7.4 3.9-9.9 2.7-2.8 6.8-3 10.4-3.7-1.2-3.4-4-5.8-6.3-8.4-5.6-6-10.8-12.3-16.4-18.2-4.4 5-8.7 10-13 15.1zm31.1 18.4c-3.3 1.4-4.9 5.8-3 8.9 2.1 4.2 8.9 4.2 10.9-0.1 2.9-4.7-2.6-11.4-7.9-8.8zm-184.6-91.9c8.1-6.1 18.5-7.9 28.4-7.2 0 4.2 0 8.5 0 12.7-9.9-1.6-20.3 2.6-26.6 10.3-8.2 9.9-8.4 25.2-0.8 35.4 6.1 8.8 17.2 13.1 27.7 11.7 0 4.4 0.1 8.8 0 13.1-13.3 1.1-27.1-4.1-35.8-14.4-8.5-9.5-11.9-23-9.5-35.5 1.8-10.4 8.1-19.9 16.6-26.1zm52.1 5.2c8.5-9.7 21.8-13.9 34.5-12.7 0 4.2-0.1 8.4-0.1 12.6-6.4-0.7-13.1 0.2-18.7 3.6-6.9 3.8-11.7 10.8-13.5 18.4 8.2-0.1 16.3-0.1 24.4-0.2 0 4.3 0.1 8.6 0.1 12.9-8.2 0.1-16.5 0.1-24.7 0.1 1.6 6.6 4.8 13.1 10.5 17 6.3 4.8 14.3 6.9 22.2 6-0.1 4.2 0 8.5 0 12.8-13.6 1.1-27.6-4.2-36.3-14.8-13.6-15.4-12.7-41 1.6-55.7zm-182 5.8c7.8-9.6 19.6-16.4 32.1-16.6 14.6-1 28.9 6.4 37.5 17.9-2.8 2-5.6 4.1-8.4 6.2-9.2-12.4-27.2-17.4-41.2-10.4-9.7 4.7-16.9 14.3-18.5 24.9-2.8 15.2 6.4 31.6 20.9 37 9.8 3.8 21.4 2.5 30.1-3.5 3.6-2.3 6.3-5.7 9.1-8.9q4.3 2.5 8.5 5.2c-10.9 19.2-38.3 25.8-57.1 14.4-12.1-6.6-20.3-19.3-22.2-32.8-5.1 0-10.1-0.1-15.2 0 0 10 0.2 20 0.1 30-3.5 2.1-7 4.1-10.5 6.3 0-26.2-0.4-52.3-0.2-78.5-0.3-3.8 3.2-7.1 7-6.8q16.2-0.2 32.5 0c-3.6 3-7.3 6.2-9.6 10.4-6.4 0.4-12.9 0.2-19.3 0.3-0.3 9.1 0.1 18.3-0.1 27.5 5.1 0.1 10.2 0 15.3 0 1.2-8.1 4.1-16.1 9.2-22.6z"/><path class="b" d="m328.7 704.7c6.2-9.5 19.4-13.6 29.9-9 4.6 1.7 8.1 5.4 11.2 9.2-2.9 1.8-5.7 3.9-8.5 5.9-3.4-3.7-8.1-6.7-13.2-6.1-7.3 0.4-13.5 7.1-13.4 14.3-0.3 8.1 7.1 16 15.4 15.2 4.6-0.3 8.5-3.2 11.2-6.8 3 1.6 5.8 3.6 8.5 5.6-6.8 12.6-25.3 15.3-36.2 6.5-10.4-7.9-12.5-24.3-4.9-34.8zm-148.8 56.4c10.5-5.3 22.6-6.8 34.1-5.2 22 3.1 41.4 20.7 45.9 42.5-19.5 5.7-39.3 10.3-59 15.2-0.1-5.2 0-10.5-0.2-15.8-14.1 3.8-28.3 7.7-42.5 11.3-0.2 11.8 3.7 24 11.8 32.9 8.3 9.4 20.4 15.7 33 16 13.9 0.8 28.2-5.1 37.2-15.8 3.9-4.2 6.6-9.2 8.9-14.4 3.2 0.4 6.4 0.9 9.7 1.2-4.1 12.5-12.7 23.3-23.8 30.1-14.6 9.2-33.7 11.1-49.7 4.7-12.5-4.7-23.5-13.9-29.7-25.7-6.3-11.7-8.6-25.6-5.4-38.6 3.3-16.5 14.7-30.9 29.7-38.4zm1.4 10.2c-10.1 5.6-17.2 15.4-20.9 26.3 16.5-4.3 32.9-8.8 49.5-12.5q0 8 0 15.9c12.6-3 25.1-6.5 37.7-9.9-5.2-10.3-14-18.8-24.8-23-13.3-5.8-29.2-4.4-41.5 3.2zm448.1 4.1c2.1-1.9 6.2-0.3 6.3 2.7 0.6 2.9-3.1 5.1-5.5 3.7-2.4-1.1-2.9-4.8-0.8-6.4zm-357.9 14.2c13.5-0.3 27 0 40.6-0.2 1.9-0.3 4.5 0.6 4.5 2.9 0.2 13.6-0.1 27.2 0.1 40.7 0 2 0.1 4.8-2.5 5.1-13.8 0.1-27.6 0.1-41.3 0.1-1.9 0.2-4-1.1-3.7-3.1-0.2-13.7 0-27.4-0.3-41.1-0.2-1.8 0.4-4.3 2.6-4.4zm2.6 5c0.2 12.9 0.1 25.8 0.2 38.7 12.4 0 24.9-0.1 37.3 0 0-12.9-0.1-25.9-0.1-38.8-12.4 0-24.9 0.1-37.4 0.1z"/><path class="b" d="m279.1 798.2c6 0 12-0.2 18 0.1 4.5 0 8.1 4.4 7.8 8.7 0.2 4.5-3.3 8.6-7.7 9 4.6 3.6 7.2 9 10.2 13.9-2.7-0.1-5.4 0.2-8.1-0.3-2.9-3.8-4.7-8.4-8-11.9-1.6-1.4-3.9-0.7-5.8-1 0.1 4.4 0.1 8.8 0.1 13.2q-3.2 0-6.4 0-0.1-15.9-0.1-31.7zm6.4 13.4c3.3 0 6.6 0.3 9.8-0.2 3.6-0.6 4.1-6.3 0.8-7.5-3.5-0.6-7.1-0.1-10.6-0.2q0 4 0 7.9zm106.1-7.4c2.8-3.5 7.1-5.6 11.5-5 5.4 0 9.8 5.4 8.3 10.6-1.6 6.3-7.6 9.8-11.6 14.4 4.3 0 8.6 0.1 12.8 0.1q0 2.3-0.1 4.6c-6.5 0.3-13.1 0.2-19.7 0.3q0-2.2 0.1-4.4c3.9-4.1 8.2-7.9 11.9-12.2 1.8-2.2 2.8-6.4-0.3-8.1-3.3-1.2-7.1-0.1-9.4 2.6q-1.8-1.5-3.5-2.9zm22.1-0.1c3.8-4.9 11-6.5 16.5-3.6 4.7 2.7 4.7 9.5 1.8 13.4-2.8 3.8-6.5 6.9-9.7 10.3 4.2-0.1 8.4 0 12.5 0q0.2 2.3 0.4 4.6c-6.7 0.1-13.4 0.2-20.1 0 0.3-1.6-0.3-3.5 0.9-4.7 3.8-4.3 8.3-7.9 11.7-12.5 1.6-2.2 1.7-5.9-1-7.2-3.3-1.6-7 0.3-9.2 2.8q-1.9-1.6-3.8-3.1zm31.7-4.5c3.6-1.4 8-0.6 10.7 2.2 3 2.9 4 7.2 4.2 11.2 0.1 4.9-0.7 10.4-4.6 13.7-3.9 3.8-11 3.4-14.4-0.9-3.7-4.3-4.1-10.5-3.3-15.9 0.6-4.3 3.1-8.8 7.4-10.3zm1 4.9c-3.6 2.1-3.8 6.8-3.7 10.5 0.1 3.6 1.3 8.2 5.2 9.3 3.1 0.8 5.8-1.8 6.5-4.7 1.1-4.1 1.1-8.6-0.5-12.5-1.2-2.9-4.9-4.2-7.5-2.6zm15.2-0.5c3.9-5.2 12.1-7 17.5-3 4 3 3.6 9 0.9 12.7-2.8 3.8-6.5 6.8-9.7 10.3q6.3-0.1 12.5-0.1 0.1 2.4 0.1 4.8c-6.5 0-13.1 0.2-19.7 0 0.2-1.8-0.3-3.9 1.2-5.2 3.7-4 8-7.6 11.2-12 1.4-2 1.7-5.1-0.1-6.8-3.2-2.3-7.6-0.5-9.9 2.2-1.4-0.9-2.6-2-4-2.9zm32.5-4.8c3.3-1 7-0.2 9.5 2.2 3.5 3.1 4.7 8 4.7 12.6-0.1 4.3-0.9 9-4.1 12.1-3.5 3.7-10.1 4.2-13.8 0.5-4.5-4.1-5.2-10.9-4.5-16.7 0.6-4.6 3.4-9.6 8.2-10.7zm-0.5 5.5c-3.4 3-3 8.2-2.6 12.3 0.3 3.3 2.3 7.1 5.9 7.2 3.3 0.1 5.4-3.2 5.9-6.1 0.7-4.1 0.7-8.7-1.6-12.3-1.6-2.5-5.3-2.9-7.6-1.1zm16.9-5.5c7-0.4 14.1-0.5 21.1-0.1-0.1 1.7 0 3.4-0.7 4.9-3 8.3-6.5 16.4-9.6 24.6l-5.5-0.2q5.1-12.2 9.8-24.6c-3.4 0-6.8-0.1-10.2 0l-0.1 5q-2.4 0-4.7 0-0.1-4.8-0.1-9.6zm-185.4 5.1c3.9-4.8 11.3-6.5 16.7-3.1 4.4 3 4.3 9.7 1.1 13.6-2.9 3.5-6.4 6.5-9.5 9.8 4.3-0.1 8.6-0.1 12.8 0q0.1 2.4 0.2 4.7-10 0.2-20 0.1c0.2-1.6-0.4-3.7 0.9-5 3.5-4.2 7.7-7.7 11.2-12 1.8-1.9 2.5-5.4 0.2-7.2-3.3-2-7.7-0.7-9.9 2.3q-2-1.5-3.7-3.2zm22.5-4.5q5.3-0.1 10.6-0.1c0.2 9.9 0.1 19.7 0.2 29.6q-2.6 0-5.1 0c-0.1-8.3-0.1-16.5-0.1-24.7q-2.9-0.1-5.7-0.1 0-2.4 0.1-4.7zm14.6-0.1q5.3-0.1 10.7-0.1c0.2 9.9-0.3 19.8 0.2 29.6q-2.6 0.1-5.2 0c0-8.3 0-16.5-0.2-24.8q-2.8 0-5.5 0 0-2.3 0-4.7zm191.6 7.2c38.9 0 77.8-0.5 116.8-0.5-0.1 7.2 0 14.3 0 21.4q-58.4 0.4-116.7 0.6c0-7.1 0-14.3-0.1-21.5zm-378.9 8.6q30.3-0.1 60.6-0.1 0 4.9 0 9.9c-20.2-0.1-40.4 0.1-60.6 0q0-4.9 0-9.8zm203.9-0.7q5.4 0 10.8 0v4.7c-3.6 0.2-7.2 0.2-10.8 0.2q0-2.5 0-4.9zm-203.7 15.1c20.1-0.1 40.3 0 60.4-0.2 0 3.6 0 7.1-0.1 10.6-8 0-16 0.1-24 0.1q0.2 7.1 0.2 14.1-6.1 0.1-12.2 0c0-4.7 0.1-9.5 0.1-14.2-8.1 0.1-16.2 0.1-24.4 0.2 0-3.6 0-7.1 0-10.6zm438.7 112.8c2.2-2.6 6-2.3 9.2-2.4 18 0.3 36 0 53.9 0.3 5.1 1 6.5 6.8 5.8 11.2-0.1 8.7 0 17.3 0 25.9 13.8 0 27.6-0.2 41.4 0l1.1 0.2c-14.2 1.2-28.4-0.1-42.6 0.4 0 5.5 0.2 11 0.1 16.6 0 8.6 0 17.1 0 25.7 0.1 5.8 0.2 11.5 0 17.3-0.1 8.5 0 17.1 0 25.6 13.8 0.1 27.7 0.1 41.5 0.1-2.9 1.2-6.1 0.6-9.2 0.7-10.6 0.1-21.3-0.2-31.9 0.3-0.5 2.9-0.8 6.3-3.3 8.2-2.1 2-5.2 1.9-7.8 2-17-0.2-34-0.1-51 0-2.9 0.1-5.9-0.9-7.6-3.2-2.1-2.4-1.6-5.8-1.7-8.7-0.1-8.4 0.1-16.8-0.1-25.2-2.2-2-5.9-0.7-8.6-1.2q4.3-0.2 8.6 0c0.1-5 0.1-10-0.1-15-12.9-0.9-25.9 0.6-38.7-0.8 13-0.1 25.9 0 38.9 0 0-8.7 0-17.3 0-25.9 0-5.7 0.1-11.5 0.1-17.2-0.1-8.5-0.3-17.1-0.1-25.7 0.3-3 0-6.6 2.1-9.2zm5.5 5.3c-0.1 39.7 0.1 79.4-0.1 119.2 18.7 0.4 37.3 0.1 56 0.1-0.3-13.4-0.3-26.9-0.3-40.3-0.2-11.7 0.6-23.3 0.1-34.9-0.5-14.8 0.5-29.5 0.1-44.3-18.6-0.1-37.2-0.3-55.8 0.2zm-341.3 49.1c1.5-3 4.6-5.1 8-4.8 35.6 0 71.3 0 107 0.1 3.2-0.3 6.3 1.1 8.3 3.7 1 2.5 0.9 5.2 0.9 7.9q0 24 0 48c-0.1 4.7 0.3 9.3-0.3 14-0.7 3.5-4.4 5.8-7.9 5.6-36-0.1-72 0-108.1 0-3.1 0.2-6.2-1.4-7.7-4.2-0.9-3.7-0.6-7.6-0.7-11.4 0-15.7 0-31.3 0-47 0.1-4-0.3-8 0.5-11.9zm7.2 2.6c0.1 21.4 0 42.8 0 64.2 14.6 0.7 29.2-0.4 43.8 0.2 10.3-0.1 20.7-0.3 31 0 11.5-0.4 23.1 0.1 34.7-0.1-0.1-21.5 0.2-43-0.2-64.4-36.4 0.3-72.9 0-109.3 0.1z"/><path class="c" d="m218.1 10.1c1.9-2.3 5-3 7.8-2.9 132.7-0.1 265.4 0 398.1-0.1 2.9-0.2 5.9 0.9 7.6 3.3 2.8 3.6 1.8 8.4 1.9 12.6 0.1 107.4 0.2 214.7 0.1 322.1-0.1 1 0.1 3-1.6 2.6-12.9 0.1-25.8 0-38.6 0.1-0.1-6.9 0.2-13.8 0-20.8 0-7-6.4-13.4-13.4-13.2-9 0-18 0-26.9 0-7.2-0.2-13.5 6.1-13.6 13.1-0.3 7-0.1 14-0.2 21-72.6-0.3-145.3-0.1-217.9-0.1-0.1-5.6 0.1-11.2 0-16.8 0-6.9-6.6-12.8-13.4-12.4-11.3 0.1-22.7 0-34 0.1-6.4-0.3-12.9 4.8-13.4 11.4-0.3 5.9 0.1 11.8 0 17.7-14.8 0-29.6-0.1-44.4 0-0.7-18.3 0.2-36.5-0.3-54.8 0-91.3 0-182.7 0-274 0-3.1 0.1-6.5 2.2-8.9zm103.5 221.6c-2.1 0.5-4.1 1.6-5.4 3.4-4.3 5.1-1.3 14.8 5.8 15.4 11 0.2 22 0 33 0.1 3.2 0.1 6.2-2 7.6-4.8 3.2-5.7-0.7-14.1-7.5-14.3-11.1 0.1-22.3-0.3-33.5 0.2zm182 0.1c-6 1.9-8 9.6-5 14.7 1.7 2.3 4.4 4.3 7.4 4.1q15.5 0 31 0c2.9 0.2 5.3-1.5 7.1-3.6 2.3-2.3 1.4-5.9 1.4-8.8-1-4.7-6.1-7-10.5-6.7-10.5 0.2-21-0.4-31.4 0.3zm-299-141.4l4 0.1c-0.3 29.6 0 59.2-0.2 88.9-9.5-5.4-14.8-16.3-14.9-27.1q-0.3-18.5 0-36.9c0-9.5 4.3-18.6 11.1-25zm436.6-0.1c0.7 0 2.2 0 2.9-0.1 7.3 6.9 11.5 16.7 11.4 26.8 0 11.6 0 23.3 0 35-0.2 10.5-5.1 21.3-14.3 27-0.2-29.6 0-59.1 0-88.7zm-522.4 10.6c-0.1-1.8 1.3-3.7 3.2-3.5 6-0.2 12-0.1 18.1 0 1.7-0.3 3.5 0.9 3.6 2.7 0.2 3.4 0.1 6.8 0.2 10.2-7.6 0.2-15.2-0.2-22.7 0.2-0.6 0-1.8 0.1-2.4 0.1 0-3.2-0.1-6.5 0-9.7zm38.4-1.8c0.7-2 3.1-1.8 4.8-1.8 5.3 0 10.7-0.1 16 0.1 1.7-0.2 3.4 1 3.5 2.7 0.3 3.7 0.1 7.3 0.2 11l-1-0.2c-7.8-1.1-15.9-0.2-23.8-0.6 0.1-3.7-0.6-7.5 0.3-11.2zm517.3-0.5c3.9-0.2 7.9 0 11.8-0.2 0 8.4-0.1 16.9 0 25.3-4.1-0.2-8.1 0.1-12.2-0.3-2.6-0.3-4.5-2.7-4.5-5.3-0.2-4.7-0.2-9.3-0.1-14 0.1-2.7 2.2-5.3 5-5.5zm33.9 25c0.1-8.3 0-16.7 0.1-25.1 3.8 0.1 7.6-0.1 11.5 0.2 2.7 0 4.9 2.7 5 5.3 0.3 4.7 0.2 9.4 0.1 14.1-0.1 2.7-2.4 5.3-5.2 5.4-3.8 0.3-7.7-0.1-11.5 0.1zm-588.2-7.4c2.2-0.7 4.5-0.4 6.8-0.5q23 0.1 46 0c3.1 0 6.7-0.3 8.9 2.3 2.3 2 2 5.3 2 8-0.1 32.4 0 64.7 0 97 0.4 4.3-3.7 8.1-7.9 7.7-17 0-34-0.1-51 0-2.4-0.1-5.2 0.2-7-1.7-2.1-1.7-2.7-4.4-2.6-6.9-0.1-32.7 0-65.4 0-98.2-0.3-3.3 1.7-6.5 4.8-7.7zm24.2 42.5c-8.8 2.8-13 14.3-8.1 22.2 4.3 8.2 16.7 10.1 23.4 3.7 7-5.9 6.8-18.2-0.8-23.6-3.9-3.6-9.6-3.1-14.5-2.3zm572.1-22.2c2.1-1.6 5-0.8 7.5-1 1.7 0.3 4.4-0.5 5.3 1.4 0.3 2.1 0.2 4.3 0.3 6.4q-6.8 0.1-13.5 0.1c0.1-2.3 0-4.6 0.4-6.9zm-0.4 21.8q6.7 0 13.4 0c-0.3 2.6 1 6.1-1.3 8-3.9 0.4-7.7 0.1-11.6 0-0.5-2.7-0.5-5.3-0.5-8zm-39.6 26.2c0.9-3.5 6.8-3.4 7.8-0.1q-3.9 0.1-7.8 0.1zm17.2 0.1c0.4-3.6 7.1-3.6 7.3 0q-3.6-0.1-7.3 0zm17.2 0c0.4-4.3 6.6-3.2 8.1-0.2h-1.3q-3.4 0.1-6.8 0.2zm-554 51.6c8.2-0.4 16.7 1.1 24.7-0.9-0.1 4.1 0.2 8.2-0.2 12.3-0.5 1.9-2.8 2.1-4.4 2.1-5.4-0.1-10.7 0-16.1 0-1.3 0-3.3-0.2-3.6-1.8-0.8-3.8-0.3-7.8-0.4-11.7zm-38.1-0.5c0.6 0.1 1.8 0.2 2.4 0.3 7.6 0.6 15.3 0.1 22.9 0.3-0.4 3.8-0.1 7.7-0.4 11.5-0.3 1.7-2.3 1.8-3.6 1.8-5.4 0-10.8 0-16.2 0.1-1.7 0.1-3.9-0.1-4.5-1.9-0.6-4-0.4-8.1-0.6-12.1zm557.7 8.2c2.5 0.1 5.1 0.2 7.6 0.3-1 3.4-6.8 3.3-7.6-0.3zm17 0.2c2.5 0 5 0 7.6 0-0.5 3.7-6.9 3.5-7.6 0zm17 0c2.6 0 5.3 0.1 8 0.1-1.2 3.5-7.1 3.5-8-0.1z"/><path class="c" d="m195.7 302.7c2.3-6.4 7.1-11.5 12.8-15.1 0.1 19.2-0.1 38.3 0 57.4 0.1 2.7 0.4 5.4 1.6 7.9 1.1 2.1 3.8 2.4 5.9 2.4 9.8 0 19.5-0.1 29.2 0-0.1 11-5.8 22.2-16.2 26.8-7.8 3.1-17.5 2.4-24.3-2.8-7-5.4-11-14.2-11.1-23-0.1-10.8 0-21.5-0.1-32.3 0-7.1-0.6-14.6 2.2-21.3zm445.5-15.1c3.2 2.5 6.4 5.1 8.7 8.4 4.2 6.1 5.9 13.7 5.7 21-0.1 13.3 0.2 26.7-0.1 40-0.7 12.3-9.5 25.4-22.4 26.7-7.6 1.2-15.6-1.4-20.8-7.1-5.8-5.5-8.1-13.6-8.3-21.3 9.3 0 18.7-0.1 28 0 2.3-0.1 5 0.3 6.7-1.5 2.2-2.4 2.1-5.8 2.4-8.8 0.3-19.1 0-38.3 0.1-57.4zm-379.9 67.7q11.9 0 23.9 0c-0.1 10.6-0.1 21.2 0 31.7 0 1.9 0 3.9-0.6 5.7-2.8 1-5.8 0.5-8.6 0.6-4.3-0.1-8.7 0.4-13-0.3-1.9-0.9-1.5-3.2-1.6-4.9 0-11 0.1-21.9-0.1-32.8zm38.3 0c7.9-0.1 15.7 0 23.6 0-0.1 11.3 0.2 22.5 0 33.8-0.2 1.4-0.1 4.2-2.2 4.1-6.3 0.2-12.7 0.3-19.1 0-2.2 0-2.3-2.6-2.2-4.2-0.1-11.2 0.1-22.5-0.1-33.7zm36.7 0q5.3 0 10.5 0c-0.2 10.6 0.2 21.1-0.1 31.7 0.2 4-5 3.7-7.7 3.3-2.5-0.3-2.7-3.3-2.7-5.2 0.1-10 0-19.9 0-29.8zm23.8 0q5.3 0.1 10.5 0c0 10.2 0.1 20.5 0 30.7 1 6.3-11.5 6.4-10.4 0-0.2-10.2 0.1-20.5-0.1-30.7zm23.6 0q5.3 0 10.5 0c-0.1 9.6 0.1 19.1 0.1 28.7-0.1 1.8 0.1 3.8-0.9 5.4-2.2 1.4-4.9 1.2-7.3 0.7-2.3-0.5-2.4-3.2-2.4-5 0.1-10 0-19.9 0-29.8zm23.7 0q5.4 0.1 10.8 0c-0.1 7.6 0 15.2-0.3 22.7-0.2 3.8 0.5 7.7-0.5 11.3-3 1.9-9.8 2.4-9.8-2.4-0.5-10.5 0-21.1-0.2-31.6zm23.7 0q5.2 0 10.4 0v0.5c-0.1 10.1 0.3 20.1 0 30.2 0 1.7-0.3 4-2.4 4.2-2.8 0.6-8 0.9-7.8-3.2-0.2-10.6 0-21.2-0.2-31.7zm23.6 0q5.4 0 10.8 0c-0.1 10.5 0.1 21-0.1 31.5 0.3 2.5-2.3 3.7-4.4 3.7-2.5 0.3-6.3-0.3-6.1-3.5-0.4-10.5 0-21.1-0.2-31.7zm23.7 0q5.4 0 10.7 0c-0.1 9.9 0.3 19.8-0.1 29.7-0.2 1.8 0 4.3-2.1 5-2.9 0.8-8.3 1.1-8.3-3.1-0.3-10.6 0-21.1-0.2-31.6zm23.7 0q5.3 0 10.7 0c-0.2 9.9 0 19.8 0 29.7-0.1 2 0 4.8-2.5 5.3-2.8 0.7-8 0.7-8-3.3-0.3-10.6 0-21.1-0.2-31.7zm24.4 0c7.9 0 15.8 0 23.7-0.1-0.1 11 0 21.9 0 32.8-0.2 1.8 0.3 4.8-2.2 5.1-5.7 0.6-11.4 0.1-17.1 0.2-1.6 0.1-4.3-0.1-4.2-2.3-0.3-11.9 0-23.8-0.2-35.7zm38.2-0.1q11.9 0.1 23.7 0c-0.3 12.3 0.3 24.6-0.1 36.8-0.3 0.3-1 0.8-1.3 1-4.7 0.7-9.4 0.2-14 0.4-2.5-0.1-5.2 0.3-7.5-0.8-0.9-2.1-0.8-4.4-0.8-6.6q0.1-15.4 0-30.8zm-441.7 51.8c3-2.1 6.8-1.4 10.2-1.2-4.2 1.4-8.1 3.8-11.5 6.7 0.2-1.8-0.1-4 1.3-5.5zm601.4 246.8c0-37.7-0.1-75.4 0-113 4-0.7 9.5 1.4 9.4 6.2 0.2 33-0.2 66 0.1 99-0.1 2.2 0.2 4.7-1.7 6.2-1.9 2.3-5.1 2.4-7.8 1.6zm0 53c2.6 0 5.6-0.9 7.8 1.1 1.8 1.4 1.4 4 1.5 6.1-0.1 14.6 0.3 29.3 0 44-0.6 4.3-6.1 4.1-9.3 3.4q0-27.3 0-54.6zm-0.1 75c3.2-0.2 6.4-0.2 9.5 0.3q0 36.9 0 73.8c-3.1 0.4-6.3 0.4-9.4 0.4 0-24.8 0-49.7-0.1-74.5zm-578.7 139c46.7 0 93.5 0 140.3-0.1-0.4 3.2 1.1 8.7-3.3 9.6-9.5 0.6-19.1 0.2-28.6 0.3q-51.6 0-103.1 0.1c-1.9 0.1-4.2-0.6-5-2.6-0.7-2.4-0.3-4.9-0.3-7.3zm180.2 0q68.9 0 137.7 0c-0.1 2.4 0.3 4.9-0.3 7.3-0.6 1.8-2.5 2.4-4.2 2.2-34.4 0-68.7 0-103 0-9.3-0.1-18.7 0.3-27.9-0.2-3.1-2-2-6.2-2.3-9.3zm209 0c37-0.1 73.9 0.1 110.9-0.1 0.1 3.6 0.7 9.9-4.7 9.5-34 0.1-68 0.2-102 0-4.6-0.5-4.3-6-4.2-9.4zm-14.1 25.7c3.3 0 6.6-0.2 9.9 0.1 1.6 0.1 2.6 1.9 2.6 3.4 0.1 4.3 0.2 8.7 0 13 0 1.6-1.5 3-3.1 2.8-3.1 0.2-6.3 0-9.4 0.1 0-6.4 0-12.9 0-19.4zm-31.2 1.9c3.1-3.3 8.5-1.3 12.6-1.9 0 6.6 0 13.1 0.1 19.6-4.1-0.5-9.4 1.6-12.6-1.6-0.7-5.3-0.5-10.8-0.1-16.1zm79.3 4.3c1.5-1 3.4-0.7 5.2-0.8 12.5 0.4 25.1-0.1 37.7 0-0.2 8.6 0 17.2 0.1 25.7-13.6-0.1-27.1 0-40.7-0.1-1.9 0.2-3.7-1.5-3.4-3.5-0.1-5.7-0.1-11.3-0.1-17 0.1-1.5-0.3-3.4 1.2-4.3zm113.9-0.9c13.5 0.5 26.9-0.2 40.3 0.2 1.8-0.1 3.6 1.2 3.6 3.1 0.2 6.3 0.1 12.7 0.1 19 0.1 1.7-1.3 2.9-2.6 3.7-13.8-0.3-27.6-0.1-41.5-0.1 0.1-8.6 0-17.2 0.1-25.9zm-281.6 43.8c10 0.4 20 0 29.9 0.3 2.3-0.2 3.8 2 3.5 4.1 0 21 0 42 0 63.1 0.2 2.1-1.1 4.6-3.6 4.2-9.7 0.2-19.5 0-29.2 0.1l0.2-1.4c0.7-4.7 0.2-9.4 0.3-14q0-24 0-48c0-2.7 0.1-5.4-0.9-7.9zm166.6 2.4c-0.3-2.4 2.4-3.4 4.3-3.2 13.2 0 26.4 0 39.7 0-0.1 8.6 0 17.3-0.1 25.9-12.9 0-25.9-0.1-38.8 0-1.9 0-4.9-0.2-5-2.6-0.3-6.7-0.2-13.4-0.1-20.1zm115-3.1c13.4 0 26.9-0.2 40.3-0.1 1.9-0.1 3.7 1.3 3.6 3.2 0.2 6.4 0.1 12.7 0 19.1 0.1 1.6-0.8 3.6-2.7 3.4-13.7 0.2-27.5 0.1-41.2 0.1-0.1-8.6 0-17.1 0-25.7zm-437.1 5.1c-0.3-2 1.1-4.1 3.3-4.1 9.8-0.2 19.6 0 29.3-0.2l-0.2 1.4c-0.8 3.9-0.4 8-0.5 11.9 0 15.7 0 31.4 0 47 0 3.8-0.2 7.7 0.7 11.5-9.8-0.1-19.5 0-29.2-0.2-2.3 0.1-3.6-2.3-3.4-4.3q0-31.5 0-63zm-95.9 23c-0.1-3 2.1-6 5.2-6.1 4.6-0.4 9.1 0.1 13.6-0.2 0 9.8 0 19.6 0 29.3-4.9 0-9.8 0.3-14.7 0.2-2.6-0.8-4.1-3.5-4-6.2-0.2-5.6-0.2-11.3-0.1-17zm47.7-6.2c4.5 0.1 9.1-0.2 13.6 0 2.7 0.1 4.6 2.6 4.8 5.1 0.7 5.7 0.3 11.4 0.3 17.1 0.1 3.1-1.4 6.9-4.9 7.2-4.6 0.1-9.2 0-13.8-0.1 0-9.8-0.1-19.6 0-29.3zm370.2 24.3c-0.3-1.9 1.6-3.3 3.4-3.2 13.5-0.3 27 0 40.5-0.2 0.3 8.4 0 16.8 0.2 25.2l-0.4 0.5c-13.3 0.3-26.8 0-40.2 0-2 0.2-3.5-1.6-3.4-3.5-0.2-6.3-0.1-12.6-0.1-18.8zm115.1-3.2c13.1-0.1 26.2-0.1 39.3-0.1 1.8-0.1 4.3 0.3 4.5 2.6 0.4 5.1 0 10.4 0.2 15.6-0.2 2.7 0.8 6.5-2.5 7.6-13.9 0-27.7 0-41.5-0.1 0-8.5-0.1-17.1 0-25.6z"/><path class="d" d="m21.3 125.4c14.4-21.9 40.3-36.1 66.6-35.3 30.1 0 60.1-0.1 90.1 0.1 8.9 0.2 17.8-0.9 26.6 0.2-6.8 6.4-11.1 15.5-11.1 25q-0.3 18.5 0 36.9c0.1 10.8 5.4 21.7 14.9 27.1q0.2 54.1 0.1 108.2c-5.7 3.6-10.5 8.7-12.8 15.1-2.8 6.7-2.2 14.2-2.2 21.3 0.1 10.8 0 21.5 0.1 32.3 0.1 8.8 4.1 17.6 11.2 22.9 6.7 5.3 16.4 6 24.3 2.9 10.3-4.6 16-15.8 16.1-26.8q8.1 0.1 16.1 0c0.2 10.9 0.1 21.8 0.1 32.8 0.1 1.7-0.3 4 1.6 4.9 4.3 0.7 8.7 0.2 13 0.3 2.9-0.1 5.8 0.4 8.6-0.6 0.6-1.8 0.6-3.8 0.6-5.7 0-10.5-0.1-21.1 0-31.7q7.2 0.2 14.4 0c0.2 11.2 0 22.5 0.1 33.7-0.1 1.6 0.1 4.2 2.3 4.2 6.3 0.3 12.7 0.2 19.1 0 2 0.1 1.9-2.7 2.1-4.1 0.2-11.3 0-22.5 0-33.8 4.4-0.1 8.8-0.2 13.1 0 0 9.9 0.1 19.8 0 29.8 0 1.9 0.2 4.9 2.7 5.1 2.7 0.5 7.9 0.8 7.7-3.2 0.3-10.6-0.1-21.1 0.1-31.7 4.5 0.1 8.9 0 13.3 0 0.2 10.2-0.1 20.5 0.1 30.7-1 6.4 11.4 6.2 10.4 0 0.1-10.2 0-20.5 0.1-30.7 4.3-0.3 8.6-0.2 13-0.1 0 10 0.1 19.9 0 29.8 0 1.9 0.2 4.6 2.4 5.1 2.4 0.5 5.1 0.7 7.3-0.7 1-1.6 0.8-3.6 0.9-5.4 0-9.6-0.2-19.1-0.1-28.7 4.4 0 8.8-0.1 13.2 0 0.2 10.5-0.3 21 0.2 31.6 0 4.8 6.8 4.2 9.8 2.4 1-3.6 0.3-7.5 0.5-11.3 0.3-7.6 0.2-15.1 0.3-22.7q6.5-0.3 12.9 0c0.2 10.5 0 21.1 0.2 31.7-0.2 4.1 5 3.8 7.8 3.2 2.1-0.3 2.4-2.5 2.4-4.2 0.3-10.1-0.1-20.1 0-30.2 4.4-0.8 8.8-0.5 13.2-0.5 0.2 10.6-0.2 21.2 0.2 31.7-0.1 3.2 3.6 3.8 6.1 3.5 2.1 0 4.7-1.2 4.4-3.7 0.2-10.5 0-21 0.1-31.5 4.3-0.2 8.6-0.1 12.9-0.1 0.2 10.6-0.1 21.1 0.2 31.7 0 4.2 5.4 3.9 8.3 3.1 2.1-0.7 1.9-3.2 2.1-5 0.4-9.9 0.1-19.8 0.1-29.7q6.5 0 13 0c0.2 10.6-0.1 21.1 0.2 31.7 0 4 5.2 4 8 3.3 2.6-0.5 2.4-3.3 2.5-5.3 0-9.9-0.2-19.8 0-29.7 4.6-0.1 9.2-0.1 13.7-0.1 0.2 12-0.1 23.9 0.2 35.8-0.1 2.2 2.6 2.4 4.2 2.3 5.7-0.1 11.4 0.4 17.1-0.2 2.5-0.3 2-3.3 2.2-5.1 0-10.9-0.1-21.8 0-32.8 4.9 0.3 9.7 0.2 14.5 0q0.1 15.4 0 30.8c0.1 2.2-0.1 4.5 0.9 6.6 2.3 1.1 4.9 0.7 7.4 0.8 4.6-0.3 9.3 0.2 14-0.4 0.3-0.2 1-0.7 1.3-1 0.4-12.2-0.2-24.5 0.1-36.8 5.2 0 10.4 0.2 15.6 0.1 0.2 7.7 2.5 15.8 8.4 21.3 5.1 5.7 13.1 8.3 20.7 7.1 12.9-1.3 21.7-14.4 22.5-26.7 0.2-13.3-0.1-26.7 0-40 0.2-7.4-1.5-14.9-5.7-21-2.3-3.3-5.5-5.9-8.6-8.4-0.9-14.9-0.1-29.7-0.2-44.6-0.1-21.3 0.1-42.7 0.1-64 9.2-5.7 14.1-16.5 14.3-27 0.1-11.7 0-23.4 0-35 0.1-10.1-4.1-19.9-11.4-26.8 9-0.7 17.9 0 26.9 0 31-0.2 62-0.1 93.1-0.1 18.9-0.1 37.6 7.5 51.4 20.3 13.4 11.9 22.3 28.6 25.1 46.2 1.1 6.6 1.1 13.4 1.4 20-19 0.2-38.1 0-57.1 0.1-9.8 1.3-19.3 5.9-26.2 13.1-3.9 4.8-7.6 10.3-8 16.6-2 8.8-1.4 18.3 2.5 26.5 4.4 10.4 13.6 18.7 24.6 21.5 5.6 1.5 11.4 1.3 17.2 1.4 15.6 0 31.2-0.2 46.7 0 0.1 14.2-0.1 28.5 0.3 42.8-6 0.5-12-0.1-18 0-12.3 0.1-24.7 0.1-37 0.1-10.6-0.7-20.4 5.4-27.9 12.4-15.9 15.8-13.2 45 4.3 58.5 7.1 5.2 15.6 8.9 24.6 8.7 17.9-0.2 35.8 0.3 53.6-0.3 0.5 14.1 0.1 28.1 0.3 42.2-14-0.5-27.9-0.2-41.9-0.3-9.3-0.2-19-0.3-27.5 3.8-7.6 3.1-14.8 8.6-17.6 16.5-5.8 10.4-7.2 23.4-2.7 34.6 3.6 8.6 9.8 16.6 18.4 20.6 5.7 3 12.1 4 18.4 3.9q26.6 0 53.1 0c-0.1 14.4 0 28.8 0 43.2q-26.5-0.1-53.1-0.1c-8.3 0-16.4 2.7-23.2 7.3-9.9 7.2-16.1 19.1-16.1 31.3-0.2 9 3 17.9 8.4 25 7.4 9.1 19.1 15 30.9 14.6 17.7 0 35.5 0 53.2-0.1 0.2 14.6 0 29.2 0.3 43.7-18.2 0.2-36.4 0-54.5 0.1-19.6 0.5-37 18.1-36.9 37.7-0.6 11.6 4.2 23.4 12.8 31.1 5.1 4.8 11.8 7.3 18.4 9.1 1.8 0.8 3.8 1.2 5.8 1.2 18.1-0.1 36.3 0.1 54.4-0.2 0.3 14 0.2 28 0.3 42-13.3-0.8-26.5-0.3-39.8-0.4-5.5 0.1-11.1-0.6-16.5 0.9-10.3 1.6-20.3 6.5-26.8 14.9-12.2 14.5-11.2 38.1 2.1 51.6 6.9 7.5 17 11.9 27.3 11.9 17.9 0.1 35.8-0.1 53.7 0 0.2 14.6 0.2 29.2 0.1 43.8-13.6 0.6-27.2 0.1-40.9 0.3-8.5 0.2-17.5-0.9-25.6 2.5-13.9 5.4-24.4 19.3-24.9 34.3-0.1 6.2 0.6 12.6 3.2 18.4 5.5 12.3 17.8 21.5 31.3 22.8 6 0.5 12 0.2 18 0.2 13.1-0.1 26.1 0.1 39.2-0.1-0.2 8.6-0.7 17.4-3.3 25.6-2.9 9.3-6.1 18.8-12.4 26.3-0.3-14.2 0.1-28.4 0-42.6l-1.1-0.1c-2.5 0-5-0.1-7.5-0.1-0.1 4.2-0.1 8.4-0.1 12.6q-4.9-0.1-9.8-0.2-4-6.1-7.8-12.3-4.2 0-8.4 0c2.8 4.6 5.9 9.1 8.9 13.7-3.6 2.1-7.2 4.9-8.1 9.3-0.9 4.8-0.8 10.4 2.5 14.3 3.2 3.7 8.2 5.2 12.9 5.4 5.8 0.1 11.6 0 17.4 0h1.3c-4.4 7.5-10.9 13.5-17.2 19.3-14.3 11.3-32.2 18.7-50.5 18.9-53.7 0.4-107.3-0.2-161 0.1-160.6 0-321.3 0-482 0-14-0.3-28.3 1.2-42-2.1-26.3-6.4-49.3-25.9-59.2-51.1-5-10.9-7.4-22.9-6.9-34.9 18.4-0.5 36.8 0.3 55.1-0.1 1.9 0 3.8-0.3 5.5-1.1 8.7-2.4 17.1-6.7 22.8-13.9 7.8-9.4 10.9-22.3 8-34.2-3.4-16.2-18.5-29.5-35.3-30-18.7-0.4-37.5 0.3-56.3-0.1-0.2-13.9-0.1-27.8 0-41.6 19.5-0.1 39 0 58.4-0.2 2.3 0.2 4.2-1.1 6.2-2 12.3-4 22.6-13.8 26.5-26.2 5.9-17.2-2.7-37.7-18.7-46.1-5.5-3-11.8-4.6-18.1-4.6-18.2 0-36.3 0.3-54.5 0-0.2-14.5-0.2-29.1-0.1-43.6 14.6-0.1 29.1 0 43.6 0 7.4-0.1 14.9 0.5 22-1.9 11.8-3.5 21-13.3 25.3-24.6 4.6-12.6 1.7-27.3-6.7-37.7-1.6-4-5.3-6.6-8.8-8.8-6.3-3.6-13.5-6.1-20.8-6.1-18.3 0.1-36.7 0.3-55 0 0.5-13.8-0.2-27.6 0.5-41.4 17.8 0.1 35.6 0 53.5 0.2 9.3 0.3 18.1-4 25.3-9.4 6.1-4.7 9.9-11.7 12.4-18.9 2.4-5.7 1.7-12.1 1.5-18.1-1.8-8.8-5.8-17.5-12.7-23.5-1.1-1-2.6-1.5-3.9-2.1-2.3-1.2-4.5-2.6-6.7-3.8-3.5-2.3-7.6-3.8-11.8-3.9-19.3-0.2-38.7 0.3-58.1-0.1 0.3-14.3 0-28.6 0.2-42.9 15 0.1 29.9 0 44.9 0 6.4-0.1 12.9 0.4 19.1-1.3 17.7-4.4 30.5-23.1 28.3-41.2-1.3-16-13.5-30.1-28.8-34.5-2.3-2.2-5.7-1.9-8.6-2.1-18.5 0.2-36.9 0.2-55.3 0.1 0.1-13.8 0.1-27.5 0.1-41.3 18.7-0.2 37.4-0.1 56.1-0.1 4.8 0 9.6-1.4 13.6-4.1 8.9-4.5 16.6-12 20.2-21.5 4.2-10.2 3.4-22.1-1.5-32-3.1-6.1-8-11-13.4-15.1-5.2-5.1-12.8-6.8-19.9-6.9q-27.6 0-55.2-0.1c0.1-13.8-0.1-27.7 0.1-41.6 16 0.2 32.1-0.1 48.1 0.1 7.6-0.7 15.5-0.4 22.4-4 5.6-2.9 11.6-6.6 14.2-12.5 4.9-7.3 8.3-15.8 7.8-24.7-0.2-18.7-15.5-35.5-34-38.1-6.3-1.9-13-0.8-19.5-1-13 0.3-26.1-0.4-39.2 0.3-0.9-19 2.5-38.9 13.6-54.7zm97.5-24.5c-0.1 3.2 0 6.5 0 9.7 0.6 0 1.8-0.1 2.4-0.2-6 0.9-11.2 6.2-11 12.5-0.1 15-0.1 30.1-0.1 45.2-0.2 16.6 0.4 33.3-0.2 49.9 0 3.1-0.1 6.3 0.8 9.3 1.6 4.5 5.7 8 10.5 8.7-0.6-0.1-1.8-0.3-2.4-0.3 0.2 4 0 8 0.6 12 0.6 1.9 2.8 2 4.5 2 5.4-0.1 10.8-0.1 16.2-0.1 1.3 0 3.3-0.2 3.6-1.8 0.3-3.8 0-7.7 0.5-11.5 4.2 0 8.4-0.2 12.7-0.1 0.1 3.9-0.4 7.9 0.4 11.7 0.3 1.6 2.3 1.8 3.6 1.8 5.4 0 10.8-0.1 16.1 0 1.6 0 3.9-0.2 4.4-2.1 0.5-4.1 0.1-8.2 0.2-12.3 3.1-1.7 6.1-4.1 7.2-7.6 1.5-4.7 0.6-9.8 0.7-14.7 0.1-30 0.2-60-0.5-90 0.4-5.5-3.5-10-8.2-12.1l0.9 0.2c-0.1-3.7 0.1-7.3-0.2-11-0.1-1.7-1.8-2.9-3.5-2.8-5.3-0.1-10.7 0-16-0.1-1.7 0.1-4.1-0.1-4.8 1.9-0.9 3.6-0.2 7.5-0.3 11.2q-6.5 0-13 0c-0.1-3.4 0.1-6.8-0.2-10.2-0.1-1.8-1.9-3-3.6-2.7-6-0.1-12.1-0.2-18.1 0-1.9-0.2-3.3 1.7-3.2 3.5zm555.7-2.3c-2.8 0.2-4.9 2.8-5 5.5-0.1 4.6 0 9.3 0.1 14 0 2.6 1.9 5 4.5 5.3 4.1 0.4 8.1 0.1 12.2 0.3 7.3 0.5 14.7 0.5 22.1-0.1 3.8-0.2 7.7 0.1 11.6-0.1 2.7-0.1 5-2.7 5.1-5.4 0.2-4.7 0.2-9.4-0.1-14.1-0.1-2.6-2.2-5.3-5-5.3-3.9-0.3-7.7-0.1-11.5-0.2-7.4-0.7-14.8-0.8-22.2-0.1-3.9 0.2-7.9-0.1-11.8 0.2zm-10.8 35c-0.1 13.3 0 26.6-0.1 39.8h7.5c-0.3-5.7-0.1-11.4-0.3-17.2q10.6 0 21.3 0c-0.2 5.8-0.3 11.6 0 17.3h7.3c0-13.3 0.1-26.6 0-39.9q-3.8 0-7.5 0c0 5.3-0.1 10.6 0.1 16-7.1 0-14.1 0-21.1 0 0-5.3-0.1-10.6 0.1-15.9q-3.7-0.1-7.3-0.1zm52.8 2.9c-0.4 2.3-0.3 4.6-0.4 6.8q6.7 0.1 13.5 0c-0.1-2.1 0-4.3-0.3-6.4-0.9-1.9-3.6-1.1-5.3-1.4-2.5 0.2-5.4-0.6-7.5 1zm-0.4 21.8c0 2.7 0.1 5.3 0.5 8 3.9 0.1 7.7 0.4 11.6 0 2.3-1.9 1-5.4 1.3-8q-6.7 0-13.4 0zm3.8 18.7c5.1 0.3 10.2 0.1 15.4 0.1 0 24.9 0.1 49.9 0 74.8-4.1 0-8.2-0.3-12.2 0.1-1.7 0.6-1.5 2.6-1.5 4-4.7 4.9-11.3 7.3-16.6 11.4-5.7-12.2-26.3-12.4-31.5 0.2-3.3 8.6-1.4 18.1-1.9 27.1 16.8-0.1 33.5 0.1 50.3-0.1q0-4.2 0-8.4c-5.1-0.1-10.2 0-15.4-0.1-0.1-3.4 0-6.9 0-10.4 4.9-3.6 10.3-6.3 15.2-10 1.1-2.6-0.5-5.7 0.9-8.4 5.1 0.8 10.2 0.5 15.3 0.4 2.3-0.1 3.9-2.5 3.6-4.7 0-25.9 0.1-51.9-0.1-77.9 0.3-1.8-1.2-2.9-2.3-4-6.4 0.3-12.7-0.2-19 0.1-3.1-0.1-3.4 6-0.2 5.8zm-43.4 7.5q-4.7-0.1-9.3 0c-0.1 19.7-0.4 39.4 0.1 59.2 3.1 0.1 6.1 0.2 9.2 0.2 0.8 3.6 6.6 3.7 7.6 0.2 3.1 0.1 6.3 0 9.4 0 0.7 3.5 7.1 3.7 7.6 0q4.7-0.2 9.4 0c1 3.6 6.8 3.6 8 0.1 3-0.1 6-0.3 9-0.5 0.1-19.5 0.1-39.1 0-58.7-3.2-0.3-6.5-0.6-9.8-0.6l1.3-0.1c-1.5-2.9-7.7-4-8.1 0.3-3.3 0.1-6.6 0.2-9.9 0-0.2-3.7-6.9-3.7-7.3 0-3.1 0-6.2-0.1-9.4-0.2-1-3.3-6.9-3.4-7.8 0.1zm-22.5 1.4c-0.3 15-0.1 30.1 0.1 45.1 0.2 7.9-0.6 15.9 0.1 23.8 0.3 2.2 2.8 3.1 4.7 2.9 5.7-0.1 11.4 0.2 17-0.1 3.1-0.2 3.2-5.4 0.1-5.5-5.3-0.5-10.5-0.2-15.8-0.2q0.1-32.5 0-64.9c0.8-4-5.8-5.1-6.2-1.1zm-525.6 112.7q3.9 0 7.9 0c-0.1-4.8-0.1-9.6-0.1-14.5 14 0 27.9 0.1 41.9 0.1q0.1-4.3 0.1-8.5c-14-0.2-28 0-42-0.1 0.1-4.8 0-9.5 0-14.3h-7.9c0 12.4 0 24.9 0.1 37.3zm570 8c-5.4 5.4-5.1 13.7-8.7 20.1-2.1 3.4-7.3 3.2-9.3-0.2-3.5-5.9-0.9-13.2 2.7-18.5q-3.6-1.2-7.2-2.3c-5.4 6.1-6.2 15.3-3.6 22.8 2.9 8.7 15.4 11.8 22.2 5.9 5.3-5.4 5.2-13.6 8.8-20 2.2-4.1 8.6-3.4 10.3 0.7 3 6.9 0.1 14.9-4.5 20.2q3.7 1.7 7.5 3c6.3-7.4 8.1-18.8 3.7-27.6-4-7.7-15.5-10.1-21.9-4.1zm-540.3 1.4c-5.9 2.6-7.5 9.5-9.2 15.1-1.2 3.5-2 8.1-6 9.5-4 1-7.1-3-7.3-6.6-0.9-5.2 1.3-10.1 4.1-14.3-2.3-0.9-4.7-1.8-7.1-2.5-4 3.7-5 9.5-5.1 14.8 0 5.7 2.1 12.2 7.5 15.1 5.2 3 12.9 2.8 17-2.1 4.6-5.6 4.4-13.6 8.4-19.5 2.4-3.7 8.2-2.5 9.7 1.4 3.1 6.8-0.2 14.5-4.5 19.9q3.6 1.6 7.3 3.1c6.2-6.6 7.3-16.6 5-25-2.4-8-12.2-12.5-19.8-8.9zm513.5 38.4q0 4.2 0 8.4c9.4 0 18.9 0 28.4 0 4.1 0 8.6 0.5 11.8 3.4 4.3 4.3 3.4 12.6-1.9 15.8-2.6 1.8-5.9 1.8-9 1.9q-14.7-0.1-29.3 0-0.1 4.2-0.1 8.5 15.3-0.2 30.6 0c5.6 0 11.7-1.4 15.6-5.7 4.6-4.5 5.5-11.6 4.5-17.7-1.1-6.2-6.2-11.1-12-13.2-4.9-1.7-10.1-1.3-15.2-1.4-7.8 0.1-15.6 0-23.4 0zm-510.5 13.7c-4.3-9.8-17.8-11.9-26.1-6.2-4.1 3-6.3 8-6.6 13-0.4 6.8 0 13.6-0.1 20.5q25-0.2 49.9 0 0-4.3 0-8.6c-5.1 0-10.3 0-15.4 0.1q0-5.3 0-10.5c4.9-3.4 10.1-6.3 15.1-9.6 0.3-3 0.3-6.1 0.2-9.2-5.8 3.3-11.2 7.1-17 10.5zm-27.9 45.7c-3.4-0.2-7.2-0.9-10.2 1.2-1.4 1.5-1.1 3.7-1.3 5.5-7.7 6.4-11.1 16.7-10.9 26.5 0 148 0.1 296 0 444-0.6 9 1.5 18.4 7.6 25.2 0.2 2.4 0.2 4.9 1.4 7 2.4 2.3 6.1 1.5 9.1 1.5 5.1 2.6 10.8 4.4 16.7 4.1 0 2.4-0.5 4.9 0.2 7.3 0.9 2 3.1 2.7 5.1 2.6q51.5-0.1 103.1-0.1c9.5-0.1 19.1 0.3 28.6-0.3 4.4-0.9 2.9-6.4 3.3-9.6 13.3 0.1 26.6 0.1 39.9 0.1 0.3 3.1-0.8 7.3 2.3 9.3 9.2 0.5 18.6 0.1 27.9 0.2 34.3 0 68.6 0 103 0 1.7 0.2 3.6-0.4 4.2-2.2 0.6-2.4 0.2-4.9 0.3-7.3 9.1 0.1 18.3 0.1 27.5-0.1 14.6-0.2 29.2 0.3 43.8 0.1-0.1 3.4-0.4 8.9 4.1 9.4 34.1 0.2 68.1 0.1 102.1 0 5.4 0.4 4.8-5.9 4.7-9.5q22.1 0.2 44.3 0c4.5 0 9.1-0.9 13.3-2.5 12.5-4.8 20.7-18 21-31.2 0.2-10.3-0.1-20.5 0.1-30.7 3.1 0 6.3 0 9.4-0.4q0-36.9 0-73.8c-3.1-0.5-6.3-0.5-9.5-0.3-0.1-6.8-0.1-13.6 0.1-20.4 3.2 0.7 8.7 0.9 9.3-3.4 0.3-14.7-0.1-29.4 0-44-0.1-2.1 0.3-4.7-1.5-6.1-2.2-2-5.2-1.1-7.8-1.1-0.1-5.3-0.3-10.5-0.1-15.8 0.3-12.4-0.5-24.8 0.1-37.3 2.7 0.9 5.9 0.8 7.8-1.5 1.9-1.5 1.6-4 1.7-6.2-0.3-33 0.1-66-0.1-99 0.1-4.8-5.4-6.9-9.4-6.2 0-3.4-0.1-6.8 0.1-10.1 2.2-0.3 4.5-0.6 6.6-1.2 2-1.1 2.7-3.3 2.5-5.5-0.1-38.3 0-76.6-0.1-114.9 0.2-2.4-2.1-4.1-4.4-3.8-9.1 0.2-18.2-0.3-27.3 0.2l1 0.4c-4.8-1.4-9.8-1.8-14.8-1.7-179.6 0-359.3-0.1-539 0-5.3-0.1-10.7 0-15.8 1.6zm594.4 260.7q-0.2 12.2 0 24.4c0 3 3.6 2.8 5.7 2.4 0.5-8.9 0.3-17.9 0.1-26.8-1.9-0.2-3.9-0.2-5.8 0zm-238.2 267.2c-5.8 1.1-10.5 5.8-12.1 11.4-1.2 5.5-0.5 11.3-0.7 16.9-0.1 5.1 1.8 10.4 5.8 13.7 5.4 4.7 13.1 3.5 19.7 3.5 3-0.3 2.9-4.9 0-5.4-4.2-0.4-8.5 0.3-12.6-0.5-4.2-0.9-6.9-5.1-7.1-9.2-0.2-5.1-0.2-10.2 0-15.2 0.2-3.9 2.3-7.9 6-9.3 3.7-1.2 7.7-0.5 11.6-0.5 1.4-0.1 3 0 4-1.2 1-1.7 0-4.4-2.1-4.4-4.1-0.2-8.4-0.3-12.5 0.2zm31.1-0.2c-2.8 0.3-3 4.6-0.3 5.3 4.3 0.9 9-0.4 13.3 0.8 4.3 1.5 6.9 6 6.7 10.4-0.1 5 0.2 10-0.3 15-0.5 4.4-4.2 8.6-8.8 8.5-3.6 0.3-7.4-0.4-10.9 0.6-2.5 0.9-1.9 4.8 0.7 5.2 3.7 0.1 7.4 0 11.1-0.2 7.6-0.2 13.8-7.6 13.8-15.1 0.1-5.4 0.1-10.8-0.2-16.1-0.4-6.9-5.7-13.4-12.7-14.3-4.2-0.3-8.3-0.4-12.4-0.1zm171.2 1.5c-0.8 1.9 1.4 3.8 3.2 3.6 13.9 0.1 27.8-0.2 41.7-0.2 0.2 21.9-0.1 43.7 0.2 65.6 0.5 3.4 6.5 2.7 5.9-0.9-0.1-22.3 0-44.6-0.2-66.9 0.2-2-1.3-4-3.4-3.5-14.4 0.1-28.7 0.1-43.1 0-1.7-0.2-4 0.3-4.3 2.3zm-139.1 6.1c-0.1 34.2-0.1 68.5-0.1 102.7-0.7 4.2 6.5 4.5 5.9 0.2 0-33.1 0.1-66.3-0.1-99.4q19.3 0 38.7 0c1.7 0.1 3.8-0.9 3.8-2.7 0.3-2.1-2-3.5-3.8-3.2-13.7 0.1-27.4 0-41 0.1-1.4-0.1-3.4 0.6-3.4 2.3zm61.2 1.6c-2.1 2.6-1.8 6.2-2.1 9.2-12.6-0.1-25.2 0.4-37.7 0-1.8 0.1-3.7-0.2-5.3 0.8-1.4 0.9-1 2.8-1.2 4.3 0.1 5.7 0 11.3 0.2 17-0.3 2 1.5 3.7 3.4 3.5 13.5 0.1 27.1 0 40.7 0.1 0 5.7-0.1 11.5-0.1 17.2-13.3 0-26.5 0-39.7 0-1.9-0.2-4.6 0.8-4.3 3.2-0.1 6.7-0.2 13.4 0.1 20.1 0.2 2.4 3.1 2.6 5 2.6 12.8 1.4 25.8-0.1 38.7 0.8 0.1 5 0.2 10 0.1 15q-4.3-0.2-8.6 0c2.7 0.5 6.4-0.8 8.5 1.2-13.5 0.2-27-0.1-40.5 0.2-1.8-0.1-3.7 1.3-3.4 3.2 0 6.2-0.1 12.5 0.1 18.8-0.1 1.9 1.4 3.7 3.4 3.5 13.4 0 26.9 0.3 40.3 0l0.3-0.5c0.1 2.9-0.4 6.3 1.7 8.7 1.7 2.3 4.7 3.3 7.5 3.2 17-0.1 34.1-0.2 51.1 0 2.6-0.1 5.7 0 7.8-2 2.5-1.9 2.8-5.3 3.2-8.2 10.7-0.5 21.3-0.2 32-0.3 3-0.1 6.2 0.5 9.2-0.7 3.3-1.1 2.4-4.9 2.5-7.6-0.2-5.2 0.3-10.5-0.2-15.6-0.2-2.3-2.7-2.7-4.5-2.6-13.1 0-26.2 0-39.3 0.1 0.1-5.8 0.1-11.5 0-17.3 13.7 0 27.5 0.1 41.2-0.1 1.9 0.2 2.8-1.8 2.7-3.4 0.1-6.4 0.2-12.7 0-19.1 0.1-1.9-1.7-3.3-3.6-3.2-13.4-0.1-26.8 0.1-40.3 0.1 0.1-5.5-0.1-11-0.1-16.5 14.2-0.6 28.4 0.7 42.6-0.5l-1.1-0.1c1.3-0.8 2.7-2 2.6-3.7 0-6.3 0.1-12.7-0.1-19 0-1.9-1.8-3.2-3.6-3.1-13.4-0.4-26.8 0.3-40.3-0.2 0.7-4.4-0.7-10.2-5.8-11.2-17.9-0.3-35.9 0-53.9-0.3-3.2 0.1-7-0.2-9.2 2.4zm-93.1 3.9c0 6.4 0 12.9 0 19.3 3.1 0 6.3 0.1 9.4 0 1.6 0.1 3.1-1.3 3.1-2.9 0.2-4.3 0.1-8.7 0-13 0-1.5-1-3.3-2.6-3.4-3.3-0.3-6.6-0.1-9.9 0zm-31.2 1.8c-0.4 5.3-0.6 10.8 0.1 16.2 3.2 3.1 8.5 1 12.6 1.5-0.1-6.5-0.1-13-0.1-19.5-4.1 0.5-9.5-1.5-12.6 1.8zm258.8 38.9c4.5 6.9 9.2 13.6 13.7 20.4-4.5 6.9-9.7 13.4-14 20.5q4.1 0.1 8.2 0.3c3.6-5.1 6.8-10.3 10.3-15.3 3.4 5.1 6.7 10.3 10.3 15.2q4.2 0 8.4-0.1c-4.7-6.8-9.5-13.6-14-20.6 4.3-6.9 9.2-13.4 13.7-20.2q-4 0-8.1 0c-3.6 4.7-6.6 9.8-10.3 14.5-3.5-4.8-6.7-9.8-10-14.7q-4.1 0-8.2 0zm-470.3 9.8l0.2-1.4c-9.7 0.2-19.5 0-29.3 0.2-2.2 0-3.6 2.1-3.3 4.1q0 31.5 0 63c-0.2 2 1.1 4.4 3.4 4.3 9.7 0.2 19.4 0.1 29.2 0.2 1.5 2.7 4.6 4.3 7.7 4.1 36 0 72.1-0.1 108.1 0 3.5 0.2 7.2-2.1 7.9-5.6l-0.2 1.4c9.7-0.1 19.5 0.1 29.2 0 2.5 0.3 3.8-2.2 3.5-4.3 0.1-21.1 0-42.1 0.1-63.1 0.2-2-1.2-4.3-3.5-4.1-9.9-0.3-19.9 0.2-29.9-0.3l0.2 0.5c-2-2.6-5.1-4-8.3-3.7-35.7-0.1-71.4-0.1-107-0.1-3.4-0.3-6.5 1.9-8 4.8zm-251.2 0.8c4.4 6.9 9.1 13.7 13.8 20.4-4.8 7-10.1 13.7-14.6 20.9 2.8 0 5.5 0.1 8.3 0.3 3.8-5.1 7.2-10.6 10.8-15.8 3.7 5.2 6.9 10.6 10.6 15.8q4.2 0 8.4 0c-4.8-7.2-9.9-14.2-14.5-21.5 4.6-6.7 9.4-13.4 14-20.1-2.7 0.2-5.7-0.6-8.3 0.4-3.6 4.5-6.5 9.4-9.9 14.1-4.1-4.4-6.7-9.9-10.4-14.6q-4.1 0-8.2 0.1zm125.8 5.9c-9.6 1.5-16 10.9-16.3 20.1-0.7 10.5-1.6 23.1 7 30.9 6.9 6.6 17.1 4.9 25.8 5.2 2.2 0.3 3.9-1.9 3.1-4-1.4-2-4.1-1.5-6.2-1.6-5.7-0.3-12 0.8-17-2.5-4.7-3-6.8-8.6-7.1-13.9-0.2-4.7-0.3-9.4 0.1-14.1 0.5-5.3 3.4-10.9 8.5-13.2 6.1-3 13-1.3 19.5-1.9 2.8-0.7 3-5.2-0.1-5.4-5.8-0.2-11.6-0.5-17.3 0.4zm41.9-0.1c-2 1.1-1.7 4.3 0.4 5 6.7 0.8 13.9-1 20.3 1.9 6.2 2.8 8.8 9.9 8.6 16.4 0 7.9 1.3 17.5-5.4 23.3-6.3 6-15.4 3.2-23.1 4.2-3.1 0.5-2.5 5.5 0.5 5.5 5.1 0.3 10.3 0 15.4-0.3 7.4-0.5 14-5.9 16.5-12.8 2.7-6.6 1.7-13.9 1.8-20.8 0-7.6-3-15.9-10-19.7-6-4.1-13.6-3-20.5-3.2-1.5 0.2-3.2-0.3-4.5 0.5zm-44.8 19.3c-0.1 5.7-0.1 11.4 0.1 17-0.1 2.7 1.4 5.4 4 6.2 2.4 0.3 4.8 0.5 7.2 0.5 16.7-0.4 33.5 0.8 50.2-0.5 3.5-0.3 5-4.1 4.9-7.2 0-5.7 0.4-11.4-0.3-17.1-0.2-2.5-2.1-5-4.8-5.1-4.5-0.2-9.1 0.1-13.6 0-9.6-0.7-19.3-0.7-28.9-0.1-4.5 0.3-9-0.2-13.5 0.2-3.2 0.1-5.4 3.1-5.3 6.1z"/><path class="d" d="m680.5 271.9c2.9-7.2 14.7-7 17.3 0.2 1.5 4.5 0.6 9.4 0.7 14.1-6.3 0-12.6 0-19-0.1 0.2-4.7-0.6-9.7 1-14.2zm-543.6 92.9c2.5-7.3 14.7-7.4 17.4-0.3 1.5 4.6 0.7 9.6 0.8 14.3-6.3 0-12.6 0.1-18.9 0 0.1-4.7-0.5-9.5 0.7-14zm576.9 47.5c4.1-0.1 8.3-0.1 12.5 0.1 0.7 18.2 0 36.4 0.3 54.6-0.2 18.6 0.3 37.1-0.2 55.7l-2-0.1c-0.6-23.2 0.1-46.4-0.2-69.6-0.1-9.8 0.9-20.1-2.9-29.4-1.6-4.3-4.8-7.7-7.5-11.3zm92.8 602.2c4-0.6 8.1-0.3 12.2-0.3 0 5.8-0.1 11.6 0 17.4-4.7-0.3-9.9 0.9-14.3-1.3-6.3-3.3-5-14.5 2.1-15.8z"/><path class="e" d="m686.3 98.4c7.4-0.7 14.8-0.6 22.2 0.1-0.1 8.4 0 16.8-0.1 25.1-7.4 0.6-14.8 0.6-22.1 0.1-0.1-8.5 0-16.9 0-25.3zm-541.9 60.3c4.9-0.8 10.6-1.2 14.6 2.3 7.5 5.4 7.7 17.7 0.7 23.6-6.7 6.4-19 4.5-23.4-3.7-4.9-7.9-0.7-19.4 8.1-22.2zm528.2 31.1c4.1 0.1 8.2 0.4 12.4 0.3 12.4-0.7 24.8 0 37.3-0.3 0 16.2 0 32.4-0.1 48.6q-24.8-0.1-49.6 0c-0.1-16.2 0.1-32.4 0-48.6zm-351 41.9c11.2-0.5 22.4-0.1 33.5-0.2 6.8 0.2 10.7 8.6 7.5 14.3-1.4 2.8-4.4 4.9-7.6 4.8-11-0.1-22 0-33.1-0.1-7-0.6-10-10.3-5.7-15.4 1.3-1.8 3.3-2.9 5.4-3.4zm182 0.1c10.4-0.7 20.9-0.1 31.4-0.3 4.4-0.3 9.5 2 10.5 6.7 0 2.9 0.9 6.5-1.4 8.8-1.8 2.1-4.2 3.8-7.1 3.6q-15.5 0-31 0c-3 0.1-5.7-1.8-7.4-4.1-3-5.1-1-12.8 5-14.7zm43.5 95.2c-0.3-3.2 2.8-5.7 5.8-5.5 9-0.1 18.1-0.1 27.1-0.2 3.1-0.2 5.7 2.6 5.7 5.6 0.2 7 0.1 14 0.2 20.9-13-0.1-25.9-0.1-38.9-0.1 0.3-6.9 0.1-13.8 0.1-20.7zm-278.8 3.8c0-2.4 2.1-4.7 4.6-4.6 11.7-0.2 23.5 0 35.2-0.1 2.8-0.4 6 1.7 5.8 4.8 0 6.8 0 13.5 0.2 20.3-15.4 0-30.7 0-46 0 0.1-6.8 0-13.6 0.2-20.4zm351 617.2c18.6-0.5 37.2-0.3 55.8-0.2 0.4 14.8-0.6 29.5-0.1 44.3 0.5 11.6-0.3 23.2-0.1 34.9 0 13.4 0 26.9 0.3 40.3-18.7 0-37.4 0.2-56-0.1 0.2-39.8 0-79.5 0.1-119.2zm-334.1 51.7c36.4-0.1 72.9 0.2 109.3-0.1 0.4 21.4 0.1 42.9 0.2 64.4-11.6 0.2-23.2-0.3-34.7 0.1-10.3-0.3-20.7-0.1-31 0-14.6-0.6-29.2 0.5-43.8-0.2 0-21.4 0.1-42.8 0-64.2zm-116.7 17c9.6-0.6 19.3-0.6 28.9 0-0.1 9.8 0 19.6 0 29.4 4.6 0.1 9.2 0.2 13.8 0.1-16.7 1.3-33.5 0.1-50.2 0.5-2.4 0-4.8-0.2-7.2-0.5 4.9 0 9.8-0.2 14.7-0.2 0-9.7 0.1-19.5 0-29.3z"/><path class="f" d="m750.7 206.4c4.1-16.1 19.5-28.6 36.2-28.9 18.3 0 36.5 0.1 54.7 0 0.1 5.4 0.2 10.9 0.1 16.4-8.3 4-13.8 12.8-13.5 22-0.4 9.5 5.3 18.7 13.6 23.1 0 5.6 0 11.2-0.1 16.8-15.6-0.2-31.1 0-46.7 0-5.8-0.1-11.6 0.1-17.2-1.4-11-2.8-20.2-11.1-24.6-21.5-3.9-8.2-4.6-17.7-2.5-26.5zm34.9-12.4c-11.1 1.9-20.1 12.8-19.2 24.1 0.4 6.7 4.2 12.9 9.4 17.1 5.2 4 12.1 5.3 18.4 4 9-2 16.4-10 17.6-19.2 1.2-6.3-1-12.9-5-17.9-4.9-6.3-13.4-9.5-21.2-8.1zm-777.8-13.4c19.5 0.2 39.1-0.4 58.6 0.2 18.5 2.6 33.8 19.4 34 38.1 0.5 8.9-2.9 17.4-7.8 24.7-5.8 7.7-14.5 13.6-24.2 14.9-5.1 0.5-10.3 0.8-15.5 0.7-15 0.1-30 0-45.1 0.1q0-8.2 0.1-16.3c11.9-4.9 18-20 13.2-31.9-2.4-6.3-7.4-11.2-13.4-14.3 0-5.4 0-10.8 0.1-16.2zm48.6 16.9c-10.9 2-19.3 12.5-18.7 23.6 0.6 10 8.4 19.1 18.2 21.1 5.4 1 11.2 0.4 16.1-2.3 7.3-4.1 12.2-12.5 11.6-20.9 0-13.4-14.1-24.6-27.2-21.5zm705.2 112.1c7.2-6.3 16.7-10.5 26.4-10.2 17.9 0 35.9 0.1 53.9-0.1-0.1 5.4 0.1 10.7-0.1 16.1-12.6 5.7-17.1 22.6-10.8 34.5 2.3 4.6 6.3 8.2 10.8 10.7 0.4 5.6 0.1 11.3 0 17q-26.9 0-53.8-0.1c-9.4 0.3-18.8-3.6-25.8-9.8-8.1-7.6-13.2-18.5-12.8-29.7-0.2-10.6 4.5-21.1 12.2-28.4zm24 6.4c-10.2 1.6-18.5 10.7-19.1 21-0.6 8.5 4.1 16.8 11.3 21.2 6.8 4 15.7 4.1 22.6 0.2 7.3-4 11.8-12.2 11.8-20.4-0.3-6-2.8-11.9-7.1-16.1-5-5.1-12.6-7.1-19.5-5.9zm-777.8-13.5c18.4-0.2 36.8-0.2 55.2-0.1 7.1-0.1 14 2.5 19.9 6.2 5.4 4.1 10.3 9 13.4 15.1 4.9 9.9 5.7 21.8 1.5 32-3.6 9.5-11.3 17-20.2 21.5-4.6 2-9.6 3.4-14.6 3.4-18.4 0-36.8 0-55.1 0 0-5.4-0.3-10.8 0.2-16.1 9.2-3.9 15.3-13.6 14.7-23.5 0-9.7-6.2-18.8-15-22.8q0-7.9 0-15.7zm48.8 16.6c-10 1.7-18.2 10.7-18.9 20.8-0.7 9.6 5.6 19.4 14.6 22.8 5.5 2.2 11.9 2.3 17.3 0 9.2-3.7 15.2-13.9 14-23.7-1.1-12.8-14.5-22.6-27-19.9zm715 105.6c6.3-3.2 13.4-4.1 20.4-4 16.6 0 33.2 0.1 49.8 0 0.1 5.4 0.1 10.9 0 16.4-13 6.5-17.6 24.6-9.6 36.6 2.3 4.1 6.4 6.4 9.7 9.4 0.5 5.3 0.1 10.8 0.2 16.2q-26.5 0-53.1 0c-6.3 0.1-12.7-0.9-18.4-3.9-8.6-4-14.8-12-18.4-20.6-4.5-11.2-3.1-24.2 2.7-34.6 4-6.5 9.6-12.3 16.7-15.5zm10.7 13.7c-7.1 2.5-13 8.6-15 15.8-3.3 11.9 4.6 25.7 16.7 28.4 8 2.2 17.1-0.8 22.5-7.1 3.6-4.3 5.8-9.8 5.8-15.5-0.2-8.3-4.9-16.8-12.6-20.4-5.4-2.4-11.7-3-17.4-1.2zm-774.4-14.8c16 0 32.1-0.1 48.1 0 5.2 0 10.6-0.5 15.7 1.1 15.3 4.4 27.4 18.5 28.8 34.5 2.2 18.1-10.6 36.8-28.3 41.2-6.2 1.7-12.7 1.2-19.1 1.3-15 0-30 0.1-44.9 0.1 0-5.2-0.1-10.4 0-15.6 12.4-5.2 18.1-21 12.7-33.1-2.4-6-7.5-10.5-13.1-13.4 0-5.4 0-10.7 0.1-16.1zm45.4 17.9c-7.3 2.6-13.2 9-14.8 16.6-0.6 4.6-0.6 9.5 1.3 13.8 3.5 8.3 12.3 13.8 21.1 13.8 8.6 0.4 16.6-5.1 20.6-12.5 2.5-4.6 2.7-10.1 2-15.1-1.3-6.2-5.6-11.4-10.8-14.8-5.7-3.7-13.1-3.9-19.4-1.8zm712.5 108.2c6.8-4.6 14.9-7.3 23.2-7.2q26.5-0.1 53.1 0c0.1 5.3 0.1 10.6 0.1 15.8-4.9 3-9.6 6.9-11.7 12.3-3.5 8.2-2.6 18.1 2.6 25.4 2.3 3.3 5.8 5.5 9.1 7.7 0 5.6 0.1 11.2 0 16.8-17.7 0.2-35.5 0.1-53.2 0.1-11.9 0.4-23.5-5.5-30.9-14.6-5.4-7.1-8.6-16-8.4-24.9 0-12.3 6.2-24.2 16.1-31.4zm19.7 9.1c-10.4 1.8-18.6 11.6-18.9 22.1-0.6 11.2 8.2 22 19.4 23.5 5.7 0.8 11.7-0.7 16.5-3.9 6.4-4.2 10-12 9.9-19.5-0.4-6.7-3.3-13.6-8.9-17.6-5.1-3.9-11.7-5.7-18-4.6zm-777.3-13.5q25.4 0 50.8-0.1c6.4-0.3 13 0.5 18.9 3.4 2.2 1.2 4.4 2.6 6.7 3.8 9.9 7.3 16.5 19.2 16.2 31.6 0.9 21.5-19.4 41.1-40.8 39.5-17.2 0.1-34.5 0-51.7 0.1q0-7.8-0.1-15.7c5.1-2.4 9.7-6.3 12.2-11.5 5-10.3 2.6-24-6.4-31.4-1.8-1.5-4.2-2.3-5.7-4-0.4-5.2 0-10.5-0.1-15.7zm46.1 17.2c-7.6 2.2-14 8.5-15.7 16.4-1 5.5-0.7 11.5 2.2 16.4 4.1 8.1 13.4 12.7 22.3 12.1 7.4-0.6 14.2-5.1 17.8-11.4 3.2-5 3.4-11.3 2.5-17-2.8-12.3-16.9-20.7-29.1-16.5zm696.8 139.5c-0.1-19.6 17.3-37.2 36.9-37.7 18.1-0.1 36.3 0.1 54.4-0.1 0.1 5.3 0 10.6-0.1 15.9-5.9 3.5-11 8.8-12.6 15.6-3.7 11.4 2.3 24.3 12.7 29.9 0.3 5.7 0.2 11.4 0.1 17.1-20-0.5-40.2 0.5-60.2-0.5-6.7-1.8-13.3-4.3-18.4-9.1-8.7-7.7-13.4-19.5-12.8-31.1zm35.4-21.1c-13.1 2.2-22.5 17.5-17.4 30.1 3 9.5 12.8 16.2 22.9 15.5 11.5-0.4 21.8-10.8 21.7-22.5 0.4-7-3.1-13.8-8.3-18.4-5.2-4.3-12.3-5.8-18.9-4.7zm-778.2-14.5q27.3 0.2 54.6 0c11.4-0.2 22.5 5.4 29.7 14.1 8.3 10.4 11.3 25.1 6.7 37.7-4.3 11.4-13.5 21.1-25.3 24.6-7.1 2.4-14.6 1.8-22 1.9-14.5 0-29-0.1-43.6 0 0.1-5.3 0.1-10.5 0.1-15.8 9.9-4.1 16-15.2 14.8-25.8-0.8-8.9-6.8-16.9-14.9-20.4-0.1-5.4-0.1-10.8-0.1-16.3zm49.3 16.6c-4.5 1-9 3-12.2 6.4-6.9 6.6-8.8 17.9-4.1 26.4 3.3 6.5 9.9 11.2 17.1 12.5 6.8 1.1 13.9-1.4 19-5.9 5.1-4.6 8-11.6 7.3-18.5-0.6-13-14.2-23.8-27.1-20.9zm670-16.5c1.9-0.2 3.9-0.2 5.8 0 0.1 8.9 0.4 17.9-0.1 26.7-2.2 0.5-5.7 0.7-5.7-2.3q-0.2-12.2 0-24.4zm32.1 134.1c6.4-8.4 16.5-13.3 26.8-14.9 18.7-0.4 37.4 0 56.1-0.1 0.1 5.5 0.1 11.1 0 16.6-12.8 5.7-17.4 23-10.6 34.8 2.3 4.5 6.4 7.8 10.7 10.3q0.3 8.4 0.1 16.8c-17.9-0.1-35.8 0.1-53.8 0-10.2 0-20.3-4.4-27.2-11.9-13.3-13.5-14.3-37.1-2.1-51.6zm28 1.6c-6.3 0.9-12.2 4.5-15.7 9.8-7.3 10.1-4.1 25.9 6.5 32.5 7 4.3 16.5 4.7 23.8 0.7 6.8-4.2 12-12 11.5-20.2 0.7-13.5-12.8-25.4-26.1-22.8zm-779.2-13.9c18.1 0.3 36.3 0 54.5 0 6.3 0 12.5 1.6 18.1 4.6 16 8.4 24.6 28.9 18.7 46.1-3.9 12.4-14.2 22.2-26.5 26.2-5.5 2-11.5 1.5-17.3 1.5q-23.7-0.1-47.3 0.1c-0.1-5.3-0.1-10.6-0.1-15.8 12.5-4.9 18.3-20.8 13-32.9q-0.8-2.2-2.1-4.3-1.3-2.1-3-3.8-1.7-1.8-3.7-3.1-2-1.4-4.2-2.3c-0.2-5.4-0.1-10.9-0.1-16.3zm49.9 16.4c-11.9 1.5-20.9 13.5-19.5 25.3 1 8.7 7.2 16.6 15.6 19.2 7.3 2.5 15.8 1 21.9-3.8 5.9-4.9 9.2-12.8 8.3-20.4-0.7-12.7-13.9-22.6-26.3-20.3zm718 106c8.1-3.4 17.1-2.3 25.6-2.5 13.6-0.2 27.3 0.3 40.9-0.3 0.4 5.3-0.1 10.6 0 15.9-4.9 3-9.7 6.7-11.8 12.3-4.5 9.8-2.1 22.6 6.4 29.4 1.7 1.6 4 2.5 5.5 4.4 0.3 5.5 0.1 11 0.1 16.4-13 0.2-26.1 0-39.1 0.1-6 0-12 0.3-18-0.2-13.5-1.3-25.8-10.5-31.3-22.8-2.6-5.7-3.4-12.2-3.2-18.4 0.5-15 11-28.9 24.9-34.3zm9.1 14.1c-9.8 2.5-17.2 12.1-17.2 22.2-0.5 10.8 8 21 18.6 22.9 11.5 2.5 24.1-5.4 26.7-16.8 2.9-10.1-2.3-21.7-11.7-26.3-4.9-2.9-10.9-3.1-16.4-2zm-776.8-15.8c18.8 0.4 37.6-0.3 56.3 0.1 16.8 0.5 31.9 13.8 35.3 30.1 2.9 11.8-0.2 24.7-8 34.1-5.7 7.2-14.1 11.5-22.8 13.9-5.1 0.8-10.3 0.4-15.5 0.4-15 0-30.1 0.2-45.2 0.1q0-7.9 0-15.8c8.1-3.9 14.1-11.9 14.6-21 1-10.4-4.9-21-14.6-25.1-0.1-5.6-0.1-11.2-0.1-16.8zm46.8 16.8c-5.7 1.7-11 5.5-13.9 10.8-4.9 8.8-3.5 20.9 3.8 27.9 4.4 4.2 10.4 6.9 16.6 6.9 11.6-0.3 22.8-10.4 22.7-22.3 0.4-8.8-4.6-17.3-12.3-21.4-5.1-3-11.3-3-16.9-1.9z"/></svg>